<?xml version="1.0" encoding="UTF-8" standalone="no"?>
<svg
   xmlns:dc="http://purl.org/dc/elements/1.1/"
   xmlns:cc="http://creativecommons.org/ns#"
   xmlns:rdf="http://www.w3.org/1999/02/22-rdf-syntax-ns#"
   xmlns:svg="http://www.w3.org/2000/svg"
   xmlns="http://www.w3.org/2000/svg"
   xmlns:sodipodi="http://sodipodi.sourceforge.net/DTD/sodipodi-0.dtd"
   xmlns:inkscape="http://www.inkscape.org/namespaces/inkscape"
   inkscape:version="1.0 (4035a4f, 2020-05-01)"
   sodipodi:docname="function.svg"
   id="svg1230"
   viewBox="0 0 24 24"
   height="24"
   width="24"
   version="1.1">
  <metadata
     id="metadata1236">
    <rdf:RDF>
      <cc:Work
         rdf:about="">
        <dc:format>image/svg+xml</dc:format>
        <dc:type
           rdf:resource="http://purl.org/dc/dcmitype/StillImage" />
      </cc:Work>
    </rdf:RDF>
  </metadata>
  <defs
     id="defs1234" />
  <sodipodi:namedview
     inkscape:current-layer="layer10"
     inkscape:window-maximized="0"
     inkscape:window-y="23"
     inkscape:window-x="0"
     inkscape:cy="12"
     inkscape:cx="12"
     inkscape:zoom="49.416667"
     showgrid="false"
     id="namedview1232"
     inkscape:window-height="1360"
     inkscape:window-width="2225"
     inkscape:pageshadow="2"
     inkscape:pageopacity="0"
     guidetolerance="10"
     gridtolerance="10"
     objecttolerance="10"
     borderopacity="1"
     bordercolor="#666666"
     pagecolor="#ffffff" />
  <g
     inkscape:label="Layer 1"
     id="layer9"
     inkscape:groupmode="layer">
    <path
       style="fill:#ffffff;stroke-width:0.868342"
       sodipodi:nodetypes="sssssssss"
       fill="#ffffff"
       d="M 5.9623384,3.9713322 H 17.916245 c 0.943136,0 1.707701,0.7907371 1.707701,1.7661608 v 12.363125 c 0,0.975423 -0.764565,1.766161 -1.707701,1.766161 H 5.9623384 c -0.9431372,0 -1.707701,-0.790738 -1.707701,-1.766161 V 5.737493 c 0,-0.9754237 0.7645638,-1.7661608 1.707701,-1.7661608 z"
       id="path1238" />
  </g>
  <g
     inkscape:label="Layer 2"
     id="layer10"
     inkscape:groupmode="layer">
    <path
       id="path1228"
       d="M9,7V17H11V13H14V11H11V9H15V7H9M5,3H19A2,2 0 0,1 21,5V19A2,2 0 0,1 19,21H5A2,2 0 0,1 3,19V5A2,2 0 0,1 5,3Z"
       fill="darkorange" />
  </g>
</svg>
