<?xml version="1.0" encoding="UTF-8" standalone="no"?>
<svg
   xmlns:dc="http://purl.org/dc/elements/1.1/"
   xmlns:cc="http://creativecommons.org/ns#"
   xmlns:rdf="http://www.w3.org/1999/02/22-rdf-syntax-ns#"
   xmlns:svg="http://www.w3.org/2000/svg"
   xmlns="http://www.w3.org/2000/svg"
   xmlns:sodipodi="http://sodipodi.sourceforge.net/DTD/sodipodi-0.dtd"
   xmlns:inkscape="http://www.inkscape.org/namespaces/inkscape"
   inkscape:version="1.0 (4035a4f, 2020-05-01)"
   sodipodi:docname="path.svg"
   id="svg1532"
   viewBox="0 0 24 24"
   height="24"
   width="24"
   version="1.1">
  <metadata
     id="metadata1538">
    <rdf:RDF>
      <cc:Work
         rdf:about="">
        <dc:format>image/svg+xml</dc:format>
        <dc:type
           rdf:resource="http://purl.org/dc/dcmitype/StillImage" />
      </cc:Work>
    </rdf:RDF>
  </metadata>
  <defs
     id="defs1536" />
  <sodipodi:namedview
     inkscape:current-layer="layer20"
     inkscape:window-maximized="0"
     inkscape:window-y="23"
     inkscape:window-x="0"
     inkscape:cy="12"
     inkscape:cx="12"
     inkscape:zoom="43.083333"
     showgrid="false"
     id="namedview1534"
     inkscape:window-height="1216"
     inkscape:window-width="2117"
     inkscape:pageshadow="2"
     inkscape:pageopacity="0"
     guidetolerance="10"
     gridtolerance="10"
     objecttolerance="10"
     borderopacity="1"
     bordercolor="#666666"
     pagecolor="#ffffff" />
  <g
     inkscape:label="Layer 1"
     id="layer19"
     inkscape:groupmode="layer">
    <path
       style="fill:#ffffff;stroke-width:0.852347"
       sodipodi:nodetypes="sssssssss"
       fill="#ffffff"
       d="M 6.2198582,4.2998066 H 18.197937 c 0.945044,0 1.711154,0.7603365 1.711154,1.6982592 V 17.885881 c 0,0.937922 -0.76611,1.698259 -1.711154,1.698259 H 6.2198582 c -0.9450443,0 -1.7111541,-0.760337 -1.7111541,-1.698259 V 5.9980658 c 0,-0.9379227 0.7661098,-1.6982592 1.7111541,-1.6982592 z"
       id="path1540" />
  </g>
  <g
     inkscape:label="Layer 2"
     id="layer20"
     inkscape:groupmode="layer">
    <path
       id="path1530"
       d="M9,7V17H11V13H13A2,2 0 0,0 15,11V9A2,2 0 0,0 13,7H9M11,9H13V11H11V9M5,3H19A2,2 0 0,1 21,5V19A2,2 0 0,1 19,21H5A2,2 0 0,1 3,19V5A2,2 0 0,1 5,3Z"
       fill="lightgreen" />
  </g>
</svg>
