<?xml version="1.0" encoding="UTF-8" standalone="no"?>
<svg
   xmlns:dc="http://purl.org/dc/elements/1.1/"
   xmlns:cc="http://creativecommons.org/ns#"
   xmlns:rdf="http://www.w3.org/1999/02/22-rdf-syntax-ns#"
   xmlns:svg="http://www.w3.org/2000/svg"
   xmlns="http://www.w3.org/2000/svg"
   xmlns:sodipodi="http://sodipodi.sourceforge.net/DTD/sodipodi-0.dtd"
   xmlns:inkscape="http://www.inkscape.org/namespaces/inkscape"
   inkscape:version="1.0 (4035a4f, 2020-05-01)"
   sodipodi:docname="refresh-24px.svg"
   id="svg150"
   version="1.1"
   width="24"
   viewBox="0 0 24 24"
   height="24">
  <metadata
     id="metadata156">
    <rdf:RDF>
      <cc:Work
         rdf:about="">
        <dc:format>image/svg+xml</dc:format>
        <dc:type
           rdf:resource="http://purl.org/dc/dcmitype/StillImage" />
      </cc:Work>
    </rdf:RDF>
  </metadata>
  <defs
     id="defs154" />
  <sodipodi:namedview
     inkscape:current-layer="svg150"
     inkscape:window-maximized="0"
     inkscape:window-y="23"
     inkscape:window-x="0"
     inkscape:cy="12"
     inkscape:cx="5.632287"
     inkscape:zoom="27.875"
     showgrid="false"
     id="namedview152"
     inkscape:window-height="1165"
     inkscape:window-width="1525"
     inkscape:pageshadow="2"
     inkscape:pageopacity="0"
     guidetolerance="10"
     gridtolerance="10"
     objecttolerance="10"
     borderopacity="1"
     bordercolor="#666666"
     pagecolor="#ffffff" />
  <path
     id="path146"
     fill="none"
     d="M0 0h24v24H0z" />
  <path
     id="path148"
     d="m 4.0182289,12.009226 c 0,-2.0506093 0.7707464,-4.0941483 2.3334524,-5.6568543 3.125412,-3.125412 8.1812257,-3.118341 11.3066377,0.0071 3.125412,3.125412 3.132483,8.1812253 0.0071,11.3066373 -2.637538,2.63748 -6.639762,3.033459 -9.7086053,1.223266 l 1.4707821,-1.470782 c 2.2273862,1.067731 4.9780322,0.678823 6.8235802,-1.166726 2.340524,-2.340523 2.340524,-6.144758 0,-8.4852813 -2.340523,-2.340524 -6.144758,-2.340524 -8.4852812,0 C 6.5920976,8.9403827 6.0334832,10.474805 6.0405543,12.009226 H 10.594322 L 5.6445745,16.958974 0.69482703,12.009226 Z" />
</svg>
