<?xml version="1.0" encoding="UTF-8" standalone="no"?>
<svg
   xmlns:dc="http://purl.org/dc/elements/1.1/"
   xmlns:cc="http://creativecommons.org/ns#"
   xmlns:rdf="http://www.w3.org/1999/02/22-rdf-syntax-ns#"
   xmlns:svg="http://www.w3.org/2000/svg"
   xmlns="http://www.w3.org/2000/svg"
   id="svg9325"
   x="0px"
   y="0px"
   version="1.1"
   viewBox="0 0 48 48"
   xml:space="preserve"
   enable-background="new 0 0 48 48"><metadata
     id="metadata9441"><rdf:RDF><cc:Work
         rdf:about=""><dc:format>image/svg+xml</dc:format><dc:type
           rdf:resource="http://purl.org/dc/dcmitype/StillImage" /><dc:title></dc:title></cc:Work></rdf:RDF></metadata><defs
     id="defs9327"><linearGradient
       x1="21"
       y1="39"
       gradientTransform="matrix(1.3213999,0,0,1.3213999,-7.7137347,-7.7135985)"
       x2="21"
       gradientUnits="userSpaceOnUse"
       y2="31"
       id="linearGradient4030"><stop
         id="stop9330"
         offset="0"
         stop-color="#FFF" /><stop
         id="stop9332"
         offset="0.10296"
         stop-color="#FEFDF6" /><stop
         id="stop9334"
         offset="0.2235"
         stop-color="#FCF6DE" /><stop
         id="stop9336"
         offset="0.3985"
         stop-color="#F9ECB6" /><stop
         id="stop9338"
         offset="0.65276"
         stop-color="#F5DE7F" /><stop
         id="stop9340"
         offset="0.8298"
         stop-color="#EFCD39" /><stop
         id="stop9342"
         offset="1"
         stop-color="#EBBE00" /></linearGradient></defs><radialGradient
     r="27.328"
     gradientTransform="matrix(1.3213999,0,0,1.3213999,-7.7137347,-7.7135985)"
     cx="17.314"
     cy="13.761"
     gradientUnits="userSpaceOnUse"
     id="SVGID_1_"><stop
       id="stop9345"
       offset="0"
       stop-color="#FFD773" /><stop
       id="stop9347"
       offset="0.0134"
       stop-color="#FFD46E" /><stop
       id="stop9349"
       offset="0.1128"
       stop-color="#FDC450" /><stop
       id="stop9351"
       offset="0.2174"
       stop-color="#FCB738" /><stop
       id="stop9353"
       offset="0.3282"
       stop-color="#FBAD27" /><stop
       id="stop9355"
       offset="0.4492"
       stop-color="#FAA81D" /><stop
       id="stop9357"
       offset="0.6"
       stop-color="#FAA61A" /><stop
       id="stop9359"
       offset="0.6747"
       stop-color="#F7A01B" /><stop
       id="stop9361"
       offset="0.7723"
       stop-color="#ED901F" /><stop
       id="stop9363"
       offset="1"
       stop-color="#DD7525" /></radialGradient><path
     style="fill:none;stroke:black;stroke-width:0.10337888;stroke-miterlimit:4;stroke-dasharray:none;stroke-opacity:0.54222221"
     id="path9365"
     stroke-miterlimit="4"
     d="M 23.904885,45.949402 C 11.778543,45.949402 1.9523816,36.121173 1.9523816,24 c 0,-12.124274 9.8272994,-21.9494022 21.9525034,-21.9494022 12.121173,0 21.948369,9.8272992 21.948369,21.9494022 0,12.122103 -9.825956,21.949402 -21.948369,21.949402 z" /><path
     style="fill:url(#SVGID_1_)"
     id="path9367"
     d="M 23.904885,45.949402 C 11.778543,45.949402 1.9523816,36.121173 1.9523816,24 c 0,-12.124274 9.8272994,-21.9494022 21.9525034,-21.9494022 12.121173,0 21.948369,9.8272992 21.948369,21.9494022 0,12.122103 -9.825956,21.949402 -21.948369,21.949402 z" /><path
     style="fill:none;stroke:#c85528;stroke-width:1.26830232;stroke-linecap:round;stroke-linejoin:round;stroke-miterlimit:10"
     id="path9369"
     stroke-miterlimit="10"
     d="m 20.076765,35.892705 c -2.017852,0 -6.596709,0.08094 -11.9340566,-2.642777 3.3136026,5.950591 7.9513856,7.928436 11.8927056,7.928436 4.065167,0 9.817891,-1.895245 13.213887,-7.928436 -5.285555,2.682475 -11.253824,2.642777 -13.172536,2.642777 z" /><path
     style="fill:#232323"
     id="path9371"
     d="m 42.401433,12.177592 c -1.691382,0.01189 -3.544035,0.82455 -5.592177,2.381126 -3.088133,-1.993972 -8.326134,-1.738936 -11.647697,0.817944 -0.30656,-0.05021 -0.67127,-0.07796 -0.887983,-0.303924 -2.578063,-2.708836 -5.279043,-2.842299 -8.971012,-0.03568 -3.12411,-2.010719 -8.5709358,-1.595136 -11.6301234,1.320148 -0.1996246,0.18815 -0.3845694,0.386637 -0.5616574,0.592361 -0.7505306,2.211274 -1.1561893,4.582786 -1.1561893,7.051473 0,1.65706 0.1863197,3.271735 0.5338485,4.824382 0.1109979,0.138745 0.2272784,0.276177 0.3514881,0.405669 3.066941,3.220252 9.1295955,2.884581 12.6535745,-0.475708 3.010186,-2.86742 3.954965,-7.870234 2.205381,-11.060506 2.021781,-1.524942 3.497721,-1.762713 4.944715,-0.24446 0.103069,0.107039 0.274853,0.191603 0.362064,0.329024 -2.297906,3.702514 -2.149867,8.956436 0.589342,11.832746 3.255918,3.411813 9.680604,3.056396 13.417544,-0.504778 3.191202,-3.043164 4.194081,-8.349912 2.340187,-11.730401 2.143355,-1.618707 3.793695,-1.916024 5.329181,-0.307883 0.02907,0.03172 0.05682,0.06739 0.08589,0.09911 -0.578777,-1.773361 -1.378247,-3.448822 -2.366652,-4.990925 z M 12.911576,26.047935 c -2.145939,2.046799 -5.9978356,2.595224 -7.6455914,0.866843 -1.6226348,-1.701927 -1.136444,-5.783738 1.0095463,-7.833224 2.1472826,-2.044214 6.2489431,-2.336259 7.8715771,-0.630312 1.646412,1.725704 0.910448,5.551239 -1.23548,7.596693 z m 21.368413,0.18632 c -2.279401,2.17106 -6.362556,2.753807 -8.112037,0.91969 -1.721775,-1.804995 -1.206431,-6.135226 1.071625,-8.303702 2.274129,-2.171059 6.626793,-2.477578 8.34464,-0.67127 1.74824,1.831461 0.967264,5.886807 -1.304228,8.055282 z" /><linearGradient
     x1="25.211"
     y1="25.959"
     gradientTransform="matrix(1.3213999,0,0,1.3213999,-7.7137347,-7.7135985)"
     x2="32.171"
     gradientUnits="userSpaceOnUse"
     y2="18.999"
     id="SVGID_5_"><stop
       id="stop9374"
       offset="0.05"
       stop-color="#AABEB4" /><stop
       id="stop9376"
       offset="0.0609"
       stop-color="#ACC1B6" /><stop
       id="stop9378"
       offset="0.1592"
       stop-color="#BED5C6" /><stop
       id="stop9380"
       offset="0.2563"
       stop-color="#C9E2CF" /><stop
       id="stop9382"
       offset="0.35"
       stop-color="#CDE6D2" /><stop
       id="stop9384"
       offset="0.4837"
       stop-color="#AECCCA" /><stop
       id="stop9386"
       offset="0.7742"
       stop-color="#5F8AB6" /><stop
       id="stop9388"
       offset="1"
       stop-color="#1E54A6" /></linearGradient><path
     style="fill:url(#SVGID_5_)"
     id="path9390"
     d="m 33.719675,25.677839 c -2.2794,2.172404 -6.362556,2.753807 -8.109452,0.91969 -1.719191,-1.803755 -1.206431,-6.135226 1.072969,-8.305046 2.274129,-2.169715 6.625449,-2.477578 8.34464,-0.669946 1.746896,1.832804 0.968587,5.885566 -1.308157,8.055281 z" /><radialGradient
     r="4.1876"
     gradientTransform="matrix(1.3213999,0,0,1.3213999,-7.7137347,-7.7135985)"
     cx="28.667"
     cy="22.436"
     gradientUnits="userSpaceOnUse"
     id="SVGID_6_"><stop
       id="stop9393"
       offset="0.15"
       stop-color="#E6F0E6" /><stop
       id="stop9395"
       offset="0.85"
       stop-color="#A0DCE6" /></radialGradient><path
     style="opacity:0.4;fill:url(#SVGID_6_)"
     id="path9397"
     d="m 28.749219,20.36003 c 1.809027,-1.724463 4.927451,-2.271441 6.994201,-1.514294 -0.15725,-0.466456 -0.392457,-0.88269 -0.716198,-1.222248 -1.719191,-1.807683 -6.070511,-1.499821 -8.34464,0.669947 -2.2794,2.171059 -2.790816,6.50129 -1.072969,8.305045 0.358104,0.375275 0.816621,0.643523 1.335965,0.82455 -0.73338,-2.102313 -0.05021,-5.297444 1.803755,-7.062845 z" /><path
     style="fill:#dcebeb"
     id="path9399"
     d="m 26.859453,20.992709 c 0.03832,0.01189 0.07928,0.01849 0.120251,0.01849 0.173097,0 0.338276,-0.113644 0.392457,-0.290712 0.17839,-0.607847 0.928942,-1.754856 2.295321,-2.209413 0.212743,-0.07268 0.327711,-0.303923 0.255025,-0.51799 -0.07268,-0.21539 -0.306559,-0.329034 -0.521949,-0.256349 -1.671533,0.574808 -2.549013,1.892247 -2.815937,2.743262 -0.06607,0.216713 0.0555,0.446638 0.274853,0.512708 z" /><path
     style="fill:#232323"
     id="path9401"
     d="m 35.128729,17.747646 c -0.03568,-0.03965 -0.06211,-0.08456 -0.100422,-0.12421 -1.719191,-1.807683 -6.070511,-1.499821 -8.344639,0.669947 -2.279401,2.17106 -2.790816,6.50129 -1.072969,8.305045 0.06607,0.07268 0.14535,0.133462 0.220672,0.196885 -1.593585,-1.869814 -1.059737,-6.057278 1.170766,-8.180784 2.189564,-2.083808 6.283264,-2.445944 8.126613,-0.866842 z" /><linearGradient
     x1="9.4355"
     y1="25.957"
     gradientTransform="matrix(1.3213999,0,0,1.3213999,-7.7137347,-7.7135985)"
     x2="16.396"
     gradientUnits="userSpaceOnUse"
     y2="18.997"
     id="SVGID_7_"><stop
       id="stop9404"
       offset="0.05"
       stop-color="#AABEB4" /><stop
       id="stop9406"
       offset="0.0609"
       stop-color="#ACC1B6" /><stop
       id="stop9408"
       offset="0.1592"
       stop-color="#BED5C6" /><stop
       id="stop9410"
       offset="0.2563"
       stop-color="#C9E2CF" /><stop
       id="stop9412"
       offset="0.35"
       stop-color="#CDE6D2" /><stop
       id="stop9414"
       offset="0.4837"
       stop-color="#AECCCA" /><stop
       id="stop9416"
       offset="0.7742"
       stop-color="#5F8AB6" /><stop
       id="stop9418"
       offset="1"
       stop-color="#1E54A6" /></linearGradient><path
     style="fill:url(#SVGID_7_)"
     id="path9420"
     d="m 12.876427,25.677839 c -2.276816,2.172404 -6.3598682,2.753807 -8.1094523,0.91969 -1.7217751,-1.803755 -1.2077753,-6.135226 1.069041,-8.305046 2.2768162,-2.169715 6.6281363,-2.477578 8.3473273,-0.669946 1.74824,1.832804 0.967264,5.885566 -1.306916,8.055281 z" /><radialGradient
     r="4.1876"
     gradientTransform="matrix(1.3213999,0,0,1.3213999,-7.7137347,-7.7135985)"
     cx="12.893"
     cy="22.436"
     gradientUnits="userSpaceOnUse"
     id="SVGID_8_"><stop
       id="stop9423"
       offset="0.15"
       stop-color="#E6F0E6" /><stop
       id="stop9425"
       offset="0.85"
       stop-color="#A0DCE6" /></radialGradient><path
     style="opacity:0.4;fill:url(#SVGID_8_)"
     id="path9427"
     d="M 7.9052472,20.36003 C 9.7130335,18.634637 12.833008,18.087762 14.899552,18.845529 14.740348,18.378257 14.506712,17.962674 14.183136,17.622557 12.463945,15.815495 8.1126252,16.123564 5.8359123,18.292452 3.559096,20.464443 3.0450962,24.79395 4.7668714,26.597911 5.1249758,26.973176 5.5835645,27.240928 6.1014926,27.422874 5.366779,25.320148 6.0525944,22.124707 7.9052472,20.36003 Z" /><path
     style="fill:#dcebeb"
     id="path9429"
     d="m 6.0130003,20.992709 c 0.042285,0.01189 0.081927,0.01849 0.1202503,0.01849 0.1783906,0 0.3382763,-0.113644 0.3924572,-0.290712 0.18235,-0.607847 0.9276186,-1.754856 2.2953211,-2.209413 0.2140666,-0.07268 0.327711,-0.303923 0.2576719,-0.51799 C 9.005922,17.777026 8.772079,17.663309 8.5566374,17.735675 6.8851045,18.310482 6.006384,19.627921 5.7381159,20.478936 c -0.062106,0.216713 0.060785,0.446638 0.2748534,0.512708 z" /><path
     style="fill:#232323"
     id="path9431"
     d="m 14.283413,17.747646 c -0.03435,-0.03965 -0.06342,-0.08456 -0.100422,-0.12421 -1.71919,-1.807683 -6.0705105,-1.499821 -8.3473268,0.669947 -2.2768163,2.17106 -2.7908161,6.50129 -1.069041,8.305045 0.068713,0.07268 0.1427146,0.133462 0.2206726,0.196885 -1.5908975,-1.870124 -1.0583929,-6.058002 1.1708691,-8.181404 2.1855327,-2.084118 6.2818171,-2.445944 8.1250621,-0.866315 z" /><path
     style="fill:#3c3c3c"
     id="path9433"
     d="m 46.104464,13.633167 c -2.735405,-2.871865 -5.932913,-2.609283 -9.85304,0.368028 -3.087927,-1.995212 -8.327168,-1.738832 -11.648731,0.816694 -0.164373,-0.230535 -0.351489,-0.46107 -0.568584,-0.686436 -2.579303,-2.70956 -5.594865,-2.461451 -9.287558,0.345285 -3.122042,-2.012786 -8.5710391,-1.59617 -11.6311571,1.319115 -3.52149794,3.358986 -3.87960236,9.675332 -0.8311558,12.875838 3.066941,3.220252 9.1269069,2.88334 12.6535739,-0.475708 3.010186,-2.86742 3.953622,-7.870234 2.205382,-11.060506 2.02178,-1.524941 3.578356,-1.806339 5.024006,-0.290711 0.101745,0.108351 0.195572,0.237854 0.285419,0.375275 -2.297906,3.702515 -2.153899,8.956436 0.588019,11.832746 3.253333,3.411813 9.680604,3.056396 13.41651,-0.506101 3.193787,-3.04182 4.195425,-8.347328 2.340187,-11.728334 2.142011,-1.618706 3.793695,-1.916024 5.329181,-0.306559 0.684482,0.716198 1.030688,2.029637 1.298956,3.163393 l 2.350835,-1.117525 c 0.06872,-1.955722 -0.281459,-3.463399 -1.672877,-4.923523 z M 12.35333,25.490723 c -2.144078,2.046902 -5.9981456,2.59481 -7.6459015,0.866315 -1.6213942,-1.70265 -1.1337561,-5.783014 1.0094947,-7.833017 2.1472826,-2.0438 6.2497698,-2.336362 7.8728178,-0.630611 1.643828,1.727047 0.911761,5.551239 -1.236825,7.596693 z m 21.367379,0.187643 c -2.279401,2.172404 -6.362556,2.753807 -8.109452,0.91969 -1.719191,-1.803755 -1.206432,-6.135226 1.072969,-8.305045 2.274129,-2.169716 6.625449,-2.477578 8.344639,-0.669947 1.746897,1.832804 0.968588,5.885566 -1.308156,8.055282 z" /><path
     style="fill:#7d7d7d"
     id="path9435"
     d="M 2.762355,19.308667 C 2.5139356,19.208389 2.3976344,18.928233 2.5007031,18.682191 2.9077057,17.69699 4.0784714,15.702812 6.74637,15.031883 c 0.2589951,-0.06342 0.5245961,0.0925 0.5919888,0.350175 0.062131,0.257413 -0.093765,0.518962 -0.3554166,0.582023 -2.2569675,0.562919 -3.228212,2.243735 -3.5836286,3.084102 l 0,0.0013 c -0.079284,0.184996 -0.2589951,0.295994 -0.4505975,0.295994 -0.062106,0.0013 -0.125533,-0.01058 -0.1863197,-0.037 z M 23.46294,19.015319 c 0.04758,0.01453 0.0925,0.02114 0.138745,0.02114 0.203491,0 0.392457,-0.130816 0.457204,-0.334317 0.20746,-0.708269 1.078241,-2.037598 2.662626,-2.563486 0.247096,-0.08325 0.379245,-0.354135 0.295994,-0.601241 -0.08325,-0.249743 -0.354134,-0.383205 -0.602554,-0.297318 -1.939801,0.665988 -2.962528,2.193493 -3.266462,3.181899 -0.0806,0.251065 0.06079,0.516666 0.314489,0.593312 z m -7.199304,-3.852931 c -0.154603,-0.186319 -0.117604,-0.454557 0.08193,-0.599918 0.615776,-0.447951 1.102018,-0.732056 1.960993,-1.034615 0.236531,-0.08325 0.499486,0.02642 0.589343,0.247106 0.08986,0.220673 -0.02775,0.467779 -0.264278,0.55102 -0.798126,0.290712 -1.133756,0.487597 -1.725704,0.914407 -0.08325,0.05946 -0.18235,0.08986 -0.281459,0.08986 -0.136109,-0.0013 -0.270884,-0.05814 -0.360741,-0.167815 z" /><path
     style="fill:url(#linearGradient4030);stroke-miterlimit:10"
     id="path9437"
     stroke-miterlimit="10"
     d="m 20.076765,35.892705 c -2.017852,0 -6.596709,0.08094 -11.9340566,-2.642777 3.3136026,5.950591 7.9513856,7.928436 11.8927056,7.928436 4.065167,0 9.817891,-1.895245 13.213887,-7.928436 -5.285555,2.682475 -11.253824,2.642777 -13.172536,2.642777 z" /></svg>