<?xml version="1.0" encoding="utf-8"?>
<!-- Generator: Adobe Illustrator 16.2.0, SVG Export Plug-In . SVG Version: 6.00 Build 0)  -->
<!DOCTYPE svg PUBLIC "-//W3C//DTD SVG 1.1//EN" "http://www.w3.org/Graphics/SVG/1.1/DTD/svg11.dtd">
<svg version="1.1" id="Layer_1" xmlns="http://www.w3.org/2000/svg" xmlns:xlink="http://www.w3.org/1999/xlink" x="0px" y="0px"
	 width="48px" height="48px" viewBox="0 0 48 48" enable-background="new 0 0 48 48" xml:space="preserve">
<g>
	<circle fill="#333333" cx="26.189" cy="14.859" r="3"/>
	<path fill="#333333" d="M20.896,25.902c0.735-1.002,1.477-1.985,2.168-3.022c0.584-0.875,1.155-1.683,1.482-2.638
		c0.369-1.075-1.838-3.864-2.357-4.384c-1-1-2.104-0.999-2.104-0.999c-1.021-0.11-2.583-0.101-3.536-0.079
		c-0.89,0.021-1.699-0.015-2.198,0.957c-0.255,0.496-0.287,1.512-0.287,1.887L14,19.859v0.915l-2.829-2.236
		c-0.328-0.251-0.753-0.188-1.004,0.14c-0.251,0.329-0.166,0.8,0.164,1.051l3.432,2.615c-0.11,0.153-0.202,0.314-0.286,0.481
		c-0.119,0.241-0.302,0.551-0.354,0.814c-0.257,1.32,0.084,2.66,0.157,3.994c0.046,0.864,0.125,1.981-0.187,2.812
		c-0.313,0.836-1.104,2.063-1.448,2.845c-0.322,0.733-0.936,2.11,0.064,2.507c0.906,0.359,1.439-0.203,1.875-0.938
		c0.396-0.667,0.896-1.834,1.334-2.959c0.441-1.136,0.773-1.989,0.789-3.222c0.017-1.28-0.253-3.289-0.003-3.273
		c0.159,0.01,1.484,1.453,2.484,2.453c0.844,0.844,0.931,1.697,0.416,2.75c-0.327,0.668-0.875,1.738-1.26,2.375
		c-0.469,0.773-1.634,2.367-0.54,3.018c0.759,0.451,1.488-0.288,1.842-0.871c0.576-0.948,1.139-1.994,1.632-2.987
		c0.299-0.602,0.598-1.204,0.896-1.806c0.278-0.56,0.526-1.249,0.432-1.902c-0.006-0.044-0.03-0.092-0.049-0.139l5.796,4.433
		c0.136,0.104,0.296,0.154,0.455,0.154c0.226,0,0.449-0.102,0.596-0.294c0.251-0.329,0.189-0.8-0.14-1.052L20.896,25.902z
		 M16.158,18.875c-0.271,0.018-0.221-1.848-0.101-2.049c0.085-0.144,1.841-0.181,1.96-0.014
		C18.13,16.971,16.348,18.859,16.158,18.875z M19.599,24.842c-0.21,0.087-1.701-1.19-1.701-1.473
		c0.001-0.268,3.316-1.911,3.542-1.771C21.761,21.797,19.893,24.719,19.599,24.842z"/>
</g>
<path fill="#676767" d="M36.119,34.639c0.043-0.159,0.07-0.324,0.07-0.497c0-1.104-0.895-2-2-2c-0.617,0-1.16,0.285-1.527,0.723
	c-0.143-1.523-1.41-2.723-2.973-2.723c-1.348,0-2.474,0.895-2.853,2.117c-0.204-0.07-0.419-0.117-0.647-0.117c-1.105,0-2,0.896-2,2
	c0,0.057,0.012,0.109,0.017,0.164c-0.153-0.095-0.323-0.164-0.517-0.164c-0.553,0-1,0.447-1,1v0.153
	c-0.293,0.174-0.5,0.48-0.5,0.847h15C37.189,35.444,36.742,34.858,36.119,34.639z"/>
</svg>
