<?xml version="1.0" encoding="utf-8"?>
<!-- Generator: Adobe Illustrator 16.1.0, SVG Export Plug-In . SVG Version: 6.00 Build 0)  -->
<!DOCTYPE svg PUBLIC "-//W3C//DTD SVG 1.1//EN" "http://www.w3.org/Graphics/SVG/1.1/DTD/svg11.dtd">
<svg version="1.1" id="Layer_1" xmlns="http://www.w3.org/2000/svg" xmlns:xlink="http://www.w3.org/1999/xlink" x="0px" y="0px"
	 width="48px" height="48px" viewBox="0 0 48 48" enable-background="new 0 0 48 48" xml:space="preserve">
<g>
	<path fill="#333333" d="M9,7v14v2h5v-2h4v2h4v-2h4v2h4v-2h4v2h5v-2V7H9z M37,14v1v5h-8h-1h-8h-1h-8v-5v-1V9h8h1h8h1h8V14z"/>
	<polygon fill="#666666" points="29,9 28,9 28,14 20,14 20,9 19,9 19,14 11,14 11,15 19,15 19,20 20,20 20,15 28,15 28,20 29,20 
		29,15 37,15 37,14 29,14 	"/>
	<rect x="11" y="15" fill="#FFFFFF" width="8" height="5"/>
	<rect x="11" y="9" fill="#FFFFFF" width="8" height="5"/>
	<rect x="20" y="15" fill="#FFFFFF" width="8" height="5"/>
	<rect x="20" y="9" fill="#FFFFFF" width="8" height="5"/>
	<rect x="29" y="15" fill="#FFFFFF" width="8" height="5"/>
	<rect x="29" y="9" fill="#FFFFFF" width="8" height="5"/>
</g>
<g>
	<path fill="#333333" d="M34,27v-2h-4v2h-4v-2h-4v2h-4v-2h-4v2H9v14h30V27H34z M37,33v1v5h-8h-1h-8h-1h-8v-5v-1v-5h8h1h8h1h8V33z"/>
	<polygon fill="#666666" points="29,28 28,28 28,33 20,33 20,28 19,28 19,33 11,33 11,34 19,34 19,39 20,39 20,34 28,34 28,39 
		29,39 29,34 37,34 37,33 29,33 	"/>
	<rect x="11" y="34" fill="#FFFFFF" width="8" height="5"/>
	<rect x="11" y="28" fill="#FFFFFF" width="8" height="5"/>
	<rect x="20" y="34" fill="#FFFFFF" width="8" height="5"/>
	<rect x="20" y="28" fill="#FFFFFF" width="8" height="5"/>
	<rect x="29" y="34" fill="#FFFFFF" width="8" height="5"/>
	<rect x="29" y="28" fill="#FFFFFF" width="8" height="5"/>
</g>
</svg>
