<?xml version="1.0" encoding="utf-8"?>
<!-- Generator: Adobe Illustrator 16.1.0, SVG Export Plug-In . SVG Version: 6.00 Build 0)  -->
<!DOCTYPE svg PUBLIC "-//W3C//DTD SVG 1.1//EN" "http://www.w3.org/Graphics/SVG/1.1/DTD/svg11.dtd">
<svg version="1.1" id="Layer_1" xmlns="http://www.w3.org/2000/svg" xmlns:xlink="http://www.w3.org/1999/xlink" x="0px" y="0px"
	 width="48px" height="48px" viewBox="0 0 48 48" enable-background="new 0 0 48 48" xml:space="preserve">
<g>
	<path fill="#333333" d="M7.834,27.363c-0.97,0.313-1.863,0.666-2.686,1.05V34.5h10v-7.89c-0.634-0.072-1.268-0.123-1.9-0.123
		C11.454,26.487,9.633,26.782,7.834,27.363z"/>
	<path fill="#333333" d="M13.246,22.5c0.636,0,1.271,0.034,1.902,0.092V18.5h-10v5.569c0.469-0.178,0.951-0.35,1.456-0.513
		C8.776,22.855,11.011,22.5,13.246,22.5z"/>
	<path fill="#333333" d="M24.22,25.39c0.507,0.248,1,0.509,1.49,0.768c1.16,0.613,2.268,1.184,3.438,1.528V13.5h-11v9.59
		c0.681,0.163,1.358,0.349,2.026,0.579C21.427,24.102,22.713,24.648,24.22,25.39z"/>
	<path fill="#333333" d="M23.839,29.693c-0.454-0.24-0.912-0.483-1.381-0.714c-1.363-0.669-2.505-1.155-3.591-1.529
		c-0.238-0.082-0.479-0.145-0.719-0.217V34.5h11v-2.693c-0.151-0.03-0.306-0.057-0.454-0.091
		C26.847,31.284,25.317,30.476,23.839,29.693z"/>
	<path fill="#333333" d="M32.639,32.13c-0.168,0-0.327-0.008-0.49-0.012V34.5h11v-3.709c-2.347,0.617-4.943,1.012-8.168,1.243
		C34.084,32.1,33.34,32.13,32.639,32.13z"/>
	<path fill="#333333" d="M34.693,28.046c3.46-0.25,6.098-0.691,8.455-1.412V21.5h-11v6.618c0.164,0.005,0.324,0.012,0.495,0.012
		C33.25,28.13,33.882,28.104,34.693,28.046z"/>
	<path fill="#666666" d="M45.908,26.797c-0.469,0.115-0.908,0.271-1.334,0.422c-0.186,0.066-0.373,0.132-0.559,0.193
		c-0.285,0.094-0.575,0.183-0.867,0.269c-2.358,0.691-4.989,1.117-8.383,1.362c-0.669,0.048-1.385,0.087-2.122,0.087
		c-0.164,0-0.33-0.006-0.495-0.01c-0.915-0.023-1.854-0.111-2.771-0.325c-0.078-0.019-0.151-0.047-0.229-0.067
		c-1.374-0.359-2.608-1-3.906-1.687c-0.48-0.254-0.965-0.51-1.463-0.754c-1.467-0.721-2.717-1.253-3.932-1.673
		c-0.562-0.194-1.129-0.36-1.699-0.504c-0.99-0.248-1.993-0.416-3-0.512c-0.633-0.061-1.267-0.099-1.902-0.099
		c-2.122,0-4.252,0.336-6.334,1.009c-0.62,0.2-1.2,0.416-1.764,0.64c-1.312,0.521-2.485,1.104-3.537,1.775l1.074,1.687
		c0.734-0.468,1.562-0.898,2.463-1.294c0.743-0.326,1.532-0.631,2.379-0.904c1.907-0.616,3.817-0.925,5.721-0.925
		c0.635,0,1.269,0.047,1.9,0.115c1.005,0.109,2.005,0.306,3,0.587c0.349,0.1,0.698,0.195,1.045,0.315
		c1.137,0.392,2.312,0.894,3.705,1.577c0.479,0.235,0.945,0.482,1.408,0.728c1.424,0.753,2.895,1.53,4.615,1.933
		c0.075,0.018,0.151,0.028,0.227,0.044c1.012,0.218,2.022,0.312,3,0.333c0.163,0.004,0.329,0.011,0.49,0.011
		c0.793,0,1.557-0.041,2.27-0.093c3.279-0.235,5.888-0.642,8.24-1.281c0.507-0.139,1.007-0.283,1.494-0.444
		c0.199-0.065,0.398-0.137,0.598-0.207c0.379-0.134,0.76-0.271,1.148-0.366L45.908,26.797z"/>
</g>
</svg>
