<?xml version="1.0" encoding="utf-8"?>
<!-- Generator: Adobe Illustrator 16.1.0, SVG Export Plug-In . SVG Version: 6.00 Build 0)  -->
<!DOCTYPE svg PUBLIC "-//W3C//DTD SVG 1.1//EN" "http://www.w3.org/Graphics/SVG/1.1/DTD/svg11.dtd">
<svg version="1.1" id="Layer_1" xmlns="http://www.w3.org/2000/svg" xmlns:xlink="http://www.w3.org/1999/xlink" x="0px" y="0px"
	 width="48px" height="48px" viewBox="0 0 48 48" enable-background="new 0 0 48 48" xml:space="preserve">
<g>
	<path id="path1948" fill="#333333" d="M23.788,6c-1.469,0.007-2.871,0.132-4.105,0.351c-3.633,0.642-4.293,1.986-4.293,4.464v3.273
		h8.588v1.091H15.39h-3.223c-2.496,0-4.682,1.5-5.365,4.354c-0.789,3.271-0.824,5.312,0,8.729c0.609,2.542,2.068,4.354,4.564,4.354
		h2.951v-3.924c0-2.835,2.453-5.335,5.365-5.335h8.58c2.387,0,4.293-1.966,4.293-4.364v-8.178c0-2.327-1.963-4.076-4.293-4.464
		C26.786,6.105,25.255,5.994,23.788,6z M19.144,8.633c0.887,0,1.611,0.736,1.611,1.642c0,0.902-0.725,1.632-1.611,1.632
		c-0.891,0-1.611-0.729-1.611-1.632C17.532,9.37,18.253,8.633,19.144,8.633z"/>
	<path id="path1950" fill="#666666" d="M33.628,15.18v3.814c0,2.957-2.508,5.445-5.365,5.445h-8.58c-2.35,0-4.293,2.011-4.293,4.365
		v8.178c0,2.327,2.023,3.696,4.293,4.364c2.719,0.799,5.326,0.943,8.58,0c2.162-0.625,4.293-1.887,4.293-4.364v-3.272h-8.578v-1.092
		h8.578h4.295c2.496,0,3.426-1.74,4.295-4.354c0.896-2.691,0.857-5.278,0-8.729c-0.617-2.485-1.797-4.354-4.295-4.354H33.628z
		 M28.802,35.891c0.891,0,1.613,0.729,1.613,1.631c0,0.906-0.723,1.643-1.613,1.643c-0.887,0-1.611-0.736-1.611-1.643
		C27.19,36.62,27.915,35.891,28.802,35.891z"/>
</g>
</svg>
