<?xml version="1.0" encoding="utf-8"?>
<!-- Generator: Adobe Illustrator 15.1.0, SVG Export Plug-In . SVG Version: 6.00 Build 0)  -->
<!DOCTYPE svg PUBLIC "-//W3C//DTD SVG 1.1//EN" "http://www.w3.org/Graphics/SVG/1.1/DTD/svg11.dtd">
<svg version="1.1" id="Layer_1" xmlns="http://www.w3.org/2000/svg" xmlns:xlink="http://www.w3.org/1999/xlink" x="0px" y="0px"
	 width="48px" height="48px" viewBox="0 0 48 48" enable-background="new 0 0 48 48" xml:space="preserve">
<rect x="30" y="32" fill="#FFFFFF" width="10" height="8"/>
<g>
	<path fill="#333333" d="M6,6v36h36V6H6z M40,14v8v1v8v9H29H19h-1H8v-8v-1v-8v-1v-8l0,0h10l0,0h1l0,0h10l0,0h1l0,0H40L40,14z"/>
	<polygon fill="#666666" points="19,31 19,23 19,22 19,14 18,14 18,22 8,22 8,23 18,23 18,31 8,31 8,32 18,32 18,40 19,40 19,32 	
		"/>
	<polygon fill="#666666" points="30,14 29,14 29,22 29,23 29,31 29,32 29,40 40,40 40,31 30,31 30,23 40,23 40,22 30,22 	"/>
	<rect x="8" y="32" fill="#FFFFFF" width="10" height="8"/>
	<rect x="8" y="23" fill="#FFFFFF" width="10" height="8"/>
	<polygon fill="#FFFFFF" points="8,14 18,14 18,14 	"/>
	<rect x="8" y="14" fill="#FFFFFF" width="10" height="8"/>
	<rect x="19" y="32" fill="#B2B2B2" width="10" height="8"/>
	<rect x="19" y="23" fill="#B2B2B2" width="10" height="8"/>
	<polygon fill="#B2B2B2" points="19,14 29,14 29,14 	"/>
	<rect x="19" y="14" fill="#B2B2B2" width="10" height="8"/>
	<rect x="30" y="23" fill="#FFFFFF" width="10" height="8"/>
	<polygon fill="#FFFFFF" points="30,14 40,14 40,14 	"/>
	<rect x="30" y="14" fill="#FFFFFF" width="10" height="8"/>
	<rect x="19" y="22" fill="#989898" width="10" height="1"/>
	<rect x="19" y="31" fill="#989898" width="10" height="1"/>
</g>
<g>
	<path fill="#333333" d="M32.179,41.76c0.44-1.36,0.817-2.74,1.178-4.123c0.148-0.57,0.288-1.144,0.43-1.718
		c0.1-0.396,0.244-0.795,0.206-1.2c-0.007-0.089-0.022-0.179-0.051-0.266c-0.142-0.46-0.461-0.872-0.879-1.113
		c-0.057-0.034-0.114-0.062-0.173-0.085c-0.193-0.073-0.394-0.085-0.604-0.021c-0.328,0.101-0.564,0.431-0.871,0.526
		c-0.094,0.029-0.175,0.025-0.246-0.002c-0.321-0.123-0.449-0.724-0.637-0.957c-0.172-0.216-0.397-0.376-0.65-0.473
		c-0.179-0.068-0.371-0.104-0.566-0.103c-0.267,0.004-0.574,0.094-0.813,0.26c-0.166,0.114-0.373,0.494-0.596,0.409
		c-0.02-0.007-0.037-0.019-0.059-0.032c-0.172-0.131-0.159-0.812-0.26-1.01c-0.149-0.29-0.348-0.628-0.648-0.743
		c-0.008-0.003-0.019-0.007-0.025-0.01c-0.594-0.228-1.314,0.016-1.753,0.509c-0.315,0.354-0.374,0.801-0.412,1.247
		c-0.001,0.006-0.015,0.048-0.016,0.054c0.001-0.006-0.007,0.008-0.005,0.002c0.065-0.807,0.102-1.842,0.096-2.651
		c-0.006-0.894,0.132-4.787-0.553-5.428c-0.123-0.116-0.269-0.199-0.426-0.26c-0.183-0.07-0.382-0.101-0.58-0.098
		c-0.354,0.004-0.696,0.133-0.968,0.363c-0.875,0.743-0.724,2.455-0.718,3.444c0.011,2.279,0.001,2.94-0.144,5.215
		c-0.049,0.768-0.309,3.462-0.536,4.169c-0.61-0.593-1.385-1.777-2.287-2.123c-0.166-0.063-0.338-0.1-0.512-0.097
		c-0.486,0.008-0.944,0.247-1.228,0.644c-0.138,0.193-0.251,0.436-0.275,0.676c-0.139,1.32,1.003,2.424,1.788,3.344
		c0.695,0.812,1.397,1.606,2.03,2.47c0.428,0.586,0.838,1.184,1.284,1.754c0.278,0.358,0.741,1.117,1.206,1.295
		c0.021,0.008,0.042,0.015,0.063,0.021c0.322,0.087,0.841-0.049,1.183-0.053c0.471-0.006,0.939-0.013,1.41-0.019
		c1.189-0.016,2.379-0.039,3.568-0.049c0.589-0.003,1.435,0.211,1.868-0.312c0.447-0.54,0.475-1.46,0.751-2.097
		C31.939,42.685,32.036,42.207,32.179,41.76z"/>
	<path fill="#FFFFFF" d="M32.479,44.173c0.062-0.253,0.118-0.49,0.191-0.656c0.148-0.346,0.247-0.697,0.333-1.009
		c0.042-0.148,0.083-0.298,0.129-0.442c0.47-1.452,0.867-2.926,1.193-4.176c0.11-0.427,0.216-0.854,0.321-1.281l0.11-0.449
		l0.058-0.215c0.099-0.363,0.222-0.814,0.176-1.318c-0.011-0.147-0.043-0.311-0.091-0.47c-0.219-0.707-0.706-1.32-1.337-1.685
		c-0.1-0.06-0.206-0.109-0.314-0.151c-0.407-0.155-0.842-0.17-1.254-0.043c-0.184,0.055-0.341,0.138-0.476,0.223
		c-0.057-0.109-0.122-0.221-0.206-0.324c-0.277-0.351-0.649-0.621-1.073-0.783c-0.299-0.114-0.615-0.17-0.936-0.167
		c-0.32,0.004-0.648,0.075-0.947,0.204c-0.252-0.427-0.652-0.756-1.167-0.956l0,0c-0.458-0.176-0.927-0.226-1.366-0.163
		c0-0.017,0-0.033,0-0.051c-0.001-0.112,0.001-0.271,0.003-0.466c0.035-3.613-0.186-5.049-0.871-5.689
		c-0.216-0.199-0.469-0.357-0.753-0.465c-0.3-0.115-0.62-0.171-0.952-0.165c-0.58,0.007-1.149,0.221-1.598,0.599
		c-1.136,0.964-1.101,2.703-1.077,3.854c0.003,0.127,0.005,0.247,0.005,0.356c0.011,2.266,0,2.905-0.141,5.146
		c-0.031,0.481-0.105,1.277-0.194,2.036c-0.374-0.357-0.796-0.677-1.273-0.859c-0.292-0.111-0.589-0.167-0.883-0.162
		c-0.804,0.011-1.562,0.407-2.028,1.063c-0.181,0.256-0.405,0.661-0.456,1.15c-0.168,1.604,0.939,2.862,1.747,3.781
		c0.096,0.108,0.188,0.215,0.277,0.317l0.312,0.364c0.594,0.691,1.155,1.345,1.671,2.046c0.132,0.182,0.263,0.365,0.395,0.549
		c0.296,0.414,0.594,0.829,0.907,1.231c0.046,0.06,0.102,0.136,0.162,0.219c0.348,0.483,0.822,1.143,1.475,1.392
		c0.054,0.021,0.109,0.039,0.163,0.053c0.394,0.108,0.813,0.056,1.149,0.013c0.109-0.013,0.212-0.03,0.3-0.029l1.415-0.02
		l1.308-0.019c0.752-0.012,1.504-0.023,2.256-0.03c0.102,0.001,0.218,0.01,0.338,0.018c0.609,0.042,1.626,0.112,2.29-0.69
		C32.194,45.343,32.346,44.72,32.479,44.173z M31.002,45.216c-0.434,0.523-1.28,0.309-1.869,0.312
		c-1.189,0.011-2.378,0.034-3.568,0.05c-0.47,0.006-0.938,0.013-1.41,0.019c-0.341,0.003-0.859,0.14-1.183,0.052
		c-0.021-0.006-0.042-0.013-0.062-0.021c-0.466-0.178-0.927-0.936-1.206-1.294c-0.447-0.57-0.856-1.168-1.284-1.754
		c-0.632-0.863-1.336-1.659-2.029-2.47c-0.787-0.92-1.928-2.023-1.791-3.345c0.026-0.241,0.141-0.481,0.277-0.675
		c0.282-0.397,0.741-0.637,1.227-0.644c0.175-0.001,0.347,0.032,0.513,0.097c0.901,0.345,1.677,1.529,2.286,2.123
		c0.227-0.707,0.487-3.402,0.537-4.17c0.144-2.274,0.153-2.936,0.143-5.215c-0.004-0.988-0.156-2.701,0.719-3.443
		c0.271-0.229,0.612-0.358,0.968-0.363c0.197-0.003,0.396,0.03,0.578,0.1c0.154,0.06,0.301,0.146,0.424,0.263
		c0.685,0.641,0.546,4.539,0.552,5.432c0.006,0.81-0.033,1.853-0.101,2.662c0.037-0.446,0.125-0.966,0.44-1.321
		c0.438-0.493,1.159-0.736,1.753-0.509c0.009,0.004,0.018,0.007,0.025,0.01c0.299,0.114,0.498,0.453,0.646,0.744
		c0.103,0.197,0.116,0.805,0.291,0.934c0.018,0.017,0.023,0.063,0.043,0.071c0.222,0.084,0.422-0.276,0.588-0.392
		c0.239-0.164,0.543-0.246,0.81-0.249c0.195-0.001,0.387,0.037,0.566,0.106c0.252,0.097,0.478,0.259,0.648,0.475
		c0.188,0.233,0.315,0.836,0.637,0.959c0.071,0.027,0.152,0.031,0.245,0.002c0.306-0.095,0.542-0.426,0.871-0.525
		c0.21-0.065,0.411-0.052,0.604,0.021c0.058,0.021,0.116,0.052,0.174,0.084c0.417,0.241,0.736,0.654,0.879,1.114
		c0.026,0.088,0.043,0.178,0.05,0.266c0.038,0.406-0.108,0.804-0.207,1.199c-0.143,0.574-0.281,1.148-0.43,1.72
		c-0.361,1.382-0.737,2.762-1.177,4.122c-0.144,0.446-0.24,0.923-0.428,1.358C31.476,43.755,31.448,44.675,31.002,45.216z"/>
</g>
</svg>
