<?xml version="1.0" encoding="utf-8"?>
<!-- Generator: Adobe Illustrator 16.1.0, SVG Export Plug-In . SVG Version: 6.00 Build 0)  -->
<!DOCTYPE svg PUBLIC "-//W3C//DTD SVG 1.1//EN" "http://www.w3.org/Graphics/SVG/1.1/DTD/svg11.dtd">
<svg version="1.1" id="Layer_1" xmlns="http://www.w3.org/2000/svg" xmlns:xlink="http://www.w3.org/1999/xlink" x="0px" y="0px"
	 width="48px" height="48px" viewBox="0 0 48 48" enable-background="new 0 0 48 48" xml:space="preserve">
<g>
	<path fill="#333333" d="M6,6v36h36V6H6z M40,22L40,22v1l0,0v8l0,0v1l0,0v8h0H30h-1H19h-1H8l0,0V14l0,0h10h1h10h1h10h0V22z"/>
	<path fill="#666666" d="M30,14h-1v8H19v-8h-1v8H8v-8l0,0v26l0,0v-8h10v8h1v-8h10v8h1v-8h10v-1H30v-8h10v-1H30V14z M18,31H8v-8h10
		V31z M29,31H19v-8h10V31z"/>
	<rect x="8" y="32" fill="#FFFFFF" width="10" height="8"/>
	<rect x="8" y="23" fill="#FFFFFF" width="10" height="8"/>
	<rect x="8" y="14" fill="#FFFFFF" width="10" height="8"/>
	<rect x="19" y="32" fill="#FFFFFF" width="10" height="8"/>
	<rect x="19" y="23" fill="#FFFFFF" width="10" height="8"/>
	<rect x="19" y="14" fill="#FFFFFF" width="10" height="8"/>
	<rect x="40" y="32" fill="#FFFFFF" width="0" height="8"/>
	<rect x="30" y="32" fill="#FFFFFF" width="10" height="8"/>
	<rect x="40" y="23" fill="#FFFFFF" width="0" height="8"/>
	<rect x="30" y="23" fill="#FFFFFF" width="10" height="8"/>
	<rect x="40" y="14" fill="#FFFFFF" width="0" height="8"/>
	<rect x="30" y="14" fill="#FFFFFF" width="10" height="8"/>
</g>
</svg>
