<?xml version="1.0" encoding="utf-8"?>
<!-- Generator: Adobe Illustrator 16.1.0, SVG Export Plug-In . SVG Version: 6.00 Build 0)  -->
<!DOCTYPE svg PUBLIC "-//W3C//DTD SVG 1.1//EN" "http://www.w3.org/Graphics/SVG/1.1/DTD/svg11.dtd">
<svg version="1.1" id="Layer_1" xmlns="http://www.w3.org/2000/svg" xmlns:xlink="http://www.w3.org/1999/xlink" x="0px" y="0px"
	 width="48px" height="48px" viewBox="0 0 48 48" enable-background="new 0 0 48 48" xml:space="preserve">
<g>
	<g>
		<polygon fill="#666666" points="3.556,14.094 8.892,15.891 8.892,23.789 12.313,24.932 12.313,17.043 18.017,18.965 
			17.901,36.605 3.44,31.734 		"/>
		<polygon fill="#666666" points="35.679,14.844 35.563,32.502 19.901,36.674 20.017,19.018 		"/>
		<polygon fill="#666666" points="27.728,11.067 33.991,13.225 19.056,17.203 14.214,15.572 		"/>
		<polygon fill="#666666" points="5.327,12.579 20.563,8.6 24.616,9.996 11.067,14.513 		"/>
		<polygon fill="#FFFFFF" points="8.892,23.789 8.892,15.891 9.563,16.117 11.563,16.79 12.313,17.043 12.313,24.932 		"/>
		<polygon fill="#FFFFFF" points="11.067,14.513 24.616,9.996 27.728,11.067 14.214,15.572 		"/>
	</g>
	<polygon fill="#333333" points="39.233,28.502 39.233,21.734 32.31,21.734 32.31,28.502 28.712,28.502 35.636,37.734 42.56,28.502 
			"/>
	<path fill="#FFFFFF" d="M42.56,27.502h-2.326v-5.768v-1h-1H32.31h-1v1v5.768h-2.598h-2l1.2,1.6l6.924,9.232l0.8,1.066l0.8-1.066
		l6.924-9.232l1.2-1.6H42.56z M32.31,21.734h6.924v6.768h3.326l-6.924,9.232l-6.924-9.232h3.598V21.734z"/>
</g>
</svg>
