<?xml version="1.0" encoding="utf-8"?>
<!-- Generator: Adobe Illustrator 16.1.0, SVG Export Plug-In . SVG Version: 6.00 Build 0)  -->
<!DOCTYPE svg PUBLIC "-//W3C//DTD SVG 1.1//EN" "http://www.w3.org/Graphics/SVG/1.1/DTD/svg11.dtd">
<svg version="1.1" id="Layer_1" xmlns="http://www.w3.org/2000/svg" xmlns:xlink="http://www.w3.org/1999/xlink" x="0px" y="0px"
	 width="48px" height="48px" viewBox="0 0 48 48" enable-background="new 0 0 48 48" xml:space="preserve">
<g>
	
		<rect x="23.112" y="2.562" transform="matrix(0.2315 0.9728 -0.9728 0.2315 42.9693 -4.1515)" fill="#333333" width="2" height="45.119"/>
</g>
<g>
	<path fill="#333333" d="M2.157,24.309l-0.231-0.973l1.946-0.463l0.231,0.973L2.157,24.309z M7.994,22.919l-0.231-0.973l1.945-0.463
		l0.231,0.973L7.994,22.919z M13.831,21.529L13.6,20.556l1.945-0.463l0.231,0.973L13.831,21.529z M25.504,18.75l-0.231-0.973
		l1.946-0.463l0.231,0.973L25.504,18.75z M31.341,17.36l-0.231-0.973l1.946-0.463l0.231,0.973L31.341,17.36z M37.178,15.97
		l-0.231-0.973l1.945-0.463l0.231,0.973L37.178,15.97z M43.015,14.58l-0.231-0.973l1.945-0.463l0.231,0.973L43.015,14.58z"/>
</g>
<g>
	<path fill="#333333" d="M1.956,37.464l-0.231-0.973l1.946-0.463l0.231,0.973L1.956,37.464z M7.793,36.074l-0.232-0.973l1.945-0.464
		l0.232,0.973L7.793,36.074z M19.466,33.294l-0.231-0.973l1.946-0.463l0.231,0.973L19.466,33.294z M25.303,31.904l-0.231-0.973
		l1.946-0.464l0.231,0.973L25.303,31.904z M36.977,29.124l-0.231-0.973l1.946-0.463l0.231,0.973L36.977,29.124z M42.813,27.734
		l-0.231-0.973l1.946-0.464l0.231,0.973L42.813,27.734z"/>
</g>
<g>
	<path fill="#989898" d="M22.758,40.306c-0.383-1.612-2.001-2.608-3.613-2.225c-1.611,0.385-2.606,2.002-2.222,3.615
		c0.383,1.608,2,2.604,3.611,2.221C22.146,43.534,23.143,41.915,22.758,40.306z"/>
</g>
<g>
	<circle fill="#666666" cx="8.841" cy="8.001" r="2.999"/>
</g>
<g>
	<circle fill="#666666" cx="8.84" cy="17.001" r="2.999"/>
</g>
<g>
	<circle fill="#333333" cx="15.84" cy="34.001" r="2.999"/>
</g>
<g>
	<circle fill="#333333" cx="20.84" cy="19.001" r="2.999"/>
</g>
<g>
	<circle fill="#666666" cx="38.841" cy="7" r="2.999"/>
</g>
<g>
	<circle fill="#666666" cx="31.84" cy="11.001" r="2.999"/>
</g>
<g>
	<circle fill="#333333" cx="32.84" cy="30" r="2.999"/>
</g>
<g>
	<circle fill="#989898" cx="39.84" cy="36.002" r="2.999"/>
</g>
<g>
	<circle fill="#989898" cx="31.84" cy="41.002" r="2.999"/>
</g>
</svg>
