<?xml version="1.0" encoding="utf-8"?>
<!-- Generator: Adobe Illustrator 15.0.0, SVG Export Plug-In . SVG Version: 6.00 Build 0)  -->
<!DOCTYPE svg PUBLIC "-//W3C//DTD SVG 1.1//EN" "http://www.w3.org/Graphics/SVG/1.1/DTD/svg11.dtd">
<svg version="1.1" id="Layer_1" xmlns="http://www.w3.org/2000/svg" xmlns:xlink="http://www.w3.org/1999/xlink" x="0px" y="0px"
	 width="218.268px" height="218.268px" viewBox="0 0 218.268 218.268" enable-background="new 0 0 218.268 218.268"
	 xml:space="preserve">
<g>
	<g>
		<path fill="#F59C00" d="M109.747,204.029c-52.426,0-94.905-42.491-94.905-94.895c0-52.417,42.484-94.896,94.905-94.896
			c52.402,0,94.89,42.488,94.89,94.896C204.636,161.539,162.154,204.029,109.747,204.029z"/>
		<path fill="#EF7D00" d="M109.747,204.807c-52.759,0-95.684-42.917-95.684-95.673c0-52.755,42.925-95.674,95.684-95.674
			c52.752,0,95.669,42.919,95.669,95.674C205.416,161.89,162.499,204.807,109.747,204.807z M109.747,15.018
			c-51.901,0-94.125,42.222-94.125,94.116c0,51.896,42.224,94.114,94.125,94.114c51.892,0,94.11-42.219,94.11-94.114
			C203.857,57.24,161.638,15.018,109.747,15.018z"/>
	</g>
	<path fill="#EF7D00" d="M125.783,185.113c-18.717-2.819-45.641-7.391-72.668-40.786c-27.029-33.397-8.29-103.81-8.29-103.81
		c-17.979,17.209-29.229,41.391-29.229,68.246c0,52.205,42.318,94.528,94.53,94.528c24.911,0,47.501-9.711,64.39-25.457
		C164.214,182.516,143.907,187.843,125.783,185.113z"/>
	<path fill="#EF7D00" d="M93.017,185.608c-12.558,0-36.188-4.601-53.346-35.409c-0.473-0.85-0.334-1.908,0.34-2.607
		c0.679-0.701,1.728-0.877,2.594-0.435c21.922,11.184,40.91,11.184,49.02,11.184h2.326c8.199,0,33.15,0,55.194-11.186
		c0.868-0.44,1.923-0.262,2.595,0.442c0.672,0.701,0.807,1.764,0.33,2.611C137.376,176.308,111.931,185.608,93.017,185.608z
		 M47.299,154.23c15.562,23.287,35.014,26.962,45.718,26.962c7.962,0,33.819-2.062,51.336-27.004
		c-21.059,8.57-42.768,8.569-50.402,8.569l-2.326,0.001C84.035,162.758,67.265,162.758,47.299,154.23z"/>
	<path fill="#1F1F1F" d="M176.23,61.857c-7.042,0.051-14.754,3.435-23.282,9.913c-12.858-8.301-34.667-7.24-48.497,3.406
		c-1.276-0.208-2.796-0.321-3.696-1.264c-10.735-11.278-21.979-11.835-37.352-0.149c-13.009-8.372-35.685-6.642-48.424,5.496
		c-0.831,0.784-1.601,1.609-2.337,2.467c-3.126,9.206-4.815,19.08-4.815,29.359c0,6.898,0.776,13.621,2.226,20.086
		c0.46,0.576,0.944,1.149,1.461,1.689c12.771,13.407,38.012,12.009,52.684-1.979c12.534-11.94,16.467-32.77,9.184-46.053
		c8.418-6.348,14.563-7.341,20.586-1.019c0.43,0.447,1.145,0.799,1.507,1.371c-9.565,15.415-8.95,37.291,2.457,49.267
		c13.555,14.204,40.305,12.726,55.864-2.103c13.286-12.671,17.461-34.764,9.744-48.84c8.922-6.74,15.794-7.978,22.186-1.281
		c0.122,0.133,0.238,0.28,0.359,0.414c-2.41-7.386-5.738-14.361-9.855-20.782L176.23,61.857z M53.447,119.607
		c-8.934,8.522-24.973,10.805-31.833,3.609c-6.755-7.085-4.729-24.082,4.204-32.613c8.941-8.511,26.02-9.729,32.773-2.625
		C65.449,95.162,62.384,111.089,53.447,119.607L53.447,119.607z M142.417,120.383c-9.489,9.038-26.491,11.466-33.776,3.829
		c-7.168-7.516-5.021-25.545,4.464-34.572c9.469-9.04,27.59-10.315,34.743-2.796C155.125,94.47,151.875,111.354,142.417,120.383z"/>
	<path fill="#1F1F1F" d="M57.512,85.162c-0.146-0.165-0.262-0.353-0.419-0.515c-7.129-7.498-25.175-6.22-34.619,2.778
		c-9.445,9.007-11.575,26.965-4.435,34.447c0.284,0.3,0.591,0.55,0.915,0.816c-6.6-7.758-4.389-25.125,4.855-33.935
		c9.065-8.645,26.057-10.145,33.699-3.593H57.512z"/>
	<path fill="#245024" d="M123.228,23.394c0,0-11.311-0.938-10.575,0.941l9.716,1.341c-1.714,1.103-4.949,3.13-4.296,4.821
		l8.24-3.527l8.946,5.536c1.254-1.791-6.139-6.83-6.139-6.83l5.198-0.75c-0.782-2.018-7.794-1.527-7.794-1.527
		s-3.527-3.545-5.914-3.339L123.228,23.394z"/>
	<path fill="#1B411B" d="M123.228,23.394c0,0-7.398-0.24-6.832,1.202l5.973,1.08c-1.184,0.904-2.498,2.277-1.995,3.577l5.729-1.735
		l6.461,2.838c0.842-1.429-3.443-4.68-3.443-4.68l2.598-1.198c-0.603-1.551-5.193-1.079-5.193-1.079s-2.93-2.568-4.611-2.343
		L123.228,23.394z"/>
	<path fill="#FFF59B" d="M93.197,160.548c-8.723,0-28.519,0.35-51.595-11.424C55.928,174.85,75.98,183.4,93.017,183.4
		c17.574,0,42.445-8.193,57.127-34.275C127.294,160.718,101.492,160.548,93.197,160.548L93.197,160.548z"/>
	<path fill="#FAE897" d="M93.017,183.4c7.111,0,12.08-0.733,14.895-1.743c-11.143-2.074-29.589-13.669-43.328-24.021
		c-4.418-1.164-12.373-3.007-22.981-8.511C55.928,174.85,75.98,183.4,93.017,183.4z"/>
	<path fill="#D9DFEB" d="M141.915,119.49c-9.863,9.4-27.531,11.915-35.091,3.979c-7.438-7.803-5.219-26.545,4.645-35.935
		c9.842-9.388,28.667-10.72,36.107-2.899C155.134,92.567,151.767,110.102,141.915,119.49L141.915,119.49z"/>
	<path fill="#CFDAE9" d="M119.095,95.621c7.826-7.461,21.32-9.83,30.264-6.553c-0.68-2.018-1.699-3.818-3.1-5.288
		c-7.439-7.823-26.267-6.489-36.105,2.896c-9.863,9.396-12.078,28.133-4.646,35.937c1.551,1.624,3.534,2.784,5.783,3.569
		C108.12,117.084,111.072,103.259,119.095,95.621L119.095,95.621z"/>
	<path d="M134.988,102.844c-1.915,0-3.465-1.641-3.465-3.661c0-0.997,0.379-1.897,0.992-2.558c-0.932-0.522-1.996-0.82-3.125-0.82
		c-3.682,0-6.668,3.148-6.668,7.035c0,3.89,2.986,7.041,6.668,7.041s6.669-3.151,6.669-7.041c0-0.062-0.009-0.125-0.011-0.189
		C135.711,102.765,135.362,102.844,134.988,102.844z"/>
	<path fill="#FFFFFF" d="M108.787,103.117c0.217,0.068,0.452,0.104,0.685,0.104c0.986,0,1.923-0.646,2.231-1.654
		c1.02-3.459,5.289-9.984,13.065-12.572c1.208-0.414,1.864-1.73,1.45-2.949c-0.414-1.226-1.745-1.871-2.969-1.461
		c-9.516,3.274-14.509,10.77-16.029,15.615C106.845,101.433,107.537,102.742,108.787,103.117L108.787,103.117z"/>
	<path fill="#D9DFEB" d="M54.593,119.49c-9.863,9.4-27.531,11.915-35.092,3.979c-7.437-7.803-5.219-26.545,4.645-35.935
		c9.842-9.388,28.668-10.72,36.108-2.899C67.813,92.567,64.445,110.102,54.593,119.49L54.593,119.49z"/>
	<path fill="#CFDAE9" d="M31.774,95.621c7.826-7.461,21.32-9.83,30.265-6.553c-0.682-2.018-1.7-3.818-3.101-5.288
		c-7.44-7.823-26.267-6.489-36.106,2.896c-9.862,9.396-12.077,28.133-4.645,35.937c1.551,1.624,3.533,2.784,5.783,3.569
		C20.798,117.084,23.751,103.259,31.774,95.621L31.774,95.621z"/>
	<path d="M47.667,102.844c-1.915,0-3.466-1.641-3.466-3.661c0-0.997,0.379-1.897,0.992-2.558c-0.932-0.522-1.994-0.82-3.124-0.82
		c-3.681,0-6.669,3.148-6.669,7.035c0,3.89,2.988,7.041,6.669,7.041c3.682,0,6.669-3.151,6.669-7.041
		c0-0.062-0.01-0.125-0.012-0.189C48.39,102.765,48.041,102.844,47.667,102.844z"/>
	<path fill="#FFFFFF" d="M21.464,103.117c0.217,0.068,0.453,0.104,0.686,0.104c0.986,0,1.924-0.646,2.23-1.654
		c1.02-3.459,5.291-9.984,13.066-12.572c1.209-0.414,1.865-1.73,1.451-2.949c-0.415-1.226-1.746-1.871-2.969-1.461
		c-9.518,3.274-14.51,10.77-16.029,15.615C19.523,101.433,20.215,102.742,21.464,103.117L21.464,103.117z"/>
	<path fill="#3A3A3A" d="M70.751,82.608c8.326-6.351,14.766-7.544,20.773-1.301c0.436,0.459,0.832,1.008,1.208,1.592
		c-9.413,15.354-8.746,37.046,2.639,48.88c13.526,14.058,40.1,12.462,55.488-2.348c13.144-12.645,17.185-34.616,9.448-48.56
		c8.83-6.736,15.584-7.929,22.035-1.38c2.33,2.369,2.881,4.968,2.889,9.195c0,0-0.149,1.619,1.461,2.183
		c1.338,0.467,6.223,2.029,6.223,2.029c1.614-2.226,2.498-6.202,2.713-8.909c0.436-6.088-1.664-12.738-5.159-16.443
		c-10.263-10.885-24.592-10.674-40.731,1.715c-12.832-8.188-34.507-7.024-48.197,3.63c-0.69-0.957-1.445-1.908-2.346-2.844
		C88.478,58.891,76,59.979,60.775,71.661c-12.943-8.26-35.473-6.434-48.066,5.68C-1.797,91.308-3.15,117.439,9.517,130.614
		c12.759,13.253,37.812,11.748,52.326-2.215C74.234,116.476,78.052,95.763,70.751,82.608z M144.742,84.271
		c7.26,7.541,4.119,24.319-5.254,33.34s-26.259,11.512-33.518,3.966c-7.158-7.438-5.117-25.352,4.259-34.372
		C119.601,78.186,137.587,76.827,144.742,84.271z M19.509,120.994c-6.75-7.015-4.818-23.906,4.016-32.416
		c8.846-8.499,25.807-9.783,32.547-2.764c6.848,7.106,3.882,22.94-4.959,31.444C42.277,125.758,26.355,128.107,19.509,120.994z"/>
	<path fill="#7E7F7F" d="M9.802,89.867c-1.025-0.435-1.488-1.612-1.038-2.627c1.771-4.067,6.806-12.275,17.964-14.856
		c1.082-0.241,2.178,0.428,2.438,1.506c0.238,1.077-0.432,2.154-1.525,2.395c-9.442,2.164-13.619,9.081-15.168,12.551v0.007
		c-0.344,0.764-1.102,1.212-1.898,1.195C10.314,90.039,10.052,89.983,9.802,89.867L9.802,89.867z M95.999,90.306
		c0.196,0.065,0.381,0.098,0.572,0.103c0.849,0.017,1.646-0.514,1.933-1.357c0.921-2.933,4.652-8.394,11.289-10.456
		c1.034-0.328,1.606-1.443,1.279-2.479c-0.326-1.047-1.441-1.625-2.483-1.286c-8.13,2.616-12.509,8.894-13.853,12.982
		C94.379,88.852,94.949,89.966,95.999,90.306L95.999,90.306z M66.335,73.692c-0.627-0.788-0.45-1.9,0.391-2.492
		c2.598-1.815,4.646-2.958,8.247-4.149c0.991-0.328,2.076,0.15,2.433,1.078c0.355,0.925-0.154,1.944-1.144,2.271
		c-3.347,1.147-4.759,1.939-7.257,3.67c-0.353,0.239-0.768,0.357-1.18,0.35c-0.566-0.016-1.123-0.263-1.488-0.727H66.335z"/>
</g>
</svg>
