# Blender3D v249 OBJ File: 
# www.blender3d.org
v 1.000000 0.000000 0.000000
v -1.000000 0.000000 0.000000
v 0.000000 -0.800000 -0.800000
v 0.000000 -0.800000 0.800000
v 0.000000 0.800000 -0.800000
v 0.000000 0.800000 0.800000
vn -0.624695 -0.000000 -0.780869
vn 0.624695 -0.000000 -0.780869
vn -0.624695 0.000000 0.780869
vn 0.624695 0.000000 0.780869
vn -0.624695 0.780869 -0.000000
vn 0.624695 0.780869 -0.000000
vn -0.624695 -0.780869 0.000000
vn 0.624695 -0.780869 0.000000
usemtl Material.001
s off
f 3//1 2//1 5//1
f 1//2 3//2 5//2
f 6//3 2//3 4//3
f 1//4 6//4 4//4
f 5//5 2//5 6//5
f 6//6 1//6 5//6
f 4//7 2//7 3//7
f 3//8 1//8 4//8
