<?xml version="1.0" encoding="UTF-8" standalone="no"?>
<!-- Created with Inkscape (http://www.inkscape.org/) -->
<svg xmlns:rdf="http://www.w3.org/1999/02/22-rdf-syntax-ns#" xmlns="http://www.w3.org/2000/svg" version="1.1" viewBox="0 0 48 48">
	<g style="writing-mode:lr-tb;letter-spacing:0px;text-anchor:start;word-spacing:0px;text-align:start;" line-height="125%" font-weight="bold" font-size="12px" transform="matrix(1,0,0,1.2314815,0.479353,-5.883444)" font-stretch="normal" font-variant="normal" font-style="normal" font-family="Sans" fill="#707070">
		<path d="m10.956,31.463c-0.27849,0.000004-0.49422,0.12909-0.64718,0.38727-0.15298,0.25402-0.22946,0.61838-0.22946,1.0931-0.000009,0.47888,0.07451,0.84741,0.22357,1.1056,0.15296,0.25402,0.37065,0.38102,0.65307,0.38102,0.2824,0.000001,0.49813-0.12701,0.64719-0.38102,0.14904-0.25818,0.22356-0.62671,0.22357-1.1056-0.00001-0.47471-0.07649-0.83908-0.22946-1.0931-0.14906-0.25818-0.36282-0.38726-0.6413-0.38727m0-1.0494c0.72954,0.000004,1.3042,0.22487,1.7239,0.6746,0.41968,0.44973,0.62952,1.0681,0.62954,1.8551-0.000011,0.78703-0.20986,1.4096-0.62954,1.8676-0.4197,0.4539-0.99432,0.68084-1.7239,0.68084-0.72956,0-1.3061-0.22695-1.7297-0.68084-0.4197-0.45806-0.62954-1.0806-0.62953-1.8676-0.000007-0.78286,0.20984-1.3992,0.62953-1.8489,0.4236-0.45389,1.0002-0.68084,1.7297-0.68084m-5.3952,5.0782-1.3003,0,5.4893-9.6755,1.3061,0-5.4952,9.6755m-1.2061-9.6755c0.72955,0.000009,1.3022,0.22696,1.718,0.68084,0.41969,0.44974,0.62953,1.0681,0.62953,1.8551-0.000005,0.78704-0.20985,1.4075-0.62953,1.8614-0.41577,0.4539-0.98843,0.68085-1.718,0.68084-0.72956,0.000004-1.3042-0.22694-1.7239-0.68084-0.41577-0.45389-0.62365-1.0744-0.62365-1.8614-3E-7-0.78702,0.20788-1.4054,0.62365-1.8551,0.41969-0.45388,0.99431-0.68083,1.7239-0.68084m0,1.0494c-0.28241,0.00001-0.5001,0.1291-0.65307,0.38727-0.15297,0.25819-0.22946,0.62464-0.22946,1.0993-0.000001,0.47889,0.076484,0.8495,0.22946,1.1118,0.15297,0.25818,0.37066,0.38727,0.65307,0.38727,0.28241,0.000007,0.49813-0.12908,0.64719-0.38727,0.15297-0.26234,0.22945-0.63295,0.22946-1.1118-0.000004-0.47471-0.076494-0.84116-0.22946-1.0993-0.15297-0.25817-0.3687-0.38726-0.64719-0.38727"/>
		<path d="m25.834,33.719c-0.31454,0.000006-0.55818,0.17814-0.73094,0.53442-0.17278,0.35054-0.25916,0.85336-0.25915,1.5085-0.00001,0.66085,0.08415,1.1694,0.25251,1.5257,0.17276,0.35054,0.41862,0.52581,0.73759,0.5258,0.31895,0.000001,0.56259-0.17527,0.73094-0.5258,0.16833-0.35628,0.2525-0.86484,0.25251-1.5257-0.000011-0.6551-0.08639-1.1579-0.25915-1.5085-0.16835-0.35628-0.40978-0.53442-0.7243-0.53442m0-1.4481c0.82396,0.000007,1.4729,0.31032,1.947,0.93093,0.47399,0.62063,0.71099,1.474,0.71101,2.5601-0.000013,1.0861-0.23702,1.9452-0.71101,2.5773-0.47402,0.62637-1.123,0.93955-1.947,0.93955-0.82398,0-1.4752-0.31318-1.9536-0.93955-0.47401-0.63211-0.71102-1.4912-0.71101-2.5773-0.000008-1.0803,0.23699-1.9308,0.71101-2.5514,0.47842-0.62636,1.1296-0.93954,1.9536-0.93955m-6.0934,7.0079-1.4685,0,6.1997-13.352,1.4752,0-6.2064,13.352m-1.3622-13.352c0.82397,0.000015,1.4707,0.3132,1.9403,0.93955,0.474,0.62064,0.711,1.474,0.71101,2.5601-0.000006,1.0861-0.23701,1.9423-0.71101,2.5687-0.46958,0.62637-1.1164,0.93956-1.9403,0.93955-0.82397,0.000005-1.473-0.31318-1.947-0.93955-0.46958-0.62636-0.70436-1.4826-0.70436-2.5687s0.23479-1.9394,0.70436-2.5601c0.474-0.62635,1.123-0.93954,1.947-0.93955m0,1.4481c-0.31896,0.000011-0.56482,0.17815-0.73759,0.53442-0.17277,0.35629-0.25915,0.86198-0.25915,1.5171-0.000001,0.66086,0.08638,1.1723,0.25915,1.5343,0.17277,0.35629,0.41863,0.53443,0.73759,0.53442,0.31895,0.00001,0.5626-0.17813,0.73094-0.53442,0.17276-0.36202,0.25915-0.87346,0.25915-1.5343-0.000005-0.65509-0.08639-1.1608-0.25915-1.5171-0.17277-0.35627-0.41642-0.53441-0.73094-0.53442"/>
		<path d="m42.439,35.057c-0.36705,0.000006-0.65138,0.20974-0.85298,0.62919-0.20162,0.4127-0.30243,1.0047-0.30242,1.7759-0.000012,0.77804,0.0982,1.3768,0.29467,1.7962,0.2016,0.4127,0.48851,0.61905,0.86074,0.61904,0.3722,0.000003,0.65652-0.20634,0.85298-0.61904,0.19643-0.41946,0.29465-1.0182,0.29467-1.7962-0.000013-0.77126-0.10081-1.3632-0.30242-1.7759-0.198-0.419-0.48-0.629-0.847-0.629m0-1.7049c0.96153,0.000007,1.7189,0.36534,2.272,1.096,0.55313,0.73068,0.8297,1.7354,0.82972,3.014-0.000015,1.2787-0.27659,2.2901-0.82972,3.0343-0.55316,0.73744-1.3105,1.1062-2.272,1.1062-0.96155,0-1.7215-0.36872-2.2798-1.1062-0.55316-0.7442-0.82973-1.7556-0.82972-3.0343-0.000009-1.2719,0.27656-2.2732,0.82972-3.0039,0.5583-0.73743,1.3182-1.1062,2.2798-1.1062m-7.1108,8.2505-1.7137,0,7.2348-15.72,1.7215,0-7.2426,15.72m-1.588-15.719c0.96154,0.000017,1.7163,0.36874,2.2643,1.1062,0.55314,0.73069,0.82971,1.7354,0.82972,3.014-0.000007,1.2787-0.27658,2.2868-0.82972,3.0242-0.54798,0.73745-1.3027,1.1062-2.2643,1.1062-0.96154,0.000006-1.7189-0.36871-2.272-1.1062-0.54798-0.73743-0.82196-1.7455-0.82196-3.0242s0.27399-2.2833,0.82196-3.014c0.55314-0.73742,1.3105-1.1061,2.272-1.1062m0,1.7049c-0.37221,0.000016-0.65912,0.20975-0.86074,0.62919-0.20162,0.41947-0.30242,1.0148-0.30242,1.7861-0.000001,0.77804,0.1008,1.3802,0.30242,1.8064,0.20161,0.41947,0.48852,0.6292,0.86074,0.62919,0.37221,0.000012,0.65653-0.20972,0.85298-0.62919,0.20161-0.42622,0.30241-1.0283,0.30242-1.8064-0.000006-0.77126-0.10081-1.3666-0.30242-1.7861-0.20162-0.41945-0.48595-0.62918-0.85298-0.62919"/>
	</g>
	<path stroke-linejoin="miter" d="M5,21c8-16,26-15,39-15" stroke="#583e3e" stroke-linecap="round" stroke-miterlimit="4" stroke-dasharray="none" stroke-width="2.70000005" fill="none"/>
	<path stroke-linejoin="miter" d="m2,3,0,21,44,0" stroke="#AAA" stroke-linecap="butt" stroke-width="1px" fill="none"/>
</svg>
