<?xml version="1.0" encoding="utf-8"?>
<!-- Generator: Adobe Illustrator 16.2.0, SVG Export Plug-In . SVG Version: 6.00 Build 0)  -->
<!DOCTYPE svg PUBLIC "-//W3C//DTD SVG 1.1//EN" "http://www.w3.org/Graphics/SVG/1.1/DTD/svg11.dtd">
<svg version="1.1" id="Layer_1" xmlns="http://www.w3.org/2000/svg" xmlns:xlink="http://www.w3.org/1999/xlink" x="0px" y="0px"
	 width="48px" height="48px" viewBox="0 0 48 48" enable-background="new 0 0 48 48" xml:space="preserve">
<g>
	<circle fill="#B3B3B3" cx="28.003" cy="21.252" r="2.5"/>
	<circle fill="#B3B3B3" cx="27.5" cy="28.752" r="2.5"/>
	<circle fill="#E6E6E6" cx="22.5" cy="23.752" r="2.5"/>
	<circle fill="#E6E6E6" cx="16" cy="32.252" r="2.5"/>
	<circle fill="#E6E6E6" cx="10.5" cy="27.752" r="2.5"/>
	<circle fill="#E6E6E6" cx="16.5" cy="26.752" r="2.5"/>
	<circle fill="#E6E6E6" cx="17.5" cy="20.752" r="2.5"/>
	<circle fill="#E6E6E6" cx="21.5" cy="29.752" r="2.5"/>
	<circle fill="#E6E6E6" cx="23" cy="18.252" r="2.5"/>
	<circle fill="#E6E6E6" cx="11.5" cy="21.752" r="2.5"/>
	<circle fill="#E6E6E6" cx="20.003" cy="13.252" r="2.5"/>
	<circle fill="#E6E6E6" cx="14.5" cy="15.752" r="2.5"/>
	<circle fill="#B3B3B3" cx="32.5" cy="31.752" r="2.5"/>
	<circle fill="#B3B3B3" cx="37.5" cy="27.752" r="2.5"/>
	<circle fill="#B3B3B3" cx="27.5" cy="34.752" r="2.5"/>
	<circle fill="#B3B3B3" cx="35.5" cy="20.752" r="2.5"/>
	<circle fill="#B3B3B3" cx="31.5" cy="16.752" r="2.5"/>
	<polygon fill="#333333" points="35,24.354 32.897,24.354 32.897,22.25 30.803,22.25 30.803,24.354 28.7,24.354 28.7,26.447 
		30.803,26.447 30.803,28.551 32.897,28.551 32.897,26.447 35,26.447 	"/>
	<polygon fill="#333333" points="20.3,22.053 18.197,22.053 18.197,19.949 16.103,19.949 16.103,22.053 14,22.053 14,24.146 
		16.103,24.146 16.103,26.25 18.197,26.25 18.197,24.146 20.3,24.146 	"/>
</g>
</svg>
