<?xml version="1.0" encoding="utf-8"?>
<!-- Generator: Adobe Illustrator 16.0.4, SVG Export Plug-In . SVG Version: 6.00 Build 0)  -->
<!DOCTYPE svg PUBLIC "-//W3C//DTD SVG 1.1//EN" "http://www.w3.org/Graphics/SVG/1.1/DTD/svg11.dtd">
<svg version="1.1" id="Layer_1" xmlns="http://www.w3.org/2000/svg" xmlns:xlink="http://www.w3.org/1999/xlink" x="0px" y="0px"
	 width="48px" height="48px" viewBox="0 0 48 48" enable-background="new 0 0 48 48" xml:space="preserve">
<g>
	<path fill="#B3B3B3" d="M24.438,16.002"/>
	<path fill="#B3B3B3" d="M37.438,22.002"/>
	<path fill="#B3B3B3" d="M36.438,16.002"/>
	<circle fill="#808080" cx="37.125" cy="19.127" r="2.5"/>
	<circle fill="#808080" cx="17.062" cy="22.752" r="2.5"/>
	<circle fill="#808080" cx="41.562" cy="29.377" r="2.5"/>
	<circle fill="#808080" cx="41.375" cy="34.814" r="2.5"/>
	<circle fill="#808080" cx="26.375" cy="36.127" r="2.5"/>
	<circle fill="#808080" cx="39.562" cy="24.189" r="2.5"/>
</g>
<circle fill="#808080" cx="19.75" cy="27.439" r="2.5"/>
<circle fill="#808080" cx="22.562" cy="31.877" r="2.5"/>
<circle fill="#B3B3B3" cx="7.5" cy="25.314" r="2.5"/>
<circle fill="#B3B3B3" cx="6.562" cy="19.627" r="2.5"/>
<circle fill="#B3B3B3" cx="10.312" cy="8.377" r="2.5"/>
<circle fill="#B3B3B3" cx="6.625" cy="13.127" r="2.5"/>
<circle fill="#B3B3B3" cx="16.375" cy="7.377" r="2.5"/>
<circle fill="#B3B3B3" cx="21.75" cy="9.439" r="2.5"/>
<circle fill="#B3B3B3" cx="25.312" cy="14.314" r="2.5"/>
<circle fill="#B3B3B3" cx="27.438" cy="19.877" r="2.5"/>
<circle fill="#B3B3B3" cx="10.125" cy="30.439" r="2.5"/>
<circle fill="#B3B3B3" cx="13.875" cy="34.252" r="2.5"/>
<circle fill="#808080" cx="14.75" cy="17.752" r="2.5"/>
<circle fill="#808080" cx="31.438" cy="39.002" r="2.5"/>
<circle fill="#808080" cx="37.25" cy="38.314" r="2.5"/>
<circle fill="#B3B3B3" cx="29.562" cy="25.252" r="2.5"/>
<circle fill="#B3B3B3" cx="32.25" cy="30.064" r="2.5"/>
</svg>
