<?xml version="1.0" encoding="utf-8"?>
<!-- Generator: Adobe Illustrator 16.0.4, SVG Export Plug-In . SVG Version: 6.00 Build 0)  -->
<!DOCTYPE svg PUBLIC "-//W3C//DTD SVG 1.1//EN" "http://www.w3.org/Graphics/SVG/1.1/DTD/svg11.dtd">
<svg version="1.1" id="Layer_1" xmlns="http://www.w3.org/2000/svg" xmlns:xlink="http://www.w3.org/1999/xlink" x="0px" y="0px"
	 width="48px" height="48px" viewBox="0 0 48 48" enable-background="new 0 0 48 48" xml:space="preserve">
<g>
	<path fill="#FFFFFF" d="M23.213,6.189H11.47V36H33V14.573c0-3.841-7.829-0.932-7.829-0.932C26.149,9.915,25.171,6.189,23.213,6.189
		z"/>
	<path fill="#666666" d="M25.547,6.189H13.126H11.47v1.656v26.499V36h1.656h18.218H33v-1.656V14.47v-1.656L25.547,6.189z
		 M31.344,34.344H13.126V7.845h9.937c1.656,0,2.484,3.312,1.656,6.625c0,0,6.625-2.586,6.625,0.828V34.344z"/>
</g>
<g>
	<path fill="#333333" d="M32.118,17.627h0.687l11.071,24H21.031L32.118,17.627z M24.444,39.561l13.613,0.021l-6.652-15.349
		L24.444,39.561z"/>
</g>
</svg>
