<?xml version="1.0" encoding="utf-8"?>
<!-- Generator: Adobe Illustrator 16.1.0, SVG Export Plug-In . SVG Version: 6.00 Build 0)  -->
<!DOCTYPE svg PUBLIC "-//W3C//DTD SVG 1.1//EN" "http://www.w3.org/Graphics/SVG/1.1/DTD/svg11.dtd">
<svg version="1.1" id="Layer_1" xmlns="http://www.w3.org/2000/svg" xmlns:xlink="http://www.w3.org/1999/xlink" x="0px" y="0px"
	 width="48px" height="48px" viewBox="0 0 48 48" enable-background="new 0 0 48 48" xml:space="preserve">
<g>
	<rect x="17" y="16.986" fill="#3F3F3F" width="3.999" height="4"/>
	<rect x="21" y="16.986" fill="#545454" width="3.999" height="4"/>
	<rect x="25.001" y="16.986" fill="#989898" width="4" height="4"/>
	<rect x="29.001" y="16.986" fill="#7B7B7B" width="3.999" height="4"/>
	<rect x="33.001" y="16.986" fill="#A1A1A1" width="4" height="4"/>
	<rect x="37.001" y="16.986" fill="#C7C7C7" width="3.999" height="4"/>
	<rect x="17" y="20.986" fill="#424242" width="3.999" height="4"/>
	<rect x="21" y="20.986" fill="#3C3C3C" width="3.999" height="4"/>
	<rect x="25.001" y="20.986" fill="#9E9E9E" width="4" height="4"/>
	<rect x="29.001" y="20.986" fill="#737373" width="3.999" height="4"/>
	<rect x="33.001" y="20.986" fill="#AFAFAF" width="4" height="4"/>
	<rect x="37.001" y="20.986" fill="#BCBCBC" width="3.999" height="4"/>
	<rect x="17" y="24.986" fill="#949494" width="3.999" height="4"/>
	<rect x="21" y="24.986" fill="#919191" width="3.999" height="4"/>
	<rect x="25.001" y="24.986" fill="#3C3C3C" width="4" height="4"/>
	<rect x="29.001" y="24.986" fill="#6B6B6B" width="3.999" height="4"/>
	<rect x="33.001" y="24.986" fill="#505050" width="4" height="4"/>
	<rect x="37.001" y="24.986" fill="#515151" width="3.999" height="4"/>
	<rect x="17" y="28.986" fill="#9E9E9E" width="3.999" height="4"/>
	<rect x="21" y="28.986" fill="#959595" width="3.999" height="4"/>
	<rect x="25.001" y="28.986" fill="#616161" width="4" height="4"/>
	<rect x="29.001" y="28.986" fill="#474747" width="3.999" height="4"/>
	<rect x="33.001" y="28.986" fill="#6B6B6B" width="4" height="4"/>
	<rect x="37.001" y="28.986" fill="#5D5D5D" width="3.999" height="4"/>
	<rect x="17" y="32.986" fill="#6D6D6D" width="3.999" height="4"/>
	<rect x="21" y="32.986" fill="#616161" width="3.999" height="4"/>
	<rect x="25.001" y="32.986" fill="#666666" width="4" height="4"/>
	<rect x="29.001" y="32.986" fill="#3C3C3C" width="3.999" height="4"/>
	<rect x="33.001" y="32.986" fill="#3C3C3C" width="4" height="4"/>
	<rect x="37.001" y="32.986" fill="#3E3E3E" width="3.999" height="4"/>
	<rect x="17" y="36.986" fill="#A7A7A7" width="3.999" height="4"/>
	<rect x="21" y="36.986" fill="#B0B0B0" width="3.999" height="4"/>
	<rect x="25.001" y="36.986" fill="#666666" width="4" height="4"/>
	<rect x="29.001" y="36.986" fill="#515151" width="3.999" height="4"/>
	<rect x="33.001" y="36.986" fill="#3C3C3C" width="4" height="4"/>
	<rect x="37.001" y="36.986" fill="#4A4A4A" width="3.999" height="4"/>
	<polygon fill="#666666" points="39,12 39,10.028 39,9 36,9 36,8.028 36,7 23,7 23,8.028 23,11 20,11 20,12.028 20,13 18,13 
		18,14.028 18,16 19,16 19,14 22,14 22,16 23,16 23,14.028 23,13 21,13 21,12 25,12 25,16 26,16 26,12.028 26,11 24,11 24,8 35,8 
		35,9 33,9 32,9 32,10.028 32,11 29,11 29,12.028 29,13 27,13 27,14.028 27,16 28,16 28,14 31,14 31,16 32,16 32,14.028 32,13 
		30,13 30,12 34,12 34,16 35,16 35,12.028 35,11 33,11 33,10 35,10 36,10 38,10 38,12 37,12 37,16 38,16 38,13 39,13 39,16 40,16 
		40,13.028 40,12 	"/>
	<polygon fill="#666666" points="16,19 16,18 14,18 13,18 13,20 12,20 11,20 11,23 8,23 7,23 7,36 8,36 9,36 9,39 10,39 12,39 
		12,40 13,40 16,40 16,39 13,39 13,38 16,38 16,37 12,37 12,38 10,38 10,36.028 10,35.028 10,33 11,33 11,35 12,35 16,35 16,34 
		12,34 12,30 13,30 13,32 14,32 16,32 16,31 14,31 14,28 16,28 16,27 14,27 13,27 13,29 12,29 11,29 11,32 10,32 9,32 9,33.028 
		9,35 8,35 8,24 11,24 11,26 12,26 16,26 16,25 12,25 12,21 13,21 13,23 14,23 16,23 16,22 14,22 14,19 	"/>
</g>
</svg>
