<?xml version="1.0" encoding="utf-8"?>
<!-- Generator: Adobe Illustrator 22.0.1, SVG Export Plug-In . SVG Version: 6.00 Build 0)  -->
<svg version="1.1" id="Layer_1" xmlns="http://www.w3.org/2000/svg" xmlns:xlink="http://www.w3.org/1999/xlink" x="0px" y="0px"
	 viewBox="0 0 48 48" style="enable-background:new 0 0 48 48;" xml:space="preserve">
<style type="text/css">
	.st0{fill:#FFFFFF;}
	.st1{fill:#333333;}
	.st2{fill:none;stroke:#333333;stroke-width:2;stroke-miterlimit:10;}
	.st3{fill:#B2B2B2;}
	.st4{fill:#F0F0F0;}
	.st5{fill:#666666;}
	.st6{fill:none;stroke:#333333;stroke-miterlimit:10;}
	.st7{fill:none;stroke:#333333;stroke-width:3;stroke-miterlimit:10;}
	.st8{fill:none;stroke:#333333;stroke-width:2;stroke-linecap:round;stroke-miterlimit:10;}
	.st9{fill:none;stroke:#C6C6C6;stroke-width:3;stroke-miterlimit:10;}
</style>
<g>
	<g>
		<path class="st0" d="M25,8H13v32h22V17c0-4.1-8-1-8-1C28,12,27,8,25,8z"/>
		<path class="st1" d="M28,6H13h-2v2v32v2h2h22h2v-2V16v-2L28,6z M35,40H13V8h12c2,0,3,4,2,8c0,0,8-3.1,8,1V40z"/>
	</g>
	<g>
		<path class="st1" d="M23.7,14.8h0.5l8.5,18.4H15.3L23.7,14.8z M17.9,31.6l10.4,0l-5.1-11.8L17.9,31.6z"/>
	</g>
</g>
</svg>
