<?xml version="1.0" encoding="utf-8"?>
<!-- Generator: Adobe Illustrator 22.0.1, SVG Export Plug-In . SVG Version: 6.00 Build 0)  -->
<svg version="1.1" id="Layer_1" xmlns="http://www.w3.org/2000/svg" xmlns:xlink="http://www.w3.org/1999/xlink" x="0px" y="0px"
	 viewBox="169.5 67.5 48 48" enable-background="new 169.5 67.5 48 48" xml:space="preserve">
<g>
	
		<rect x="175.482" y="73.482" transform="matrix(-8.964758e-11 1 -1 -8.964758e-11 257.9731 -102)" fill="#333333" width="9.009" height="9.009"/>
	
		<rect x="202.509" y="73.482" transform="matrix(-8.964758e-11 1 -1 -8.964758e-11 285 -129.0269)" fill="#333333" width="9.009" height="9.009"/>
	
		<rect x="193.5" y="73.482" transform="matrix(-8.964758e-11 1 -1 -8.964758e-11 275.991 -120.0179)" fill="#F0F0F0" width="9.009" height="9.009"/>
	
		<rect x="184.491" y="73.482" transform="matrix(-8.964758e-11 1 -1 -8.964758e-11 266.9821 -111.009)" fill="#666666" width="9.009" height="9.009"/>
	
		<rect x="175.482" y="82.491" transform="matrix(-8.964758e-11 1 -1 -8.964758e-11 266.9821 -92.991)" fill="#666666" width="9.009" height="9.009"/>
	
		<rect x="202.509" y="82.491" transform="matrix(-8.964758e-11 1 -1 -8.964758e-11 294.0089 -120.0179)" fill="#666666" width="9.009" height="9.009"/>
	
		<rect x="193.5" y="82.491" transform="matrix(-8.964758e-11 1 -1 -8.964758e-11 285 -111.009)" fill="#B2B2B2" width="9.009" height="9.009"/>
	
		<rect x="184.491" y="82.491" transform="matrix(-8.964758e-11 1 -1 -8.964758e-11 275.991 -102)" fill="#333333" width="9.009" height="9.009"/>
	
		<rect x="175.482" y="91.5" transform="matrix(-9.005170e-11 1 -1 -9.005170e-11 275.991 -83.9821)" fill="#F0F0F0" width="9.009" height="9.009"/>
	
		<rect x="202.509" y="91.5" transform="matrix(-9.025332e-11 1 -1 -9.025332e-11 303.0179 -111.009)" fill="#B2B2B2" width="9.009" height="9.009"/>
	
		<rect x="193.5" y="91.5" transform="matrix(-9.025332e-11 1 -1 -9.025332e-11 294.0089 -102)" fill="#333333" width="9.009" height="9.009"/>
	
		<rect x="184.491" y="91.5" transform="matrix(-9.005170e-11 1 -1 -9.005170e-11 285 -92.991)" fill="#B2B2B2" width="9.009" height="9.009"/>
	
		<rect x="175.482" y="100.509" transform="matrix(-8.964758e-11 1 -1 -8.964758e-11 285 -74.9731)" fill="#333333" width="9.009" height="9.009"/>
	
		<rect x="202.509" y="100.509" transform="matrix(-8.964758e-11 1 -1 -8.964758e-11 312.0269 -102)" fill="#333333" width="9.009" height="9.009"/>
	
		<rect x="193.5" y="100.509" transform="matrix(-8.964758e-11 1 -1 -8.964758e-11 303.0179 -92.991)" fill="#B2B2B2" width="9.009" height="9.009"/>
	
		<rect x="184.491" y="100.509" transform="matrix(-8.964758e-11 1 -1 -8.964758e-11 294.0089 -83.9821)" fill="#666666" width="9.009" height="9.009"/>
</g>
</svg>
