<?xml version="1.0" encoding="utf-8"?>
<!-- Generator: Adobe Illustrator 22.0.1, SVG Export Plug-In . SVG Version: 6.00 Build 0)  -->
<svg version="1.1" id="Layer_1" xmlns="http://www.w3.org/2000/svg" xmlns:xlink="http://www.w3.org/1999/xlink" x="0px" y="0px"
	 viewBox="0 0 48 48" style="enable-background:new 0 0 48 48;" xml:space="preserve">
<style type="text/css">
	.st0{fill:#FFFFFF;}
	.st1{fill:#333333;}
	.st2{fill:none;stroke:#333333;stroke-width:2;stroke-miterlimit:10;}
	.st3{fill:#B2B2B2;}
	.st4{fill:#F0F0F0;}
	.st5{fill:#666666;}
	.st6{fill:none;stroke:#333333;stroke-miterlimit:10;}
	.st7{fill:none;stroke:#333333;stroke-width:3;stroke-miterlimit:10;}
	.st8{fill:none;stroke:#333333;stroke-width:2;stroke-linecap:round;stroke-miterlimit:10;}
	.st9{fill:none;stroke:#C6C6C6;stroke-width:3;stroke-miterlimit:10;}
</style>
<g>
	<rect x="35.8" y="12.5" transform="matrix(-8.965824e-11 1 -1 -8.965824e-11 56 -23.25)" class="st1" width="7.8" height="7.8"/>
	<rect x="28" y="12.5" transform="matrix(-8.965824e-11 1 -1 -8.965824e-11 48.25 -15.5)" class="st4" width="7.8" height="7.8"/>
	<rect x="20.2" y="12.5" transform="matrix(-8.965824e-11 1 -1 -8.965824e-11 40.5 -7.75)" class="st5" width="7.8" height="7.8"/>
	<rect x="35.8" y="20.2" transform="matrix(-8.965824e-11 1 -1 -8.965824e-11 63.75 -15.5)" class="st5" width="7.8" height="7.8"/>
	<rect x="28" y="20.2" transform="matrix(-8.965824e-11 1 -1 -8.965824e-11 56 -7.75)" class="st3" width="7.8" height="7.8"/>
	
		<rect x="20.2" y="20.2" transform="matrix(-8.965824e-11 1 -1 -8.965824e-11 48.25 1.617309e-09)" class="st1" width="7.8" height="7.8"/>
	<rect x="35.8" y="28" transform="matrix(-9.012809e-11 1 -1 -9.012809e-11 71.5 -7.75)" class="st3" width="7.8" height="7.8"/>
	
		<rect x="28" y="28" transform="matrix(-9.012809e-11 1 -1 -9.012809e-11 63.75 3.720483e-09)" class="st1" width="7.8" height="7.8"/>
	<rect x="20.2" y="28" transform="matrix(-9.012809e-11 1 -1 -9.012809e-11 56 7.75)" class="st3" width="7.8" height="7.8"/>
	<g>
		
			<rect x="12.5" y="12.5" transform="matrix(-8.965824e-11 1 -1 -8.965824e-11 32.75 2.257856e-10)" class="st1" width="7.8" height="7.8"/>
		<rect x="12.5" y="20.2" transform="matrix(-8.965824e-11 1 -1 -8.965824e-11 40.5 7.75)" class="st5" width="7.8" height="7.8"/>
		<rect x="12.5" y="28" transform="matrix(-9.012809e-11 1 -1 -9.012809e-11 48.25 15.5)" class="st4" width="7.8" height="7.8"/>
		<rect x="12.5" y="35.8" transform="matrix(-8.965824e-11 1 -1 -8.965824e-11 56 23.25)" class="st1" width="7.8" height="7.8"/>
	</g>
	
		<rect x="35.8" y="35.8" transform="matrix(-8.965824e-11 1 -1 -8.965824e-11 79.25 5.791428e-09)" class="st1" width="7.8" height="7.8"/>
	<rect x="28" y="35.8" transform="matrix(-8.965824e-11 1 -1 -8.965824e-11 71.5 7.75)" class="st3" width="7.8" height="7.8"/>
	<rect x="20.2" y="35.8" transform="matrix(-8.965824e-11 1 -1 -8.965824e-11 63.75 15.5)" class="st5" width="7.8" height="7.8"/>
	<polyline class="st6" points="39.5,12 39.5,9 31.5,9 31.5,12 	"/>
	<polyline class="st6" points="24.5,12 24.5,9 16.5,9 16.5,12 	"/>
	<polyline class="st6" points="20.2,9 20.2,5 35.5,5 35.5,9 	"/>
	<polyline class="st6" points="12,16.5 9,16.5 9,24.5 12,24.5 	"/>
	<polyline class="st6" points="12,31.5 9,31.5 9,39.5 12,39.5 	"/>
	<polyline class="st6" points="9,35.8 5,35.8 5,20.5 9,20.5 	"/>
</g>
</svg>
