<?xml version="1.0" encoding="utf-8"?>
<!-- Generator: Adobe Illustrator 22.0.1, SVG Export Plug-In . SVG Version: 6.00 Build 0)  -->
<svg version="1.1" id="Layer_1" xmlns="http://www.w3.org/2000/svg" xmlns:xlink="http://www.w3.org/1999/xlink" x="0px" y="0px"
	 viewBox="0 0 48 48" style="enable-background:new 0 0 48 48;" xml:space="preserve">
<style type="text/css">
	.st0{fill:#FFFFFF;}
	.st1{fill:#333333;}
	.st2{fill:none;stroke:#333333;stroke-width:2;stroke-miterlimit:10;}
	.st3{fill:#B2B2B2;}
	.st4{fill:#F0F0F0;}
	.st5{fill:#666666;}
	.st6{fill:none;stroke:#333333;stroke-miterlimit:10;}
	.st7{fill:none;stroke:#333333;stroke-width:3;stroke-miterlimit:10;}
	.st8{fill:none;stroke:#333333;stroke-width:2;stroke-linecap:round;stroke-miterlimit:10;}
	.st9{fill:none;stroke:#C6C6C6;stroke-width:3;stroke-miterlimit:10;}
	.st10{fill:none;stroke:#333333;stroke-width:2;stroke-linejoin:round;stroke-miterlimit:10;}
</style>
<g>
	<g>
		<path class="st3" d="M14.5,10.6c0-2.2-1.7-4-3.9-4.1c-2.2,0-4,1.7-4.1,3.9c0,2.2,1.7,4,3.9,4.1C12.7,14.5,14.5,12.8,14.5,10.6z"/>
	</g>
	<g>
		<path class="st1" d="M23.5,10.6c0-2.2-1.7-4-3.9-4.1c-2.2,0-4,1.7-4.1,3.9c0,2.2,1.7,4,3.9,4.1C21.7,14.5,23.5,12.8,23.5,10.6z"/>
	</g>
	<g>
		<path class="st1" d="M14.5,19.6c0-2.2-1.7-4-3.9-4.1c-2.2,0-4,1.7-4.1,3.9c0,2.2,1.7,4,3.9,4.1C12.7,23.5,14.5,21.8,14.5,19.6z"/>
	</g>
	<g>
		<path class="st3" d="M14.5,28.6c0-2.2-1.7-4-3.9-4.1c-2.2,0-4,1.7-4.1,3.9c0,2.2,1.7,4,3.9,4.1C12.7,32.5,14.5,30.8,14.5,28.6z"/>
	</g>
	<g>
		<path class="st1" d="M23.5,28.6c0-2.2-1.7-4-3.9-4.1c-2.2,0-4,1.7-4.1,3.9c0,2.2,1.7,4,3.9,4.1C21.7,32.5,23.5,30.8,23.5,28.6z"/>
	</g>
	<g>
		<path class="st3" d="M32.5,10.6c0-2.2-1.7-4-3.9-4.1c-2.2,0-4,1.7-4.1,3.9c0,2.2,1.7,4,3.9,4.1C30.7,14.5,32.5,12.8,32.5,10.6z"/>
	</g>
	<g>
		<path class="st3" d="M41.5,10.6c0-2.2-1.7-4-3.9-4.1c-2.2,0-4,1.7-4.1,3.9c0,2.2,1.7,4,3.9,4.1C39.7,14.5,41.5,12.8,41.5,10.6z"/>
	</g>
	<g>
		<path class="st1" d="M32.5,19.6c0-2.2-1.7-4-3.9-4.1c-2.2,0-4,1.7-4.1,3.9c0,2.2,1.7,4,3.9,4.1C30.7,23.5,32.5,21.8,32.5,19.6z"/>
	</g>
	<g>
		<path class="st3" d="M41.5,19.6c0-2.2-1.7-4-3.9-4.1c-2.2,0-4,1.7-4.1,3.9c0,2.2,1.7,4,3.9,4.1C39.7,23.5,41.5,21.8,41.5,19.6z"/>
	</g>
	<g>
		<path class="st3" d="M32.5,28.6c0-2.2-1.7-4-3.9-4.1c-2.2,0-4,1.7-4.1,3.9c0,2.2,1.7,4,3.9,4.1C30.7,32.5,32.5,30.8,32.5,28.6z"/>
	</g>
	<g>
		<path class="st3" d="M41.5,28.6c0-2.2-1.7-4-3.9-4.1c-2.2,0-4,1.7-4.1,3.9c0,2.2,1.7,4,3.9,4.1C39.7,32.5,41.5,30.8,41.5,28.6z"/>
	</g>
	<g>
		<path class="st3" d="M14.5,37.6c0-2.2-1.7-4-3.9-4.1c-2.2,0-4,1.7-4.1,3.9c0,2.2,1.7,4,3.9,4.1C12.7,41.5,14.5,39.8,14.5,37.6z"/>
	</g>
	<g>
		<path class="st3" d="M23.5,37.6c0-2.2-1.7-4-3.9-4.1c-2.2,0-4,1.7-4.1,3.9c0,2.2,1.7,4,3.9,4.1C21.7,41.5,23.5,39.8,23.5,37.6z"/>
	</g>
	<g>
		<path class="st3" d="M32.5,37.6c0-2.2-1.7-4-3.9-4.1c-2.2,0-4,1.7-4.1,3.9c0,2.2,1.7,4,3.9,4.1C30.7,41.5,32.5,39.8,32.5,37.6z"/>
	</g>
	<g>
		<path class="st3" d="M41.5,37.6c0-2.2-1.7-4-3.9-4.1c-2.2,0-4,1.7-4.1,3.9c0,2.2,1.7,4,3.9,4.1C39.7,41.5,41.5,39.8,41.5,37.6z"/>
	</g>
	<polygon class="st1" points="23.3,18.2 20.8,18.2 20.8,15.7 18.2,15.7 18.2,18.2 15.7,18.2 15.7,20.8 18.2,20.8 18.2,23.3 
		20.8,23.3 20.8,20.8 23.3,20.8 	"/>
</g>
</svg>
