<?xml version="1.0" encoding="utf-8"?>
<!-- Generator: Adobe Illustrator 16.1.0, SVG Export Plug-In . SVG Version: 6.00 Build 0)  -->
<!DOCTYPE svg PUBLIC "-//W3C//DTD SVG 1.1//EN" "http://www.w3.org/Graphics/SVG/1.1/DTD/svg11.dtd">
<svg version="1.1" id="Layer_1" xmlns="http://www.w3.org/2000/svg" xmlns:xlink="http://www.w3.org/1999/xlink" x="0px" y="0px"
	 width="48px" height="48px" viewBox="0 0 48 48" enable-background="new 0 0 48 48" xml:space="preserve">
<polygon fill="#333333" points="39,10 39,8 21,8 21,12 9,12 9,29 14,29 14,36 19,36 19,41 39,41 39,39 21,39 21,31 24,31 24,34 
	39,34 39,32 26,32 26,28 39,28 39,26 24,26 24,29 19,29 19,34 16,34 16,22 39,22 39,20 14,20 14,27 11,27 11,14 21,14 21,18 39,18 
	39,16 23,16 23,10 "/>
</svg>
