<?xml version="1.0" encoding="utf-8"?>
<!-- Generator: Adobe Illustrator 22.0.1, SVG Export Plug-In . SVG Version: 6.00 Build 0)  -->
<svg version="1.1" id="Layer_1" xmlns="http://www.w3.org/2000/svg" xmlns:xlink="http://www.w3.org/1999/xlink" x="0px" y="0px"
	 viewBox="0 0 48 48" style="enable-background:new 0 0 48 48;" xml:space="preserve">
<style type="text/css">
	.st0{fill:#FFFFFF;}
	.st1{fill:#333333;}
	.st2{fill:none;stroke:#333333;stroke-width:2;stroke-miterlimit:10;}
	.st3{fill:#B2B2B2;}
	.st4{fill:#F0F0F0;}
	.st5{fill:#666666;}
	.st6{fill:none;stroke:#333333;stroke-miterlimit:10;}
	.st7{fill:none;stroke:#333333;stroke-width:3;stroke-miterlimit:10;}
	.st8{fill:none;stroke:#333333;stroke-width:2;stroke-linecap:round;stroke-miterlimit:10;}
	.st9{fill:none;stroke:#C6C6C6;stroke-width:3;stroke-miterlimit:10;}
</style>
<g>
	<polygon class="st1" points="19.1,14.7 16.3,14.7 16.3,11.9 13.5,11.9 13.5,14.7 10.7,14.7 10.7,17.5 13.5,17.5 13.5,20.3 
		16.3,20.3 16.3,17.5 19.1,17.5 	"/>
	<g>
		<path class="st5" d="M42.9,20c1.1-1.9,0.5-4.4-1.4-5.5c-1.9-1.1-4.3-0.5-5.5,1.4c-1.1,1.9-0.5,4.3,1.4,5.5
			C39.3,22.5,41.8,21.9,42.9,20z"/>
	</g>
	<g>
		<path class="st1" d="M24.5,23.4c0-2.2-1.7-4-3.9-4.1c-2.2,0-4,1.7-4.1,3.9c0,2.2,1.7,4,3.9,4.1C22.6,27.4,24.5,25.6,24.5,23.4z"/>
	</g>
	<g>
		<path class="st3" d="M14.7,24.6c0-2.2-1.7-4-3.9-4.1c-2.2,0-4,1.7-4.1,3.9c0,2.2,1.7,4,3.9,4.1C12.8,28.6,14.6,26.8,14.7,24.6z"/>
	</g>
	<g>
		<path class="st3" d="M12.5,11c0-2.2-1.7-4-3.9-4.1c-2.2,0-4,1.7-4.1,3.9c0,2.2,1.7,4,3.9,4.1C10.6,15,12.5,13.2,12.5,11z"/>
	</g>
	<g>
		<path class="st5" d="M30.7,17c1.1-1.9,0.5-4.4-1.4-5.5c-1.9-1.1-4.3-0.5-5.5,1.4c-1.1,1.9-0.5,4.3,1.4,5.5
			C27.1,19.5,29.6,18.9,30.7,17z"/>
	</g>
	<g>
		<path class="st1" d="M34.4,38.9c0-2.2-1.7-4-3.9-4.1c-2.2,0-4,1.7-4.1,3.9c0,2.2,1.7,4,3.9,4.1C32.6,42.9,34.4,41.1,34.4,38.9z"/>
	</g>
	<g>
		<path class="st1" d="M20.5,37.8c0-2.2-1.7-4-3.9-4.1c-2.2,0-4,1.7-4.1,3.9c0,2.2,1.7,4,3.9,4.1C18.6,41.7,20.5,40,20.5,37.8z"/>
	</g>
	<g>
		<path class="st3" d="M24.5,9.2c0-2.2-1.7-4-3.9-4.1c-2.2,0-4,1.7-4.1,3.9c0,2.2,1.7,4,3.9,4.1C22.6,13.2,24.5,11.4,24.5,9.2z"/>
	</g>
	<g>
		<path class="st5" d="M40.5,32.5c1.1-1.9,0.5-4.4-1.4-5.5c-1.9-1.1-4.3-0.5-5.5,1.4c-1.1,1.9-0.5,4.3,1.4,5.5
			C36.9,35,39.4,34.4,40.5,32.5z"/>
	</g>
	<polygon class="st1" points="28.7,30.1 25.9,30.1 25.9,27.3 23.1,27.3 23.1,30.1 20.3,30.1 20.3,32.9 23.1,32.9 23.1,35.7 
		25.9,35.7 25.9,32.9 28.7,32.9 	"/>
	<polygon class="st1" points="35.7,21.7 32.9,21.7 32.9,18.9 30.1,18.9 30.1,21.7 27.3,21.7 27.3,24.5 30.1,24.5 30.1,27.3 
		32.9,27.3 32.9,24.5 35.7,24.5 	"/>
</g>
</svg>
