<?xml version="1.0" encoding="utf-8"?>
<!-- Generator: Adobe Illustrator 16.1.0, SVG Export Plug-In . SVG Version: 6.00 Build 0)  -->
<!DOCTYPE svg PUBLIC "-//W3C//DTD SVG 1.1//EN" "http://www.w3.org/Graphics/SVG/1.1/DTD/svg11.dtd">
<svg version="1.1" id="Layer_1" xmlns="http://www.w3.org/2000/svg" xmlns:xlink="http://www.w3.org/1999/xlink" x="0px" y="0px"
	 width="48px" height="48px" viewBox="0 0 48 48" enable-background="new 0 0 48 48" xml:space="preserve">
<g>
	<circle fill="#B3B3B3" cx="29" cy="15.002" r="2.5"/>
	<circle fill="#B3B3B3" cx="28" cy="22.002" r="2.5"/>
	<circle fill="#E6E6E6" cx="22" cy="23.002" r="2.5"/>
	<circle fill="#E6E6E6" cx="23" cy="17.002" r="2.5"/>
	<circle fill="#E6E6E6" cx="16" cy="25.002" r="2.5"/>
	<circle fill="#E6E6E6" cx="20" cy="12.002" r="2.5"/>
	<circle fill="#E6E6E6" cx="15" cy="15.002" r="2.5"/>
	<circle fill="#E6E6E6" cx="11" cy="20.002" r="2.5"/>
	<circle fill="#B3B3B3" cx="37" cy="21.002" r="2.5"/>
	<circle fill="#B3B3B3" cx="33" cy="26.002" r="2.5"/>
	<circle fill="#B3B3B3" cx="36" cy="15.002" r="2.5"/>
	<circle fill="#B3B3B3" cx="32" cy="10.002" r="2.5"/>
	<polygon fill="#333333" points="35.8,18.303 33.697,18.303 33.697,16.199 31.603,16.199 31.603,18.303 29.5,18.303 29.5,20.396
		31.603,20.396 31.603,22.5 33.697,22.5 33.697,20.396 35.8,20.396 	"/>
	<polygon fill="#333333" points="20.8,18.604 18.697,18.604 18.697,16.5 16.603,16.5 16.603,18.604 14.5,18.604 14.5,20.697
		16.603,20.697 16.603,22.801 18.697,22.801 18.697,20.697 20.8,20.697 	"/>
	<circle fill="#808080" cx="27" cy="28.002" r="2.5"/>
	<circle fill="#808080" cx="21" cy="29.002" r="2.5"/>
	<circle fill="#808080" cx="22" cy="38.002" r="2.5"/>
	<circle fill="#808080" cx="28" cy="38.002" r="2.5"/>
	<circle fill="#808080" cx="18" cy="34.002" r="2.5"/>
	<circle fill="#808080" cx="31" cy="32.002" r="2.5"/>
	<polygon fill="#333333" points="27.8,32.303 25.697,32.303 25.697,30.199 23.603,30.199 23.603,32.303 21.5,32.303 21.5,34.396
		23.603,34.396 23.603,36.5 25.697,36.5 25.697,34.396 27.8,34.396 	"/>
</g>
</svg>
