<?xml version="1.0" encoding="utf-8"?>
<!-- Generator: Adobe Illustrator 22.0.1, SVG Export Plug-In . SVG Version: 6.00 Build 0)  -->
<svg version="1.1" id="Layer_1" xmlns="http://www.w3.org/2000/svg" xmlns:xlink="http://www.w3.org/1999/xlink" x="0px" y="0px"
	 viewBox="0 0 48 48" style="enable-background:new 0 0 48 48;" xml:space="preserve">
<style type="text/css">
	.st0{fill:none;stroke:#333333;stroke-width:2;stroke-miterlimit:10;}
	.st1{fill:#333333;}
	.st2{fill:none;stroke:#333333;stroke-width:1.5;stroke-miterlimit:10;}
</style>
<g id="zXDtGm_1_">
</g>
<g>
	<path class="st0" d="M30.7,17.2c6.7,0,12.2,5.5,12.2,12.2s-5.5,12.2-12.2,12.2c-6.7,0-12.2-5.5-12.2-12.2S24,17.2,30.7,17.2z"/>
	<path class="st0" d="M13,6.4c4.4,0,7.9,3.5,7.9,7.9s-3.5,7.9-7.9,7.9c-4.4,0-7.9-3.5-7.9-7.9S8.6,6.4,13,6.4z"/>
	<g>
		<path class="st1" d="M17.4,14.4c0-2.4-1.9-4.4-4.4-4.5c-2.4,0-4.4,1.9-4.5,4.4c0,2.4,1.9,4.4,4.4,4.5
			C15.4,18.7,17.4,16.8,17.4,14.4z"/>
	</g>
	<g>
		<path class="st1" d="M35.1,29.3c0-2.4-1.9-4.4-4.4-4.5c-2.4,0-4.4,1.9-4.5,4.4c0,2.4,1.9,4.4,4.4,4.5
			C33.1,33.7,35.1,31.7,35.1,29.3z"/>
	</g>
	<line class="st2" x1="13" y1="14.3" x2="30.7" y2="29.4"/>
</g>
</svg>
