<?xml version="1.0" encoding="utf-8"?>
<!-- Generator: Adobe Illustrator 16.1.0, SVG Export Plug-In . SVG Version: 6.00 Build 0)  -->
<!DOCTYPE svg PUBLIC "-//W3C//DTD SVG 1.1//EN" "http://www.w3.org/Graphics/SVG/1.1/DTD/svg11.dtd">
<svg version="1.1" id="Layer_1" xmlns="http://www.w3.org/2000/svg" xmlns:xlink="http://www.w3.org/1999/xlink" x="0px" y="0px"
	 width="48px" height="48px" viewBox="0 0 48 48" enable-background="new 0 0 48 48" xml:space="preserve">
<g>
	<path fill="#666666" d="M14.628,23.819c1.019,1.309,2.904,1.541,4.211,0.522c1.306-1.02,1.538-2.903,0.519-4.212
		c-1.018-1.303-2.901-1.537-4.207-0.519C13.843,20.629,13.609,22.516,14.628,23.819z"/>
</g>
<path fill="#333333" d="M12.504,10.02l0.919-2.456L7.995,8.754l3.312,4.467l0.847-2.264l5.646,2.105
	c0.04-0.333,0.144-0.654,0.292-0.958L12.504,10.02z"/>
<path fill="#666666" d="M23.141,11.569c-1.018-1.303-2.901-1.537-4.207-0.519c-0.373,0.29-0.648,0.655-0.842,1.053
	c-0.148,0.304-0.252,0.625-0.292,0.958c-0.09,0.757,0.105,1.549,0.611,2.197c1.019,1.309,2.904,1.541,4.211,0.522
	C23.928,14.762,24.161,12.878,23.141,11.569z"/>
<g>
	<path fill="#666666" d="M27.672,19.978c-0.383-1.612-2.002-2.608-3.613-2.225c-1.611,0.385-2.606,2.002-2.222,3.615
		c0.383,1.608,2,2.604,3.611,2.221C27.061,23.206,28.057,21.587,27.672,19.978z"/>
</g>
<path fill="#333333" d="M37.924,18.388l-1.39-5.385l-1.623,1.765l-2.813-2.672c-0.16,0.217-0.339,0.423-0.562,0.598
	c-0.05,0.039-0.105,0.063-0.157,0.099l2.855,2.712l-1.788,1.943L37.924,18.388z"/>
<path fill="#666666" d="M32.054,8.481c-1.018-1.303-2.901-1.537-4.207-0.519c-1.308,1.018-1.541,2.904-0.522,4.208
	c0.979,1.259,2.757,1.509,4.054,0.621c0.051-0.035,0.107-0.06,0.157-0.099c0.223-0.174,0.403-0.38,0.562-0.598
	C32.872,11.041,32.899,9.566,32.054,8.481z"/>
<path fill="#333333" d="M40.085,30.781l-4.588-3.139l-0.064,2.508l-1.677-0.044c0.04,0.342,0.023,0.677-0.05,0.999l1.702,0.045
	l-0.065,2.525L40.085,30.781z"/>
<path fill="#666666" d="M33.755,30.106c-0.014-0.118-0.02-0.236-0.048-0.354c-0.383-1.612-2.001-2.608-3.613-2.225
	c-1.611,0.385-2.605,2.002-2.222,3.615c0.384,1.608,2.001,2.604,3.611,2.221c1.15-0.273,1.976-1.179,2.221-2.258
	C33.778,30.783,33.795,30.448,33.755,30.106z"/>
<path fill="#333333" d="M12.001,34.434l-1.055-2.36l-3.031,4.656l5.494,0.854l-1-2.237l6.945-3.156
	c-0.191-0.267-0.333-0.572-0.431-0.902L12.001,34.434z"/>
<path fill="#666666" d="M24.708,29.752c-0.383-1.612-2.001-2.608-3.613-2.225c-1.611,0.385-2.605,2.002-2.222,3.615
	c0.012,0.051,0.036,0.096,0.051,0.146c0.097,0.33,0.239,0.636,0.431,0.902c0.688,0.96,1.91,1.464,3.13,1.173
	C24.096,32.98,25.092,31.361,24.708,29.752z"/>
<g>
	<path fill="#666666" d="M35.672,20.978c-0.383-1.612-2.002-2.608-3.613-2.225c-1.611,0.385-2.606,2.002-2.222,3.615
		c0.383,1.608,2,2.604,3.611,2.221C35.061,24.206,36.057,22.587,35.672,20.978z"/>
</g>
<g>
	<path fill="#666666" d="M28.672,36.978c-0.383-1.612-2.002-2.608-3.613-2.225c-1.611,0.385-2.606,2.002-2.222,3.615
		c0.383,1.608,2,2.604,3.611,2.221C28.061,40.206,29.057,38.587,28.672,36.978z"/>
</g>
</svg>
