<?xml version="1.0" encoding="utf-8"?>
<!-- Generator: Adobe Illustrator 16.0.4, SVG Export Plug-In . SVG Version: 6.00 Build 0)  -->
<!DOCTYPE svg PUBLIC "-//W3C//DTD SVG 1.1//EN" "http://www.w3.org/Graphics/SVG/1.1/DTD/svg11.dtd">
<svg version="1.1" id="Layer_1" xmlns="http://www.w3.org/2000/svg" xmlns:xlink="http://www.w3.org/1999/xlink" x="0px" y="0px"
	 width="48px" height="48px" viewBox="0 0 48 48" enable-background="new 0 0 48 48" xml:space="preserve">
<g>
	<path fill="#666666" d="M30.025,10.23H7.717V37H33V13.2L30.025,10.23z M13.666,11.717h13.385v6.688l-0.743,0.749H14.41
		l-0.744-0.749V11.717z M30.025,35.513H10.692V23.615h2.227h13.364h3.742V35.513z"/>
	<polygon fill="#FFFFFF" points="12.919,23.615 10.692,23.615 10.692,35.513 30.025,35.513 30.025,23.615 26.283,23.615 	"/>
	<path fill="#FFFFFF" d="M26.308,19.153l0.743-0.749v-6.688H13.666v6.688l0.744,0.749H26.308z M22.59,12.461h2.974v5.949H22.59
		V12.461z"/>
	<rect x="22.59" y="12.461" fill="#666666" width="2.974" height="5.949"/>
</g>
<g>
	<path fill="#333333" d="M32.118,17.627h0.687l11.071,24H21.031L32.118,17.627z M24.444,39.561l13.613,0.021l-6.652-15.349
		L24.444,39.561z"/>
</g>
</svg>
