<?xml version="1.0" encoding="utf-8"?>
<!-- Generator: Adobe Illustrator 22.0.1, SVG Export Plug-In . SVG Version: 6.00 Build 0)  -->
<svg version="1.1" id="Layer_1" xmlns="http://www.w3.org/2000/svg" xmlns:xlink="http://www.w3.org/1999/xlink" x="0px" y="0px"
	 viewBox="0 0 48 48" style="enable-background:new 0 0 48 48;" xml:space="preserve">
<style type="text/css">
	.st0{fill:#FFFFFF;}
	.st1{fill:#333333;}
	.st2{fill:none;stroke:#333333;stroke-width:2;stroke-miterlimit:10;}
	.st3{fill:#B2B2B2;}
	.st4{fill:#F0F0F0;}
	.st5{fill:#666666;}
	.st6{fill:none;stroke:#333333;stroke-miterlimit:10;}
	.st7{fill:none;stroke:#333333;stroke-width:3;stroke-miterlimit:10;}
	.st8{fill:none;stroke:#333333;stroke-width:2;stroke-linecap:round;stroke-miterlimit:10;}
	.st9{fill:none;stroke:#C6C6C6;stroke-width:3;stroke-miterlimit:10;}
</style>
<g>
	<polygon class="st2" points="5.8,5.9 33.5,6 42.2,14.2 42.2,42 14.7,42.1 5.8,42.1 	"/>
	<polyline class="st2" points="15.5,5.9 15.5,16.3 27.1,16.3 29.3,16.3 29.3,6 	"/>
	<g>
		
			<rect x="14.5" y="22.1" transform="matrix(-8.999219e-11 1 -1 -8.999219e-11 46.0938 7.5937)" class="st1" width="9.5" height="9.5"/>
		
			<rect x="24" y="22.1" transform="matrix(-8.999219e-11 1 -1 -8.999219e-11 55.5938 -1.9063)" class="st3" width="9.5" height="9.5"/>
		<g>
			
				<rect x="14.5" y="31.6" transform="matrix(-8.999219e-11 1 -1 -8.999219e-11 55.5937 17.0938)" class="st3" width="9.5" height="9.5"/>
			
				<rect x="24" y="31.6" transform="matrix(-8.960939e-11 1 -1 -8.960939e-11 65.0937 7.5937)" class="st1" width="9.5" height="9.5"/>
		</g>
	</g>
</g>
</svg>
