<?xml version="1.0" encoding="utf-8"?>
<!-- Generator: Adobe Illustrator 23.0.4, SVG Export Plug-In . SVG Version: 6.00 Build 0)  -->
<svg version="1.1" id="Layer_1" xmlns="http://www.w3.org/2000/svg" xmlns:xlink="http://www.w3.org/1999/xlink" x="0px" y="0px"
	 viewBox="0 0 48 48" style="enable-background:new 0 0 48 48;" xml:space="preserve">
<style type="text/css">
	.st0{fill:#FFFFFF;}
	.st1{fill:none;stroke:#333333;stroke-width:3;stroke-miterlimit:10;}
	.st2{fill:#B2B2B2;}
</style>
<g>
	<polygon class="st0" points="22.7,10.6 14,5.6 5.3,10.6 5.3,20.7 14,25.7 22.7,20.7 	"/>
	<polygon class="st0" points="41.9,10.8 33.2,5.8 24.5,10.8 24.5,20.9 33.2,25.9 41.9,20.9 	"/>
	<polygon class="st0" points="32.9,26.9 24.2,21.9 15.5,26.9 15.5,37 24.2,42 32.9,37 	"/>
	<polygon class="st1" points="24,10.8 14.8,5.5 5.7,10.8 5.7,21.4 14.8,26.6 24,21.4 	"/>
	<polygon class="st1" points="42.3,10.8 33.2,5.5 24,10.8 24,21.4 33.2,26.6 42.3,21.4 	"/>
	<polygon class="st1" points="33.2,26.6 24,21.4 14.8,26.6 14.8,37.2 24,42.5 33.2,37.2 	"/>
	<circle class="st2" cx="24" cy="31.9" r="6.9"/>
	<circle class="st2" cx="24" cy="31.9" r="6.9"/>
	<circle class="st2" cx="33.2" cy="16.1" r="5"/>
</g>
</svg>
