<?xml version="1.0" encoding="utf-8"?>
<!-- Generator: Adobe Illustrator 16.0.0, SVG Export Plug-In . SVG Version: 6.00 Build 0)  -->
<!DOCTYPE svg PUBLIC "-//W3C//DTD SVG 1.1//EN" "http://www.w3.org/Graphics/SVG/1.1/DTD/svg11.dtd">
<svg version="1.1" id="Layer_1" xmlns="http://www.w3.org/2000/svg" xmlns:xlink="http://www.w3.org/1999/xlink" x="0px" y="0px"
	 width="48px" height="48px" viewBox="0 0 48 48" enable-background="new 0 0 48 48" xml:space="preserve">
<g id="zXDtGm_1_">
</g>
<g>
	<path fill="#666666" d="M42.011,24.554c0.119-1.653-1.124-3.091-2.776-3.212c-1.651-0.117-3.087,1.125-3.207,2.777
		c-0.119,1.65,1.122,3.087,2.773,3.205C40.454,27.446,41.892,26.203,42.011,24.554z"/>
</g>
<g>
	<path fill="#666666" d="M34.517,9.082c0.121-1.653-1.122-3.091-2.773-3.211c-1.653-0.117-3.089,1.124-3.209,2.777
		c-0.119,1.649,1.122,3.087,2.774,3.207C32.962,11.975,34.398,10.73,34.517,9.082z"/>
</g>
<g>
	<path fill="#333333" d="M27.199,8.909c0.024-1.657-1.301-3.021-2.956-3.045c-1.656-0.021-3.018,1.301-3.042,2.959
		c-0.023,1.653,1.299,3.017,2.955,3.04C25.813,11.888,27.177,10.563,27.199,8.909z"/>
</g>
<g>
	<path fill="#B2B2B2" d="M19.973,39.183c0.024-1.657-1.301-3.021-2.957-3.045c-1.655-0.021-3.017,1.301-3.041,2.959
		c-0.023,1.653,1.299,3.017,2.955,3.04C18.587,42.161,19.95,40.836,19.973,39.183z"/>
</g>
<g>
	<path fill="#B2B2B2" d="M11.979,24.38c0.025-1.657-1.3-3.021-2.956-3.045c-1.656-0.021-3.018,1.301-3.041,2.959
		c-0.022,1.653,1.3,3.016,2.956,3.039C10.596,27.358,11.959,26.033,11.979,24.38z"/>
</g>
<g>
	<path fill="#B2B2B2" d="M19.972,8.909c0.025-1.657-1.3-3.02-2.956-3.044c-1.655-0.021-3.018,1.301-3.041,2.959
		c-0.023,1.653,1.299,3.016,2.955,3.039C18.587,11.888,19.95,10.562,19.972,8.909z"/>
</g>
<g>
	<path fill="#666666" d="M42.01,32.19c0.121-1.653-1.123-3.092-2.775-3.212c-1.651-0.116-3.087,1.125-3.207,2.778
		c-0.119,1.649,1.122,3.086,2.774,3.205C40.454,35.083,41.892,33.839,42.01,32.19z"/>
</g>
<g>
	<path fill="#666666" d="M42.01,16.773c0.12-1.653-1.124-3.091-2.774-3.211c-1.652-0.117-3.089,1.124-3.208,2.778
		c-0.119,1.648,1.122,3.085,2.773,3.205C40.454,19.666,41.892,18.423,42.01,16.773z"/>
</g>
<g>
	<path fill="#333333" d="M27.225,32.015c0.025-1.656-1.3-3.02-2.956-3.044c-1.655-0.021-3.018,1.301-3.041,2.959
		c-0.022,1.653,1.3,3.017,2.956,3.04S27.203,33.669,27.225,32.015z"/>
</g>
<g>
	<path fill="#333333" d="M27.225,24.379c0.024-1.657-1.301-3.021-2.957-3.045c-1.655-0.021-3.017,1.302-3.04,2.959
		c-0.023,1.653,1.299,3.016,2.955,3.039C25.84,27.357,27.203,26.032,27.225,24.379z"/>
</g>
<g>
	<path fill="#333333" d="M27.226,16.599c0.024-1.657-1.301-3.021-2.956-3.044c-1.656-0.021-3.018,1.301-3.042,2.959
		c-0.022,1.653,1.3,3.015,2.956,3.039S27.203,18.252,27.226,16.599z"/>
</g>
<g>
	<path fill="#B2B2B2" d="M19.973,32.017c0.024-1.657-1.301-3.021-2.956-3.045c-1.656-0.021-3.018,1.302-3.042,2.96
		c-0.023,1.652,1.299,3.015,2.955,3.038C18.587,34.995,19.95,33.67,19.973,32.017z"/>
</g>
<g>
	<path fill="#B2B2B2" d="M11.979,16.6c0.025-1.656-1.301-3.02-2.956-3.045c-1.655-0.021-3.018,1.303-3.041,2.96
		c-0.023,1.653,1.299,3.016,2.955,3.039C10.595,19.579,11.958,18.254,11.979,16.6z"/>
</g>
<g>
	<path fill="#B2B2B2" d="M11.98,32.017c0.024-1.657-1.301-3.021-2.956-3.045c-1.656-0.021-3.018,1.302-3.042,2.96
		c-0.023,1.652,1.299,3.015,2.955,3.038C10.595,34.995,11.958,33.67,11.98,32.017z"/>
</g>
<g>
	<path fill="#333333" d="M34.524,39.183c0.024-1.657-1.301-3.021-2.956-3.045c-1.656-0.021-3.018,1.301-3.042,2.959
		c-0.023,1.653,1.299,3.017,2.955,3.04C33.139,42.161,34.502,40.837,34.524,39.183z"/>
</g>
<g>
	<path fill="#333333" d="M34.524,16.6c0.024-1.657-1.301-3.021-2.956-3.044c-1.656-0.021-3.018,1.301-3.042,2.959
		c-0.022,1.653,1.3,3.015,2.956,3.039S34.502,18.253,34.524,16.6z"/>
</g>
<g>
	<path fill="#333333" d="M19.973,16.368c0.024-1.657-1.301-3.021-2.956-3.044c-1.656-0.021-3.018,1.301-3.042,2.959
		c-0.022,1.653,1.3,3.015,2.956,3.039S19.95,18.021,19.973,16.368z"/>
</g>
<g>
	<path fill="#333333" d="M27.226,39.184c0.024-1.657-1.301-3.021-2.957-3.045c-1.655-0.021-3.017,1.302-3.04,2.959
		c-0.023,1.653,1.299,3.016,2.955,3.039C25.841,42.162,27.204,40.837,27.226,39.184z"/>
</g>
<g>
	<path fill="#666666" d="M34.517,24.19c0.121-1.653-1.123-3.092-2.775-3.212c-1.651-0.116-3.087,1.125-3.207,2.778
		c-0.119,1.649,1.122,3.086,2.774,3.205C32.961,27.083,34.398,25.839,34.517,24.19z"/>
</g>
</svg>
