<?xml version="1.0" encoding="utf-8"?>
<!-- Generator: Adobe Illustrator 16.0.0, SVG Export Plug-In . SVG Version: 6.00 Build 0)  -->
<!DOCTYPE svg PUBLIC "-//W3C//DTD SVG 1.1//EN" "http://www.w3.org/Graphics/SVG/1.1/DTD/svg11.dtd">
<svg version="1.1" id="Layer_1" xmlns="http://www.w3.org/2000/svg" xmlns:xlink="http://www.w3.org/1999/xlink" x="0px" y="0px"
	 width="48px" height="48px" viewBox="0 0 48 48" enable-background="new 0 0 48 48" xml:space="preserve">
<rect x="28.113" y="18.581" transform="matrix(-0.6953 -0.7187 0.7187 -0.6953 34.1212 54.4932)" fill="#333333" width="0.999" height="2.865"/>
<rect x="32.225" y="14.592" transform="matrix(-0.6958 -0.7183 0.7183 -0.6958 43.9836 50.6797)" fill="#333333" width="0.999" height="2.866"/>
<rect x="36.339" y="10.605" transform="matrix(-0.696 -0.718 0.718 -0.696 53.8361 46.8655)" fill="#333333" width="0.999" height="2.865"/>
<rect x="11.66" y="34.532" transform="matrix(0.6953 0.7187 -0.7187 0.6953 29.5543 2.2188)" fill="#333333" width="1" height="2.865"/>
<rect x="15.774" y="30.545" transform="matrix(0.6963 0.7178 -0.7178 0.6963 27.8945 -1.9692)" fill="#333333" width="1" height="2.863"/>
<rect x="19.886" y="26.556" transform="matrix(0.6953 0.7187 -0.7187 0.6953 26.3278 -6.1237)" fill="#333333" width="1" height="2.865"/>
<path fill="#333333" d="M9.19,40c0.311-1.484,1.055-4.244,2.672-6.993c2.714-4.614,6.661-7.25,11.751-7.864l0.206,0.213l0.269-0.26
	C24.71,25.036,25.346,25,26,25c4.834,0,8.686-1.485,11.447-4.414c4.982-5.284,4.57-13.306,4.551-13.645l-1.996,0.117
	c0.001,0.018,0.023,0.477-0.005,1.218l-0.422,0.409l0.375,0.387c-0.193,2.545-0.974,6.976-3.958,10.141
	C33.623,21.726,30.262,23,26,23c-0.157,0-0.305,0.012-0.46,0.015l-0.36-0.371l-0.408,0.397C14.065,23.625,9.693,31.754,8,36.836V40
	H9.19z"/>
<polygon fill="#B2B2B2" points="9.19,40 8,40 8,36.836 8,6 6,6 6,40 6,42 8,42 42,42 42,40 "/>
<g>
	<path fill="#333333" stroke="#FFFFFF" stroke-miterlimit="10" d="M40.724,28.729v-2.145l-3.217-1.072l-0.58-1.613l1.518-3.032
		l-1.516-1.516l-3.033,1.516l-1.75-0.717l-1.072-3.217h-2.145l-1.072,3.217l-1.608,0.547l-3.033-1.518l-1.519,1.516l1.519,3.034
		l-0.722,1.783l-3.217,1.072v2.145l3.217,1.074l0.724,1.775l-1.521,3.033l1.519,1.516l3.033-1.518l1.608,0.555l1.072,3.219h2.143
		l1.074-3.219l1.75-0.723l3.033,1.52l1.516-1.518l-1.516-3.033l0.578-1.607L40.724,28.729z M30.001,30.875
		c-1.777,0-3.217-1.441-3.217-3.219c0-1.775,1.438-3.219,3.217-3.219c1.777,0,3.217,1.441,3.217,3.219S31.778,30.875,30.001,30.875z
		"/>
</g>
</svg>
