<?xml version="1.0" encoding="utf-8"?>
<!-- Generator: Adobe Illustrator 16.1.0, SVG Export Plug-In . SVG Version: 6.00 Build 0)  -->
<!DOCTYPE svg PUBLIC "-//W3C//DTD SVG 1.1//EN" "http://www.w3.org/Graphics/SVG/1.1/DTD/svg11.dtd">
<svg version="1.1" id="Layer_1" xmlns="http://www.w3.org/2000/svg" xmlns:xlink="http://www.w3.org/1999/xlink" x="0px" y="0px"
	 width="48px" height="48px" viewBox="0 0 48 48" enable-background="new 0 0 48 48" xml:space="preserve">
<g>
	<g>
		<circle fill="#666666" cx="12.75" cy="11.001" r="2.999"/>
	</g>
	<g>
		<circle fill="#666666" cx="10.75" cy="21.001" r="2.999"/>
	</g>
	<g>
		<circle fill="#666666" cx="23.75" cy="11.001" r="2.999"/>
	</g>
	<g>
		<path fill="#B2B2B2" d="M17,17v23h23V17H17z M20.582,23.697c-0.384-1.611,0.611-3.229,2.223-3.613s3.23,0.611,3.613,2.225
			c0.385,1.609-0.611,3.229-2.225,3.611C22.582,26.305,20.966,25.309,20.582,23.697z M26.193,35.92
			c-1.611,0.385-3.228-0.611-3.611-2.223s0.611-3.229,2.223-3.613s3.23,0.611,3.613,2.225C28.803,33.918,27.807,35.537,26.193,35.92
			z M35.193,36.92c-1.611,0.385-3.228-0.611-3.611-2.223s0.611-3.229,2.223-3.613s3.23,0.611,3.613,2.225
			C37.803,34.918,36.807,36.537,35.193,36.92z M35.193,27.92c-1.611,0.385-3.228-0.611-3.611-2.223s0.611-3.229,2.223-3.613
			s3.23,0.611,3.613,2.225C37.803,25.918,36.807,27.537,35.193,27.92z"/>
		<g>
			<circle fill="#666666" cx="23.499" cy="23.002" r="2.999"/>
		</g>
		<g>
			<circle fill="#333333" cx="25.499" cy="33.002" r="2.999"/>
		</g>
		<g>
			<circle fill="#333333" cx="34.499" cy="34.002" r="2.999"/>
		</g>
		<g>
			<circle fill="#333333" cx="34.499" cy="25.002" r="2.999"/>
		</g>
	</g>
</g>
</svg>
