<?xml version="1.0" encoding="utf-8"?>
<!-- Generator: Adobe Illustrator 16.1.0, SVG Export Plug-In . SVG Version: 6.00 Build 0)  -->
<!DOCTYPE svg PUBLIC "-//W3C//DTD SVG 1.1//EN" "http://www.w3.org/Graphics/SVG/1.1/DTD/svg11.dtd">
<svg version="1.1" id="Layer_1" xmlns="http://www.w3.org/2000/svg" xmlns:xlink="http://www.w3.org/1999/xlink" x="0px" y="0px"
	 width="48px" height="48px" viewBox="0 0 48 48" enable-background="new 0 0 48 48" xml:space="preserve">
<g>
	<circle fill="#989898" cx="24.5" cy="40.002" r="2.999"/>
</g>
<g>
	<path fill="#989898" d="M13.417,21.307c-0.383-1.612-2.001-2.608-3.613-2.225c-1.611,0.385-2.606,2.002-2.222,3.615
		c0.383,1.608,2,2.605,3.611,2.221C12.806,24.536,13.802,22.917,13.417,21.307z"/>
</g>
<g>
	<circle fill="#666666" cx="40.5" cy="22.002" r="2.999"/>
</g>
<g>
	<circle fill="#989898" cx="7.5" cy="33.003" r="2.999"/>
</g>
<g>
	<circle fill="#666666" cx="36.5" cy="10.002" r="2.999"/>
</g>
<g>
	<circle fill="#666666" cx="12.5" cy="9" r="2.999"/>
</g>
<g>
	<circle fill="#666666" cx="24.5" cy="8" r="2.999"/>
</g>
<g>
	<path fill="#666666" d="M30.31,24.126l-0.202-3.607c1.046-0.668,1.615-1.938,1.31-3.211c-0.383-1.613-2.001-2.609-3.613-2.225
		c-1.611,0.385-2.606,2.002-2.222,3.613c0.298,1.251,1.341,2.122,2.546,2.272l0.184,3.284c0.157-0.068,0.319-0.13,0.491-0.171
		C29.32,23.959,29.833,23.991,30.31,24.126z"/>
</g>
<g>
	<path fill="#989898" d="M38.417,33.309c-0.383-1.613-2.001-2.609-3.613-2.225c-0.208,0.05-0.405,0.122-0.591,0.21l-2.22-2.64
		c-0.37,0.558-0.926,0.986-1.606,1.197l2.415,2.871c-0.283,0.596-0.384,1.283-0.219,1.975c0.383,1.61,2,2.606,3.611,2.223
		C37.806,36.536,38.802,34.918,38.417,33.309z"/>
</g>
<g>
	<path fill="#989898" d="M26.52,26.817l-5.241,1.093c-0.537-1.37-2.003-2.178-3.475-1.826c-1.611,0.385-2.606,2.002-2.222,3.613
		c0.383,1.61,2,2.606,3.611,2.223c1.05-0.25,1.83-1.026,2.146-1.98l5.724-1.193c-0.22-0.307-0.388-0.659-0.481-1.05
		C26.512,27.4,26.502,27.106,26.52,26.817z"/>
</g>
<g>
	<path fill="#333333" d="M32.417,26.308c-0.261-1.097-1.096-1.896-2.108-2.182c-0.477-0.135-0.989-0.167-1.505-0.043
		c-0.172,0.041-0.334,0.103-0.491,0.171c-1.043,0.45-1.725,1.45-1.793,2.564c-0.018,0.289-0.008,0.583,0.062,0.879
		c0.093,0.391,0.261,0.743,0.481,1.05c0.688,0.961,1.91,1.464,3.13,1.173c0.068-0.017,0.128-0.047,0.193-0.067
		c0.68-0.211,1.236-0.64,1.606-1.197C32.436,27.986,32.618,27.148,32.417,26.308z"/>
</g>
</svg>
