<?xml version="1.0" encoding="utf-8"?>
<!-- Generator: Adobe Illustrator 16.1.0, SVG Export Plug-In . SVG Version: 6.00 Build 0)  -->
<!DOCTYPE svg PUBLIC "-//W3C//DTD SVG 1.1//EN" "http://www.w3.org/Graphics/SVG/1.1/DTD/svg11.dtd">
<svg version="1.1" id="Layer_1" xmlns="http://www.w3.org/2000/svg" xmlns:xlink="http://www.w3.org/1999/xlink" x="0px" y="0px"
	 width="48px" height="48px" viewBox="0 0 48 48" enable-background="new 0 0 48 48" xml:space="preserve">
<g>
	<g>
		<polygon fill="#666666" points="3.617,13.494 8.951,15.291 8.951,23.189 12.373,24.332 12.373,16.443 18.078,18.365 
			17.961,36.006 3.5,31.135 		"/>
		<polygon fill="#666666" points="35.74,14.244 35.623,31.902 19.961,36.075 20.078,18.418 		"/>
		<polygon fill="#666666" points="27.789,10.468 34.053,12.625 19.117,16.604 14.273,14.973 		"/>
		<polygon fill="#666666" points="5.389,11.979 20.623,8 24.678,9.396 11.127,13.913 		"/>
		<polygon fill="#FFFFFF" points="8.951,23.189 8.951,15.291 9.623,15.518 11.623,16.19 12.373,16.443 12.373,24.332 		"/>
		<polygon fill="#FFFFFF" points="11.127,13.913 24.678,9.396 27.789,10.468 14.273,14.973 		"/>
	</g>
	<polygon fill="#333333" points="35.576,23 28.652,32.232 31.98,32.232 31.98,39 38.904,39 38.904,32.232 42.5,32.232 	"/>
	<path fill="#FFFFFF" d="M43.301,31.633L36.377,22.4l-0.801-1.066L34.777,22.4l-6.924,9.232l-1.201,1.6h2h2.328V39v1h1h6.924h1v-1
		v-5.768H42.5h2L43.301,31.633z M38.904,39H31.98v-6.768h-3.328L35.576,23l6.924,9.232h-3.596V39z"/>
</g>
</svg>
