<?xml version="1.0" encoding="utf-8"?>
<!-- Generator: Adobe Illustrator 16.1.0, SVG Export Plug-In . SVG Version: 6.00 Build 0)  -->
<!DOCTYPE svg PUBLIC "-//W3C//DTD SVG 1.1//EN" "http://www.w3.org/Graphics/SVG/1.1/DTD/svg11.dtd">
<svg version="1.1" id="Layer_1" xmlns="http://www.w3.org/2000/svg" xmlns:xlink="http://www.w3.org/1999/xlink" x="0px" y="0px"
	 width="48px" height="48px" viewBox="0 0 48 48" enable-background="new 0 0 48 48" xml:space="preserve">
<g>
	<path fill="#989898" d="M14.862,32.847c-0.639-2.689-3.336-4.35-6.022-3.709c-2.686,0.643-4.344,3.338-3.702,6.023
		c0.638,2.682,3.333,4.342,6.017,3.701C13.843,38.228,15.503,35.528,14.862,32.847z"/>
</g>
<g>
	<path fill="#989898" d="M28.863,32.847c-0.639-2.689-3.336-4.35-6.022-3.709c-2.686,0.643-4.344,3.338-3.702,6.023
		c0.638,2.682,3.333,4.342,6.017,3.701C27.843,38.228,29.503,35.528,28.863,32.847z"/>
</g>
<g>
	<path fill="#989898" d="M42.863,32.847c-0.639-2.689-3.336-4.35-6.022-3.709c-2.686,0.643-4.344,3.338-3.702,6.023
		c0.638,2.682,3.333,4.342,6.017,3.701C41.843,38.228,43.503,35.528,42.863,32.847z"/>
</g>
<path fill="#333333" d="M37,29l-0.644-6l-1.775,1.438l-6.337-7.799c0.679-1.092,0.94-2.444,0.618-3.792
	c-0.639-2.689-3.336-4.35-6.022-3.709c-2.686,0.643-4.344,3.338-3.702,6.023c0.127,0.536,0.355,1.017,0.631,1.46l-6.351,7.817
	L11.643,23L11,29l5.732-1.877l-1.76-1.426l6.183-7.609c0.554,0.385,1.177,0.66,1.845,0.797v5.054l-2.274,0.012L24.023,29
	l3.251-5.084L25,23.928v-5.044c0.052-0.011,0.104-0.009,0.155-0.021c0.629-0.148,1.196-0.419,1.696-0.768l6.176,7.603l-1.76,1.426
	L37,29z"/>
</svg>
