<?xml version="1.0" encoding="utf-8"?>
<!-- Generator: Adobe Illustrator 22.0.1, SVG Export Plug-In . SVG Version: 6.00 Build 0)  -->
<svg version="1.1" id="Layer_1" xmlns="http://www.w3.org/2000/svg" xmlns:xlink="http://www.w3.org/1999/xlink" x="0px" y="0px"
	 viewBox="0 0 48 48" style="enable-background:new 0 0 48 48;" xml:space="preserve">
<style type="text/css">
	.st0{fill:none;stroke:#777777;stroke-width:2;stroke-miterlimit:10;}
	.st1{fill:#777777;}
	.st2{fill:#333333;}
</style>
<g>
	<g>
		<g>
			<line class="st0" x1="10.6" y1="16.7" x2="28.6" y2="10.3"/>
			<g>
				<polygon class="st1" points="27.7,13.1 27.9,10.6 26.2,8.7 32.1,9.1 				"/>
			</g>
		</g>
	</g>
	<g>
		<g>
			<line class="st0" x1="10.6" y1="16.7" x2="28.5" y2="21.2"/>
			<g>
				<polygon class="st1" points="26.3,23 27.8,21.1 27.4,18.6 32.1,22.1 				"/>
			</g>
		</g>
	</g>
	<g>
		<g>
			<line class="st0" x1="10.6" y1="16.7" x2="29.9" y2="33.3"/>
			<g>
				<polygon class="st1" points="27.1,33.9 29.3,32.8 30.1,30.5 32.7,35.8 				"/>
			</g>
		</g>
	</g>
	<g>
		<g>
			<line class="st0" x1="10.9" y1="31.6" x2="28.6" y2="37.7"/>
			<g>
				<polygon class="st1" points="26.2,39.3 27.9,37.5 27.7,35 32.1,38.9 				"/>
			</g>
		</g>
	</g>
	<g>
		<g>
			<line class="st0" x1="10.9" y1="31.6" x2="28.7" y2="26.4"/>
			<g>
				<polygon class="st1" points="27.6,29.1 27.9,26.6 26.3,24.7 32.2,25.4 				"/>
			</g>
		</g>
	</g>
	<g>
		<g>
			<line class="st0" x1="10.9" y1="31.6" x2="29.9" y2="15.1"/>
			<g>
				<polygon class="st1" points="30.1,18 29.4,15.6 27.1,14.5 32.7,12.7 				"/>
			</g>
		</g>
	</g>
	<g>
		<path class="st2" d="M41.6,9.1c0-2.4-1.9-4.4-4.4-4.5c-2.4,0-4.4,1.9-4.5,4.4c0,2.4,1.9,4.4,4.4,4.5C39.5,13.5,41.5,11.6,41.6,9.1
			z"/>
	</g>
	<g>
		<path class="st2" d="M41.6,23.8c0-2.4-1.9-4.4-4.4-4.5c-2.4,0-4.4,1.9-4.5,4.4c0,2.4,1.9,4.4,4.4,4.5
			C39.5,28.2,41.5,26.3,41.6,23.8z"/>
	</g>
	<g>
		<path class="st2" d="M41.6,39c0-2.4-1.9-4.4-4.4-4.5c-2.4,0-4.4,1.9-4.5,4.4c0,2.4,1.9,4.4,4.4,4.5C39.5,43.4,41.5,41.4,41.6,39z"
			/>
	</g>
	<g>
		<path class="st2" d="M15.3,31.4c0-2.4-1.9-4.4-4.4-4.5c-2.4,0-4.4,1.9-4.5,4.4c0,2.4,1.9,4.4,4.4,4.5
			C13.2,35.8,15.2,33.8,15.3,31.4z"/>
	</g>
	<g>
		<path class="st2" d="M15.3,16.8c0-2.4-1.9-4.4-4.4-4.5c-2.4,0-4.4,1.9-4.5,4.4c0,2.4,1.9,4.4,4.4,4.5
			C13.2,21.1,15.2,19.2,15.3,16.8z"/>
	</g>
</g>
</svg>
