<svg enable-background="new 0 0 48 48" version="1.1" viewBox="0 0 48 48" xml:space="preserve" xmlns="http://www.w3.org/2000/svg">

	
		<circle cx="24.19" cy="22.775" r="1.5" fill="#989898"/>
	
	
		<path d="m25.733 26.122c0.191 0.806 0.998 1.304 1.805 1.111 0.807-0.191 1.305-1.001 1.111-1.806-0.089-0.376-0.315-0.68-0.61-0.883l-2.312 1.524c2e-3 0.018 2e-3 0.036 6e-3 0.054z" fill="#989898"/>
	
	
		<circle cx="25.19" cy="19.775" r="1.5" fill="#989898"/>
	
	
		<circle cx="33.19" cy="26.275" r="1.5" fill="#989898"/>
	
	
		<path d="m31.843 18.316c-0.805 0.192-1.303 1.001-1.109 1.807 0.017 0.072 0.045 0.138 0.071 0.205l2.443-1.61c-0.356-0.356-0.88-0.528-1.405-0.402z" fill="#989898"/>
	
	
		<circle cx="34.191" cy="22.775" r="1.5" fill="#989898"/>
	
	
		<circle cx="29.191" cy="16.775" r="1.5" fill="#989898"/>
	
	
		<circle cx="33.69" cy="15.693" r="1.5" fill="#989898"/>
	
	
		<circle cx="42.809" cy="18.275" r="1.499" fill="#989898"/>
	
	
		<path d="m21.699 28.721c-5e-3 0.133 2e-3 0.267 0.034 0.401 0.191 0.806 1 1.304 1.805 1.111 0.807-0.191 1.305-1.001 1.113-1.806-0.118-0.497-0.472-0.876-0.914-1.049l-1.209 0.796-0.829 0.547z" fill="#989898"/>
	
	
		
			<circle cx="16.191" cy="28.774" r="1.5" fill="#989898"/>
		
		
			<path d="m19.579 27.332c-0.233-0.062-0.483-0.076-0.734-0.017-0.807 0.192-1.305 1.001-1.111 1.807 0.191 0.806 1 1.304 1.805 1.111 0.614-0.146 1.048-0.651 1.136-1.239l-1.096-1.662z" fill="#989898"/>
		
	
	
		<path d="m20.649 31.428c-0.191-0.807-1-1.305-1.807-1.112-0.805 0.192-1.303 1.001-1.109 1.807 0.026 0.11 0.066 0.214 0.114 0.312-0.302-0.148-0.652-0.202-1.005-0.118-0.805 0.192-1.303 1.001-1.109 1.807 0.191 0.806 0.998 1.304 1.805 1.111 0.807-0.191 1.305-1.001 1.111-1.806-0.026-0.11-0.066-0.214-0.114-0.312 0.302 0.147 0.65 0.201 1.003 0.117 0.807-0.192 1.305-1.002 1.111-1.806z" fill="#989898"/>
	
	
		<circle cx="11.191" cy="29.774" r="1.5" fill="#989898"/>
	
	
		<circle cx="13.191" cy="36.774" r="1.5" fill="#989898"/>
	
	
		<circle cx="14.191" cy="32.774" r="1.5" fill="#989898"/>
	
	
		<circle cx="10.19" cy="34.774" r="1.5" fill="#989898"/>
	
	
		<path d="m28.731 24.623c0.191 0.805 1 1.303 1.807 1.111 0.807-0.191 1.305-1 1.111-1.805-0.128-0.54-0.534-0.935-1.029-1.084l-1.914 1.261c-0.019 0.168-0.017 0.342 0.025 0.517z" fill="#989898"/>
	
	
		
			<path d="m40.649 18.428c-0.085-0.359-0.297-0.651-0.572-0.854l-0.973 2.48-1.31-1.823c-0.106 0.274-0.136 0.583-0.062 0.891 0.191 0.806 0.998 1.304 1.805 1.111 0.808-0.191 1.306-1 1.112-1.805z" fill="#989898"/>
		
		
			<path d="m37.589 18.253-2.434 1.603c0.354 0.34 0.868 0.5 1.383 0.378 0.807-0.191 1.305-1.001 1.111-1.806-0.014-0.061-0.039-0.117-0.06-0.175z" fill="#989898"/>
		
	
	
		<path d="m23.535 25.116c-0.301-0.617-0.996-0.966-1.692-0.8-0.576 0.138-0.989 0.592-1.11 1.134l0.695 1.055 2.107-1.389z" fill="#989898"/>
	
	
		<circle cx="7.192" cy="32.775" r="1.5" fill="#989898"/>
	
	
		<circle cx="5.19" cy="37.774" r="1.5" fill="#989898"/>
	
	
		<circle cx="9.19" cy="38.774" r="1.5" fill="#989898"/>
	
	
		<circle cx="22.19" cy="31.774" r="1.5" fill="#989898"/>
	
	
		<circle cx="13.19" cy="26.774" r="1.5" fill="#989898"/>
	
	
		<path d="m30.649 20.428c-0.191-0.807-1-1.305-1.807-1.112-0.805 0.192-1.303 1.001-1.109 1.807 0.085 0.358 0.296 0.65 0.569 0.853l2.347-1.548v0z" fill="#989898"/>
	
	
		<circle cx="27.19" cy="29.774" r="1.5" fill="#989898"/>
	
	
		<circle cx="38.19" cy="21.775" r="1.5" fill="#989898"/>
	
	<polygon points="35.284 14.736 36.571 16.528 33.248 18.717 30.805 20.327 30.649 20.429 28.303 21.975 23.535 25.116 21.428 26.505 20.732 25.45 11.407 11.294 13.308 9.929 7.69 7.725 7.989 13.75 9.781 12.462 19.579 27.332 20.674 28.994 20.858 29.274 21.699 28.721 22.528 28.175 23.737 27.379 25.727 26.068 28.039 24.544 28.706 24.105 30.62 22.844 35.155 19.856 37.589 18.253 37.739 18.154 37.795 18.231 39.104 20.054 40.077 17.574 41.308 14.438" fill="#333"/>

<path transform="scale(.84521 1.1831)" d="m38.587 25.09q0 0.85197-0.26821 1.4988-0.25244 0.63109-0.67842 1.0571t-0.97819 0.63109q-0.5522 0.2051-1.136 0.2051h-1.3253v4.4808h-1.8617v-11.17h3.0924q0.53643 0 1.1044 0.15777 0.56798 0.15777 1.0097 0.55221 0.45754 0.37866 0.74153 1.0097 0.29977 0.63109 0.29977 1.5777zm-1.7986 0.01578q0-0.89931-0.42599-1.3095-0.42599-0.41021-1.0886-0.41021h-1.0729v3.5499h1.0729q0.66265 0 1.0886-0.45754 0.42599-0.47332 0.42599-1.3726zm3.3706 7.8571v-11.17h1.9091v9.419h3.0766v1.7513zm10.612-9.0088q-0.61532-0.74153-1.5462-0.74153-0.26821 0-0.52065 0.09466-0.25244 0.07889-0.45754 0.26821-0.2051 0.18933-0.33132 0.4891-0.11044 0.29977-0.11044 0.70998 0 0.70998 0.42599 1.1044 0.42599 0.37866 1.1202 0.72576 0.41021 0.2051 0.8362 0.47332t0.77309 0.64687q0.3471 0.37866 0.56798 0.89931t0.22088 1.2306q0 0.82042-0.26821 1.4515-0.25244 0.63109-0.6942 1.0729-0.42599 0.42599-1.0097 0.64687t-1.2306 0.22088q-0.93086 0-1.7197-0.36288t-1.2622-0.91508l1.0255-1.3884q0.36288 0.44176 0.86775 0.6942 0.52065 0.25244 1.0571 0.25244 0.59954 0 0.99397-0.41021 0.39443-0.41021 0.39443-1.1517 0-0.72576-0.47332-1.1517-0.47332-0.42599-1.1991-0.78886-0.45754-0.22088-0.86775-0.4891-0.39443-0.26821-0.70998-0.63109-0.29977-0.37866-0.4891-0.86775-0.17355-0.50487-0.17355-1.1991 0-0.86775 0.26821-1.4831 0.28399-0.63109 0.72576-1.0413 0.45754-0.41021 1.0255-0.59954 0.56798-0.2051 1.1517-0.2051 0.85197 0 1.5146 0.28399 0.67842 0.26822 1.136 0.80464z" style="stroke-width:.84521" aria-label="PLS"/></svg>
