<?xml version="1.0" encoding="utf-8"?>
<!-- Generator: Adobe Illustrator 16.1.0, SVG Export Plug-In . SVG Version: 6.00 Build 0)  -->
<!DOCTYPE svg PUBLIC "-//W3C//DTD SVG 1.1//EN" "http://www.w3.org/Graphics/SVG/1.1/DTD/svg11.dtd">
<svg version="1.1" id="Layer_1" xmlns="http://www.w3.org/2000/svg" xmlns:xlink="http://www.w3.org/1999/xlink" x="0px" y="0px"
	 width="48px" height="48px" viewBox="0 0 48 48" enable-background="new 0 0 48 48" xml:space="preserve">
<g>
	<path fill="#666666" d="M24.5,33.566v-1.638C24.34,31.971,24.174,32,24,32s-0.34-0.029-0.5-0.07v1.637l-7,1V37h1v-1.566l6-0.857V38
		h1v-3.424l6,0.857V37h1v-2.434L24.5,33.566z"/>
	<polygon fill="#333333" points="17.5,37 16.5,37 15,37 15,41 19,41 19,37 	"/>
	<polygon fill="#333333" points="24.5,38 23.5,38 22,38 22,42 26,42 26,38 	"/>
	<polygon fill="#333333" points="31.5,37 30.5,37 29,37 29,41 33,41 33,37 	"/>
	<path fill="#333333" d="M24,28c-1.104,0-2,0.896-2,2c0,0.931,0.639,1.706,1.5,1.93C23.66,31.971,23.826,32,24,32
		s0.34-0.029,0.5-0.071C25.36,31.706,26,30.931,26,30C26,28.896,25.104,28,24,28z"/>
	<path fill="#666666" d="M36.5,20.609v-1.681C36.34,18.971,36.174,19,36,19s-0.34-0.029-0.5-0.07v1.68l-4,1V24h1v-1.609l3.5-0.875
		l3.5,0.875V24h1v-2.391L36.5,20.609z"/>
	<polygon fill="#333333" points="32.5,24 31.5,24 30,24 30,28 34,28 34,24 	"/>
	<polygon fill="#333333" points="40.5,24 39.5,24 38,24 38,28 42,28 42,24 	"/>
	<path fill="#333333" d="M36,15c-1.104,0-2,0.896-2,2c0,0.931,0.639,1.706,1.5,1.93C35.66,18.971,35.826,19,36,19
		s0.34-0.029,0.5-0.071C37.36,18.706,38,17.931,38,17C38,15.896,37.104,15,36,15z"/>
	<path fill="#666666" d="M19.5,11.566V9.929C19.34,9.971,19.174,10,19,10s-0.34-0.029-0.5-0.07v1.637l-7,1v2.504
		C11.66,15.029,11.826,15,12,15s0.34,0.029,0.5,0.071v-1.638l6-0.857V16h1v-3.424l6,0.857V15h1v-2.434L19.5,11.566z"/>
	<polygon fill="#333333" points="26.5,15 25.5,15 24,15 24,19 28,19 28,15 	"/>
	<polygon fill="#333333" points="19.5,16 18.5,16 17,16 17,20 21,20 21,16 	"/>
	<path fill="#333333" d="M19,6c-1.104,0-2,0.896-2,2c0,0.931,0.639,1.706,1.5,1.93C18.66,9.971,18.826,10,19,10
		s0.34-0.029,0.5-0.071C20.36,9.706,21,8.931,21,8C21,6.896,20.104,6,19,6z"/>
	<path fill="#666666" d="M12.5,20.609v-1.681C12.34,18.971,12.174,19,12,19s-0.34-0.029-0.5-0.07v1.68l-4,1V24h1v-1.609l3.5-0.875
		l3.5,0.875V24h1v-2.391L12.5,20.609z"/>
	<polygon fill="#333333" points="8.5,24 7.5,24 6,24 6,28 10,28 10,24 	"/>
	<polygon fill="#333333" points="16.5,24 15.5,24 14,24 14,28 18,28 18,24 	"/>
	<path fill="#333333" d="M12.5,15.071C12.34,15.029,12.174,15,12,15s-0.34,0.029-0.5,0.07C10.639,15.294,10,16.069,10,17
		s0.639,1.706,1.5,1.93C11.66,18.971,11.826,19,12,19s0.34-0.029,0.5-0.071C13.36,18.706,14,17.931,14,17S13.36,15.294,12.5,15.071z
		"/>
</g>
</svg>
