<?xml version="1.0" encoding="utf-8"?>
<!-- Generator: Adobe Illustrator 15.0.2, SVG Export Plug-In . SVG Version: 6.00 Build 0)  -->
<!DOCTYPE svg PUBLIC "-//W3C//DTD SVG 1.1//EN" "http://www.w3.org/Graphics/SVG/1.1/DTD/svg11.dtd">
<svg version="1.1" id="Layer_1" xmlns="http://www.w3.org/2000/svg" xmlns:xlink="http://www.w3.org/1999/xlink" x="0px" y="0px"
	 width="48px" height="48px" viewBox="0 0 48 48" enable-background="new 0 0 48 48" xml:space="preserve">
<g>
	<polygon fill="#FFFFFF" points="12,7 28,7 36,14 36,41 12,41 	"/>
	<rect x="11" y="6" fill="#333333" width="2" height="36"/>
	<rect x="11" y="6" fill="#333333" width="17" height="2"/>
	<rect x="35" y="14" fill="#333333" width="2" height="28"/>
	<rect x="11" y="40" fill="#333333" width="26" height="2"/>
	<polygon fill="#333333" points="28,6 37,14 37,16 35,15 27,8 	"/>
	<path fill="#333333" d="M25,8c2,0,3,4,2,8c0,0,8-3.123,8,1c0,1,1-2,1-2l-8-8C28,7,24.441,8,25,8z"/>
</g>
</svg>
