<?xml version="1.0" encoding="utf-8"?>
<!-- Generator: Adobe Illustrator 16.1.0, SVG Export Plug-In . SVG Version: 6.00 Build 0)  -->
<!DOCTYPE svg PUBLIC "-//W3C//DTD SVG 1.1//EN" "http://www.w3.org/Graphics/SVG/1.1/DTD/svg11.dtd">
<svg version="1.1" id="Layer_1" xmlns="http://www.w3.org/2000/svg" xmlns:xlink="http://www.w3.org/1999/xlink" x="0px" y="0px"
	 width="48px" height="48px" viewBox="0 0 48 48" enable-background="new 0 0 48 48" xml:space="preserve">
<g>
	<polygon fill="#333333" points="33.129,26.923 41.815,26.923 41.815,25.856 31.941,25.856 	"/>
	<path fill="#333333" d="M41.633,11.818H6.368C6.165,11.818,6,11.982,6,12.187v14.553c0,0.202,0.165,0.368,0.368,0.368h20.982
		c0.108,0,0.212-0.049,0.282-0.132c0.068-0.083,0.098-0.192,0.079-0.3l-0.122-0.698c-0.03-0.176-0.183-0.306-0.36-0.306H7.437
		V13.254h34.196c0.202,0,0.367-0.165,0.367-0.368v-0.699C42,11.982,41.835,11.818,41.633,11.818z"/>
	<rect x="37.836" y="14.151" fill="#333333" width="0.456" height="10.109"/>
	<polygon fill="#333333" points="28.422,24.142 30.19,34.28 32.057,32.411 34.202,36.182 36.165,34.859 33.687,31.587 
		36.165,31.099 	"/>
	<polygon fill="#333333" points="32.472,21.128 32.45,21.128 31.508,17.384 30.031,17.384 29.11,21.139 29.089,21.139 
		28.074,17.384 26.608,17.384 26.469,17.384 25.046,17.384 24.029,21.128 24.009,21.128 23.066,17.384 21.59,17.384 20.669,21.139 
		20.647,21.139 19.633,17.384 18.165,17.384 18.026,17.384 16.604,17.384 15.588,21.128 15.566,21.128 14.624,17.384 13.147,17.384 
		12.227,21.139 12.205,21.139 11.188,17.384 9.584,17.384 11.34,22.914 12.913,22.914 13.854,19.202 13.875,19.202 14.859,22.914 
		16.422,22.914 18.097,17.603 19.781,22.914 21.355,22.914 22.298,19.202 22.318,19.202 23.301,22.914 24.863,22.914 26.538,17.603 
		28.224,22.914 29.796,22.914 30.738,19.202 30.76,19.202 31.743,22.914 33.307,22.914 35.051,17.384 33.488,17.384 	"/>
	<rect x="34.901" y="21.268" fill="#333333" width="1.679" height="1.646"/>
</g>
</svg>
