<?xml version="1.0" encoding="utf-8"?>
<!-- Generator: Adobe Illustrator 16.0.4, SVG Export Plug-In . SVG Version: 6.00 Build 0)  -->
<!DOCTYPE svg PUBLIC "-//W3C//DTD SVG 1.1//EN" "http://www.w3.org/Graphics/SVG/1.1/DTD/svg11.dtd">
<svg version="1.1" id="Layer_1" xmlns="http://www.w3.org/2000/svg" xmlns:xlink="http://www.w3.org/1999/xlink" x="0px" y="0px"
	 width="48px" height="48px" viewBox="0 0 48 48" enable-background="new 0 0 48 48" xml:space="preserve">
<g id="zXDtGm_1_">
</g>
<g id="Xawsld_1_">
</g>
<circle fill="#FFFFFF" stroke="#333333" stroke-width="2" stroke-miterlimit="10" cx="30.666" cy="10.176" r="4.875"/>
<path fill="none" stroke="#333333" stroke-width="1.5" stroke-miterlimit="10" d="M11.75,20.438c0,0,5.438,0.625,6.438-5.188
	c0.812-6.5,7.625-5.625,7.625-5.625"/>
<path fill="none" stroke="#333333" stroke-width="1.8" stroke-linecap="round" stroke-miterlimit="10" d="M11.5,23.688
	c0,0,4.237-0.176,4.41,6.454c0.173,6.626,4.465,5.921,4.465,5.921"/>
<line fill="none" stroke="#333333" stroke-width="1.5" stroke-miterlimit="10" x1="30.938" y1="36" x2="37.562" y2="36"/>
<path fill="none" stroke="#333333" stroke-width="1.5" stroke-linecap="round" stroke-miterlimit="10" d="M20.541,32.014"/>
<path fill="none" stroke="#333333" stroke-width="1.5" stroke-linecap="round" stroke-miterlimit="10" d="M18.433,38.141"/>
<path fill="none" stroke="#333333" stroke-width="1.5" stroke-linecap="round" stroke-miterlimit="10" d="M31.593,40.141"/>
<path fill="none" stroke="#333333" stroke-width="1.5" stroke-linecap="round" stroke-miterlimit="10" d="M31.484,32.014"/>
<path fill="none" stroke="#333333" stroke-width="1.5" stroke-linecap="round" stroke-miterlimit="10" d="M36.729,32.014"/>
<path fill="none" stroke="#333333" stroke-width="1.5" stroke-linecap="round" stroke-miterlimit="10" d="M36.62,40.141"/>
<path fill="none" stroke="#333333" stroke-width="1.5" stroke-linecap="round" stroke-miterlimit="10" d="M11.718,25.543"/>
<path fill="none" stroke="#333333" stroke-width="1.5" stroke-linecap="round" stroke-miterlimit="10" d="M11.609,17.416"/>
<circle fill="#FFFFFF" stroke="#333333" stroke-width="2" stroke-miterlimit="10" cx="41.416" cy="36.051" r="4.875"/>
<circle fill="#FFFFFF" stroke="#333333" stroke-width="2" stroke-miterlimit="10" cx="25.416" cy="36.051" r="4.875"/>
<circle fill="#FFFFFF" stroke="#333333" stroke-width="2" stroke-miterlimit="10" cx="6.666" cy="21.676" r="4.875"/>
</svg>
