<?xml version="1.0" encoding="utf-8"?>
<!-- Generator: Adobe Illustrator 16.1.0, SVG Export Plug-In . SVG Version: 6.00 Build 0)  -->
<!DOCTYPE svg PUBLIC "-//W3C//DTD SVG 1.1//EN" "http://www.w3.org/Graphics/SVG/1.1/DTD/svg11.dtd">
<svg version="1.1" id="Layer_1" xmlns="http://www.w3.org/2000/svg" xmlns:xlink="http://www.w3.org/1999/xlink" x="0px" y="0px"
	 width="48px" height="48px" viewBox="0 0 48 48" enable-background="new 0 0 48 48" xml:space="preserve">
<g>
	<radialGradient id="SVGID_1_" cx="17.3135" cy="13.7607" r="27.3278" gradientUnits="userSpaceOnUse">
		<stop  offset="0" style="stop-color:#FFD773"/>
		<stop  offset="0.0134" style="stop-color:#FFD46E"/>
		<stop  offset="0.1128" style="stop-color:#FDC450"/>
		<stop  offset="0.2174" style="stop-color:#FCB738"/>
		<stop  offset="0.3282" style="stop-color:#FBAD27"/>
		<stop  offset="0.4492" style="stop-color:#FAA81D"/>
		<stop  offset="0.6" style="stop-color:#FAA61A"/>
		<stop  offset="0.6747" style="stop-color:#F7A01B"/>
		<stop  offset="0.7723" style="stop-color:#ED901F"/>
		<stop  offset="0.8828" style="stop-color:#DD7525"/>
		<stop  offset="1" style="stop-color:#C8502D"/>
	</radialGradient>
	<path fill="url(#SVGID_1_)" d="M23.928,40.611c-9.177,0-16.613-7.438-16.613-16.611c0-9.175,7.437-16.611,16.613-16.611
		c9.173,0,16.61,7.437,16.61,16.611C40.538,33.174,33.102,40.611,23.928,40.611L23.928,40.611L23.928,40.611L23.928,40.611z"/>
	<linearGradient id="SVGID_2_" gradientUnits="userSpaceOnUse" x1="21.1528" y1="38.3047" x2="21.1528" y2="30.6016">
		<stop  offset="0.1703" style="stop-color:#FFFF96"/>
		<stop  offset="0.6525" style="stop-color:#EAA344"/>
		<stop  offset="0.9" style="stop-color:#E1781E"/>
	</linearGradient>
	<path fill="url(#SVGID_2_)" d="M21.152,34.443c-4.357,0-8.023-1.562-10.372-3.842c2.281,4.722,6.015,7.703,10.372,7.703
		c4.357,0,8.092-2.981,10.373-7.703C29.176,32.881,25.51,34.443,21.152,34.443L21.152,34.443z"/>
	<path fill="none" stroke="#C85528" stroke-linecap="round" stroke-linejoin="round" stroke-miterlimit="10" d="M21.152,34.443
		c-4.357,0-8.023-1.562-10.372-3.842c2.281,4.722,6.015,7.703,10.372,7.703c4.357,0,8.092-2.981,10.373-7.703
		C29.176,32.881,25.51,34.443,21.152,34.443L21.152,34.443z"/>
	<linearGradient id="SVGID_3_" gradientUnits="userSpaceOnUse" x1="21.1528" y1="38.3047" x2="21.1528" y2="30.6016">
		<stop  offset="0" style="stop-color:#FFFFFF"/>
		<stop  offset="0.0849" style="stop-color:#FEFDF6"/>
		<stop  offset="0.2235" style="stop-color:#FCF6DE"/>
		<stop  offset="0.3985" style="stop-color:#F9ECB6"/>
		<stop  offset="0.6031" style="stop-color:#F5DE7F"/>
		<stop  offset="0.8298" style="stop-color:#EFCD39"/>
		<stop  offset="1" style="stop-color:#EBBE00"/>
	</linearGradient>
	<path fill="url(#SVGID_3_)" d="M21.152,34.443c-4.357,0-8.023-1.562-10.372-3.842c2.281,4.722,6.015,7.703,10.372,7.703
		c4.357,0,8.092-2.981,10.373-7.703C29.176,32.881,25.51,34.443,21.152,34.443L21.152,34.443z"/>
	<linearGradient id="SVGID_4_" gradientUnits="userSpaceOnUse" x1="10.7261" y1="32.6035" x2="31.5781" y2="32.6035">
		<stop  offset="0" style="stop-color:#A04623"/>
		<stop  offset="0.0272" style="stop-color:#AE5022"/>
		<stop  offset="0.0912" style="stop-color:#C86221"/>
		<stop  offset="0.1619" style="stop-color:#DC701F"/>
		<stop  offset="0.2418" style="stop-color:#EA7A1F"/>
		<stop  offset="0.3388" style="stop-color:#F2801E"/>
		<stop  offset="0.5" style="stop-color:#F5821E"/>
		<stop  offset="0.6612" style="stop-color:#F2801E"/>
		<stop  offset="0.7582" style="stop-color:#EA7A1F"/>
		<stop  offset="0.8381" style="stop-color:#DC701F"/>
		<stop  offset="0.9088" style="stop-color:#C86221"/>
		<stop  offset="0.9728" style="stop-color:#AE5022"/>
		<stop  offset="1" style="stop-color:#A04623"/>
	</linearGradient>
	<path fill="url(#SVGID_4_)" d="M31.554,30.448c-0.044-0.063-0.094-0.079-0.211,0.017c-2.3,1.928-6.163,3.649-10.191,3.649
		c-4.029,0-7.89-1.722-10.19-3.649c-0.117-0.096-0.167-0.08-0.212-0.017c-0.068,0.098,0.027,0.23,0.099,0.309
		c1.987,2.141,6.083,4.055,10.304,4.055c4.221,0,8.317-1.914,10.305-4.055C31.526,30.679,31.624,30.546,31.554,30.448L31.554,30.448
		z"/>
	<path fill="#232323" d="M37.926,15.053c-1.28,0.009-2.682,0.624-4.232,1.802c-2.337-1.509-6.301-1.316-8.815,0.619
		c-0.232-0.038-0.508-0.059-0.672-0.23c-1.951-2.05-3.995-2.151-6.789-0.027c-2.364-1.522-6.486-1.208-8.801,0.998
		c-0.151,0.143-0.291,0.293-0.425,0.449C7.624,20.337,7.317,22.132,7.317,24c0,1.254,0.141,2.476,0.404,3.651
		c0.084,0.105,0.172,0.209,0.266,0.307c2.321,2.437,6.909,2.183,9.576-0.36c2.278-2.17,2.993-5.956,1.669-8.37
		c1.53-1.154,2.647-1.334,3.742-0.185c0.078,0.081,0.208,0.145,0.274,0.249c-1.739,2.802-1.627,6.778,0.446,8.955
		c2.464,2.582,7.326,2.313,10.154-0.382c2.415-2.303,3.174-6.319,1.771-8.877c1.622-1.225,2.871-1.45,4.033-0.233
		c0.022,0.024,0.043,0.051,0.065,0.075C39.279,17.488,38.674,16.22,37.926,15.053L37.926,15.053z M15.609,25.55
		c-1.624,1.549-4.539,1.964-5.786,0.656c-1.228-1.288-0.86-4.377,0.764-5.928c1.625-1.547,4.729-1.768,5.957-0.477
		C17.79,21.107,17.233,24.002,15.609,25.55L15.609,25.55z M31.78,25.691c-1.725,1.643-4.815,2.084-6.139,0.696
		c-1.303-1.366-0.913-4.643,0.811-6.284c1.721-1.643,5.015-1.875,6.315-0.508C34.09,20.981,33.499,24.05,31.78,25.691L31.78,25.691z
		"/>
	<linearGradient id="SVGID_5_" gradientUnits="userSpaceOnUse" x1="25.2109" y1="25.959" x2="32.1711" y2="18.9989">
		<stop  offset="0.05" style="stop-color:#AABEB4"/>
		<stop  offset="0.0609" style="stop-color:#ACC1B6"/>
		<stop  offset="0.1592" style="stop-color:#BED5C6"/>
		<stop  offset="0.2563" style="stop-color:#C9E2CF"/>
		<stop  offset="0.35" style="stop-color:#CDE6D2"/>
		<stop  offset="0.4837" style="stop-color:#AECCCA"/>
		<stop  offset="0.7742" style="stop-color:#5F8AB6"/>
		<stop  offset="1" style="stop-color:#1E54A6"/>
	</linearGradient>
	<path fill="url(#SVGID_5_)" d="M31.356,25.27c-1.725,1.644-4.815,2.084-6.137,0.696c-1.301-1.365-0.913-4.643,0.812-6.285
		c1.721-1.642,5.014-1.875,6.315-0.507C33.668,20.561,33.079,23.628,31.356,25.27L31.356,25.27L31.356,25.27z"/>
	<radialGradient id="SVGID_6_" cx="28.667" cy="22.4355" r="4.1876" gradientUnits="userSpaceOnUse">
		<stop  offset="0.15" style="stop-color:#E6F0E6"/>
		<stop  offset="0.85" style="stop-color:#A0DCE6"/>
	</radialGradient>
	<path opacity="0.4" fill="url(#SVGID_6_)" d="M27.594,21.245c1.369-1.305,3.729-1.719,5.293-1.146
		c-0.119-0.353-0.297-0.668-0.542-0.925c-1.301-1.368-4.594-1.135-6.315,0.507c-1.725,1.643-2.112,4.92-0.812,6.285
		c0.271,0.284,0.618,0.487,1.011,0.624C25.674,24.999,26.191,22.581,27.594,21.245L27.594,21.245z"/>
	<path fill="#DCEBEB" d="M26.164,21.724c0.029,0.009,0.06,0.014,0.091,0.014l0,0c0.131,0,0.256-0.086,0.297-0.22l0,0
		c0.135-0.46,0.703-1.328,1.737-1.672l0,0c0.161-0.055,0.248-0.23,0.193-0.392l0,0c-0.055-0.163-0.232-0.249-0.395-0.194l0,0
		c-1.265,0.435-1.929,1.432-2.131,2.076l0,0C25.906,21.5,25.998,21.674,26.164,21.724L26.164,21.724L26.164,21.724L26.164,21.724z"
		/>
	<path fill="#232323" d="M32.422,19.268c-0.027-0.03-0.047-0.064-0.076-0.094c-1.301-1.368-4.594-1.135-6.315,0.507
		c-1.725,1.643-2.112,4.92-0.812,6.285c0.05,0.055,0.11,0.101,0.167,0.149c-1.206-1.415-0.802-4.584,0.886-6.191
		C27.929,18.347,31.027,18.073,32.422,19.268L32.422,19.268z"/>
	<linearGradient id="SVGID_7_" gradientUnits="userSpaceOnUse" x1="9.4355" y1="25.957" x2="16.3957" y2="18.9969">
		<stop  offset="0.05" style="stop-color:#AABEB4"/>
		<stop  offset="0.0609" style="stop-color:#ACC1B6"/>
		<stop  offset="0.1592" style="stop-color:#BED5C6"/>
		<stop  offset="0.2563" style="stop-color:#C9E2CF"/>
		<stop  offset="0.35" style="stop-color:#CDE6D2"/>
		<stop  offset="0.4837" style="stop-color:#AECCCA"/>
		<stop  offset="0.7742" style="stop-color:#5F8AB6"/>
		<stop  offset="1" style="stop-color:#1E54A6"/>
	</linearGradient>
	<path fill="url(#SVGID_7_)" d="M15.582,25.27c-1.723,1.644-4.813,2.084-6.137,0.696c-1.303-1.365-0.914-4.643,0.809-6.285
		c1.723-1.642,5.016-1.875,6.317-0.507C17.894,20.561,17.303,23.628,15.582,25.27L15.582,25.27L15.582,25.27z"/>
	<radialGradient id="SVGID_8_" cx="12.8926" cy="22.4355" r="4.1876" gradientUnits="userSpaceOnUse">
		<stop  offset="0.15" style="stop-color:#E6F0E6"/>
		<stop  offset="0.85" style="stop-color:#A0DCE6"/>
	</radialGradient>
	<path opacity="0.4" fill="url(#SVGID_8_)" d="M11.82,21.245c1.368-1.305,3.729-1.719,5.293-1.146
		c-0.12-0.353-0.297-0.668-0.542-0.925c-1.301-1.368-4.594-1.135-6.317,0.507c-1.723,1.643-2.112,4.92-0.809,6.285
		c0.271,0.284,0.618,0.487,1.01,0.624C9.899,24.999,10.418,22.581,11.82,21.245L11.82,21.245z"/>
	<path fill="#DCEBEB" d="M10.388,21.724c0.032,0.009,0.062,0.014,0.091,0.014l0,0c0.135,0,0.256-0.086,0.297-0.22l0,0
		c0.138-0.46,0.702-1.328,1.737-1.672l0,0c0.162-0.055,0.248-0.23,0.195-0.392l0,0c-0.055-0.163-0.232-0.249-0.395-0.194l0,0
		c-1.265,0.435-1.93,1.432-2.133,2.076l0,0C10.133,21.5,10.226,21.674,10.388,21.724L10.388,21.724L10.388,21.724L10.388,21.724z"/>
	<path fill="#232323" d="M16.647,19.268c-0.026-0.03-0.048-0.064-0.076-0.094c-1.301-1.368-4.594-1.135-6.317,0.507
		c-1.723,1.643-2.112,4.92-0.809,6.285c0.052,0.055,0.108,0.101,0.167,0.149c-1.204-1.415-0.801-4.584,0.886-6.191
		C12.152,18.347,15.252,18.073,16.647,19.268L16.647,19.268z"/>
	<path fill="#3C3C3C" d="M40.728,16.155c-2.07-2.174-4.49-1.975-7.456,0.278c-2.337-1.51-6.302-1.316-8.816,0.618
		c-0.124-0.174-0.266-0.349-0.43-0.519c-1.952-2.051-4.234-1.863-7.029,0.261c-2.362-1.523-6.486-1.208-8.802,0.998
		c-2.665,2.542-2.936,7.322-0.629,9.744c2.321,2.437,6.907,2.182,9.576-0.36c2.278-2.17,2.992-5.956,1.669-8.37
		c1.53-1.154,2.708-1.367,3.802-0.22c0.077,0.082,0.148,0.18,0.216,0.284c-1.739,2.802-1.63,6.778,0.445,8.955
		c2.462,2.582,7.326,2.313,10.153-0.383c2.417-2.302,3.175-6.317,1.771-8.876c1.621-1.225,2.871-1.45,4.033-0.232
		c0.518,0.542,0.78,1.536,0.983,2.394l1.78-0.846C42.046,18.401,41.781,17.26,40.728,16.155L40.728,16.155L40.728,16.155z
		 M15.186,25.128c-1.622,1.549-4.539,1.964-5.786,0.656c-1.227-1.289-0.858-4.377,0.764-5.928c1.625-1.547,4.73-1.768,5.958-0.477
		C17.366,20.686,16.812,23.58,15.186,25.128L15.186,25.128L15.186,25.128z M31.356,25.27c-1.725,1.644-4.815,2.084-6.137,0.696
		c-1.301-1.365-0.913-4.643,0.812-6.285c1.721-1.642,5.014-1.875,6.315-0.507C33.668,20.561,33.079,23.628,31.356,25.27
		L31.356,25.27L31.356,25.27z"/>
	<path fill="#7D7D7D" d="M7.928,20.45c-0.188-0.076-0.276-0.288-0.198-0.474l0,0c0.308-0.746,1.194-2.255,3.213-2.763l0,0
		c0.196-0.048,0.397,0.07,0.448,0.265l0,0c0.047,0.195-0.071,0.393-0.269,0.441l0,0c-1.708,0.426-2.443,1.698-2.712,2.334l0,0v0.001
		c-0.06,0.14-0.196,0.224-0.341,0.224l0,0C8.022,20.479,7.974,20.47,7.928,20.45L7.928,20.45L7.928,20.45L7.928,20.45z
		 M23.594,20.228c0.036,0.011,0.07,0.016,0.105,0.016l0,0c0.154,0,0.297-0.099,0.346-0.253l0,0c0.157-0.536,0.816-1.542,2.015-1.94
		l0,0c0.187-0.063,0.287-0.268,0.224-0.455l0,0c-0.063-0.189-0.268-0.29-0.456-0.225l0,0c-1.468,0.504-2.242,1.66-2.472,2.408l0,0
		C23.295,19.969,23.402,20.17,23.594,20.228L23.594,20.228L23.594,20.228L23.594,20.228z M18.145,17.312
		c-0.117-0.141-0.089-0.344,0.062-0.454l0,0c0.466-0.339,0.834-0.554,1.484-0.783l0,0c0.179-0.063,0.378,0.02,0.446,0.187l0,0
		c0.068,0.167-0.021,0.354-0.2,0.417l0,0c-0.604,0.22-0.858,0.369-1.306,0.692l0,0c-0.063,0.045-0.138,0.068-0.213,0.068l0,0
		C18.315,17.438,18.213,17.395,18.145,17.312L18.145,17.312L18.145,17.312L18.145,17.312z"/>
</g>
</svg>
