<?xml version="1.0" encoding="utf-8"?>
<!-- Generator: Adobe Illustrator 16.1.0, SVG Export Plug-In . SVG Version: 6.00 Build 0)  -->
<!DOCTYPE svg PUBLIC "-//W3C//DTD SVG 1.1//EN" "http://www.w3.org/Graphics/SVG/1.1/DTD/svg11.dtd">
<svg version="1.1" id="Layer_1" xmlns="http://www.w3.org/2000/svg" xmlns:xlink="http://www.w3.org/1999/xlink" x="0px" y="0px"
	 width="48px" height="48px" viewBox="0 0 48 48" enable-background="new 0 0 48 48" xml:space="preserve">
<g>
	<polygon fill="#FFFFFF" points="12,6.999 28.003,6.999 36.001,14.001 36.001,41.001 12,41.001 	"/>
	<rect x="11.001" y="6" fill="#333333" width="1.999" height="36"/>
	<rect x="11.001" y="6" fill="#333333" width="17.002" height="2"/>
	<rect x="35" y="14.001" fill="#333333" width="1.999" height="27.999"/>
	<rect x="11.001" y="40" fill="#333333" width="25.998" height="2"/>
	<polygon fill="#333333" points="28.003,6 36.999,14.001 36.999,15.999 35,15 27.001,8 	"/>
	<path fill="#333333" d="M25.002,8c1.999,0,3.001,4,1.999,7.999c0,0,7.999-3.122,7.999,1.001c0,1,1.001-2,1.001-2l-7.998-8.001
		C28.003,6.999,24.441,8,25.002,8z"/>
</g>
</svg>
