<?xml version="1.0" encoding="utf-8"?>
<!-- Generator: Adobe Illustrator 16.1.0, SVG Export Plug-In . SVG Version: 6.00 Build 0)  -->
<!DOCTYPE svg PUBLIC "-//W3C//DTD SVG 1.1//EN" "http://www.w3.org/Graphics/SVG/1.1/DTD/svg11.dtd">
<svg version="1.1" id="Layer_1" xmlns="http://www.w3.org/2000/svg" xmlns:xlink="http://www.w3.org/1999/xlink" x="0px" y="0px"
	 width="48px" height="48px" viewBox="0 0 48 48" enable-background="new 0 0 48 48" xml:space="preserve">
<g>
	<polygon fill="#FFFFFF" points="8.113,16.56 41.11,16.841 39.701,36.751 6.588,36.751 	"/>
	<path fill="#333333" d="M42,17.45c0-0.745-0.604-1.35-1.35-1.35h-0.117c-0.125-0.617-0.667-1.081-1.321-1.081H20.824l-3.528-4.094
		l-0.007,0.001c-0.246-0.251-0.588-0.407-0.965-0.407H7.35c-0.746,0-1.35,0.604-1.35,1.35v24.258v0.002
		c0,0.745,0.604,1.352,1.35,1.352l0,0h6.075l0,0H19.5l0,0h19.709h0.003c0.747,0,1.351-0.606,1.351-1.352V36.12L42,17.45z
		 M19.5,36.399h-6.075H7.35c-0.141,0-0.256-0.107-0.269-0.244l1.437-18.65c0.002-0.028,0.003-0.055,0.003-0.083
		c0-0.149,0.12-0.271,0.268-0.271h0.26l31.515,0.028l0,0h0.088c0.141,0,0.256,0.107,0.269,0.244l-0.356,4.646l0,0l-1.08,13.976
		c-0.002,0.028-0.003,0.055-0.003,0.083c0,0.149-0.12,0.271-0.271,0.271H19.5z"/>
	<path fill="#333333" d="M21.267,16.631c0,0,4.839,0.325,6.267,8.982l-4.208,0.693l8.177,7.135l5.449-9.382l-4.078,0.672
		C32.672,23.284,31.144,15.743,21.267,16.631z"/>
</g>
</svg>
