<?xml version="1.0" encoding="utf-8"?>
<!-- Generator: Adobe Illustrator 16.1.0, SVG Export Plug-In . SVG Version: 6.00 Build 0)  -->
<!DOCTYPE svg PUBLIC "-//W3C//DTD SVG 1.1//EN" "http://www.w3.org/Graphics/SVG/1.1/DTD/svg11.dtd">
<svg version="1.1" id="Layer_1" xmlns="http://www.w3.org/2000/svg" xmlns:xlink="http://www.w3.org/1999/xlink" x="0px" y="0px"
	 width="48px" height="48px" viewBox="0 0 48 48" enable-background="new 0 0 48 48" xml:space="preserve">
<g>
	<g>
		<path fill="#FFFFFF" d="M24,10.249c-7.583,0-13.752,6.169-13.752,13.751S16.417,37.751,24,37.751
			c7.582,0,13.75-6.169,13.75-13.751S31.582,10.249,24,10.249z"/>
		<path fill="#333333" d="M24,6C14.075,6,6.002,14.074,6.002,24S14.075,42,24,42s17.998-8.074,17.998-18S33.925,6,24,6z M24,37.751
			c-7.583,0-13.752-6.169-13.752-13.751S16.417,10.249,24,10.249c7.582,0,13.75,6.169,13.75,13.751S31.582,37.751,24,37.751z"/>
	</g>
	<path fill="#333333" d="M25.602,23.351v-9.023c0-0.884-0.717-1.601-1.602-1.601s-1.602,0.717-1.602,1.601v10.32l4.966,5.128
		c0.315,0.323,0.733,0.487,1.151,0.487c0.4,0,0.802-0.15,1.115-0.452c0.634-0.615,0.65-1.629,0.035-2.265L25.602,23.351z"/>
</g>
</svg>
