<?xml version="1.0" encoding="utf-8"?>
<!-- Generator: Adobe Illustrator 16.1.0, SVG Export Plug-In . SVG Version: 6.00 Build 0)  -->
<!DOCTYPE svg PUBLIC "-//W3C//DTD SVG 1.1//EN" "http://www.w3.org/Graphics/SVG/1.1/DTD/svg11.dtd">
<svg version="1.1" id="Layer_1" xmlns="http://www.w3.org/2000/svg" xmlns:xlink="http://www.w3.org/1999/xlink" x="0px" y="0px"
	 width="48px" height="48px" viewBox="0 0 48 48" enable-background="new 0 0 48 48" xml:space="preserve">
<g>
	<polygon fill="#E9EFF2" points="36.939,7.36 12.611,7.36 10.294,10.401 12.611,37.166 36.939,36.472 	"/>
	<g>
		<path fill="#333333" d="M13.699,6.697c-1.102,0.006-2.117,0.277-2.932,0.789c-0.41,0.259-0.771,0.583-1.047,0.993
			C9.447,8.885,9.266,9.391,9.268,9.924v27.223c-0.002,0.533,0.18,1.038,0.453,1.444c0.416,0.612,1.016,1.039,1.697,1.333
			c0.672,0.286,1.436,0.44,2.246,0.446L34.594,42v-3.955l4.139-0.191V6L13.699,6.697z M26.082,27.272L17.433,26.6l0.196-2.541
			l8.65,0.673L26.082,27.272z M29.931,21.198l-14.985-1.2l0.2-2.541l14.985,1.2L29.931,21.198z M36.468,35.693l-1.874,0.087V12.508
			l-20.877-1.62c-0.686-0.064-1.363-0.193-1.74-0.438c-0.189-0.121-0.314-0.248-0.376-0.34c-0.062-0.096-0.068-0.143-0.07-0.187
			c0.002-0.044,0.008-0.091,0.07-0.188c0.089-0.138,0.331-0.352,0.706-0.51c0.373-0.161,0.867-0.268,1.41-0.268h0.012l22.739-0.634
			V35.693z"/>
	</g>
</g>
</svg>
