<?xml version="1.0" encoding="utf-8"?>
<!-- Generator: Adobe Illustrator 16.0.4, SVG Export Plug-In . SVG Version: 6.00 Build 0)  -->
<!DOCTYPE svg PUBLIC "-//W3C//DTD SVG 1.1//EN" "http://www.w3.org/Graphics/SVG/1.1/DTD/svg11.dtd">
<svg version="1.1" id="Layer_1" xmlns="http://www.w3.org/2000/svg" xmlns:xlink="http://www.w3.org/1999/xlink" x="0px" y="0px"
	 width="48px" height="48px" viewBox="0 0 48 48" enable-background="new 0 0 48 48" xml:space="preserve">
<g id="zXDtGm_1_">
</g>
<g id="Xawsld_1_">
</g>
<path fill="#333333" d="M22.788,9.563c6.478,0.098,11.95,0.411,17.394,1.116c2.506,0.324,3.732,1.519,4.047,4.023
	c0.648,5.173,0.9,10.358,0.312,15.559c-0.144,1.265-0.226,2.539-0.45,3.789c-0.318,1.776-1.57,2.98-3.348,3.22
	c-2.312,0.312-4.629,0.639-6.955,0.777c-3.637,0.219-7.282,0.411-10.922,0.387c-5.2-0.035-10.392-0.367-15.544-1.136
	c-1.962-0.292-3.205-1.509-3.492-3.456c-0.75-5.097-0.888-10.216-0.455-15.348c0.119-1.409,0.248-2.819,0.454-4.217
	c0.293-1.988,1.444-3.186,3.453-3.487c2.131-0.32,4.277-0.583,6.426-0.737C17.058,9.813,20.417,9.687,22.788,9.563z M20.221,24.129
	c-0.001,0-0.003,0-0.004,0c0,1.873-0.001,3.747,0.001,5.62c0.001,0.497-0.03,1.015,0.517,1.29c0.537,0.271,0.948-0.02,1.356-0.316
	c2.515-1.832,5.034-3.652,7.54-5.494c1.162-0.854,1.153-1.403-0.029-2.271c-2.51-1.837-5.033-3.653-7.543-5.489
	c-0.422-0.309-0.907-0.622-1.335-0.253c-0.291,0.251-0.467,0.778-0.478,1.187C20.194,20.31,20.221,22.22,20.221,24.129z"/>
<path fill="#FFFFFF" d="M20.221,24.129c0-1.909-0.027-3.819,0.021-5.727c0.011-0.409,0.187-0.936,0.478-1.187
	c0.428-0.369,0.913-0.056,1.335,0.253c2.509,1.836,5.035,3.652,7.542,5.489c1.185,0.867,1.192,1.416,0.03,2.27
	c-2.506,1.842-5.024,3.664-7.54,5.494c-0.408,0.299-0.819,0.59-1.356,0.317c-0.546-0.274-0.516-0.793-0.517-1.29
	c-0.002-1.873-0.001-3.747-0.001-5.62C20.218,24.129,20.22,24.129,20.221,24.129z"/>
</svg>
