<?xml version="1.0" encoding="utf-8"?>
<!-- Generator: Adobe Illustrator 16.1.0, SVG Export Plug-In . SVG Version: 6.00 Build 0)  -->
<!DOCTYPE svg PUBLIC "-//W3C//DTD SVG 1.1//EN" "http://www.w3.org/Graphics/SVG/1.1/DTD/svg11.dtd">
<svg version="1.1" id="Layer_1" xmlns="http://www.w3.org/2000/svg" xmlns:xlink="http://www.w3.org/1999/xlink" x="0px" y="0px"
	 width="48px" height="48px" viewBox="0 0 48 48" enable-background="new 0 0 48 48" xml:space="preserve">
<g>
	<linearGradient id="SVGID_1_" gradientUnits="userSpaceOnUse" x1="24.5" y1="43.001" x2="24.5" y2="37">
		<stop  offset="0" style="stop-color:#999999"/>
		<stop  offset="1" style="stop-color:#666666"/>
	</linearGradient>
	<circle fill="url(#SVGID_1_)" cx="24.5" cy="40.002" r="2.999"/>
</g>
<g>
	<linearGradient id="SVGID_2_" gradientUnits="userSpaceOnUse" x1="10.5" y1="25.001" x2="10.5" y2="19.001">
		<stop  offset="0" style="stop-color:#999999"/>
		<stop  offset="1" style="stop-color:#666666"/>
	</linearGradient>
	<path fill="url(#SVGID_2_)" d="M13.417,21.307c-0.383-1.612-2.001-2.608-3.613-2.225c-1.611,0.385-2.606,2.002-2.222,3.615
		c0.383,1.608,2,2.605,3.611,2.221C12.806,24.536,13.802,22.917,13.417,21.307z"/>
</g>
<g>
	<linearGradient id="SVGID_3_" gradientUnits="userSpaceOnUse" x1="40.5005" y1="25.002" x2="40.5005" y2="19.0015">
		<stop  offset="0" style="stop-color:#666666"/>
		<stop  offset="1" style="stop-color:#333333"/>
	</linearGradient>
	<circle fill="url(#SVGID_3_)" cx="40.5" cy="22.002" r="2.999"/>
</g>
<g>
	<linearGradient id="SVGID_4_" gradientUnits="userSpaceOnUse" x1="7.5" y1="36.001" x2="7.5" y2="30.001">
		<stop  offset="0" style="stop-color:#999999"/>
		<stop  offset="1" style="stop-color:#666666"/>
	</linearGradient>
	<circle fill="url(#SVGID_4_)" cx="7.5" cy="33.003" r="2.999"/>
</g>
<g>
	<linearGradient id="SVGID_5_" gradientUnits="userSpaceOnUse" x1="36.5" y1="13.0015" x2="36.5" y2="7.001">
		<stop  offset="0" style="stop-color:#666666"/>
		<stop  offset="1" style="stop-color:#333333"/>
	</linearGradient>
	<circle fill="url(#SVGID_5_)" cx="36.5" cy="10.002" r="2.999"/>
</g>
<g>
	<linearGradient id="SVGID_6_" gradientUnits="userSpaceOnUse" x1="12.5005" y1="12" x2="12.5005" y2="5.999">
		<stop  offset="0" style="stop-color:#666666"/>
		<stop  offset="1" style="stop-color:#333333"/>
	</linearGradient>
	<circle fill="url(#SVGID_6_)" cx="12.5" cy="9" r="2.999"/>
</g>
<g>
	<linearGradient id="SVGID_7_" gradientUnits="userSpaceOnUse" x1="24.5" y1="11" x2="24.5" y2="4.999">
		<stop  offset="0" style="stop-color:#666666"/>
		<stop  offset="1" style="stop-color:#333333"/>
	</linearGradient>
	<circle fill="url(#SVGID_7_)" cx="24.5" cy="8" r="2.999"/>
</g>
<path fill="#989898" d="M26.52,26.818l-5.241,1.092c0.051,0.13,0.105,0.259,0.138,0.398c0.134,0.562,0.091,1.121-0.078,1.631
	l5.724-1.192c-0.22-0.308-0.388-0.66-0.481-1.051C26.512,27.4,26.502,27.106,26.52,26.818z"/>
<path fill="#989898" d="M34.213,31.294l-2.22-2.64c-0.37,0.558-0.926,0.986-1.606,1.197l2.415,2.871
	C33.093,32.11,33.578,31.596,34.213,31.294z"/>
<path fill="#666666" d="M30.309,24.126l-0.202-3.607c-0.276,0.176-0.578,0.32-0.914,0.4c-0.36,0.085-0.718,0.093-1.064,0.05
	l0.184,3.284c0.157-0.068,0.319-0.13,0.491-0.171C29.32,23.959,29.833,23.991,30.309,24.126z"/>
<g>
	<linearGradient id="SVGID_8_" gradientUnits="userSpaceOnUse" x1="28.4995" y1="20.9951" x2="28.4995" y2="15.001">
		<stop  offset="0" style="stop-color:#666666"/>
		<stop  offset="1" style="stop-color:#333333"/>
	</linearGradient>
	<path fill="url(#SVGID_8_)" d="M31.417,17.308c-0.383-1.613-2.001-2.609-3.613-2.225c-1.611,0.385-2.606,2.002-2.222,3.613
		c0.298,1.251,1.341,2.122,2.546,2.272c0.347,0.043,0.705,0.036,1.064-0.05c0.336-0.08,0.638-0.224,0.914-0.4
		C31.154,19.851,31.722,18.582,31.417,17.308z"/>
</g>
<g>
	<linearGradient id="SVGID_9_" gradientUnits="userSpaceOnUse" x1="35.5015" y1="37.002" x2="35.5015" y2="31.001">
		<stop  offset="0" style="stop-color:#999999"/>
		<stop  offset="1" style="stop-color:#666666"/>
	</linearGradient>
	<path fill="url(#SVGID_9_)" d="M38.417,33.309c-0.383-1.613-2.001-2.609-3.613-2.225c-0.208,0.05-0.405,0.122-0.591,0.21
		c-0.635,0.302-1.12,0.816-1.411,1.429c-0.283,0.596-0.384,1.283-0.219,1.975c0.383,1.61,2,2.606,3.611,2.223
		C37.806,36.536,38.802,34.918,38.417,33.309z"/>
</g>
<g>
	<linearGradient id="SVGID_10_" gradientUnits="userSpaceOnUse" x1="18.4985" y1="32.002" x2="18.4985" y2="26.002">
		<stop  offset="0" style="stop-color:#999999"/>
		<stop  offset="1" style="stop-color:#666666"/>
	</linearGradient>
	<path fill="url(#SVGID_10_)" d="M21.417,28.309c-0.033-0.14-0.087-0.269-0.138-0.398c-0.537-1.37-2.003-2.178-3.475-1.826
		c-1.611,0.385-2.606,2.002-2.222,3.613c0.383,1.61,2,2.606,3.611,2.223c1.05-0.25,1.83-1.026,2.146-1.98
		C21.509,29.43,21.552,28.87,21.417,28.309z"/>
</g>
<g>
	<path fill="#333333" d="M32.417,26.308c-0.261-1.097-1.096-1.896-2.108-2.182c-0.477-0.135-0.989-0.167-1.505-0.043
		c-0.172,0.041-0.334,0.103-0.491,0.171c-1.043,0.45-1.725,1.45-1.793,2.565c-0.018,0.288-0.008,0.582,0.062,0.878
		c0.093,0.391,0.261,0.743,0.481,1.051c0.688,0.96,1.91,1.463,3.13,1.172c0.068-0.017,0.128-0.047,0.193-0.067
		c0.68-0.211,1.236-0.64,1.606-1.197C32.436,27.986,32.618,27.148,32.417,26.308z"/>
</g>
</svg>
