<?xml version="1.0" encoding="utf-8"?>
<!-- Generator: Adobe Illustrator 16.1.0, SVG Export Plug-In . SVG Version: 6.00 Build 0)  -->
<!DOCTYPE svg PUBLIC "-//W3C//DTD SVG 1.1//EN" "http://www.w3.org/Graphics/SVG/1.1/DTD/svg11.dtd">
<svg version="1.1" id="Layer_1" xmlns="http://www.w3.org/2000/svg" xmlns:xlink="http://www.w3.org/1999/xlink" x="0px" y="0px"
	 width="48px" height="48px" viewBox="0 0 48 48" enable-background="new 0 0 48 48" xml:space="preserve">
<g>
	<path fill="none" d="M21.567,19.982c-1.96,5.229-3.342,12.308-12.156,12.777H23V15.986C22.416,16.962,22.049,18.697,21.567,19.982z
		"/>
	<path fill="none" d="M26.74,20.183c-0.549-1.332-1.096-3.119-1.74-4.139V32.76h17C31,32.76,29.187,26.119,26.74,20.183z"/>
	<path fill="#666666" d="M24,15.24c-0.404-0.004-0.726,0.288-1,0.746V32.76h2V16.044C24.692,15.558,24.363,15.244,24,15.24z"/>
	<path fill="#333333" d="M28.589,19.421C27.111,15.833,26.042,13.24,24,13.24c-2.041,0-2.99,2.533-4.305,6.04
		C17.457,25.249,17.109,31.321,6,30.76v2c3,0,1.675,0,3.411,0c8.814-0.47,10.196-7.549,12.156-12.777
		c0.482-1.285,0.849-3.021,1.433-3.996c0.274-0.458,0.596-0.75,1-0.746c0.363,0.004,0.692,0.317,1,0.804
		c0.645,1.02,1.191,2.807,1.74,4.139C29.187,26.119,31,32.76,42,32.76v-2.013C34,30.76,31.571,26.656,28.589,19.421z"/>
	<path fill="#B2B2B2" d="M42,32.76H25h-2H9.411c-1.736,0-0.411,0-3.411,0v2h36L42,32.76L42,32.76z"/>
</g>
</svg>
