<?xml version="1.0" encoding="utf-8"?>
<!-- Generator: Adobe Illustrator 16.0.0, SVG Export Plug-In . SVG Version: 6.00 Build 0)  -->
<!DOCTYPE svg PUBLIC "-//W3C//DTD SVG 1.1//EN" "http://www.w3.org/Graphics/SVG/1.1/DTD/svg11.dtd">
<svg version="1.1" id="Layer_1" xmlns="http://www.w3.org/2000/svg" xmlns:xlink="http://www.w3.org/1999/xlink" x="0px" y="0px"
	 width="26px" height="26px" viewBox="0 0 26 26" enable-background="new 0 0 26 26" xml:space="preserve">
<g>
	<g>
		<polygon fill="#666666" points="20.985,6.971 19.729,6.971 19.729,4.368 12.186,3.208 4.643,4.368 4.643,6.971 3.386,6.971
			3.386,3.289 12.186,1.936 20.985,3.289 		"/>
	</g>
	<g>
		<polygon fill="#666666" points="20,13.99 20,18 21,18 21,13.99 20.5,13.893 		"/>
		<polygon fill="#666666" points="20,10 20,12.718 20.5,12.621 21,12.718 21,10 		"/>
		<polygon fill="#666666" points="12,13.975 12,18 13,18 13,15.054 20,13.99 20,12.718 		"/>
		<polygon fill="#666666" points="21,12.718 21,13.99 23,14.377 23,13.105 		"/>
		<polygon fill="#666666" points="19.729,12.718 19.729,13.99 20.357,13.893 20.985,13.99 20.985,12.718 20.357,12.621 		"/>
		<rect x="12" y="1" fill="#666666" width="1" height="7"/>
		<rect x="12" y="19" fill="#666666" width="1" height="4"/>
	</g>
	<rect x="1" y="6" fill="#333333" width="6" height="5"/>
	<rect x="10" y="7" fill="#333333" width="5" height="5"/>
	<rect x="18" y="18" fill="#333333" width="5" height="5"/>
	<circle fill="#333333" cx="12.186" cy="18.914" r="2.514"/>
	<circle fill="#333333" cx="20.357" cy="8.229" r="2.514"/>
</g>
</svg>