<?xml version="1.0" encoding="UTF-8" standalone="no"?>
<!-- Generator: Adobe Illustrator 16.1.0, SVG Export Plug-In . SVG Version: 6.00 Build 0)  -->

<svg
   xmlns:dc="http://purl.org/dc/elements/1.1/"
   xmlns:cc="http://creativecommons.org/ns#"
   xmlns:rdf="http://www.w3.org/1999/02/22-rdf-syntax-ns#"
   xmlns:svg="http://www.w3.org/2000/svg"
   xmlns="http://www.w3.org/2000/svg"
   xmlns:sodipodi="http://sodipodi.sourceforge.net/DTD/sodipodi-0.dtd"
   xmlns:inkscape="http://www.inkscape.org/namespaces/inkscape"
   version="1.1"
   id="Layer_1"
   x="0px"
   y="0px"
   width="48px"
   height="48px"
   viewBox="0 0 48 48"
   enable-background="new 0 0 48 48"
   xml:space="preserve"
   inkscape:version="0.48.5 r10040"
   sodipodi:docname="SGDRegression.svg"><metadata
     id="metadata109"><rdf:RDF><cc:Work
         rdf:about=""><dc:format>image/svg+xml</dc:format><dc:type
           rdf:resource="http://purl.org/dc/dcmitype/StillImage" /></cc:Work></rdf:RDF></metadata><defs
     id="defs107"><inkscape:path-effect
       effect="skeletal"
       id="path-effect3092"
       is_visible="true"
       pattern="M 0,0 1,0"
       copytype="single_stretched"
       prop_scale="1"
       scale_y_rel="false"
       spacing="0"
       normal_offset="0"
       tang_offset="0"
       prop_units="false"
       vertical_pattern="false"
       fuse_tolerance="0" /></defs><sodipodi:namedview
     pagecolor="#ffffff"
     bordercolor="#666666"
     borderopacity="1"
     objecttolerance="10"
     gridtolerance="10"
     guidetolerance="10"
     inkscape:pageopacity="0"
     inkscape:pageshadow="2"
     inkscape:window-width="2044"
     inkscape:window-height="1132"
     id="namedview105"
     showgrid="false"
     showguides="true"
     inkscape:guide-bbox="true"
     inkscape:object-nodes="true"
     inkscape:snap-center="true"
     inkscape:snap-object-midpoints="true"
     inkscape:zoom="4.9166667"
     inkscape:cx="24"
     inkscape:cy="56.542373"
     inkscape:window-x="0"
     inkscape:window-y="18"
     inkscape:window-maximized="0"
     inkscape:current-layer="g7" /><g
     id="g7"
     transform="translate(-1.0169492,-58.779661)"><path
       style="fill:#000000;fill-rule:evenodd;stroke:none"
       d="M 129.35593,-69.966102 120,-48.813559"
       id="path3090"
       inkscape:path-effect="#path-effect3092"
       inkscape:original-d="M 129.35593,-69.966102 120,-48.813559"
       inkscape:connector-curvature="0"
       transform="translate(1.0169492,58.779661)" /></g><g
     id="g15"
     transform="translate(-6.1016949,-3.4576271)"><linearGradient
       id="SVGID_1_"
       gradientUnits="userSpaceOnUse"
       x1="19.8403"
       y1="43.999001"
       x2="19.8403"
       y2="37.999001"><stop
         offset="0"
         style="stop-color:#999999"
         id="stop18" /><stop
         offset="1"
         style="stop-color:#666666"
         id="stop20" /></linearGradient><path
       d="m 22.758,40.306 c -0.383,-1.612 -2.002,-2.608 -3.613,-2.225 -1.611,0.385 -2.606,2.002 -2.222,3.615 0.383,1.608 2,2.604 3.611,2.221 1.612,-0.383 2.609,-2.002 2.224,-3.611 z"
       id="path22"
       style="fill:url(#SVGID_1_)"
       inkscape:connector-curvature="0" /></g><g
     id="g24"
     transform="translate(4.8813559,8.338983)"><linearGradient
       id="SVGID_2_"
       gradientUnits="userSpaceOnUse"
       x1="8.8402996"
       y1="11"
       x2="8.8402996"
       y2="4.9994998"><stop
         offset="0"
         style="stop-color:#666666"
         id="stop27" /><stop
         offset="1"
         style="stop-color:#333333"
         id="stop29" /></linearGradient><circle
       cx="8.8409996"
       cy="8.0010004"
       r="2.9990001"
       id="circle31"
       d="M 11.84,8.0010004 C 11.84,9.6573024 10.497302,11 8.8409996,11 7.1846976,11 5.8419995,9.6573024 5.8419995,8.0010004 c 0,-1.656302 1.3426981,-2.9990001 2.9990001,-2.9990001 1.6563024,0 2.9990004,1.3426981 2.9990004,2.9990001 z"
       style="fill:url(#SVGID_2_)"
       sodipodi:cx="8.8409996"
       sodipodi:cy="8.0010004"
       sodipodi:rx="2.9990001"
       sodipodi:ry="2.9990001" /></g><g
     id="g33"
     transform="translate(-0.40677966,8.5423729)"><linearGradient
       id="SVGID_3_"
       gradientUnits="userSpaceOnUse"
       x1="8.8402996"
       y1="20"
       x2="8.8402996"
       y2="13.9995"><stop
         offset="0"
         style="stop-color:#666666"
         id="stop36" /><stop
         offset="1"
         style="stop-color:#333333"
         id="stop38" /></linearGradient><circle
       cx="8.8400002"
       cy="17.000999"
       r="2.9990001"
       id="circle40"
       d="M 11.839,17.000999 C 11.839,18.657301 10.496302,20 8.8400002,20 7.1836981,20 5.8410001,18.657301 5.8410001,17.000999 c 0,-1.656302 1.342698,-2.999 2.9990001,-2.999 1.6563018,0 2.9989998,1.342698 2.9989998,2.999 z"
       style="fill:url(#SVGID_3_)"
       sodipodi:cx="8.8400002"
       sodipodi:cy="17.000999"
       sodipodi:rx="2.9990001"
       sodipodi:ry="2.9990001" /></g><g
     id="g42"
     transform="translate(9.3559322,-8.5423728)"><linearGradient
       id="SVGID_4_"
       gradientUnits="userSpaceOnUse"
       x1="15.8403"
       y1="36.999001"
       x2="15.8403"
       y2="30.999001"><stop
         offset="0"
         style="stop-color:#333333"
         id="stop45" /><stop
         offset="1"
         style="stop-color:#000000"
         id="stop47" /></linearGradient><circle
       cx="15.84"
       cy="34.000999"
       r="2.9990001"
       id="circle49"
       d="M 18.839,34.000999 C 18.839,35.657301 17.496302,37 15.84,37 c -1.656302,0 -2.999,-1.342699 -2.999,-2.999001 0,-1.656302 1.342698,-2.999 2.999,-2.999 1.656302,0 2.999,1.342698 2.999,2.999 z"
       style="fill:url(#SVGID_4_)"
       sodipodi:cx="15.84"
       sodipodi:cy="34.000999"
       sodipodi:rx="2.9990001"
       sodipodi:ry="2.9990001" /></g><g
     id="g51"
     transform="translate(4.6779661,-0.40677966)"><linearGradient
       id="SVGID_5_"
       gradientUnits="userSpaceOnUse"
       x1="20.8403"
       y1="22"
       x2="20.8403"
       y2="15.9995"><stop
         offset="0"
         style="stop-color:#333333"
         id="stop54" /><stop
         offset="1"
         style="stop-color:#000000"
         id="stop56" /></linearGradient><circle
       cx="20.84"
       cy="19.000999"
       r="2.9990001"
       id="circle58"
       d="M 23.839,19.000999 C 23.839,20.657301 22.496302,22 20.84,22 c -1.656302,0 -2.999,-1.342699 -2.999,-2.999001 0,-1.656302 1.342698,-2.999 2.999,-2.999 1.656302,0 2.999,1.342698 2.999,2.999 z"
       style="fill:url(#SVGID_5_)"
       sodipodi:cx="20.84"
       sodipodi:cy="19.000999"
       sodipodi:rx="2.9990001"
       sodipodi:ry="2.9990001" /></g><g
     id="g60"
     transform="translate(2.6440678,8.1355932)"><linearGradient
       id="SVGID_6_"
       gradientUnits="userSpaceOnUse"
       x1="38.840801"
       y1="9.9995003"
       x2="38.840801"
       y2="3.9990001"><stop
         offset="0"
         style="stop-color:#666666"
         id="stop63" /><stop
         offset="1"
         style="stop-color:#333333"
         id="stop65" /></linearGradient><circle
       cx="38.84"
       cy="7"
       r="2.9990001"
       id="circle67"
       d="m 41.839,7 c 0,1.656302 -1.342698,2.9990001 -2.999,2.9990001 -1.656302,0 -2.999,-1.3426981 -2.999,-2.9990001 0,-1.656302 1.342698,-2.9990001 2.999,-2.9990001 1.656302,0 2.999,1.3426981 2.999,2.9990001 z"
       style="fill:url(#SVGID_6_)"
       sodipodi:cx="38.84"
       sodipodi:cy="7"
       sodipodi:rx="2.9990001"
       sodipodi:ry="2.9990001" /></g><g
     id="g69"
     transform="translate(-6.3050847,-6.3050847)"><linearGradient
       id="SVGID_7_"
       gradientUnits="userSpaceOnUse"
       x1="31.840799"
       y1="14.0005"
       x2="31.840799"
       y2="7.9994998"><stop
         offset="0"
         style="stop-color:#666666"
         id="stop72" /><stop
         offset="1"
         style="stop-color:#333333"
         id="stop74" /></linearGradient><circle
       cx="31.84"
       cy="11.001"
       r="2.9990001"
       id="circle76"
       d="m 34.839,11.001 c 0,1.656302 -1.342698,2.999 -2.999,2.999 -1.656302,0 -2.999,-1.342698 -2.999,-2.999 0,-1.6563016 1.342698,-2.9989997 2.999,-2.9989997 1.656302,0 2.999,1.3426981 2.999,2.9989997 z"
       style="fill:url(#SVGID_7_)"
       sodipodi:cx="31.84"
       sodipodi:cy="11.001"
       sodipodi:rx="2.9990001"
       sodipodi:ry="2.9990001" /></g><g
     id="g78"
     transform="translate(-6.4406782e-8,-7.5254237)"><linearGradient
       id="SVGID_8_"
       gradientUnits="userSpaceOnUse"
       x1="32.839802"
       y1="32.999001"
       x2="32.839802"
       y2="26.999001"><stop
         offset="0"
         style="stop-color:#333333"
         id="stop81" /><stop
         offset="1"
         style="stop-color:#000000"
         id="stop83" /></linearGradient><circle
       cx="32.84"
       cy="30"
       r="2.9990001"
       id="circle85"
       d="m 35.839,30 c 0,1.656302 -1.342698,2.999 -2.999,2.999 -1.656302,0 -2.999,-1.342698 -2.999,-2.999 0,-1.656302 1.342698,-2.999 2.999,-2.999 1.656302,0 2.999,1.342698 2.999,2.999 z"
       style="fill:url(#SVGID_8_)"
       sodipodi:cx="32.84"
       sodipodi:cy="30"
       sodipodi:rx="2.9990001"
       sodipodi:ry="2.9990001" /></g><g
     id="g87"><linearGradient
       id="SVGID_9_"
       gradientUnits="userSpaceOnUse"
       x1="39.8398"
       y1="39.001"
       x2="39.8398"
       y2="33"><stop
         offset="0"
         style="stop-color:#999999"
         id="stop90" /><stop
         offset="1"
         style="stop-color:#666666"
         id="stop92" /></linearGradient><circle
       fill="url(#SVGID_9_)"
       cx="39.84"
       cy="36.002"
       r="2.999"
       id="circle94" /></g><g
     id="g96"><linearGradient
       id="SVGID_10_"
       gradientUnits="userSpaceOnUse"
       x1="31.8398"
       y1="44.001"
       x2="31.8398"
       y2="38"><stop
         offset="0"
         style="stop-color:#999999"
         id="stop99" /><stop
         offset="1"
         style="stop-color:#666666"
         id="stop101" /></linearGradient><circle
       fill="url(#SVGID_10_)"
       cx="31.84"
       cy="41.002"
       r="2.999"
       id="circle103" /></g><path
     sodipodi:type="spiral"
     style="fill:none;stroke:#000000;stroke-width:1px;stroke-linecap:butt;stroke-linejoin:miter;stroke-opacity:1"
     id="path3088"
     sodipodi:cx="24.61017"
     sodipodi:cy="23.79661"
     sodipodi:expansion="1"
     sodipodi:revolution="3"
     sodipodi:radius="22.08349"
     sodipodi:argument="-19.719717"
     sodipodi:t0="0"
     d="m 24.61017,23.79661 c 0.713836,-0.846404 1.493117,0.54465 1.406779,1.186442 -0.23397,1.739215 -2.397124,2.199404 -3.779662,1.627115 -2.473037,-1.02369 -3.020837,-4.181098 -1.847453,-6.372882 1.721989,-3.216532 5.988367,-3.864103 8.966103,-2.06779 3.968855,2.394202 4.71652,7.803784 2.288127,11.559324 C 28.58818,34.454783 22.021008,35.302458 17.49152,32.237282 12.005702,28.524943 11.058042,20.792788 14.762719,15.491517 19.128553,9.2441532 28.03,8.1964963 34.101705,12.54238 c 7.010023,5.017495 8.157702,15.090969 3.169474,21.932206 -5.667942,7.773449 -16.915289,9.02118 -24.525426,3.389811 C 4.2083283,31.546852 2.8605169,19.124326 9.1356045,10.74575 16.102141,1.443943 29.700805,-0.00397388 38.847472,6.9152652"
     transform="translate(0.20338932,2.2372877)" /></svg>