<?xml version="1.0" encoding="utf-8"?>
<!-- Generator: Adobe Illustrator 16.1.0, SVG Export Plug-In . SVG Version: 6.00 Build 0)  -->
<!DOCTYPE svg PUBLIC "-//W3C//DTD SVG 1.1//EN" "http://www.w3.org/Graphics/SVG/1.1/DTD/svg11.dtd">
<svg version="1.1" id="Layer_1" xmlns="http://www.w3.org/2000/svg" xmlns:xlink="http://www.w3.org/1999/xlink" x="0px" y="0px"
	 width="48px" height="48px" viewBox="0 0 48 48" enable-background="new 0 0 48 48" xml:space="preserve">
<g>
	
		<rect x="23.113" y="2.561" transform="matrix(0.2315 0.9728 -0.9728 0.2315 42.9695 -4.1517)" fill="#333333" width="2" height="45.12"/>
</g>
<g>
	<path fill="#333333" d="M2.157,24.309l-0.231-0.973l1.946-0.463l0.231,0.973L2.157,24.309z M7.994,22.919l-0.231-0.973l1.945-0.463
		l0.231,0.973L7.994,22.919z M13.831,21.529L13.6,20.556l1.945-0.463l0.231,0.973L13.831,21.529z M25.505,18.75l-0.232-0.973
		l1.945-0.463l0.232,0.973L25.505,18.75z M31.342,17.36l-0.232-0.973l1.945-0.463l0.232,0.973L31.342,17.36z M37.179,15.97
		l-0.232-0.973l1.945-0.463l0.232,0.973L37.179,15.97z M43.016,14.58l-0.232-0.973l1.945-0.463l0.232,0.973L43.016,14.58z"/>
</g>
<g>
	<path fill="#333333" d="M1.956,37.464l-0.231-0.973l1.946-0.463l0.231,0.973L1.956,37.464z M7.793,36.074l-0.232-0.973l1.945-0.464
		l0.232,0.973L7.793,36.074z M19.466,33.294l-0.231-0.973l1.946-0.463l0.231,0.973L19.466,33.294z M25.304,31.904l-0.232-0.973
		l1.945-0.464l0.232,0.973L25.304,31.904z M36.978,29.124l-0.232-0.973l1.945-0.463l0.232,0.973L36.978,29.124z M42.814,27.734
		l-0.232-0.973l1.945-0.464l0.232,0.973L42.814,27.734z"/>
</g>
<g>
	<linearGradient id="SVGID_1_" gradientUnits="userSpaceOnUse" x1="19.8403" y1="43.999" x2="19.8403" y2="37.999">
		<stop  offset="0" style="stop-color:#999999"/>
		<stop  offset="1" style="stop-color:#666666"/>
	</linearGradient>
	<path fill="url(#SVGID_1_)" d="M22.758,40.306c-0.383-1.612-2.002-2.608-3.613-2.225c-1.611,0.385-2.606,2.002-2.222,3.615
		c0.383,1.608,2,2.604,3.611,2.221C22.146,43.534,23.143,41.915,22.758,40.306z"/>
</g>
<g>
	<linearGradient id="SVGID_2_" gradientUnits="userSpaceOnUse" x1="8.8403" y1="11" x2="8.8403" y2="4.9995">
		<stop  offset="0" style="stop-color:#666666"/>
		<stop  offset="1" style="stop-color:#333333"/>
	</linearGradient>
	<circle fill="url(#SVGID_2_)" cx="8.841" cy="8.001" r="2.999"/>
</g>
<g>
	<linearGradient id="SVGID_3_" gradientUnits="userSpaceOnUse" x1="8.8403" y1="20" x2="8.8403" y2="13.9995">
		<stop  offset="0" style="stop-color:#666666"/>
		<stop  offset="1" style="stop-color:#333333"/>
	</linearGradient>
	<circle fill="url(#SVGID_3_)" cx="8.84" cy="17.001" r="2.999"/>
</g>
<g>
	<linearGradient id="SVGID_4_" gradientUnits="userSpaceOnUse" x1="15.8403" y1="36.999" x2="15.8403" y2="30.999">
		<stop  offset="0" style="stop-color:#333333"/>
		<stop  offset="1" style="stop-color:#000000"/>
	</linearGradient>
	<circle fill="url(#SVGID_4_)" cx="15.84" cy="34.001" r="2.999"/>
</g>
<g>
	<linearGradient id="SVGID_5_" gradientUnits="userSpaceOnUse" x1="20.8403" y1="22" x2="20.8403" y2="15.9995">
		<stop  offset="0" style="stop-color:#333333"/>
		<stop  offset="1" style="stop-color:#000000"/>
	</linearGradient>
	<circle fill="url(#SVGID_5_)" cx="20.84" cy="19.001" r="2.999"/>
</g>
<g>
	<linearGradient id="SVGID_6_" gradientUnits="userSpaceOnUse" x1="38.8408" y1="9.9995" x2="38.8408" y2="3.999">
		<stop  offset="0" style="stop-color:#666666"/>
		<stop  offset="1" style="stop-color:#333333"/>
	</linearGradient>
	<circle fill="url(#SVGID_6_)" cx="38.84" cy="7" r="2.999"/>
</g>
<g>
	<linearGradient id="SVGID_7_" gradientUnits="userSpaceOnUse" x1="31.8408" y1="14.0005" x2="31.8408" y2="7.9995">
		<stop  offset="0" style="stop-color:#666666"/>
		<stop  offset="1" style="stop-color:#333333"/>
	</linearGradient>
	<circle fill="url(#SVGID_7_)" cx="31.84" cy="11.001" r="2.999"/>
</g>
<g>
	<linearGradient id="SVGID_8_" gradientUnits="userSpaceOnUse" x1="32.8398" y1="32.999" x2="32.8398" y2="26.999">
		<stop  offset="0" style="stop-color:#333333"/>
		<stop  offset="1" style="stop-color:#000000"/>
	</linearGradient>
	<circle fill="url(#SVGID_8_)" cx="32.84" cy="30" r="2.999"/>
</g>
<g>
	<linearGradient id="SVGID_9_" gradientUnits="userSpaceOnUse" x1="39.8398" y1="39.001" x2="39.8398" y2="33">
		<stop  offset="0" style="stop-color:#999999"/>
		<stop  offset="1" style="stop-color:#666666"/>
	</linearGradient>
	<circle fill="url(#SVGID_9_)" cx="39.84" cy="36.002" r="2.999"/>
</g>
<g>
	<linearGradient id="SVGID_10_" gradientUnits="userSpaceOnUse" x1="31.8398" y1="44.001" x2="31.8398" y2="38">
		<stop  offset="0" style="stop-color:#999999"/>
		<stop  offset="1" style="stop-color:#666666"/>
	</linearGradient>
	<circle fill="url(#SVGID_10_)" cx="31.84" cy="41.002" r="2.999"/>
</g>
</svg>
