<?xml version="1.0" encoding="UTF-8" standalone="no"?>
<!-- Generator: Adobe Illustrator 16.1.0, SVG Export Plug-In . SVG Version: 6.00 Build 0)  -->

<svg
   xmlns:dc="http://purl.org/dc/elements/1.1/"
   xmlns:cc="http://creativecommons.org/ns#"
   xmlns:rdf="http://www.w3.org/1999/02/22-rdf-syntax-ns#"
   xmlns:svg="http://www.w3.org/2000/svg"
   xmlns="http://www.w3.org/2000/svg"
   xmlns:sodipodi="http://sodipodi.sourceforge.net/DTD/sodipodi-0.dtd"
   xmlns:inkscape="http://www.inkscape.org/namespaces/inkscape"
   version="1.1"
   id="Layer_1"
   x="0px"
   y="0px"
   width="48px"
   height="48px"
   viewBox="0 0 48 48"
   enable-background="new 0 0 48 48"
   xml:space="preserve"
   inkscape:version="0.48.5 r10040"
   sodipodi:docname="UnivariateRegression.svg"><metadata
     id="metadata101"><rdf:RDF><cc:Work
         rdf:about=""><dc:format>image/svg+xml</dc:format><dc:type
           rdf:resource="http://purl.org/dc/dcmitype/StillImage" /></cc:Work></rdf:RDF></metadata><defs
     id="defs99" /><sodipodi:namedview
     pagecolor="#ffffff"
     bordercolor="#666666"
     borderopacity="1"
     objecttolerance="10"
     gridtolerance="10"
     guidetolerance="10"
     inkscape:pageopacity="0"
     inkscape:pageshadow="2"
     inkscape:window-width="1246"
     inkscape:window-height="1360"
     id="namedview97"
     showgrid="false"
     inkscape:zoom="4.9166667"
     inkscape:cx="-6.7118644"
     inkscape:cy="24"
     inkscape:window-x="1250"
     inkscape:window-y="18"
     inkscape:window-maximized="0"
     inkscape:current-layer="Layer_1" /><g
     id="g3"><linearGradient
       id="SVGID_1_"
       gradientUnits="userSpaceOnUse"
       x1="37.0005"
       y1="15"
       x2="37.0005"
       y2="8.9995"><stop
         offset="0"
         style="stop-color:#999999"
         id="stop6" /><stop
         offset="1"
         style="stop-color:#666666"
         id="stop8" /></linearGradient><circle
       fill="url(#SVGID_1_)"
       cx="37"
       cy="12.001"
       r="2.999"
       id="circle10" /></g><g
     id="g12"
     transform="translate(4.4745763,0.61016949)"><linearGradient
       id="SVGID_2_"
       gradientUnits="userSpaceOnUse"
       x1="22.0005"
       y1="19.9995"
       x2="22.0005"
       y2="13.9985"><stop
         offset="0"
         style="stop-color:#999999"
         id="stop15" /><stop
         offset="1"
         style="stop-color:#666666"
         id="stop17" /></linearGradient><circle
       cx="22"
       cy="17"
       r="2.9990001"
       id="circle19"
       d="m 24.999,17 c 0,1.656302 -1.342698,2.999 -2.999,2.999 -1.656302,0 -2.999,-1.342698 -2.999,-2.999 0,-1.656302 1.342698,-2.999 2.999,-2.999 1.656302,0 2.999,1.342698 2.999,2.999 z"
       style="fill:url(#SVGID_2_)"
       sodipodi:cx="22"
       sodipodi:cy="17"
       sodipodi:rx="2.9990001"
       sodipodi:ry="2.9990001" /></g><g
     id="g21"><linearGradient
       id="SVGID_3_"
       gradientUnits="userSpaceOnUse"
       x1="30.0005"
       y1="32.001"
       x2="30.0005"
       y2="25.999"><stop
         offset="0"
         style="stop-color:#999999"
         id="stop24" /><stop
         offset="1"
         style="stop-color:#666666"
         id="stop26" /></linearGradient><circle
       fill="url(#SVGID_3_)"
       cx="30"
       cy="29.001"
       r="2.999"
       id="circle28" /></g><g
     id="g30"><linearGradient
       id="SVGID_4_"
       gradientUnits="userSpaceOnUse"
       x1="22.0005"
       y1="32"
       x2="22.0005"
       y2="25.999"><stop
         offset="0"
         style="stop-color:#999999"
         id="stop33" /><stop
         offset="1"
         style="stop-color:#666666"
         id="stop35" /></linearGradient><circle
       fill="url(#SVGID_4_)"
       cx="22"
       cy="29.001"
       r="2.999"
       id="circle37" /></g><g
     id="g39"
     transform="translate(-3.6610169,-4.0677967)"><linearGradient
       id="SVGID_5_"
       gradientUnits="userSpaceOnUse"
       x1="18.0005"
       y1="39"
       x2="18.0005"
       y2="32.999001"><stop
         offset="0"
         style="stop-color:#999999"
         id="stop42" /><stop
         offset="1"
         style="stop-color:#666666"
         id="stop44" /></linearGradient><circle
       cx="18"
       cy="36.000999"
       r="2.9990001"
       id="circle46"
       d="M 20.999,36.000999 C 20.999,37.657301 19.656302,39 18,39 c -1.656302,0 -2.999,-1.342699 -2.999,-2.999001 0,-1.656302 1.342698,-2.999 2.999,-2.999 1.656302,0 2.999,1.342698 2.999,2.999 z"
       style="fill:url(#SVGID_5_)"
       sodipodi:cx="18"
       sodipodi:cy="36.000999"
       sodipodi:rx="2.9990001"
       sodipodi:ry="2.9990001" /></g><g
     id="g48"><linearGradient
       id="SVGID_6_"
       gradientUnits="userSpaceOnUse"
       x1="8.0005"
       y1="31.001"
       x2="8.0005"
       y2="24.9995"><stop
         offset="0"
         style="stop-color:#999999"
         id="stop51" /><stop
         offset="1"
         style="stop-color:#666666"
         id="stop53" /></linearGradient><circle
       fill="url(#SVGID_6_)"
       cx="8"
       cy="28.001"
       r="2.999"
       id="circle55" /></g><g
     id="g57"
     transform="translate(0,-3.2542373)"><linearGradient
       id="SVGID_7_"
       gradientUnits="userSpaceOnUse"
       x1="15.0005"
       y1="27.000999"
       x2="15.0005"
       y2="21"><stop
         offset="0"
         style="stop-color:#999999"
         id="stop60" /><stop
         offset="1"
         style="stop-color:#666666"
         id="stop62" /></linearGradient><circle
       cx="15"
       cy="24"
       r="2.9990001"
       id="circle64"
       d="m 17.999,24 c 0,1.656302 -1.342698,2.999 -2.999,2.999 -1.656302,0 -2.999,-1.342698 -2.999,-2.999 0,-1.656302 1.342698,-2.999 2.999,-2.999 1.656302,0 2.999,1.342698 2.999,2.999 z"
       style="fill:url(#SVGID_7_)"
       sodipodi:cx="15"
       sodipodi:cy="24"
       sodipodi:rx="2.9990001"
       sodipodi:ry="2.9990001" /></g><g
     id="g66"><linearGradient
       id="SVGID_8_"
       gradientUnits="userSpaceOnUse"
       x1="39.0005"
       y1="27"
       x2="39.0005"
       y2="20.999"><stop
         offset="0"
         style="stop-color:#999999"
         id="stop69" /><stop
         offset="1"
         style="stop-color:#666666"
         id="stop71" /></linearGradient><circle
       fill="url(#SVGID_8_)"
       cx="39"
       cy="24"
       r="2.999"
       id="circle73" /></g><g
     id="g75"
     transform="translate(5.8983051,17.288136)"><linearGradient
       id="SVGID_9_"
       gradientUnits="userSpaceOnUse"
       x1="31.0005"
       y1="21"
       x2="31.0005"
       y2="14.9995"><stop
         offset="0"
         style="stop-color:#999999"
         id="stop78" /><stop
         offset="1"
         style="stop-color:#666666"
         id="stop80" /></linearGradient><circle
       cx="31"
       cy="18.000999"
       r="2.9990001"
       id="circle82"
       d="M 33.999,18.000999 C 33.999,19.657301 32.656302,21 31,21 c -1.656302,0 -2.999,-1.342699 -2.999,-2.999001 0,-1.656302 1.342698,-2.999 2.999,-2.999 1.656302,0 2.999,1.342698 2.999,2.999 z"
       style="fill:url(#SVGID_9_)"
       sodipodi:cx="31"
       sodipodi:cy="18.000999"
       sodipodi:rx="2.9990001"
       sodipodi:ry="2.9990001" /></g><g
     id="g84"
     transform="translate(-4.0677966,0.61016949)"><linearGradient
       id="SVGID_10_"
       gradientUnits="userSpaceOnUse"
       x1="9.0004997"
       y1="39.000999"
       x2="9.0004997"
       y2="32.999001"><stop
         offset="0"
         style="stop-color:#999999"
         id="stop87" /><stop
         offset="1"
         style="stop-color:#666666"
         id="stop89" /></linearGradient><circle
       cx="9"
       cy="36.000999"
       r="2.9990001"
       id="circle91"
       d="M 11.999,36.000999 C 11.999,37.657301 10.656302,39 9,39 7.343698,39 6.0009999,37.657301 6.0009999,36.000999 c 0,-1.656302 1.3426981,-2.999 2.9990001,-2.999 1.656302,0 2.999,1.342698 2.999,2.999 z"
       style="fill:url(#SVGID_10_)"
       sodipodi:cx="9"
       sodipodi:cy="36.000999"
       sodipodi:rx="2.9990001"
       sodipodi:ry="2.9990001" /></g><path
     style="fill:none;stroke:#000000;stroke-width:1.6;stroke-linecap:butt;stroke-linejoin:miter;stroke-miterlimit:4;stroke-opacity:1;stroke-dasharray:none"
     d="M 24.110356,26.11598 C 35.913841,39.133022 43.629925,11.235199 43.629925,11.235199"
     id="path3082"
     inkscape:connector-curvature="0"
     sodipodi:nodetypes="cc" /><path
     style="fill:none;stroke:#000000;stroke-width:1.6;stroke-linecap:butt;stroke-linejoin:miter;stroke-miterlimit:4;stroke-opacity:1;stroke-dasharray:none"
     d="M 24.110356,26.170555 C 12.306871,13.153512 4.5907866,41.051337 4.5907866,41.051337"
     id="path3082-8"
     inkscape:connector-curvature="0"
     sodipodi:nodetypes="cc" /></svg>