<?xml version="1.0" encoding="utf-8"?>
<!-- Generator: Adobe Illustrator 16.0.0, SVG Export Plug-In . SVG Version: 6.00 Build 0)  -->
<!DOCTYPE svg PUBLIC "-//W3C//DTD SVG 1.1//EN" "http://www.w3.org/Graphics/SVG/1.1/DTD/svg11.dtd">
<svg version="1.1" id="Layer_1" xmlns="http://www.w3.org/2000/svg" xmlns:xlink="http://www.w3.org/1999/xlink" x="0px" y="0px"
	 width="24px" height="24px" viewBox="0 0 24 24" enable-background="new 0 0 24 24" xml:space="preserve">
<g>
	<g>
		
			<rect x="18.871" y="1.525" transform="matrix(0.7078 0.7064 -0.7064 0.7078 8.636 -12.6124)" fill="#333333" width="1.387" height="5.215"/>
	</g>
	<g>
		
			<rect x="16.956" y="3.439" transform="matrix(0.7072 0.707 -0.707 0.7072 8.648 -12.6204)" fill="#333333" width="5.214" height="1.386"/>
	</g>
</g>
<g>
	<polygon fill="#333333" points="3.271,14.568 1.361,12.658 2.162,11.857 3.271,12.965 5.89,10.346 6.689,11.148 	"/>
</g>
<path fill="#FFFFFF" stroke="#000000" stroke-miterlimit="10" d="M2.292,21.874"/>
<g>
	<polygon fill="#333333" points="11.965,6.245 10.054,4.334 10.854,3.533 11.965,4.64 14.581,2.021 15.381,2.823 	"/>
</g>
<g>
	<g>
		
			<rect x="3.332" y="15.569" transform="matrix(0.7076 0.7066 -0.7066 0.7076 14.02 2.4705)" fill="#333333" width="1.385" height="5.216"/>
	</g>
	<g>
		
			<rect x="1.416" y="17.481" transform="matrix(0.707 0.7072 -0.7072 0.707 14.0306 2.4792)" fill="#333333" width="5.214" height="1.384"/>
	</g>
</g>
<circle fill="#333333" cx="19.562" cy="18.178" r="2.525"/>
<circle fill="#333333" cx="12.721" cy="12.458" r="2.525"/>
<g>
	<circle fill="#7A7C7D" cx="19.562" cy="12.457" r="2.399"/>
</g>
<g>
	<circle fill="#7A7C7D" cx="12.718" cy="18.178" r="2.399"/>
</g>
<path fill="#FFFFFF" stroke="#000000" stroke-miterlimit="10" d="M2.292,21.874"/>
<path fill="#FFFFFF" stroke="#000000" stroke-miterlimit="10" d="M26.297,21.874"/>
<polyline fill="none" stroke="#333333" stroke-miterlimit="10" points="1.36,7.682 21.876,7.682 22.641,7.682 "/>
<line fill="none" stroke="#333333" stroke-miterlimit="10" x1="7.794" y1="1.882" x2="7.794" y2="22.201"/>
</svg>
