<?xml version="1.0" encoding="utf-8"?>
<!-- Generator: Adobe Illustrator 16.0.0, SVG Export Plug-In . SVG Version: 6.00 Build 0)  -->
<!DOCTYPE svg PUBLIC "-//W3C//DTD SVG 1.1//EN" "http://www.w3.org/Graphics/SVG/1.1/DTD/svg11.dtd">
<svg version="1.1" id="Layer_1" xmlns="http://www.w3.org/2000/svg" xmlns:xlink="http://www.w3.org/1999/xlink" x="0px" y="0px"
	 width="24px" height="24px" viewBox="0 0 24 24" enable-background="new 0 0 24 24" xml:space="preserve">
<g>
	<g>
		<g>
			<rect x="17.561" y="2.402" transform="matrix(0.7074 0.7069 -0.7069 0.7074 8.284 -11.5162)" width="0.98" height="3.689"/>
		</g>
		<g>
			<rect x="16.206" y="3.757" transform="matrix(0.7072 0.707 -0.707 0.7072 8.2881 -11.5188)" width="3.689" height="0.98"/>
		</g>
	</g>
	<g>
		<polygon points="11.526,5.897 10.033,4.404 10.658,3.776 11.526,4.645 13.574,2.596 14.201,3.222 		"/>
	</g>
	<rect x="1" y="6.446" width="22" height="1.101"/>
	<g>
		<g>
			<rect x="3.811" y="15.053" transform="matrix(0.7074 0.7069 -0.7069 0.7074 13.2022 1.9051)" width="0.98" height="3.688"/>
		</g>
		<g>
			<rect x="2.455" y="16.408" transform="matrix(0.707 0.7072 -0.7072 0.707 13.2089 1.9091)" width="3.69" height="0.978"/>
		</g>
	</g>
	<g>
		<polygon points="3.826,12.498 2.333,11.004 2.959,10.377 3.826,11.243 5.874,9.196 6.5,9.822 		"/>
	</g>
	<rect x="7.601" y="2.101" width="1.1" height="19.799"/>
	<rect x="16.399" y="9.196" width="3.301" height="3.301"/>
	<g>
		<path d="M11.62,9.242c-0.888,0.211-1.436,1.102-1.225,1.988c0.212,0.887,1.102,1.435,1.988,1.221
			c0.884-0.21,1.433-1.099,1.222-1.983C13.395,9.577,12.504,9.03,11.62,9.242z"/>
	</g>
	<rect x="10.351" y="15.247" width="3.299" height="3.3"/>
	<g>
		<circle cx="18.048" cy="16.896" r="1.65"/>
	</g>
</g>
</svg>
