<?xml version="1.0" encoding="utf-8"?>
<!-- Generator: Adobe Illustrator 16.1.0, SVG Export Plug-In . SVG Version: 6.00 Build 0)  -->
<!DOCTYPE svg PUBLIC "-//W3C//DTD SVG 1.1//EN" "http://www.w3.org/Graphics/SVG/1.1/DTD/svg11.dtd">
<svg version="1.1" id="Layer_1" xmlns="http://www.w3.org/2000/svg" xmlns:xlink="http://www.w3.org/1999/xlink" x="0px" y="0px"
	 width="48px" height="48px" viewBox="0 0 48 48" enable-background="new 0 0 48 48" xml:space="preserve">
<polygon points="38,8.161 36.742,6.903 35,8.646 33.258,6.903 32,8.161 33.742,9.903 32,11.646 33.258,12.903 35,11.161 
	36.742,12.903 38,11.646 36.258,9.903 "/>
<g>
	<polygon points="23.139,12.903 20.424,10.188 21.561,9.049 23.139,10.626 26.861,6.903 28,8.041 	"/>
</g>
<polygon points="13,31.16 11.742,29.902 10,31.645 8.257,29.902 7,31.16 8.742,32.902 7,34.645 8.257,35.902 10,34.16 
	11.742,35.902 13,34.645 11.258,32.902 "/>
<g>
	<polygon points="9.139,24.903 6.424,22.188 7.562,21.048 9.139,22.626 12.862,18.903 14,20.041 	"/>
</g>
<polygon fill="#B2B2B2" points="44,14 18,14 18,6 16,6 16,14 4,14 4,16 16,16 16,42 18,42 18,16 44,16 "/>
<rect x="32" y="18.903" fill="#666666" width="6" height="6"/>
<g>
	<path fill="#666666" d="M23.308,18.985c-1.614,0.383-2.61,2.003-2.225,3.614c0.385,1.611,2.002,2.607,3.614,2.221
		c1.607-0.381,2.605-1.998,2.221-3.609C26.536,19.596,24.917,18.602,23.308,18.985z"/>
</g>
<rect x="21" y="29.902" fill="#666666" width="6" height="6"/>
<g>
	<path fill="#666666" d="M35.692,35.82c1.614-0.383,2.61-2.002,2.225-3.613c-0.385-1.611-2.002-2.607-3.614-2.221
		c-1.607,0.381-2.605,1.998-2.221,3.609C32.464,35.211,34.083,36.205,35.692,35.82z"/>
</g>
</svg>
