<?xml version="1.0" encoding="UTF-8" standalone="no"?>
<!DOCTYPE svg PUBLIC "-//W3C//DTD SVG 1.1//EN" "http://www.w3.org/Graphics/SVG/1.1/DTD/svg11.dtd">
<svg width="100%" height="100%" viewBox="0 0 48 48" version="1.1" xmlns="http://www.w3.org/2000/svg" xmlns:xlink="http://www.w3.org/1999/xlink" xml:space="preserve" xmlns:serif="http://www.serif.com/" style="fill-rule:evenodd;clip-rule:evenodd;stroke-linejoin:round;stroke-miterlimit:2;">
    <g>
        <g transform="matrix(1,0,0,1,-19.1605,-2.42304)">
            <g transform="matrix(1,0,0,1,102.5,-271.5)">
                <path d="M-75.821,274.73L-75.821,316.272L-63.268,316.272L-63.268,274.73L-75.821,274.73ZM-66.037,277.499L-66.037,313.503L-74.346,313.503L-72.961,313.503L-72.961,277.499L-74.346,277.499L-66.037,277.499Z" style="fill:rgb(51,51,51);fill-rule:nonzero;"/>
            </g>
            <g transform="matrix(1,0,0,1,102.5,-271.5)">
                <path d="M-72.961,288.576L-72.961,302.424L-66.037,302.424L-66.037,301.039L-72.961,301.039L-72.961,289.961L-66.037,289.961L-66.037,288.576L-72.961,288.576Z" style="fill:rgb(102,102,102);fill-rule:nonzero;"/>
            </g>
            <g transform="matrix(1,0,0,1,102.5,-271.5)">
                <rect x="-72.961" y="302.424" width="6.924" height="11.078" style="fill:white;"/>
            </g>
            <g transform="matrix(1,0,0,1,102.5,-271.5)">
                <rect x="-72.961" y="289.961" width="6.924" height="11.078" style="fill:white;"/>
            </g>
            <g transform="matrix(1,0,0,1,102.5,-271.5)">
                <rect x="-72.961" y="277.499" width="6.924" height="11.078" style="fill:white;"/>
            </g>
        </g>
        <g transform="matrix(1,0,0,1,2.75498,2.34966)">
            <path d="M16.505,31.404C16.823,31.636 17.157,31.84 17.5,32.027C18.315,32.47 19.175,32.865 20.055,33.14C21.237,33.511 22.486,33.634 23.713,33.656C25.264,33.685 26.763,33.394 28.232,32.873C29.062,32.578 29.878,32.23 30.659,31.812C30.961,31.65 31.256,31.478 31.544,31.291C31.605,31.252 32.222,30.789 32.241,30.807C32.27,30.832 32.292,30.867 32.32,30.895C35.155,28.517 36.962,24.951 36.962,20.96C36.962,13.802 31.159,8 24.002,8C16.843,8 11.04,13.802 11.04,20.961C11.04,24.921 12.821,28.462 15.621,30.839C15.652,30.793 15.684,30.744 15.709,30.721C15.687,30.74 16.438,31.355 16.505,31.404Z" style="fill:rgb(178,178,178);fill-rule:nonzero;"/>
        </g>
        <g transform="matrix(1,0,0,1,2.75498,2.34966)">
            <path d="M33.402,34.168C33.42,33.502 33.194,31.761 32.319,30.895C32.291,30.867 32.269,30.833 32.24,30.807C32.22,30.789 31.603,31.252 31.543,31.291C31.255,31.479 30.96,31.65 30.658,31.812C29.877,32.23 29.061,32.578 28.231,32.873C26.762,33.394 25.263,33.685 23.712,33.656C22.484,33.635 21.235,33.511 20.054,33.14C19.174,32.865 18.315,32.47 17.499,32.027C17.156,31.839 16.822,31.636 16.504,31.404C16.437,31.355 15.686,30.74 15.707,30.72C15.683,30.743 15.65,30.792 15.619,30.838C15.294,31.317 14.645,32.942 14.608,34.228C14.069,34.714 13.002,36.218 14.754,37.835C16.984,39.892 27.001,41.327 33.033,38.105C33.035,38.105 35.411,36.143 33.402,34.168Z" style="fill:rgb(51,51,51);fill-rule:nonzero;"/>
        </g>
        <g transform="matrix(1,0,0,1,2.75498,2.34966)">
            <path d="M32.97,25C33.623,23.689 34,22.217 34,20.651C34,15.261 29.63,10.89 24.239,10.89C23.467,10.89 22.719,10.989 22,11.158C24.162,11.863 31.49,14.969 32.97,25Z" style="fill:white;fill-rule:nonzero;"/>
        </g>
    </g>
</svg>
