<?xml version="1.0" encoding="UTF-8" standalone="no"?>
<!DOCTYPE svg PUBLIC "-//W3C//DTD SVG 1.1//EN" "http://www.w3.org/Graphics/SVG/1.1/DTD/svg11.dtd">
<svg width="100%" height="100%" viewBox="0 0 48 48" version="1.1" xmlns="http://www.w3.org/2000/svg" xmlns:xlink="http://www.w3.org/1999/xlink" xml:space="preserve" xmlns:serif="http://www.serif.com/" style="fill-rule:evenodd;clip-rule:evenodd;stroke-linecap:round;stroke-linejoin:round;stroke-miterlimit:1.5;">
    <g>
        <g transform="matrix(1,0,0,1,-4.16213,-0.335233)">
            <path d="M15.824,10.857L15.824,37.814" style="fill:none;stroke:black;stroke-width:2.2px;"/>
            <rect x="12.203" y="15.378" width="6.996" height="5.152" style="fill:rgb(235,235,235);stroke:black;stroke-width:2.2px;"/>
        </g>
        <g transform="matrix(1,0,0,1,-2.17516,-0.335233)">
            <g transform="matrix(1,0,0,1,10.3507,0)">
                <path d="M15.824,10.857L15.824,37.814" style="fill:none;stroke:black;stroke-width:2.2px;"/>
            </g>
            <g transform="matrix(1,0,0,1,10.4741,12.9407)">
                <rect x="12.203" y="15.378" width="6.996" height="5.152" style="fill:rgb(235,235,235);stroke:black;stroke-width:2.2px;"/>
            </g>
        </g>
        <g transform="matrix(1,0,0,1,-0.064741,-0.335233)">
            <g transform="matrix(1,0,0,1,20.7014,0)">
                <path d="M15.824,10.857L15.824,37.814" style="fill:none;stroke:black;stroke-width:2.2px;"/>
            </g>
            <g transform="matrix(1,0,0,1,20.8248,7.1306)">
                <rect x="12.203" y="15.378" width="6.996" height="5.152" style="fill:rgb(235,235,235);stroke:black;stroke-width:2.2px;"/>
            </g>
        </g>
    </g>
</svg>
