<?xml version="1.0" encoding="utf-8"?>
<!-- Generator: Adobe Illustrator 16.1.0, SVG Export Plug-In . SVG Version: 6.00 Build 0)  -->
<!DOCTYPE svg PUBLIC "-//W3C//DTD SVG 1.1//EN" "http://www.w3.org/Graphics/SVG/1.1/DTD/svg11.dtd">
<svg version="1.1" id="Layer_1" xmlns="http://www.w3.org/2000/svg" xmlns:xlink="http://www.w3.org/1999/xlink" x="0px" y="0px"
	 width="48px" height="48px" viewBox="0 0 48 48" enable-background="new 0 0 48 48" xml:space="preserve">
<g>
	<path fill="#B2B2B2" d="M16.505,31.404c0.318,0.232,0.652,0.436,0.995,0.623c0.815,0.443,1.675,0.838,2.555,1.113
		c1.182,0.371,2.431,0.494,3.658,0.516c1.551,0.029,3.05-0.262,4.519-0.783c0.83-0.295,1.646-0.643,2.427-1.061
		c0.302-0.162,0.597-0.334,0.885-0.521c0.061-0.039,0.678-0.502,0.697-0.484c0.029,0.025,0.051,0.06,0.079,0.088
		c2.835-2.378,4.642-5.944,4.642-9.935c0-7.158-5.803-12.96-12.96-12.96c-7.159,0-12.962,5.802-12.962,12.961
		c0,3.96,1.781,7.501,4.581,9.878c0.031-0.046,0.063-0.095,0.088-0.118C15.687,30.74,16.438,31.355,16.505,31.404z"/>
	<path fill="#333333" d="M33.402,34.168c0.018-0.666-0.208-2.407-1.083-3.273c-0.028-0.028-0.05-0.062-0.079-0.088
		c-0.02-0.018-0.637,0.445-0.697,0.484c-0.288,0.188-0.583,0.359-0.885,0.521c-0.781,0.418-1.597,0.766-2.427,1.061
		c-1.469,0.521-2.968,0.812-4.519,0.783c-1.228-0.021-2.477-0.145-3.658-0.516c-0.88-0.275-1.739-0.67-2.555-1.113
		c-0.343-0.188-0.677-0.391-0.995-0.623c-0.067-0.049-0.818-0.664-0.797-0.684c-0.024,0.023-0.057,0.072-0.088,0.118
		c-0.325,0.479-0.974,2.104-1.011,3.39c-0.539,0.486-1.606,1.99,0.146,3.607c2.23,2.057,12.247,3.492,18.279,0.27
		C33.035,38.105,35.411,36.143,33.402,34.168z"/>
	<g>
		<path fill="#FFFFFF" d="M32.97,25c0.653-1.311,1.03-2.783,1.03-4.349c0-5.39-4.37-9.761-9.761-9.761
			c-0.772,0-1.52,0.099-2.239,0.268C24.162,11.863,31.49,14.969,32.97,25z"/>
	</g>
</g>
</svg>
