<?xml version="1.0" encoding="utf-8"?>
<!-- Generator: Adobe Illustrator 16.1.0, SVG Export Plug-In . SVG Version: 6.00 Build 0)  -->
<!DOCTYPE svg PUBLIC "-//W3C//DTD SVG 1.1//EN" "http://www.w3.org/Graphics/SVG/1.1/DTD/svg11.dtd">
<svg version="1.1" id="Layer_1" xmlns="http://www.w3.org/2000/svg" xmlns:xlink="http://www.w3.org/1999/xlink" x="0px" y="0px"
	 width="48px" height="48px" viewBox="0 0 48 48" enable-background="new 0 0 48 48" xml:space="preserve">
<rect x="15.774" y="30.545" transform="matrix(-0.6963 -0.7178 0.7178 -0.6963 4.6531 65.923)" fill="#333333" width="1" height="2.863"/>
<rect x="11.661" y="34.533" transform="matrix(-0.6953 -0.7187 0.7187 -0.6953 -5.2323 69.7114)" fill="#333333" width="1" height="2.865"/>
<rect x="19.887" y="26.556" transform="matrix(-0.6953 -0.7187 0.7187 -0.6953 14.4455 62.1008)" fill="#333333" width="1" height="2.865"/>
<rect x="28.113" y="18.579" transform="matrix(-0.6958 -0.7183 0.7183 -0.6958 34.1466 54.4864)" fill="#333333" width="0.999" height="2.865"/>
<rect x="36.338" y="10.603" transform="matrix(-0.6958 -0.7183 0.7183 -0.6958 53.8244 46.8684)" fill="#333333" width="0.999" height="2.864"/>
<rect x="32.225" y="14.591" transform="matrix(-0.6963 -0.7178 0.7178 -0.6963 44.0091 50.6689)" fill="#333333" width="1" height="2.864"/>
<rect x="24.001" y="22.568" transform="matrix(-0.696 -0.718 0.718 -0.696 24.3201 58.296)" fill="#333333" width="0.999" height="2.864"/>
<path fill="#333333" d="M9.073,40c0.06-0.148,0.136-0.335,0.235-0.571l0.068-0.163c2.056-4.793,11.615-24.345,32.893-30.303
	L41.73,7.037C20.93,12.861,10.918,31.104,8,37.451V40H9.073z"/>
<polygon fill="#B2B2B2" points="9.073,40 8,40 8,37.451 8,6 6,6 6,40 6,42 8,42 42,42 42,40 "/>
</svg>
