<?xml version="1.0" encoding="utf-8"?>
<!-- Generator: Adobe Illustrator 16.1.0, SVG Export Plug-In . SVG Version: 6.00 Build 0)  -->
<!DOCTYPE svg PUBLIC "-//W3C//DTD SVG 1.1//EN" "http://www.w3.org/Graphics/SVG/1.1/DTD/svg11.dtd">
<svg version="1.1" id="Layer_1" xmlns="http://www.w3.org/2000/svg" xmlns:xlink="http://www.w3.org/1999/xlink" x="0px" y="0px"
	 width="48px" height="48px" viewBox="0 0 48 48" enable-background="new 0 0 48 48" xml:space="preserve">
<g>
	<path fill="#333333" d="M25.197,17.97c-0.05-0.049,0.584-0.673,0.631-0.712c0.648-0.536,1.351-0.845,2.187-0.93
		c0.613-0.064,1.367-0.051,1.759-0.624c0.491-0.715-0.071-1.686-0.711-2.062c-0.761-0.448-1.812-0.224-2.448,0.354
		c-0.8,0.728-0.955,2.013-1.211,3.01C25.38,17.101,25.102,17.878,25.197,17.97z"/>
	<path fill="#333333" d="M24.82,14.312c-0.066-0.005-0.23-0.436-0.255-0.482c-0.197-0.401-0.379-0.809-0.56-1.217
		c-0.409-0.922-0.822-1.886-1.051-2.872c-0.405-1.739,1.072-3.633,2.856-3.737c1.401-0.082,3.027,1.357,2.288,2.774
		c-0.254,0.487-0.661,0.854-1.019,1.259c-0.74,0.841-1.347,1.794-1.781,2.826C25.268,12.937,24.824,14.313,24.82,14.312z"/>
	<path fill="#333333" d="M23.145,17.786c0.043-0.052-0.14-0.456-0.156-0.507c-0.141-0.412-0.286-0.822-0.443-1.229
		c-0.631-1.643-1.531-3.814-3.646-3.736c-0.471,0.016-1.073,0.187-1.458,0.473c-1.407,1.041-0.623,3.119,0.921,3.438
		c0.536,0.109,1.113,0.018,1.657,0.134c0.52,0.112,1.017,0.323,1.499,0.545C21.624,16.951,23.139,17.794,23.145,17.786z"/>
	<path fill="#333333" d="M34.255,39.311c-0.164-1.027-1.059-2.066-1.549-2.852c-0.622-0.994-1.059-1.527-1.563-2.514
		c-0.092-0.191-0.185-0.381-0.276-0.57c-0.121-0.25-0.238-0.5-0.355-0.752c-0.119-0.254-0.235-0.512-0.351-0.768
		c-0.139-0.311-0.274-0.623-0.407-0.938c-0.089-0.209-0.176-0.42-0.262-0.631c-0.149-0.364-0.293-0.73-0.432-1.1
		c-0.062-0.164-0.122-0.329-0.182-0.495c-0.142-0.389-0.278-0.781-0.407-1.175c-0.127-0.389-0.253-0.776-0.366-1.169
		c-0.022-0.077-0.044-0.154-0.067-0.233c-0.155-0.556-0.298-1.113-0.421-1.677c-0.044-0.203-0.317-1.979-0.428-3.032
		c-0.014-0.259-0.023-0.565-0.023-0.823h1.123V19h-2.697c0,1.168,0.03,2.317,0.146,3.479c0.124,1.247,0.313,2.488,0.546,3.72
		c0.157,0.829,0.342,1.652,0.561,2.467c-0.068,0.009-0.127,0.012-0.202,0.023c-0.13,0.021-0.233-0.008-0.326-0.054
		c-0.441-0.218-0.526-1.055-0.749-1.363c-0.379-0.524-1.018-0.9-1.7-0.809c-0.718,0.097-1.211,0.316-1.73,0.824
		c-0.05,0.049-0.092,0.107-0.135,0.165c-0.197,0.265-0.332,0.6-0.454,0.888c-0.115,0.271-0.285,0.457-0.484,0.596
		c0.627-2.24,1.005-4.55,1.235-6.863c0.102-1.024,0.1-2.045,0.1-3.073h-2.697v1.583h1.133c0,0.258-0.009,0.564-0.022,0.823
		c-0.111,1.053-0.384,2.829-0.428,3.032c-0.123,0.563-0.266,1.121-0.421,1.677c-0.023,0.079-0.044,0.156-0.067,0.233
		c-0.113,0.393-0.239,0.78-0.366,1.169c-0.129,0.394-0.265,0.786-0.407,1.175c-0.06,0.166-0.12,0.331-0.182,0.495
		c-0.139,0.369-0.283,0.735-0.432,1.1c-0.086,0.211-0.173,0.422-0.262,0.631c-0.133,0.314-0.269,0.627-0.407,0.938
		c-0.115,0.256-0.231,0.514-0.35,0.768c-0.117,0.252-0.234,0.502-0.355,0.752c-0.091,0.189-0.183,0.379-0.276,0.57
		c-0.505,0.986-0.941,1.52-1.563,2.514c-0.489,0.785-1.385,1.824-1.549,2.852c-0.02,0.102-0.034,0.207-0.034,0.314
		c0,1.312,1.063,2.375,2.375,2.375h15.828c1.312,0,2.375-1.062,2.375-2.375C34.289,39.518,34.275,39.412,34.255,39.311z"/>
</g>
</svg>
