<?xml version="1.0" encoding="utf-8"?>
<!-- Generator: Adobe Illustrator 16.1.0, SVG Export Plug-In . SVG Version: 6.00 Build 0)  -->
<!DOCTYPE svg PUBLIC "-//W3C//DTD SVG 1.1//EN" "http://www.w3.org/Graphics/SVG/1.1/DTD/svg11.dtd">
<svg version="1.1" id="Layer_1" xmlns="http://www.w3.org/2000/svg" xmlns:xlink="http://www.w3.org/1999/xlink" x="0px" y="0px"
	 width="48px" height="48px" viewBox="0 0 48 48" enable-background="new 0 0 48 48" xml:space="preserve">
<g>
	<circle fill="#333333" cx="23.49" cy="15.5" r="1.5"/>
	<circle fill="#333333" cx="20.5" cy="11" r="2"/>
	<circle fill="#333333" cx="26.631" cy="8.5" r="2.5"/>
	<path fill="#333333" d="M34.255,39.311c-0.164-1.027-1.059-2.066-1.549-2.852c-0.621-0.994-1.058-1.527-1.563-2.514
		c-0.092-0.191-0.185-0.381-0.276-0.57c-0.12-0.25-0.238-0.5-0.354-0.752c-0.119-0.254-0.235-0.512-0.351-0.768
		c-0.139-0.311-0.274-0.623-0.407-0.938c-0.089-0.209-0.176-0.42-0.262-0.631c-0.149-0.365-0.293-0.73-0.432-1.1
		c-0.062-0.164-0.122-0.33-0.182-0.494c-0.142-0.391-0.278-0.783-0.407-1.176c-0.127-0.389-0.253-0.775-0.366-1.169
		c-0.022-0.077-0.044-0.154-0.066-0.233c-0.155-0.556-0.298-1.113-0.421-1.677c-0.044-0.203-0.317-1.979-0.428-3.032
		c-0.014-0.259-0.023-0.565-0.023-0.823h1.123V19h-2.697c0,2.911,0.335,5.794,0.999,8.631c0.105,0.451,0.22,0.898,0.345,1.346
		c0.056,0.197,0.431,1.258,0.346,1.412c-0.058,0.105-0.086,0.098-0.204,0.189c-1.202,0.92-5.249,1.098-6.772,1.133
		c-0.071,0.002-0.141,0.002-0.201,0.004c1.249-2.922,1.828-6.141,2.16-9.287c0.121-1.142,0.135-2.281,0.135-3.428h-2.697v1.583
		h1.133c0,0.258-0.009,0.564-0.022,0.823c-0.111,1.053-0.384,2.829-0.428,3.032c-0.123,0.563-0.266,1.121-0.421,1.677
		c-0.022,0.079-0.043,0.156-0.066,0.233c-0.113,0.394-0.239,0.78-0.366,1.169c-0.129,0.393-0.266,0.785-0.407,1.176
		c-0.06,0.164-0.12,0.33-0.182,0.494c-0.139,0.369-0.283,0.734-0.432,1.1c-0.086,0.211-0.172,0.422-0.262,0.631
		c-0.133,0.314-0.269,0.627-0.407,0.938c-0.115,0.256-0.231,0.514-0.35,0.768c-0.117,0.252-0.235,0.502-0.355,0.752
		c-0.091,0.189-0.184,0.379-0.276,0.57c-0.505,0.986-0.941,1.52-1.563,2.514c-0.49,0.785-1.385,1.824-1.549,2.852
		c-0.02,0.102-0.034,0.205-0.034,0.314c0,1.312,1.063,2.375,2.375,2.375h15.828c1.312,0,2.375-1.062,2.375-2.375
		C34.289,39.516,34.275,39.412,34.255,39.311z"/>
</g>
</svg>
