<?xml version="1.0" encoding="UTF-8" standalone="no"?>
<!-- Created with Inkscape (http://www.inkscape.org/) -->
<svg xmlns:rdf="http://www.w3.org/1999/02/22-rdf-syntax-ns#" xmlns="http://www.w3.org/2000/svg" version="1.1" xmlns:cc="http://creativecommons.org/ns#" xmlns:dc="http://purl.org/dc/elements/1.1/" viewBox="0 0 48 48">
	<metadata>
		<rdf:RDF>
			<cc:Work rdf:about="">
				<dc:format>image/svg+xml</dc:format>
				<dc:type rdf:resource="http://purl.org/dc/dcmitype/StillImage"/>
				<dc:title/>
			</cc:Work>
		</rdf:RDF>
	</metadata>
	<path d="m24,10.5a12.5,11,0,1,1,-25,0,12.5,11,0,1,1,25,0z" transform="translate(3.5,2.5)" stroke="#39394c" stroke-dasharray="none" stroke-miterlimit="4" stroke-width="1.7" fill="none"/>
	<path d="m24.5,10.5a13,11,0,1,1,-26,0,13,11,0,1,1,26,0z" transform="translate(20.893908,24.5)" stroke="#39394c" stroke-dasharray="none" stroke-miterlimit="4" stroke-width="1.7" fill="none"/>
	<path stroke-linejoin="round" d="m30,10,10,0,1,0,0,9,3-1-4,4-4-4,3,1,0-7-9,0z" stroke="#2b2827" stroke-linecap="butt" stroke-miterlimit="4" stroke-dasharray="none" stroke-width="1.5" fill="none"/>
	<path stroke-linejoin="miter" d="M10,9,8,7m2,2-2,2m4-4-2,2,2,2" stroke="#252b2d" stroke-linecap="butt" stroke-width="1px" fill="none"/>
	<path stroke-linejoin="miter" d="M19,8,17,6m2,2-2,2m4-4-2,2,2,2" stroke="#252b2d" stroke-linecap="butt" stroke-width="1px" fill="none"/>
	<path stroke-linejoin="miter" d="m15,14-2-2m2,2-2,2m4-4-2,2,2,2" stroke="#252b2d" stroke-linecap="butt" stroke-width="1px" fill="none"/>
	<path stroke-linejoin="miter" d="M9,17,7,15m2,2-2,2m4-4-2,2,2,2" stroke="#252b2d" stroke-linecap="butt" stroke-width="1px" fill="none"/>
	<path stroke-linejoin="miter" d="m21,17-2-2m2,2-2,2m4-4-2,2,2,2" stroke="#252b2d" stroke-linecap="butt" stroke-width="1px" fill="none"/>
	<path stroke-linejoin="miter" d="m27,33-2-2m2,2-2,2m4-4-2,2,2,2" stroke="#252b2d" stroke-linecap="butt" stroke-width="1px" fill="none"/>
	<path stroke-linejoin="miter" d="m38,36-2-2m2,2-2,2m4-4-2,2,2,2" stroke="#252b2d" stroke-linecap="butt" stroke-width="1px" fill="none"/>
	<text style="writing-mode:lr-tb;letter-spacing:0px;text-anchor:start;word-spacing:0px;text-align:start;" font-weight="bold" xml:space="preserve" font-size="10px" font-style="normal" font-stretch="normal" font-variant="normal" y="44" x="4" font-family="Sans" line-height="125%" fill="#000000"><tspan x="4" y="44">C</tspan></text>
</svg>
