<?xml version="1.0" encoding="utf-8"?>
<!-- Generator: Adobe Illustrator 22.0.1, SVG Export Plug-In . SVG Version: 6.00 Build 0)  -->
<svg version="1.1" id="Layer_1" xmlns="http://www.w3.org/2000/svg" xmlns:xlink="http://www.w3.org/1999/xlink" x="0px" y="0px"
	 viewBox="0 0 48 48" style="enable-background:new 0 0 48 48;" xml:space="preserve">
<style type="text/css">
	.st0{fill:#CECECE;}
	.st1{fill:#FFFFFF;}
	.st2{fill:none;stroke:#231F20;stroke-width:3;stroke-miterlimit:10;}
	.st3{fill:none;stroke:#231F20;stroke-width:3;stroke-linejoin:round;stroke-miterlimit:10;}
</style>
<g>
	<path class="st1" d="M16.4,6.9C18.3,5.6,20.7,5,23.5,5c3.7,0,6.7,0.9,9.2,2.7c2.4,1.8,3.6,4.5,3.6,8c0,2.2-0.5,4-1.6,5.5
		c-0.6,0.9-1.8,2-3.5,3.4l-1.7,1.4c-0.9,0.7-1.6,1.6-1.9,2.6c-0.2,0.6-0.3,1.6-0.3,2.9h-6.6c0.1-2.8,0.4-4.8,0.8-5.8
		c0.4-1.1,1.5-2.3,3.3-3.7l1.8-1.4c0.6-0.5,1.1-0.9,1.4-1.5c0.6-0.9,1-1.9,1-3c0-1.3-0.4-2.4-1.1-3.5c-0.7-1-2-1.6-4-1.6
		c-1.9,0-3.2,0.6-4,1.9s-1.2,2.6-1.2,4h-7C11.8,12.2,13.4,8.9,16.4,6.9"/>
	<rect x="20.6" y="36.5" class="st1" width="6.6" height="6.6"/>
</g>
<g>
	<path class="st2" d="M16.4,6.9C18.3,5.6,20.7,5,23.5,5c3.7,0,6.7,0.9,9.2,2.7c2.4,1.8,3.6,4.5,3.6,8c0,2.2-0.5,4-1.6,5.5
		c-0.6,0.9-1.8,2-3.5,3.4l-1.7,1.4c-0.9,0.7-1.6,1.6-1.9,2.6c-0.2,0.6-0.3,1.6-0.3,2.9h-6.6c0.1-2.8,0.4-4.8,0.8-5.8
		c0.4-1.1,1.5-2.3,3.3-3.7l1.8-1.4c0.6-0.5,1.1-0.9,1.4-1.5c0.6-0.9,1-1.9,1-3c0-1.3-0.4-2.4-1.1-3.5c-0.7-1-2-1.6-4-1.6
		c-1.9,0-3.2,0.6-4,1.9s-1.2,2.6-1.2,4h-7C11.8,12.2,13.4,8.9,16.4,6.9"/>
	<rect x="20.6" y="36.5" class="st2" width="6.6" height="6.6"/>
</g>
</svg>
