<svg xmlns="http://www.w3.org/2000/svg" version="1.1" viewBox="0 0 48 48">
 <path id="question-mark" d="m21.803282 32.439737h5.673345v5.616735h-5.673345v-5.616735zm-3.150298-21.846045c1.49306-.985946 3.327107-1.477482 5.503552-1.477482 2.858419 0 5.234129.699936 7.125708 2.099808 1.890177 1.398433 2.835968 3.47237 2.835968 6.218937 0 1.684443-.409769 3.102999-1.229244 4.257103-.479916.6985-1.40045 1.5939-2.763002 2.681893l-1.344317 1.067868c-.731093.583521-1.218021 1.264773-1.457975 2.04088-.150134.49441-.232947 1.257584-.245586 2.295273h-5.141512c.07439-2.190355.276457-3.705205.604817-4.540242.328362-.835034 1.173117-1.797986 2.534272-2.884541l1.382203-1.108111c.453249-.350686.819498-.732993 1.097343-1.148354.503766-.711435.757755-1.496169.757755-2.349887 0-.985948-.282055-1.882787-.843355-2.69339-.561299-.809164-1.587076-1.214468-3.075926-1.214468-1.464995 0-2.5034.498725-3.115218 1.497604-.611817.997448-.917726 2.033696-.917726 3.108752h-5.483904c.151551-3.693709 1.410266-6.310921 3.776148-7.851643" fill="#231f20"/>
 <path id="frame" d="m43.5 4.5h-39v39h39z" stroke="#000" stroke-linecap="square" stroke-miterlimit="10" stroke-width="3" fill="none"/>
</svg>
