<?xml version="1.0" encoding="utf-8"?>
<!-- Generator: Adobe Illustrator 16.0.0, SVG Export Plug-In . SVG Version: 6.00 Build 0)  -->
<!DOCTYPE svg PUBLIC "-//W3C//DTD SVG 1.1//EN" "http://www.w3.org/Graphics/SVG/1.1/DTD/svg11.dtd">
<svg version="1.1" id="Layer_1" xmlns="http://www.w3.org/2000/svg" xmlns:xlink="http://www.w3.org/1999/xlink" x="0px" y="0px"
	 width="625.714px" height="587.97px" viewBox="0 201.547 625.714 587.97" enable-background="new 0 201.547 625.714 587.97"
	 xml:space="preserve">
<path d="M283.596,642.18c0-24.26,5.706-47.183,15.832-67.518c-9.099,2.498-18.676,3.839-28.567,3.839
	c-59.466,0-107.674-48.208-107.674-107.675c0-59.466,48.208-107.674,107.674-107.674c59.467,0,107.675,48.208,107.675,107.674
	c0,11.448-1.793,22.476-5.103,32.825c18.885-8.442,39.811-13.143,61.834-13.143c14.725,0,28.956,2.106,42.418,6.021
	c1.036-8.423,1.578-16.999,1.578-25.703c0-9.667-0.673-19.174-1.947-28.492l45.016-31.035c6.647-3.838,8.924-12.335,5.087-18.979
	l-59.567-103.171c-3.836-6.645-12.334-8.922-18.979-5.085l-48.849,23.212c-15.281-12.084-32.299-22.064-50.612-29.523l-4.367-54.47
	c0-7.673-6.221-13.893-13.894-13.893H212.018c-7.673,0-13.894,6.22-13.894,13.893l-4.319,53.859
	c-18.377,7.318-35.467,17.177-50.837,29.141L93.572,282.81c-6.646-3.836-15.143-1.559-18.979,5.084L15.027,391.068
	c-3.836,6.645-1.56,15.142,5.086,18.978l44.517,30.693c-1.421,9.825-2.17,19.868-2.17,30.087c0,9.668,0.673,19.177,1.947,28.494
	L19.39,530.355c-6.646,3.838-8.923,12.334-5.087,18.979L73.87,652.507c3.836,6.644,12.333,8.922,18.978,5.085l48.851-23.213
	c15.281,12.085,32.298,22.063,50.612,29.522l4.367,54.471c0,7.675,6.221,13.895,13.894,13.895l102.673-0.001
	C294.617,707.074,283.596,675.916,283.596,642.18z"/>
<path fill="none" stroke="#231F20" stroke-width="24" stroke-linecap="round" stroke-miterlimit="10" d="M444.53,770.694
	c-65.862,0-119.253-53.391-119.253-119.253c0-65.861,53.391-119.252,119.253-119.252c65.861,0,119.252,53.391,119.252,119.252"/>
<path fill="none" stroke="#231F20" stroke-width="4" stroke-miterlimit="10" d="M435.267,761.432"/>
<path fill="none" stroke="#231F20" stroke-width="4" stroke-miterlimit="10" d="M554.519,642.18"/>
<line fill="none" stroke="#231F20" stroke-width="24" stroke-linecap="round" stroke-miterlimit="10" x1="567.233" y1="671.339" x2="606.753" y2="578.688"/>
<line fill="none" stroke="#231F20" stroke-width="24" stroke-linecap="round" stroke-miterlimit="10" x1="565.102" y1="670.43" x2="472.45" y2="630.91"/>
<circle fill="#FFFFFF" cx="270.861" cy="470.828" r="107.723"/>
</svg>
