<?xml version="1.0" encoding="UTF-8" standalone="no"?>
<svg xmlns="http://www.w3.org/2000/svg" enable-background="new 0 0 48 48" xml:space="preserve" viewBox="0 0 48 48" version="1.1" y="0px" x="0px" xmlns:xlink="http://www.w3.org/1999/xlink"><defs><linearGradient id="linearGradient4030" y2="31" gradientUnits="userSpaceOnUse" x2="21" gradientTransform="matrix(1.2782108,0,0,1.2782108,-6.6771854,-6.6770598)" y1="39" x1="21"><stop stop-color="#FFF" offset="0"/><stop stop-color="#FEFDF6" offset="0.10296"/><stop stop-color="#FCF6DE" offset="0.2235"/><stop stop-color="#F9ECB6" offset="0.3985"/><stop stop-color="#F5DE7F" offset="0.65276"/><stop stop-color="#EFCD39" offset="0.8298"/><stop stop-color="#EBBE00" offset="1"/></linearGradient></defs>
	<radialGradient id="SVGID_1_" gradientUnits="userSpaceOnUse" cy="13.761" cx="17.314" gradientTransform="matrix(1.2782108,0,0,1.2782108,-6.6771854,-6.6770598)" r="27.328">
		<stop stop-color="#FFD773" offset="0"/>
		<stop stop-color="#FFD46E" offset="0.0134"/>
		<stop stop-color="#FDC450" offset="0.1128"/>
		<stop stop-color="#FCB738" offset="0.2174"/>
		<stop stop-color="#FBAD27" offset="0.3282"/>
		<stop stop-color="#FAA81D" offset="0.4492"/>
		<stop stop-color="#FAA61A" offset="0.6"/>
		<stop stop-color="#F7A01B" offset="0.6747"/>
		<stop stop-color="#ED901F" offset="0.7723"/>
		<stop stop-color="#DD7525" offset="1"/>
	</radialGradient>
	<path d="M23.908,45.232c-11.73,0-21.235-9.507-21.235-21.232,0-11.728,9.5061-21.232,21.235-21.232,11.725,0,21.231,9.5061,21.231,21.232s-9.5048,21.232-21.231,21.232z" stroke-opacity="0.5422222" stroke="#000" stroke-dasharray="none" stroke-miterlimit="4" stroke-width="0.10000000000000001" fill="none"/><path fill="url(#SVGID_1_)" d="M23.908,45.232c-11.73,0-21.235-9.507-21.235-21.232,0-11.728,9.5061-21.232,21.235-21.232,11.725,0,21.231,9.5061,21.231,21.232s-9.5048,21.232-21.231,21.232z"/>
	<path stroke-linejoin="round" d="m20.205,35.504c-1.9519,0-6.3811,0.07829-11.544-2.5564,3.2053,5.7561,7.6915,7.6693,11.504,7.6693,3.9323,0,9.497-1.8333,12.782-7.6693-5.1128,2.5948-10.886,2.5564-12.742,2.5564z" stroke="#c85528" stroke-linecap="round" stroke-miterlimit="10" stroke-width="1.22684872" fill="none"/>
	<path fill="#232323" d="m41.8,12.564c-1.6361,0.0115-3.4282,0.7976-5.4094,2.3033-2.9872-1.9288-8.054-1.6821-11.267,0.79121-0.29654-0.04857-0.64933-0.07541-0.85896-0.29399-2.4938-2.6203-5.1065-2.7494-8.6778-0.03451-3.022-1.945-8.2908-1.543-11.25,1.277-0.1931,0.182-0.372,0.374-0.5433,0.573-0.726,2.139-1.1184,4.433-1.1184,6.821,0,1.6029,0.18023,3.1648,0.5164,4.6667,0.10737,0.13421,0.21985,0.26715,0.34,0.39241,2.9667,3.115,8.8312,2.7903,12.24-0.46016,2.9118-2.7737,3.8257-7.613,2.1333-10.699,1.9557-1.4751,3.3834-1.7051,4.7831-0.23647,0.0997,0.10354,0.26587,0.18534,0.35023,0.31827-2.2228,3.5815-2.0796,8.6637,0.57008,11.446,3.1495,3.3003,9.3642,2.9565,12.979-0.48828,3.0869-2.9437,4.057-8.077,2.2637-11.347,2.0733-1.5658,3.6697-1.8534,5.155-0.29782,0.02812,0.03068,0.05496,0.06519,0.08308,0.09587-0.55986-1.7154-1.3332-3.3361-2.2893-4.8278zm-28.526,13.417c-2.0758,1.9799-5.8018,2.5104-7.3957,0.83851-1.5696-1.6463-1.0993-5.5947,0.97655-7.5772,2.0771-1.9774,6.0447-2.2599,7.6143-0.60971,1.5926,1.6693,0.88069,5.3698-1.1951,7.3484zm20.67,0.18023c-2.2049,2.1001-6.1546,2.6638-7.8469,0.88963-1.6655-1.746-1.167-5.9347,1.0366-8.0323,2.1998-2.1001,6.4102-2.3966,8.0719-0.64933,1.6911,1.7716,0.93565,5.6944-1.2616,7.792z"/>
	<linearGradient id="SVGID_5_" y2="18.999" gradientUnits="userSpaceOnUse" x2="32.171" gradientTransform="matrix(1.2782108,0,0,1.2782108,-6.6771854,-6.6770598)" y1="25.959" x1="25.211">
		<stop stop-color="#AABEB4" offset="0.05"/>
		<stop stop-color="#ACC1B6" offset="0.0609"/>
		<stop stop-color="#BED5C6" offset="0.1592"/>
		<stop stop-color="#C9E2CF" offset="0.2563"/>
		<stop stop-color="#CDE6D2" offset="0.35"/>
		<stop stop-color="#AECCCA" offset="0.4837"/>
		<stop stop-color="#5F8AB6" offset="0.7742"/>
		<stop stop-color="#1E54A6" offset="1"/>
	</linearGradient>
	<path fill="url(#SVGID_5_)" d="m33.402,25.623c-2.2049,2.1014-6.1546,2.6638-7.8444,0.88963-1.663-1.7448-1.167-5.9347,1.0379-8.0336,2.1998-2.0988,6.4089-2.3966,8.0719-0.64805,1.6898,1.7729,0.93693,5.6932-1.2654,7.792z"/>
	<radialGradient id="SVGID_6_" gradientUnits="userSpaceOnUse" cy="22.436" cx="28.667" gradientTransform="matrix(1.2782108,0,0,1.2782108,-6.6771854,-6.6770598)" r="4.1876">
		<stop stop-color="#E6F0E6" offset="0.15"/>
		<stop stop-color="#A0DCE6" offset="0.85"/>
	</radialGradient>
	<path opacity="0.4" fill="url(#SVGID_6_)" d="m28.594,20.479c1.7499-1.6681,4.7664-2.1972,6.7656-1.4648-0.15211-0.45121-0.37963-0.85384-0.69279-1.1823-1.663-1.7486-5.8721-1.4508-8.0719,0.64805-2.2049,2.1001-2.6996,6.2888-1.0379,8.0336,0.3464,0.36301,0.78993,0.62249,1.2923,0.7976-0.70941-2.0336-0.04857-5.1243,1.7448-6.832z"/>
	<path fill="#dcebeb" d="m26.766,21.091c0.03707,0.0115,0.07669,0.01789,0.11632,0.01789,0.16744,0,0.32722-0.10993,0.37963-0.28121,0.17256-0.58798,0.89858-1.6975,2.2203-2.1372,0.20579-0.0703,0.317-0.29399,0.24669-0.50106-0.0703-0.20835-0.29654-0.31828-0.50489-0.24797-1.6169,0.55602-2.4657,1.8304-2.7239,2.6536-0.06391,0.20963,0.05369,0.43204,0.26587,0.49595z"/>
	<path fill="#232323" d="m34.765,17.952c-0.03451-0.03835-0.06008-0.0818-0.09714-0.12015-1.663-1.7486-5.8721-1.4508-8.0719,0.64805-2.2049,2.1001-2.6996,6.2888-1.0379,8.0336,0.06391,0.0703,0.1406,0.1291,0.21346,0.19045-1.5415-1.8087-1.0251-5.8593,1.1325-7.9134,2.118-2.0157,6.0779-2.366,7.861-0.83851z"/>
	<linearGradient id="SVGID_7_" y2="18.997" gradientUnits="userSpaceOnUse" x2="16.396" gradientTransform="matrix(1.2782108,0,0,1.2782108,-6.6771854,-6.6770598)" y1="25.957" x1="9.4355">
		<stop stop-color="#AABEB4" offset="0.05"/>
		<stop stop-color="#ACC1B6" offset="0.0609"/>
		<stop stop-color="#BED5C6" offset="0.1592"/>
		<stop stop-color="#C9E2CF" offset="0.2563"/>
		<stop stop-color="#CDE6D2" offset="0.35"/>
		<stop stop-color="#AECCCA" offset="0.4837"/>
		<stop stop-color="#5F8AB6" offset="0.7742"/>
		<stop stop-color="#1E54A6" offset="1"/>
	</linearGradient>
	<path fill="url(#SVGID_7_)" d="m13.24,25.623c-2.2024,2.1014-6.152,2.6638-7.8444,0.88963-1.6655-1.7448-1.1683-5.9347,1.0341-8.0336,2.2024-2.0988,6.4115-2.3966,8.0745-0.64805,1.6911,1.7729,0.93565,5.6932-1.2642,7.792z"/>
	<radialGradient id="SVGID_8_" gradientUnits="userSpaceOnUse" cy="22.436" cx="12.893" gradientTransform="matrix(1.2782108,0,0,1.2782108,-6.6771854,-6.6770598)" r="4.1876">
		<stop stop-color="#E6F0E6" offset="0.15"/>
		<stop stop-color="#A0DCE6" offset="0.85"/>
	</radialGradient>
	<path opacity="0.4" fill="url(#SVGID_8_)" d="M8.4313,20.479c1.7487-1.669,4.7667-2.198,6.7657-1.465-0.154-0.452-0.38-0.854-0.693-1.183-1.663-1.748-5.8721-1.45-8.0744,0.648-2.2024,2.101-2.6996,6.289-1.0341,8.034,0.3464,0.363,0.79,0.622,1.291,0.798-0.7107-2.034-0.0473-5.125,1.7448-6.832z"/>
	<path fill="#dcebeb" d="m6.6009,21.091c0.040903,0.0115,0.079249,0.01789,0.11632,0.01789,0.17256,0,0.32722-0.10993,0.37963-0.28121,0.17639-0.58798,0.8973-1.6975,2.2203-2.1372,0.20707-0.0703,0.317-0.29399,0.24925-0.50106-0.0704-0.209-0.2966-0.319-0.505-0.249-1.6169,0.55602-2.4669,1.8304-2.7264,2.6536-0.060076,0.20963,0.058798,0.43204,0.26587,0.49595z"/>
	<path fill="#232323" d="m14.601,17.952c-0.03323-0.03835-0.06135-0.0818-0.09714-0.12015-1.663-1.7486-5.8721-1.4508-8.0745,0.64805-2.2024,2.1001-2.6996,6.2888-1.0341,8.0336,0.066467,0.0703,0.13805,0.1291,0.21346,0.19045-1.5389-1.809-1.0238-5.86,1.1326-7.914,2.1141-2.016,6.0765-2.366,7.8595-0.838z"/>
	<path fill="#3c3c3c" d="M45.382,13.972c-2.646-2.778-5.739-2.524-9.531,0.356-2.987-1.93-8.055-1.682-11.268,0.79-0.159-0.223-0.34-0.446-0.55-0.664-2.495-2.621-5.412-2.381-8.984,0.334-3.02-1.947-8.2909-1.544-11.251,1.276-3.4064,3.2492-3.7528,9.3591-0.80399,12.455,2.9667,3.115,8.8286,2.7891,12.24-0.46016,2.9118-2.7737,3.8244-7.613,2.1333-10.699,1.9557-1.4751,3.4614-1.7473,4.8598-0.28121,0.09842,0.10481,0.18918,0.23008,0.27609,0.36301-2.2228,3.5815-2.0835,8.6637,0.5688,11.446,3.147,3.3003,9.3642,2.9565,12.978-0.48956,3.0894-2.9424,4.0583-8.0745,2.2637-11.345,2.072-1.5658,3.6697-1.8534,5.155-0.29654,0.66211,0.69279,0.997,1.9633,1.2565,3.06l2.274-1.081c0.06647-1.8918-0.27226-3.3502-1.6182-4.7626zm-32.648,11.47c-2.074,1.98-5.8021,2.51-7.396,0.838-1.5684-1.647-1.0967-5.594,0.9765-7.577,2.0771-1.977,6.0455-2.26,7.6155-0.61,1.5901,1.6706,0.88196,5.3698-1.1964,7.3484zm20.669,0.18151c-2.2049,2.1014-6.1546,2.6638-7.8444,0.88963-1.663-1.7448-1.167-5.9347,1.0379-8.0336,2.1998-2.0988,6.4089-2.3966,8.0719-0.64805,1.6898,1.7729,0.93693,5.6932-1.2654,7.792z"/>
	<path fill="#7d7d7d" d="M3.4565,19.462c-0.2403-0.097-0.3528-0.368-0.2531-0.606,0.3937-0.953,1.5262-2.882,4.1069-3.531,0.25053-0.06135,0.50745,0.08948,0.57264,0.33873,0.0601,0.249-0.0907,0.502-0.3438,0.563-2.1832,0.54452-3.1227,2.1704-3.4665,2.9833v0.0013c-0.076693,0.17895-0.25053,0.28632-0.43587,0.28632-0.060076,0.0013-0.12143-0.01023-0.18023-0.03579zm20.024-0.28376c0.04602,0.01406,0.08948,0.02045,0.13421,0.02045,0.19684,0,0.37963-0.12654,0.44226-0.32339,0.20068-0.68512,1.043-1.971,2.5756-2.4797,0.23902-0.08053,0.36685-0.34256,0.28632-0.58159-0.08053-0.24158-0.34256-0.37068-0.58286-0.2876-1.8764,0.64422-2.8657,2.1218-3.1597,3.0779-0.07797,0.24286,0.0588,0.49978,0.30421,0.57392zm-6.964-3.727c-0.14955-0.18023-0.11376-0.4397,0.07925-0.58031,0.59565-0.43331,1.066-0.70813,1.8969-1.0008,0.2288-0.08053,0.48316,0.02556,0.57008,0.23903,0.08692,0.21346-0.02684,0.45249-0.25564,0.53301-0.77204,0.28121-1.0967,0.47166-1.6693,0.88452-0.08053,0.05752-0.17639,0.08692-0.27226,0.08692-0.13166-0.0013-0.26203-0.05624-0.34895-0.16233z"/>
<path d="m20.205,35.504c-1.9519,0-6.3811,0.07829-11.544-2.5564,3.2053,5.7561,7.6915,7.6693,11.504,7.6693,3.9323,0,9.497-1.8333,12.782-7.6693-5.1128,2.5948-10.886,2.5564-12.742,2.5564z" stroke-miterlimit="10" fill="url(#linearGradient4030)"/>
</svg>
