<?xml version="1.0" encoding="utf-8"?>
<!-- Generator: Adobe Illustrator 16.1.0, SVG Export Plug-In . SVG Version: 6.00 Build 0)  -->
<!DOCTYPE svg PUBLIC "-//W3C//DTD SVG 1.1//EN" "http://www.w3.org/Graphics/SVG/1.1/DTD/svg11.dtd">
<svg version="1.1" id="Layer_1" xmlns="http://www.w3.org/2000/svg" xmlns:xlink="http://www.w3.org/1999/xlink" x="0px" y="0px"
	 width="48px" height="48px" viewBox="0 0 48 48" enable-background="new 0 0 48 48" xml:space="preserve">
<g>
	<path fill="#666666" d="M37.5,23.5v-2h-10v2h4v4h-4v5v2v3h4v3h-4v2h10v-2h-4v-3h4v-3v-2v-5h-4v-4H37.5z M36.5,36.5h-8v-2h8V36.5z
		 M36.5,28.5v4h-8v-4H36.5z"/>
	<polygon fill="#666666" points="18.5,5.5 16.5,5.5 16.5,3.5 14.5,3.5 14.5,5.5 12.5,5.5 12.5,7.5 14.5,7.5 14.5,9.5 16.5,9.5 
		16.5,7.5 18.5,7.5 	"/>
	<polygon fill="#666666" points="35.5,6.5 33.5,6.5 33.5,4.5 31.5,4.5 31.5,6.5 29.5,6.5 29.5,8.5 31.5,8.5 31.5,10.5 33.5,10.5 
		33.5,8.5 35.5,8.5 	"/>
	<polygon fill="#666666" points="35.5,14.5 33.5,14.5 33.5,12.5 31.5,12.5 31.5,14.5 29.5,14.5 29.5,16.5 31.5,16.5 31.5,18.5 
		33.5,18.5 33.5,16.5 35.5,16.5 	"/>
	<path fill="#666666" d="M20.5,13.5v-2h-10v2h4v7h-4v17h4v5h-4v2h10v-2h-4v-5h4v-17h-4v-7H20.5z M19.5,36.5h-8v-4h8V36.5z
		 M19.5,21.5v9h-8v-9H19.5z"/>
</g>
</svg>
