<?xml version="1.0" encoding="utf-8"?>
<!-- Generator: Adobe Illustrator 16.0.4, SVG Export Plug-In . SVG Version: 6.00 Build 0)  -->
<!DOCTYPE svg PUBLIC "-//W3C//DTD SVG 1.1//EN" "http://www.w3.org/Graphics/SVG/1.1/DTD/svg11.dtd">
<svg version="1.1" id="Layer_1" xmlns="http://www.w3.org/2000/svg" xmlns:xlink="http://www.w3.org/1999/xlink" x="0px" y="0px"
	 width="48px" height="48px" viewBox="0 0 48 48" enable-background="new 0 0 48 48" xml:space="preserve">
<polygon fill="#B2B2B2" points="3.543,36.449 2.536,34.722 19.495,24.845 22.869,3.997 24.843,4.316 21.817,23.016 27.381,18.441 
	28.65,19.988 21.839,25.588 30.408,35.38 28.902,36.695 20.198,26.749 "/>
<g>
	<circle fill="#989898" cx="19.116" cy="8.002" r="2.999"/>
</g>
<g>
	<circle fill="#989898" cx="10.116" cy="9.002" r="2.999"/>
</g>
<g>
	<circle fill="#989898" cx="15.116" cy="14.002" r="2.999"/>
</g>
<g>
	<circle fill="#666666" cx="28.116" cy="23.002" r="2.999"/>
</g>
<g>
	<circle fill="#666666" cx="34.116" cy="19.002" r="2.999"/>
</g>
<g>
	<circle fill="#666666" cx="37.116" cy="26.002" r="2.999"/>
</g>
<g>
	<circle fill="#666666" cx="43.116" cy="19.002" r="2.999"/>
</g>
<g>
	<circle fill="#333333" cx="16.116" cy="33" r="2.999"/>
</g>
<g>
	<circle fill="#333333" cx="8.116" cy="32" r="2.999"/>
</g>
<g>
	<circle fill="#333333" cx="9.116" cy="39.998" r="2.999"/>
</g>
<g>
	<circle fill="#333333" cx="18.116" cy="40" r="2.999"/>
</g>
</svg>
