<?xml version="1.0" encoding="utf-8"?>
<!-- Generator: Adobe Illustrator 23.0.4, SVG Export Plug-In . SVG Version: 6.00 Build 0)  -->
<svg version="1.1" id="Layer_1" xmlns="http://www.w3.org/2000/svg" xmlns:xlink="http://www.w3.org/1999/xlink" x="0px" y="0px"
	 viewBox="0 0 48 48" style="enable-background:new 0 0 48 48;" xml:space="preserve">
<style type="text/css">
	.st0{fill:none;stroke:#B2B2B2;stroke-width:2;stroke-miterlimit:10;}
	.st1{fill:#989898;}
	.st2{fill:none;stroke:#333333;stroke-width:2;stroke-miterlimit:10;}
	.st3{fill:#333333;}
</style>
<g>
	<g>
		<g>
			<line class="st0" x1="23.9" y1="5.4" x2="23.9" y2="24.9"/>
			<line class="st0" x1="23.9" y1="24.9" x2="40.2" y2="34.9"/>
			<path class="st0" d="M23.9,24.9"/>
			<line class="st0" x1="23.9" y1="24.9" x2="7.5" y2="34.9"/>
		</g>
		<g>
			<circle class="st1" cx="10" cy="15.9" r="2.6"/>
		</g>
		<g>
			<circle class="st1" cx="16.1" cy="10.2" r="2.6"/>
		</g>
		<g>
			<circle class="st1" cx="17.4" cy="19.9" r="2.6"/>
		</g>
		<g>
			<circle class="st1" cx="9.8" cy="25" r="2.6"/>
		</g>
		<g>
			<circle class="st1" cx="30.9" cy="22.5" r="2.6"/>
		</g>
		<g>
			<circle class="st1" cx="37" cy="16.9" r="2.6"/>
		</g>
		<g>
			<circle class="st1" cx="38.4" cy="26.6" r="2.6"/>
		</g>
		<g>
			<circle class="st1" cx="30.2" cy="10.2" r="2.6"/>
		</g>
		<g>
			<circle class="st1" cx="23.4" cy="31.9" r="2.6"/>
		</g>
		<g>
			<circle class="st1" cx="17.1" cy="35.9" r="2.6"/>
		</g>
		<g>
			<circle class="st1" cx="29.2" cy="36.4" r="2.6"/>
		</g>
	</g>
	<g>
		<g>
			<g>
				<line class="st2" x1="32" y1="4" x2="42.5" y2="10.4"/>
				<g>
					<polygon class="st3" points="40.2,12.5 46.1,12.6 43.3,7.4 					"/>
				</g>
			</g>
		</g>
		<g>
			<g>
				<line class="st2" x1="32.3" y1="42.4" x2="20.1" y2="42.4"/>
				<g>
					<polygon class="st3" points="20.9,39.5 15.8,42.4 20.9,45.4 					"/>
				</g>
			</g>
		</g>
		<g>
			<g>
				<line class="st2" x1="2.4" y1="11.2" x2="12.8" y2="4.8"/>
				<g>
					<polygon class="st3" points="13.6,7.8 16.5,2.6 10.5,2.7 					"/>
				</g>
			</g>
		</g>
	</g>
</g>
</svg>
