<?xml version="1.0" encoding="UTF-8" standalone="no"?>
<!-- Generator: Adobe Illustrator 16.1.0, SVG Export Plug-In . SVG Version: 6.00 Build 0)  -->
<svg xmlns:rdf="http://www.w3.org/1999/02/22-rdf-syntax-ns#" xmlns="http://www.w3.org/2000/svg" enable-background="new 0 0 48 48" xml:space="preserve" viewBox="0 0 48 48" version="1.1" y="0px" x="0px" xmlns:cc="http://creativecommons.org/ns#" xmlns:dc="http://purl.org/dc/elements/1.1/"><metadata><rdf:RDF><cc:Work rdf:about=""><dc:format>image/svg+xml</dc:format><dc:type rdf:resource="http://purl.org/dc/dcmitype/StillImage"/><dc:title/></cc:Work></rdf:RDF></metadata>
<g transform="matrix(1.0666666,0,0,1.0666667,-1.5999996,-1.6000004)">
	<rect height="5" width="4.999" y="9" x="9" fill="#a8a8a8"/>
	<rect height="5" width="4.999" y="9" x="14" fill="#aeaeae"/>
	<rect height="5" width="5" y="9" x="19.001" fill="#c2c2c2"/>
	<rect height="5" width="4.999" y="9" x="24.001" fill="#f7f7f7"/>
	<rect height="5" width="5" y="9" x="29.001" fill="#4d4d4d"/>
	<rect height="5" width="4.999" y="9" x="34.001" fill="#333"/>
	<rect height="5" width="4.999" y="14" x="9" fill="#CCC"/>
	<rect height="5" width="4.999" y="14" x="14" fill="#ececec"/>
	<rect height="5" width="5" y="14" x="19.001" fill="#6d6d6d"/>
	<rect height="5" width="4.999" y="14" x="24.001" fill="#dadada"/>
	<rect height="5" width="5" y="14" x="29.001" fill="#797979"/>
	<rect height="5" width="4.999" y="14" x="34.001" fill="#595959"/>
	<rect height="5" width="4.999" y="19" x="9" fill="#f0f0f0"/>
	<rect height="5" width="4.999" y="19" x="14" fill="#ececec"/>
	<rect height="5" width="5" y="19" x="19.001" fill="#939393"/>
	<rect height="5" width="4.999" y="19" x="24.001" fill="#a4a4a4"/>
	<rect height="5" width="5" y="19" x="29.001" fill="#f7f7f7"/>
	<rect height="5" width="4.999" y="19" x="34.001" fill="#757575"/>
	<rect height="5" width="4.999" y="24" x="9" fill="#7c7c7c"/>
	<rect height="5" width="4.999" y="24" x="14" fill="#BBB"/>
	<rect height="5" width="5" y="24" x="19.001" fill="#a4a4a4"/>
	<rect height="5" width="4.999" y="24" x="24.001" fill="#8f8f8f"/>
	<rect height="5" width="5" y="24" x="29.001" fill="#e6e6e6"/>
	<rect height="5" width="4.999" y="24" x="34.001" fill="#757575"/>
	<rect height="5" width="4.999" y="29" x="9" fill="#858585"/>
	<rect height="5" width="4.999" y="29" x="14" fill="#dadada"/>
	<rect height="5" width="5" y="29" x="19.001" fill="#777"/>
	<rect height="5" width="4.999" y="29" x="24.001" fill="#686868"/>
	<rect height="5" width="5" y="29" x="29.001" fill="#939393"/>
	<rect height="5" width="4.999" y="29" x="34.001" fill="#a4a4a4"/>
	<rect height="5" width="4.999" y="34" x="9" fill="#878787"/>
	<rect height="5" width="4.999" y="34" x="14" fill="#575757"/>
	<rect height="5" width="5" y="34" x="19.001" fill="#979797"/>
	<rect height="5" width="4.999" y="34" x="24.001" fill="#676767"/>
	<rect height="5" width="5" y="34" x="29.001" fill="#737373"/>
	<rect height="5" width="4.999" y="34" x="34.001" fill="#e8e8e8"/>
</g>
<path stroke-linejoin="miter" d="m4,4v40h40" stroke="#b2b2b2" stroke-linecap="square" stroke-miterlimit="4" stroke-dasharray="none" stroke-width="1.5" fill="none"/></svg>
