<?xml version="1.0" encoding="utf-8"?>
<!-- Generator: Adobe Illustrator 16.1.0, SVG Export Plug-In . SVG Version: 6.00 Build 0)  -->
<!DOCTYPE svg PUBLIC "-//W3C//DTD SVG 1.1//EN" "http://www.w3.org/Graphics/SVG/1.1/DTD/svg11.dtd">
<svg version="1.1" id="Layer_1" xmlns="http://www.w3.org/2000/svg" xmlns:xlink="http://www.w3.org/1999/xlink" x="0px" y="0px"
	 width="48px" height="48px" viewBox="0 0 48 48" enable-background="new 0 0 48 48" xml:space="preserve">
<g>
	<rect x="9" y="9" fill="#A8A8A8" width="4.999" height="5"/>
	<rect x="14" y="9" fill="#AEAEAE" width="4.999" height="5"/>
	<rect x="19.001" y="9" fill="#C2C2C2" width="5" height="5"/>
	<rect x="24.001" y="9" fill="#F7F7F7" width="4.999" height="5"/>
	<rect x="29.001" y="9" fill="#4D4D4D" width="5" height="5"/>
	<rect x="34.001" y="9" fill="#333333" width="4.999" height="5"/>
	<rect x="9" y="14" fill="#CCCCCC" width="4.999" height="5"/>
	<rect x="14" y="14" fill="#ECECEC" width="4.999" height="5"/>
	<rect x="19.001" y="14" fill="#6D6D6D" width="5" height="5"/>
	<rect x="24.001" y="14" fill="#DADADA" width="4.999" height="5"/>
	<rect x="29.001" y="14" fill="#797979" width="5" height="5"/>
	<rect x="34.001" y="14" fill="#595959" width="4.999" height="5"/>
	<rect x="9" y="19" fill="#F0F0F0" width="4.999" height="5"/>
	<rect x="14" y="19" fill="#ECECEC" width="4.999" height="5"/>
	<rect x="19.001" y="19" fill="#939393" width="5" height="5"/>
	<rect x="24.001" y="19" fill="#A4A4A4" width="4.999" height="5"/>
	<rect x="29.001" y="19" fill="#F7F7F7" width="5" height="5"/>
	<rect x="34.001" y="19" fill="#757575" width="4.999" height="5"/>
	<rect x="9" y="24" fill="#7C7C7C" width="4.999" height="5"/>
	<rect x="14" y="24" fill="#BBBBBB" width="4.999" height="5"/>
	<rect x="19.001" y="24" fill="#A4A4A4" width="5" height="5"/>
	<rect x="24.001" y="24" fill="#8F8F8F" width="4.999" height="5"/>
	<rect x="29.001" y="24" fill="#E6E6E6" width="5" height="5"/>
	<rect x="34.001" y="24" fill="#757575" width="4.999" height="5"/>
	<rect x="9" y="29" fill="#858585" width="4.999" height="5"/>
	<rect x="14" y="29" fill="#DADADA" width="4.999" height="5"/>
	<rect x="19.001" y="29" fill="#777777" width="5" height="5"/>
	<rect x="24.001" y="29" fill="#686868" width="4.999" height="5"/>
	<rect x="29.001" y="29" fill="#939393" width="5" height="5"/>
	<rect x="34.001" y="29" fill="#A4A4A4" width="4.999" height="5"/>
	<rect x="9" y="34" fill="#878787" width="4.999" height="5"/>
	<rect x="14" y="34" fill="#575757" width="4.999" height="5"/>
	<rect x="19.001" y="34" fill="#979797" width="5" height="5"/>
	<rect x="24.001" y="34" fill="#676767" width="4.999" height="5"/>
	<rect x="29.001" y="34" fill="#737373" width="5" height="5"/>
	<rect x="34.001" y="34" fill="#E8E8E8" width="4.999" height="5"/>
</g>
</svg>
