<?xml version="1.0" encoding="utf-8"?>
<!-- Generator: Adobe Illustrator 16.1.0, SVG Export Plug-In . SVG Version: 6.00 Build 0)  -->
<!DOCTYPE svg PUBLIC "-//W3C//DTD SVG 1.1//EN" "http://www.w3.org/Graphics/SVG/1.1/DTD/svg11.dtd">
<svg version="1.1" id="Layer_1" xmlns="http://www.w3.org/2000/svg" xmlns:xlink="http://www.w3.org/1999/xlink" x="0px" y="0px"
	 width="48px" height="48px" viewBox="0 0 48 48" enable-background="new 0 0 48 48" xml:space="preserve">
<rect x="22" y="13" fill="#333333" width="1" height="5"/>
<rect x="22" y="20" fill="#333333" width="1" height="8"/>
<rect x="22" y="30" fill="#333333" width="1" height="5"/>
<polygon fill="#666666" points="34,16 34,18 26,18 26,16 25,16 25,18 23,18 22,18 17,18 17,16 16,16 16,18 8,18 8,16 7,16 7,18 
	7,19 7,20 7,21 8,21 8,20 8,19 10,19 10,20 11,20 11,19 13,19 13,20 14,20 14,19 16,19 16,20 16,21 17,21 17,20 17,19 19,19 19,20 
	20,20 20,19 22,19 22,20 23,20 23,19 25,19 25,20 25,21 26,21 26,20 26,19 28,19 28,20 29,20 29,19 31,19 31,20 32,20 32,19 34,19 
	34,20 34,21 35,21 35,20 35,19 35,18 35,16 "/>
<polygon fill="#666666" points="40,26 40,28 29,28 29,26 28,26 28,28 23,28 22,28 17,28 17,26 16,26 16,28 16,29 16,31 17,31 17,29 
	19,29 19,30 20,30 20,29 22,29 22,30 23,30 23,29 25,29 25,30 26,30 26,29 28,29 28,30 28,31 29,31 29,30 29,29 31,29 31,30 32,30 
	32,29 34,29 34,30 35,30 35,29 37,29 37,30 38,30 38,29 40,29 40,30 40,31 41,31 41,30 41,29 41,28 41,26 "/>
</svg>
