<?xml version="1.0" encoding="utf-8"?>
<!-- Generator: Adobe Illustrator 16.0.0, SVG Export Plug-In . SVG Version: 6.00 Build 0)  -->
<!DOCTYPE svg PUBLIC "-//W3C//DTD SVG 1.1//EN" "http://www.w3.org/Graphics/SVG/1.1/DTD/svg11.dtd">
<svg version="1.1" id="Layer_1" xmlns="http://www.w3.org/2000/svg" xmlns:xlink="http://www.w3.org/1999/xlink" x="0px" y="0px"
	 width="48px" height="48px" viewBox="0 0 48 48" enable-background="new 0 0 48 48" xml:space="preserve">
<polygon fill="none" stroke="#333333" stroke-miterlimit="10" points="7.858,16.268 13.231,17.333 14.276,11.866 8.906,10.8 "/>
<polygon fill="none" stroke="#333333" stroke-miterlimit="10" points="2.246,20.094 6.954,21.028 7.87,16.236 3.163,15.302 "/>
<polygon fill="none" stroke="#333333" stroke-miterlimit="10" points="10.55,27.419 16.841,23.738 13.225,17.333 6.934,21.015 "/>
<rect x="10.556" y="27.518" transform="matrix(1 0.0021 -0.0021 1 0.0679 -0.0313)" fill="#C6C6C6" stroke="#333333" stroke-miterlimit="10" width="8.208" height="8.355"/>
<polygon fill="#333333" stroke="#333333" stroke-miterlimit="10" points="16.778,23.8 18.785,27.51 22.432,25.469 20.424,21.756 "/>
<polygon fill="none" stroke="#333333" stroke-miterlimit="10" points="40.141,16.375 34.769,17.44 33.724,11.973 39.095,10.908 "/>
<polygon fill="#333333" stroke="#333333" stroke-miterlimit="10" points="45.755,20.201 41.045,21.135 40.129,16.343 44.837,15.41 
	"/>
<polygon fill="#707070" stroke="#333333" stroke-miterlimit="10" points="37.45,27.525 31.158,23.845 34.774,17.44 41.064,21.122 
	"/>
<rect x="29.237" y="27.625" transform="matrix(-1 0.002 -0.002 -1 66.7449 63.538)" fill="#C6C6C6" stroke="#333333" stroke-miterlimit="10" width="8.206" height="8.355"/>
<polygon fill="none" stroke="#333333" stroke-miterlimit="10" points="31.223,23.907 29.215,27.617 25.569,25.576 27.576,21.863 "/>
</svg>
