<?xml version="1.0" encoding="UTF-8" standalone="no"?>
<!-- Created with Inkscape (http://www.inkscape.org/) -->
<svg version="1.1" xmlns="http://www.w3.org/2000/svg" enable-background="new 0 0 48 48" viewBox="0 0 48 48" xml:space="preserve">
	<path fill-opacity="0.56000001" fill="#363636" d="m24,27.497c-2.654-2.1056-4.458-5.326-4.75-9.015,1.463-0.66746,3.054-1.0528,4.75-1.0528s3.287,0.38532,4.75,1.0528c-0.292,3.6889-2.096,6.9094-4.75,9.015z"/>
	<path fill-opacity="0.78666669" fill="#868687" d="m31.2,30.065c-6.2906,0-11.417-5.1224-11.925-11.607,1.448-0.65237,3.0503-1.0265,4.725-1.0265,6.2882,0,11.413,5.0864,11.925,11.568-1.448,0.65167-3.05,1.0654-4.725,1.0654z"/>
	<path fill-opacity="0.78666669" fill="#868687" d="m16.8,30.065c-1.6747,0-3.277-0.41358-4.725-1.0659,0.512-6.4809,5.637-11.567,11.925-11.567,1.6747,0,3.277,0.3741,4.725,1.0265-0.508,6.4841-5.634,11.607-11.925,11.607z"/>
	<path fill-opacity="0.78666669" fill="#868687" d="m24,27.539c-2.9192-2.3044-4.8-5.9697-4.8-10.107,0-4.133,1.8856-7.8019,4.8-10.107,2.9144,2.3049,4.8,5.9737,4.8,10.107,0,4.137-1.8808,7.8023-4.8,10.107z"/>
	<path d="m36,31.102a12,12.633,0,1,0,-24,0,12,12.633,0,0,0,24,0z" stroke="#4a4949" stroke-linecap="round" stroke-miterlimit="4" stroke-dasharray="none" stroke-width="3.38597107" fill="none"/>
	<path d="m43.2,18.469a12,12.633,0,1,0,-24,0,12,12.633,0,0,0,24,0z" stroke="#4a4949" stroke-linecap="round" stroke-miterlimit="4" stroke-dasharray="none" stroke-width="3.38597107" fill="none"/>
	<path d="m28.8,18.469a12,12.633,0,1,0,-24,0,12,12.633,0,0,0,24,0z" stroke="#4a4949" stroke-linecap="round" stroke-miterlimit="4" stroke-dasharray="none" stroke-width="3.38597107" fill="none"/>
</svg>
