<?xml version="1.0" encoding="utf-8"?>
<!-- Generator: Adobe Illustrator 23.0.4, SVG Export Plug-In . SVG Version: 6.00 Build 0)  -->
<svg version="1.1" id="Layer_1" xmlns="http://www.w3.org/2000/svg" xmlns:xlink="http://www.w3.org/1999/xlink" x="0px" y="0px"
	 viewBox="0 0 48 48" style="enable-background:new 0 0 48 48;" xml:space="preserve">
<style type="text/css">
	.st0{fill:#333333;stroke:#333333;stroke-width:0.75;stroke-linecap:round;stroke-linejoin:round;}
</style>
<title>ViolinPlot</title>
<g id="Draw_Layer">
	<path class="st0" d="M33.2,3.8L33.2,3.8v40c0,0.1,0,0.2,0,0.3c0.1-2.2,0.5-4.3,1.2-6.3s1.7-4,2.3-6.1c0.3-1.4,0.8-2.8,1.5-4.1
		c1.5-2.3,4.3-2.7,5.9-4.9c0.2-0.2,0.3-0.5,0.3-0.8c0-0.5-0.2-0.9-0.5-1.2c-1-1.1-2.2-2-3.4-2.8c-1.8-1.3-3.5-2.8-5-4.5
		c-0.5-0.5-1-1.1-1.3-1.8c-1.1-2.2-0.8-5.1-1-7.6l0,0V3.9l0,0V3.8L33.2,3.8L33.2,3.8z"/>
	<path class="st0" d="M33.2,3.8v0.4c0,0,0,0,0,0.1v0.1v0.1v0.2v0.1c-0.2,2.4,0,5-1.2,7.1c-0.4,0.7-0.9,1.3-1.5,1.9
		c-1.2,1.2-2.5,2.3-3.8,3.4c-1.3,1.1-2.7,1.9-3.9,3c-0.3,0.3-0.6,0.6-0.8,1c-0.6,1.4,1.4,2.8,2.4,3.4c1.3,0.9,2.8,1.6,3.7,3
		c0.8,1.4,1.3,2.9,1.7,4.4c0.7,2,1.6,4,2.3,6s1.1,4.1,1.2,6.2c0-0.1,0-0.2,0-0.3s0-0.2,0-0.3L33.2,3.8z"/>
	<path class="st0" d="M10.9,3.8c0.1,2.9,0.8,5.7,2,8.3c0.6,1,1.2,2,1.8,3c0.9,1.6,1.2,3.4,2,5c0.6,1.3,1.9,2.2,2,3.8
		c0.1,1.5-0.7,2.9-1,4.4c-0.2,0.9-0.1,1.8-0.3,2.7c-0.4,2-1.8,3.4-3.1,4.8c-0.8,0.8-1.5,1.8-2.1,2.8c-0.6,1.2-0.9,2.5-1,3.8
		c0,0.6-0.1,1.1-0.2,1.7c-0.1-0.3-0.2-0.6-0.2-0.9c-0.1-0.3-0.1-0.6-0.2-1c-0.1-0.6-0.2-1.2-0.4-1.9C10,39.2,9.5,38.1,8.9,37
		c-1.2-1.9-3.7-3.2-4.2-5.6c-0.2-0.9-0.1-1.9-0.2-2.9c-0.1-0.9-0.6-1.6-0.9-2.5c-0.5-1.4-0.3-3.1,0.6-4.4c0.5-0.8,1.1-1.5,1.5-2.3
		c0.6-1.2,0.9-2.7,1.4-4c0.7-1.6,1.7-3,2.4-4.5C10.5,8.7,10.9,6.2,10.9,3.8z"/>
</g>
</svg>
