<?xml version="1.0" encoding="UTF-8"?>
<!-- Generator: Adobe Illustrator 25.2.1, SVG Export Plug-In . SVG Version: 6.00 Build 0)  -->
<svg version="1.1" id="Layer_1" xmlns="http://www.w3.org/2000/svg" xmlns:xlink="http://www.w3.org/1999/xlink" x="0px" y="0px" viewBox="0 0 48 48" style="enable-background:new 0 0 48 48;" xml:space="preserve">
<defs>
<style type="text/css" id="current-color-scheme">
* { color: #333; }
.ColorScheme-Text { color: #333; }
.ColorScheme-Background { color: #fff; }
</style>
</defs>
<path class="ColorScheme-Text" fill="currentColor" d="M8.8,4C5.9,4,3.6,6.3,3.5,9.2c0,2.9,2.3,5.3,5.2,5.3S14,12.2,14,9.3C14,6.5,11.7,4.1,8.8,4z"/>
<path class="ColorScheme-Text" fill="currentColor" d="M24.1,4c-2.9,0-5.3,2.3-5.3,5.2s2.3,5.3,5.2,5.3s5.3-2.3,5.3-5.2l0,0C29.3,6.5,27,4.1,24.1,4z"/>
<path class="ColorScheme-Text" fill="currentColor" d="M39.3,4C36.4,4,34,6.3,34,9.2s2.3,5.3,5.2,5.3s5.3-2.3,5.3-5.2l0,0C44.5,6.5,42.2,4.1,39.3,4z"/>
<polygon class="ColorScheme-Text" fill="currentColor" points="25,36.8 23,36.8 23,27.2 7.7,27.2 7.7,17.3 9.7,17.3 9.7,25.2 23,25.2 23,17.3 25,17.3 25,25.2   38.3,25.2 38.3,17.3 40.3,17.3 40.3,27.2 25,27.2 "/>
<polygon class="ColorScheme-Text" fill="currentColor" points="28.4,33.4 24,35.3 19.6,33.4 24,43.9 "/>
</svg>