<svg id="Layer_1" data-name="Layer 1" xmlns="http://www.w3.org/2000/svg" viewBox="0 0 48 48"><defs><style>.cls-1{fill:#333;}.cls-2{fill:none;stroke:#333;stroke-miterlimit:10;stroke-width:2px;}</style></defs><title>AggregateColumns</title><path class="cls-1" d="M8.82,4.05A5.24,5.24,0,1,0,14,9.36,5.25,5.25,0,0,0,8.82,4.05Z"/><path class="cls-1" d="M24.08,4.05a5.24,5.24,0,1,0,5.16,5.31A5.25,5.25,0,0,0,24.08,4.05Z"/><path class="cls-1" d="M39.34,4.05A5.24,5.24,0,1,0,44.5,9.36,5.25,5.25,0,0,0,39.34,4.05Z"/><polyline class="cls-2" points="8.74 17.34 8.74 26.24 39.26 26.24 39.26 17.34"/><line class="cls-2" x1="24" y1="26.24" x2="24" y2="17.34"/><line class="cls-2" x1="24" y1="36.78" x2="24" y2="26.18"/><polygon class="cls-1" points="28.44 33.41 24 35.3 19.56 33.41 24 43.95 28.44 33.41"/></svg>