<?xml version="1.0" encoding="utf-8"?>
<!-- Generator: Adobe Illustrator 16.0.4, SVG Export Plug-In . SVG Version: 6.00 Build 0)  -->
<!DOCTYPE svg PUBLIC "-//W3C//DTD SVG 1.1//EN" "http://www.w3.org/Graphics/SVG/1.1/DTD/svg11.dtd">
<svg version="1.1" id="Layer_1" xmlns="http://www.w3.org/2000/svg" xmlns:xlink="http://www.w3.org/1999/xlink" x="0px" y="0px"
	 width="47.8px" height="53.39px" viewBox="0 0 47.8 53.39" enable-background="new 0 0 47.8 53.39" xml:space="preserve">
<path fill="#6D6E71" stroke="#000000" stroke-miterlimit="10" d="M27.46,29.75c-6.03-5.34,13.42-15.46-6.71-20.47
	c-5.74-1.43-20.24,6.71-19.9,23.99s15.35,18.65,19.9,19.1s14.39-2.79,15.8-8.3c1.83-7.1,1.69-11.07-1.93-13.3
	C32.63,29.54,30.67,32.6,27.46,29.75z M10.63,43.51c-2.26,0-4.09-1.83-4.09-4.09s1.83-4.09,4.09-4.09s4.09,1.83,4.09,4.09
	S12.89,43.51,10.63,43.51z M11.2,30.89c-1.95,0-3.52-1.58-3.52-3.52s1.58-3.52,3.52-3.52s3.52,1.58,3.52,3.52
	S13.14,30.89,11.2,30.89z M16.37,20.31c0-1.72,1.4-3.12,3.12-3.12s3.12,1.4,3.12,3.12s-1.4,3.12-3.12,3.12S16.37,22.04,16.37,20.31z
	 M22.11,48.4c-2.26,0-4.09-1.83-4.09-4.09s1.83-4.09,4.09-4.09s4.09,1.83,4.09,4.09S24.37,48.4,22.11,48.4z"/>
<ellipse fill="#FFF200" cx="19.56" cy="19.71" rx="4.03" ry="3.99"/>
<ellipse fill="#C49A6C" cx="11.2" cy="27.45" rx="4.03" ry="3.99"/>
<ellipse fill="#8DC63F" cx="10.71" cy="39.4" rx="4.79" ry="4.74"/>
<ellipse fill="#FBB040" cx="22" cy="44.19" rx="4.79" ry="4.74"/>
<g>
	<path stroke="#FFFFFF" stroke-width="0.2383" stroke-miterlimit="10" d="M27.53,35.72c1.03,1.19,2.81,1.85,2.81,1.85
		s-2.16,6.09-12.28,2.91c-0.32-0.1-1.12-0.17-0.87-0.29c2.84-1.39,7.9-3.3,8.99-7.12C26.89,30.58,27.53,35.72,27.53,35.72z"/>
	<path stroke="#FFFFFF" stroke-width="0.2688" stroke-miterlimit="10" d="M47.73,16.55c-1.22-1.1-11.11,4.24-19.19,14.42
		c-0.23,0.29-0.65,0.82-0.65,0.82s-0.77,3,0.65,4.07c1.47,1.1,4.65,0.12,4.65,0.12S48.96,17.65,47.73,16.55z"/>
</g>
<rect fill="none" width="47.8" height="53.39"/>
</svg>
