<?xml version="1.0" encoding="utf-8"?>
<!-- Generator: Adobe Illustrator 22.0.1, SVG Export Plug-In . SVG Version: 6.00 Build 0)  -->
<svg version="1.1" id="Layer_1" xmlns="http://www.w3.org/2000/svg" xmlns:xlink="http://www.w3.org/1999/xlink" x="0px" y="0px"
	 viewBox="0 0 48 48" style="enable-background:new 0 0 48 48;" xml:space="preserve">
<style type="text/css">
	.st0{fill:#FFFFFF;}
	.st1{fill:#333333;}
	.st2{fill:none;stroke:#333333;stroke-width:2;stroke-miterlimit:10;}
	.st3{fill:#B2B2B2;}
	.st4{fill:#F0F0F0;}
	.st5{fill:#666666;}
	.st6{fill:none;stroke:#333333;stroke-miterlimit:10;}
	.st7{fill:none;stroke:#333333;stroke-width:3;stroke-miterlimit:10;}
	.st8{fill:none;stroke:#333333;stroke-width:2;stroke-linecap:round;stroke-miterlimit:10;}
	.st9{fill:none;stroke:#C6C6C6;stroke-width:3;stroke-miterlimit:10;}
	.st10{fill:none;stroke:#333333;stroke-width:2;stroke-linejoin:round;stroke-miterlimit:10;}
</style>
<g>
	<g>
		<path class="st1" d="M15.8,24.1c0.2-2.3-1.6-4.3-3.9-4.5c-2.3-0.2-4.3,1.6-4.5,3.9C7.3,25.8,9,27.8,11.3,28
			C13.7,28.1,15.7,26.4,15.8,24.1z"/>
	</g>
	<g>
		<path class="st1" d="M29,18.9c0.2-2.3-1.6-4.3-3.9-4.5c-2.3-0.2-4.3,1.6-4.5,3.9c-0.2,2.3,1.6,4.3,3.9,4.5
			C26.9,23,28.9,21.2,29,18.9z"/>
	</g>
	<g>
		<path class="st1" d="M12.1,33.5c0.2-2.3-1.6-4.3-3.9-4.5c-2.3-0.2-4.3,1.6-4.5,3.9c-0.2,2.3,1.6,4.3,3.9,4.5
			C9.9,37.6,11.9,35.8,12.1,33.5z"/>
	</g>
	<g>
		<path class="st1" d="M25.5,28.9c0.2-2.3-1.6-4.3-3.9-4.5c-2.3-0.2-4.3,1.6-4.5,3.9c-0.2,2.3,1.6,4.3,3.9,4.5
			C23.3,33,25.3,31.2,25.5,28.9z"/>
	</g>
	<g>
		<path class="st1" d="M38.5,23.2c0.2-2.3-1.6-4.3-3.9-4.5c-2.3-0.2-4.3,1.6-4.5,3.9C29.9,25,31.7,27,34,27.1
			C36.3,27.3,38.3,25.5,38.5,23.2z"/>
	</g>
	<g>
		<path class="st1" d="M44.3,15.1c0.2-2.3-1.6-4.3-3.9-4.5c-2.3-0.2-4.3,1.6-4.5,3.9c-0.2,2.3,1.6,4.3,3.9,4.5
			C42.2,19.2,44.2,17.4,44.3,15.1z"/>
	</g>
</g>
</svg>
