<?xml version="1.0" encoding="UTF-8" standalone="no"?>
<!-- Generator: Adobe Illustrator 16.1.0, SVG Export Plug-In . SVG Version: 6.00 Build 0)  -->

<svg
   xmlns:dc="http://purl.org/dc/elements/1.1/"
   xmlns:cc="http://creativecommons.org/ns#"
   xmlns:rdf="http://www.w3.org/1999/02/22-rdf-syntax-ns#"
   xmlns:svg="http://www.w3.org/2000/svg"
   xmlns="http://www.w3.org/2000/svg"
   xmlns:sodipodi="http://sodipodi.sourceforge.net/DTD/sodipodi-0.dtd"
   xmlns:inkscape="http://www.inkscape.org/namespaces/inkscape"
   version="1.1"
   id="Layer_1"
   x="0px"
   y="0px"
   width="48px"
   height="48px"
   viewBox="0 0 48 48"
   enable-background="new 0 0 48 48"
   xml:space="preserve"
   inkscape:version="0.91 r13725"
   sodipodi:docname="File.svg"><metadata
     id="metadata4304"><rdf:RDF><cc:Work
         rdf:about=""><dc:format>image/svg+xml</dc:format><dc:type
           rdf:resource="http://purl.org/dc/dcmitype/StillImage" /><dc:title></dc:title></cc:Work></rdf:RDF></metadata><defs
     id="defs4302" /><sodipodi:namedview
     pagecolor="#ffffff"
     bordercolor="#666666"
     borderopacity="1"
     objecttolerance="10"
     gridtolerance="10"
     guidetolerance="10"
     inkscape:pageopacity="0"
     inkscape:pageshadow="2"
     inkscape:window-width="1415"
     inkscape:window-height="1032"
     id="namedview4300"
     showgrid="true"
     inkscape:zoom="18.162764"
     inkscape:cx="19.595384"
     inkscape:cy="24.654246"
     inkscape:window-x="42"
     inkscape:window-y="69"
     inkscape:window-maximized="0"
     inkscape:current-layer="Layer_1"><inkscape:grid
       type="xygrid"
       id="grid4306"
       empspacing="4" /></sodipodi:namedview><path
     fill="#FFFFFF"
     d="M25,8H13v32h22V17c0-4.123-8-1-8-1C28,12,27,8,25,8z"
     id="path4296" /><path
     fill="#333333"
     d="M28,6H13h-2v2v32v2h2h22h2v-2V16v-2L28,6z M35,40H13V8h12c2,0,3,4,2,8c0,0,8-3.123,8,1V40z"
     id="path4298" /><rect
     style="opacity:1;fill:#333333;fill-opacity:1;fill-rule:nonzero;stroke:none;stroke-width:3;stroke-linecap:square;stroke-linejoin:miter;stroke-miterlimit:4;stroke-dasharray:none;stroke-dashoffset:0;stroke-opacity:1"
     id="rect4308"
     width="5"
     height="2.0448074"
     x="14.072981"
     y="16.955193" /><rect
     y="16.955193"
     x="21.01025"
     height="2.0448074"
     width="5"
     id="rect4312"
     style="opacity:1;fill:#333333;fill-opacity:1;fill-rule:nonzero;stroke:none;stroke-width:3;stroke-linecap:square;stroke-linejoin:miter;stroke-miterlimit:4;stroke-dasharray:none;stroke-dashoffset:0;stroke-opacity:1" /><rect
     style="opacity:1;fill:#333333;fill-opacity:1;fill-rule:nonzero;stroke:none;stroke-width:3;stroke-linecap:square;stroke-linejoin:miter;stroke-miterlimit:4;stroke-dasharray:none;stroke-dashoffset:0;stroke-opacity:1"
     id="rect4314"
     width="5"
     height="2.0448074"
     x="28.002579"
     y="16.955193" /><rect
     y="12.991038"
     x="14.072981"
     height="2.0448074"
     width="5"
     id="rect4327"
     style="opacity:1;fill:#333333;fill-opacity:1;fill-rule:nonzero;stroke:none;stroke-width:3;stroke-linecap:square;stroke-linejoin:miter;stroke-miterlimit:4;stroke-dasharray:none;stroke-dashoffset:0;stroke-opacity:1" /><rect
     style="opacity:1;fill:#333333;fill-opacity:1;fill-rule:nonzero;stroke:none;stroke-width:3;stroke-linecap:square;stroke-linejoin:miter;stroke-miterlimit:4;stroke-dasharray:none;stroke-dashoffset:0;stroke-opacity:1"
     id="rect4329"
     width="5"
     height="2.0448074"
     x="21.01025"
     y="12.991038" /><rect
     y="24.938559"
     x="14.072981"
     height="2.0448074"
     width="5"
     id="rect4333"
     style="opacity:1;fill:#333333;fill-opacity:1;fill-rule:nonzero;stroke:none;stroke-width:3;stroke-linecap:square;stroke-linejoin:miter;stroke-miterlimit:4;stroke-dasharray:none;stroke-dashoffset:0;stroke-opacity:1" /><rect
     style="opacity:1;fill:#333333;fill-opacity:1;fill-rule:nonzero;stroke:none;stroke-width:3;stroke-linecap:square;stroke-linejoin:miter;stroke-miterlimit:4;stroke-dasharray:none;stroke-dashoffset:0;stroke-opacity:1"
     id="rect4335"
     width="5"
     height="2.0448074"
     x="21.01025"
     y="24.938559" /><rect
     y="24.938559"
     x="28.002579"
     height="2.0448074"
     width="5"
     id="rect4337"
     style="opacity:1;fill:#333333;fill-opacity:1;fill-rule:nonzero;stroke:none;stroke-width:3;stroke-linecap:square;stroke-linejoin:miter;stroke-miterlimit:4;stroke-dasharray:none;stroke-dashoffset:0;stroke-opacity:1" /><rect
     style="opacity:1;fill:#333333;fill-opacity:1;fill-rule:nonzero;stroke:none;stroke-width:3;stroke-linecap:square;stroke-linejoin:miter;stroke-miterlimit:4;stroke-dasharray:none;stroke-dashoffset:0;stroke-opacity:1"
     id="rect4339"
     width="5"
     height="2.0448074"
     x="14.072981"
     y="20.974405" /><rect
     y="20.974405"
     x="21.01025"
     height="2.0448074"
     width="5"
     id="rect4341"
     style="opacity:1;fill:#333333;fill-opacity:1;fill-rule:nonzero;stroke:none;stroke-width:3;stroke-linecap:square;stroke-linejoin:miter;stroke-miterlimit:4;stroke-dasharray:none;stroke-dashoffset:0;stroke-opacity:1" /><rect
     style="opacity:1;fill:#333333;fill-opacity:1;fill-rule:nonzero;stroke:none;stroke-width:3;stroke-linecap:square;stroke-linejoin:miter;stroke-miterlimit:4;stroke-dasharray:none;stroke-dashoffset:0;stroke-opacity:1"
     id="rect4343"
     width="5"
     height="2.0448074"
     x="28.002579"
     y="20.974405" /><g
     transform="scale(0.98335939,1.0169222)"
     style="font-style:normal;font-variant:normal;font-weight:bold;font-stretch:normal;font-size:9.23964787px;line-height:125%;font-family:sans-serif;-inkscape-font-specification:'sans-serif Bold';letter-spacing:0px;word-spacing:0px;fill:#000000;fill-opacity:1;stroke:none;stroke-width:0.1;stroke-linecap:butt;stroke-linejoin:miter;stroke-miterlimit:4;stroke-dasharray:none;stroke-opacity:1"
     id="text4345"><path
       d="m 20.030514,36.789195 q -0.478224,0.248135 -0.997052,0.374458 -0.518828,0.126323 -1.082771,0.126323 -1.682807,0 -2.666324,-0.938401 -0.983518,-0.942914 -0.983518,-2.553536 0,-1.615134 0.983518,-2.553535 0.983517,-0.942914 2.666324,-0.942914 0.563943,0 1.082771,0.126324 0.518828,0.126323 0.997052,0.374458 l 0,1.394068 q -0.482736,-0.329343 -0.951937,-0.482735 -0.4692,-0.153393 -0.988028,-0.153393 -0.929379,0 -1.461742,0.595524 -0.532362,0.595524 -0.532362,1.642203 0,1.042167 0.532362,1.637692 0.532363,0.595524 1.461742,0.595524 0.518828,0 0.988028,-0.153393 0.469201,-0.153392 0.951937,-0.482735 l 0,1.394068 z"
       style=""
       id="path4375" /><path
       d="m 26.324122,30.635445 0,1.425649 q -0.554921,-0.248135 -1.082772,-0.374459 -0.527851,-0.126323 -0.997052,-0.126323 -0.622593,0 -0.920355,0.171439 -0.297762,0.171439 -0.297762,0.532362 0,0.270693 0.198508,0.424086 0.203019,0.148881 0.73087,0.257158 l 0.739894,0.148881 q 1.123375,0.225577 1.597088,0.685755 0.473712,0.460178 0.473712,1.308349 0,1.114352 -0.663197,1.660249 -0.658686,0.541385 -2.016662,0.541385 -0.640639,0 -1.285791,-0.121811 -0.645151,-0.121812 -1.290302,-0.360924 l 0,-1.466253 q 0.645151,0.342878 1.245187,0.518828 0.604547,0.171439 1.163979,0.171439 0.568455,0 0.870729,-0.189485 0.302273,-0.189485 0.302273,-0.541386 0,-0.315808 -0.207531,-0.487247 -0.20302,-0.171439 -0.81659,-0.306785 l -0.67222,-0.148881 q -1.010587,-0.216554 -1.479788,-0.690267 -0.464689,-0.473712 -0.464689,-1.276767 0,-1.006075 0.649663,-1.547461 0.649662,-0.541386 1.86778,-0.541386 0.55492,0 1.141421,0.08572 0.586502,0.08121 1.213607,0.248135 z"
       style=""
       id="path4377" /><path
       d="m 27.510658,30.423402 1.745969,0 1.786572,4.971725 1.782061,-4.971725 1.745969,0 -2.494885,6.73574 -2.0708,0 -2.494886,-6.73574 z"
       style=""
       id="path4379" /></g></svg>