<?xml version="1.0" encoding="UTF-8"?>
<svg width="48px" height="48px" enable-background="new 0 0 48 48" version="1.1" viewBox="0 0 48 48" xml:space="preserve" xmlns="http://www.w3.org/2000/svg">
<defs>
<style type="text/css" id="current-color-scheme">
* { color: #333; }
.ColorScheme-Text { color: #333; }
.ColorScheme-Background { color: #fff; }
</style>
</defs>
<g class="ColorScheme-Background" style="fill:currentColor">
    <path d="m25 8h-12v32h22v-23c0-4.123-8-1-8-1 1-4 0-8-2-8z"/>
</g>
<g class="ColorScheme-Text" style="fill:currentColor">
    <path d="m28 6h-17v36h26v-28l-9-8zm7 34h-22v-32h12c2 0 3 4 2 8 0 0 8-3.123 8 1v23z"/>
    <rect x="14.073" y="16.955" width="5" height="2.0448" />
    <rect x="21.01" y="16.955" width="5" height="2.0448" />
    <rect x="28.003" y="16.955" width="5" height="2.0448" />
    <rect x="14.073" y="12.991" width="5" height="2.0448" />
    <rect x="21.01" y="12.991" width="5" height="2.0448" />
    <rect x="14.073" y="24.939" width="5" height="2.0448" />
    <rect x="21.01" y="24.939" width="5" height="2.0448" />
    <rect x="28.003" y="24.939" width="5" height="2.0448" />
    <rect x="14.073" y="20.974" width="5" height="2.0448" />
    <rect x="21.01" y="20.974" width="5" height="2.0448" />
    <rect x="28.003" y="20.974" width="5" height="2.0448" />
</g>
<g transform="scale(.98336 1.0169)" class="ColorScheme-Text" style="fill:currentColor;stroke-width:.1">
    <path d="m20.031 36.789q-0.47822 0.24814-0.99705 0.37446t-1.0828 0.12632q-1.6828 0-2.6663-0.9384-0.98352-0.94291-0.98352-2.5535 0-1.6151 0.98352-2.5535 0.98352-0.94291 2.6663-0.94291 0.56394 0 1.0828 0.12632 0.51883 0.12632 0.99705 0.37446v1.3941q-0.48274-0.32934-0.95194-0.48274-0.4692-0.15339-0.98803-0.15339-0.92938 0-1.4617 0.59552-0.53236 0.59552-0.53236 1.6422 0 1.0422 0.53236 1.6377 0.53236 0.59552 1.4617 0.59552 0.51883 0 0.98803-0.15339 0.4692-0.15339 0.95194-0.48274v1.3941z" />
    <path d="m26.324 30.635v1.4256q-0.55492-0.24814-1.0828-0.37446-0.52785-0.12632-0.99705-0.12632-0.62259 0-0.92036 0.17144t-0.29776 0.53236q0 0.27069 0.19851 0.42409 0.20302 0.14888 0.73087 0.25716l0.73989 0.14888q1.1234 0.22558 1.5971 0.68576 0.47371 0.46018 0.47371 1.3083 0 1.1144-0.6632 1.6602-0.65869 0.54138-2.0167 0.54138-0.64064 0-1.2858-0.12181-0.64515-0.12181-1.2903-0.36092v-1.4663q0.64515 0.34288 1.2452 0.51883 0.60455 0.17144 1.164 0.17144 0.56846 0 0.87073-0.18948 0.30227-0.18948 0.30227-0.54139 0-0.31581-0.20753-0.48725-0.20302-0.17144-0.81659-0.30678l-0.67222-0.14888q-1.0106-0.21655-1.4798-0.69027-0.46469-0.47371-0.46469-1.2768 0-1.0061 0.64966-1.5475 0.64966-0.54139 1.8678-0.54139 0.55492 0 1.1414 0.08572 0.5865 0.08121 1.2136 0.24814z" />
    <path d="m27.511 30.423h1.746l1.7866 4.9717 1.7821-4.9717h1.746l-2.4949 6.7357h-2.0708l-2.4949-6.7357z" />
</g>
</svg>
