<?xml version="1.0" encoding="utf-8"?>
<!-- Generator: Adobe Illustrator 16.0.0, SVG Export Plug-In . SVG Version: 6.00 Build 0)  -->
<!DOCTYPE svg PUBLIC "-//W3C//DTD SVG 1.1//EN" "http://www.w3.org/Graphics/SVG/1.1/DTD/svg11.dtd">
<svg version="1.1" id="Layer_1" xmlns="http://www.w3.org/2000/svg" xmlns:xlink="http://www.w3.org/1999/xlink" x="0px" y="0px"
	 width="48px" height="48px" viewBox="0 0 48 48" enable-background="new 0 0 48 48" xml:space="preserve">
<g>
	<g>
		<path fill="#FFFFFF" d="M-45.394,8.692h-10.288v27.433h18.86V16.408c0-3.535-6.858-0.857-6.858-0.857
			C-42.823,12.122-43.68,8.692-45.394,8.692z"/>
		<path fill="#333333" d="M-42.823,6.978h-12.859h-1.714v1.714v27.433v1.715h1.714h18.86h1.714v-1.715V15.551v-1.714L-42.823,6.978z
			 M-36.821,36.125h-18.86V8.692h10.288c1.714,0,2.571,3.429,1.714,6.858c0,0,6.858-2.677,6.858,0.857V36.125z"/>
	</g>
	<g>
		<path fill="#FFFFFF" d="M-39.394,12.122h-10.287v27.433h18.86V19.837c0-3.535-6.858-0.857-6.858-0.857
			C-36.821,15.551-37.679,12.122-39.394,12.122z"/>
		<path fill="#333333" d="M-36.821,10.407h-12.859h-1.714v1.714v27.433v1.714h1.714h18.86h1.714v-1.714V18.98v-1.714L-36.821,10.407
			z M-30.82,39.555h-18.86V12.122h10.287c1.715,0,2.572,3.429,1.715,6.858c0,0,6.858-2.677,6.858,0.857V39.555z"/>
	</g>
	<g>
		<path fill="#FFFFFF" d="M-32.892,15.836h-10.286v27.433h18.858V23.551c0-3.535-6.858-0.857-6.858-0.857
			C-30.32,19.265-31.178,15.836-32.892,15.836z"/>
		<path fill="#333333" d="M-30.32,14.121h-12.857h-1.715v1.715v27.433v1.714h1.715h18.858h1.715v-1.714V22.694v-1.715L-30.32,14.121
			z M-24.319,43.269h-18.858V15.836h10.286c1.714,0,2.571,3.429,1.714,6.858c0,0,6.858-2.678,6.858,0.857V43.269z"/>
	</g>
</g>
<g>
	<path fill="#FFFFFF" d="M24.999,8.001H13.001V40h21.998V17.001c0-4.123-8-1-8-1C27.999,12.001,26.999,8.001,24.999,8.001z"/>
	<path fill="#333333" d="M27.999,6.001H13.001h-2v2V40v2h2h21.998h2v-2V16.001v-2L27.999,6.001z M34.999,40H13.001V8.001h11.998
		c2,0,3,4,2,8c0,0,8-3.123,8,1V40z"/>
</g>
<polyline fill="none" stroke="#333333" stroke-width="2" stroke-miterlimit="10" points="17,29.088 17,35 31,35 31,29.088 "/>
<g>
	<g>
		<polygon fill="#333333" points="22.402,18.84 22.396,25.174 19.565,25.171 23.992,31.47 28.436,25.181 25.603,25.178 
			25.612,18.844 		"/>
	</g>
</g>
</svg>
