<?xml version="1.0" encoding="utf-8"?>
<!-- Generator: Adobe Illustrator 16.1.0, SVG Export Plug-In . SVG Version: 6.00 Build 0)  -->
<!DOCTYPE svg PUBLIC "-//W3C//DTD SVG 1.1//EN" "http://www.w3.org/Graphics/SVG/1.1/DTD/svg11.dtd">
<svg version="1.1" id="Layer_1" xmlns="http://www.w3.org/2000/svg" xmlns:xlink="http://www.w3.org/1999/xlink" x="0px" y="0px"
	 width="48px" height="48px" viewBox="0 0 48 48" enable-background="new 0 0 48 48" xml:space="preserve">
<g>
	<path fill="#333333" d="M6,6v36h36V6H6z M40,22v1v8v1v8H30h-1H19h-1H8v-8v-1v-8v-1v-8h10h1h10h1h10V22z"/>
	<path fill="#666666" d="M30,14h-1v8H19v-8h-1v8H8v1h10v8H8v1h10v8h1v-8h10v8h1v-8h10v-1H30v-8h10v-1H30V14z M29,31H19v-8h10V31z"/>
	<rect x="8" y="32" fill="#FFFFFF" width="10" height="8"/>
	<rect x="8" y="23" fill="#FFFFFF" width="10" height="8"/>
	<rect x="8" y="14" fill="#FFFFFF" width="10" height="8"/>
	<rect x="19" y="32" fill="#FFFFFF" width="10" height="8"/>
	<rect x="19" y="23" fill="#FFFFFF" width="10" height="8"/>
	<rect x="19" y="14" fill="#FFFFFF" width="10" height="8"/>
	<rect x="30" y="32" fill="#FFFFFF" width="10" height="8"/>
	<rect x="30" y="23" fill="#FFFFFF" width="10" height="8"/>
	<rect x="30" y="14" fill="#FFFFFF" width="10" height="8"/>
</g>
<path fill="none" d="M32.826,44.996c0.018,0,0.035,0.005,0.053,0.005C32.861,45.001,32.844,44.996,32.826,44.996L32.826,44.996z"/>
<g>
	<path d="M42.585,28.073l-7.538-3.752C34.49,24.042,33.861,24,33.536,24c-0.374,0-0.728,0.053-1.025,0.155l-8.499,2.946
		c-0.899,0.313-1.579,1.266-1.583,2.217l-0.02,10.322c-0.001,0.917,0.593,1.879,1.414,2.288l7.538,3.75
		c0.562,0.28,1.192,0.322,1.518,0.322c0.371,0,0.724-0.054,1.019-0.153l8.506-2.952c0.9-0.311,1.581-1.265,1.581-2.22L44,30.357
		C44.003,29.457,43.395,28.475,42.585,28.073z M23.93,28.306c0.043-0.039,0.086-0.071,0.133-0.104
		c0.087-0.063,0.178-0.121,0.277-0.155l8.494-2.945c0.2-0.068,0.447-0.102,0.702-0.102c0.382,0,0.782,0.075,1.065,0.217l7.539,3.752
		c0.093,0.046,0.178,0.112,0.26,0.188c0.062,0.053,0.116,0.111,0.171,0.175c0,0.001,0.001,0.001,0.001,0.001l-9.934,3.367
		L23.93,28.306L23.93,28.306z M24.27,41.033c-0.475-0.236-0.86-0.861-0.859-1.391l0.02-10.32c0-0.112,0.024-0.225,0.061-0.335
		c0.031-0.103,0.086-0.198,0.139-0.294l8.787,4.434l-0.071,11.818c-0.007-0.002-0.015-0.002-0.022-0.003
		c-0.189-0.036-0.37-0.086-0.516-0.159L24.27,41.033z M42.984,40.676c0,0.527-0.41,1.104-0.908,1.275l-8.5,2.949
		c-0.199,0.067-0.444,0.101-0.697,0.101c-0.018,0-0.035-0.005-0.053-0.005l0.07-11.846l9.945-3.39
		c0.042,0.09,0.081,0.179,0.105,0.271C42.979,30.142,43,30.25,43,30.355L42.984,40.676z"/>
	<g>
		<path fill="#FFFFFF" d="M42.571,29.331c-0.054-0.062-0.112-0.12-0.171-0.175c-0.083-0.071-0.168-0.142-0.26-0.188l-7.539-3.752
			C34.318,25.075,33.918,25,33.536,25c-0.255,0-0.502,0.033-0.702,0.102l-8.494,2.945c-0.098,0.034-0.188,0.094-0.277,0.155
			c-0.045,0.033-0.09,0.065-0.133,0.104h0l8.709,4.394L42.571,29.331C42.572,29.332,42.572,29.332,42.571,29.331z M35.196,28.93
			c-0.22,0.582-1.22,0.887-2.229,0.68s-1.65-0.848-1.43-1.432c0.221-0.582,1.22-0.887,2.229-0.678
			C34.777,27.707,35.418,28.344,35.196,28.93z"/>
		<path d="M33.766,27.5c-1.009-0.209-2.008,0.096-2.229,0.678c-0.221,0.584,0.42,1.225,1.43,1.432s2.01-0.098,2.229-0.68
			C35.418,28.344,34.777,27.707,33.766,27.5z"/>
	</g>
	<g>
		<path fill="#FFFFFF" d="M23.625,28.691c-0.054,0.096-0.1,0.195-0.134,0.296c-0.033,0.111-0.061,0.224-0.061,0.335l-0.02,10.32
			c-0.001,0.529,0.385,1.154,0.859,1.391l7.537,3.75c0.153,0.076,0.34,0.13,0.538,0.166l0.071-11.822L23.625,28.691z M26.723,39.455
			c-0.074,0.936-0.664,1.436-1.316,1.117c-0.652-0.316-1.121-1.334-1.045-2.273c0.074-0.936,0.666-1.436,1.314-1.113
			C26.33,37.502,26.799,38.518,26.723,39.455z M26.723,33.1c-0.074,0.934-0.664,1.434-1.316,1.117
			c-0.652-0.318-1.119-1.336-1.045-2.275c0.074-0.934,0.666-1.436,1.314-1.115C26.33,31.146,26.799,32.162,26.723,33.1z
			 M28.963,34.279c0.074-0.936,0.665-1.436,1.316-1.115c0.652,0.318,1.121,1.336,1.046,2.27c-0.074,0.938-0.663,1.439-1.317,1.119
			C29.356,36.234,28.888,35.217,28.963,34.279z M31.326,41.941c-0.075,0.934-0.664,1.436-1.318,1.115
			c-0.651-0.316-1.119-1.334-1.045-2.271c0.074-0.936,0.667-1.434,1.316-1.115C30.932,39.988,31.4,41.004,31.326,41.941z"/>
		<path d="M25.676,30.826c-0.648-0.32-1.24,0.182-1.314,1.115c-0.074,0.939,0.393,1.957,1.045,2.275
			c0.652,0.316,1.242-0.184,1.316-1.117C26.799,32.162,26.33,31.146,25.676,30.826z"/>
		<path d="M30.008,36.553c0.654,0.32,1.243-0.182,1.317-1.119c0.075-0.934-0.394-1.951-1.046-2.27
			c-0.651-0.32-1.242,0.18-1.316,1.115C28.888,35.217,29.356,36.234,30.008,36.553z"/>
		<path d="M30.279,39.67c-0.649-0.318-1.242,0.18-1.316,1.115c-0.074,0.938,0.394,1.955,1.045,2.271
			c0.654,0.32,1.243-0.182,1.318-1.115C31.4,41.004,30.932,39.988,30.279,39.67z"/>
		<path d="M25.676,37.186c-0.648-0.322-1.24,0.178-1.314,1.113c-0.076,0.939,0.393,1.957,1.045,2.273
			c0.652,0.318,1.242-0.182,1.316-1.117C26.799,38.518,26.33,37.502,25.676,37.186z"/>
	</g>
	<g>
		<path fill="#FFFFFF" d="M42.947,30.032c-0.027-0.091-0.061-0.183-0.102-0.272l-9.948,3.391l-0.07,11.846
			c0.018,0,0.035,0.005,0.053,0.005c0.253,0,0.499-0.033,0.697-0.101l8.5-2.949c0.498-0.172,0.908-0.748,0.908-1.275L43,30.355
			C43,30.251,42.975,30.141,42.947,30.032z M40.588,32.018c0.723-0.268,1.315,0.223,1.322,1.098c0.008,0.877-0.57,1.805-1.293,2.074
			c-0.721,0.268-1.314-0.225-1.32-1.102C39.289,33.213,39.867,32.283,40.588,32.018z M35.403,33.762
			c0.723-0.268,1.315,0.223,1.321,1.1c0.008,0.877-0.57,1.805-1.292,2.072c-0.722,0.271-1.313-0.223-1.321-1.102
			C34.104,34.959,34.684,34.027,35.403,33.762z M35.489,43.156c-0.722,0.27-1.313-0.223-1.321-1.102
			c-0.008-0.871,0.571-1.803,1.293-2.07c0.721-0.268,1.312,0.223,1.319,1.1C36.789,41.959,36.211,42.889,35.489,43.156z
			 M38.072,39.172c-0.72,0.27-1.312-0.223-1.321-1.102c-0.007-0.873,0.573-1.803,1.293-2.07c0.723-0.268,1.313,0.223,1.323,1.1
			C39.374,37.975,38.795,38.904,38.072,39.172z M40.713,41.211c-0.721,0.271-1.312-0.223-1.32-1.102
			c-0.008-0.873,0.572-1.805,1.293-2.07c0.723-0.268,1.314,0.223,1.322,1.1C42.016,40.018,41.436,40.941,40.713,41.211z"/>
		<path d="M35.433,36.934c0.722-0.268,1.3-1.195,1.292-2.072c-0.006-0.877-0.599-1.367-1.321-1.1c-0.72,0.266-1.3,1.197-1.292,2.07
			C34.119,36.711,34.711,37.205,35.433,36.934z"/>
		<path d="M38.044,36c-0.72,0.268-1.3,1.197-1.293,2.07c0.009,0.879,0.602,1.371,1.321,1.102c0.723-0.268,1.302-1.197,1.295-2.072
			C39.357,36.223,38.767,35.732,38.044,36z"/>
		<path d="M40.617,35.189c0.723-0.27,1.301-1.197,1.293-2.074c-0.007-0.875-0.6-1.365-1.322-1.098
			c-0.721,0.266-1.299,1.195-1.291,2.07C39.303,34.965,39.896,35.457,40.617,35.189z"/>
		<path d="M40.686,38.039c-0.721,0.266-1.301,1.197-1.293,2.07c0.008,0.879,0.6,1.373,1.32,1.102
			c0.723-0.27,1.303-1.193,1.295-2.072C42,38.262,41.408,37.771,40.686,38.039z"/>
		<path d="M35.461,39.984c-0.722,0.268-1.301,1.199-1.293,2.07c0.008,0.879,0.6,1.371,1.321,1.102
			c0.722-0.268,1.3-1.197,1.291-2.072C36.773,40.207,36.182,39.717,35.461,39.984z"/>
	</g>
</g>
</svg>
