<?xml version="1.0" encoding="utf-8"?>
<!-- Generator: Adobe Illustrator 16.0.0, SVG Export Plug-In . SVG Version: 6.00 Build 0)  -->
<!DOCTYPE svg PUBLIC "-//W3C//DTD SVG 1.1//EN" "http://www.w3.org/Graphics/SVG/1.1/DTD/svg11.dtd">
<svg version="1.1" id="Layer_1" xmlns="http://www.w3.org/2000/svg" xmlns:xlink="http://www.w3.org/1999/xlink" x="0px" y="0px"
	 width="48px" height="48px" viewBox="0 0 48 48" enable-background="new 0 0 48 48" xml:space="preserve">
<path fill="#FFFFFF" d="M25,8H13v32h22V17c0-4.123-8-1-8-1C28,12,27,8,25,8z"/>
<path fill="#333333" d="M28,6H13h-2v2v32v2h2h22h2v-2V16v-2L28,6z M35,40H13V8h12c2,0,3,4,2,8c0,0,8-3.123,8,1V40z"/>
<g enable-background="new    ">
	<path fill="#333333" d="M14.726,38.172v-1.217c3.303-0.233,3.688-0.513,3.688-3.411v-8.931c0-2.57-0.11-2.805-3.359-3.179v-1.122
		c2.588-0.374,4.846-0.936,6.938-1.729v14.96c0,2.898,0.387,3.178,3.689,3.411v1.217H14.726z M17.423,12.692
		c0-1.263,1.157-2.198,2.532-2.198c1.377,0,2.424,0.935,2.424,2.198c0,1.122-1.046,2.151-2.479,2.151
		C18.58,14.843,17.423,13.814,17.423,12.692z"/>
</g>
</svg>
