<?xml version="1.0" encoding="utf-8"?>
<!-- Generator: Adobe Illustrator 16.0.0, SVG Export Plug-In . SVG Version: 6.00 Build 0)  -->
<!DOCTYPE svg PUBLIC "-//W3C//DTD SVG 1.1//EN" "http://www.w3.org/Graphics/SVG/1.1/DTD/svg11.dtd">
<svg version="1.1" id="Layer_1" xmlns="http://www.w3.org/2000/svg" xmlns:xlink="http://www.w3.org/1999/xlink" x="0px" y="0px"
	 width="48px" height="48px" viewBox="0 0 48 48" enable-background="new 0 0 48 48" xml:space="preserve">
<defs>
<style type="text/css" id="current-color-scheme">
* { color: #333; }
.ColorScheme-Text { color: #333; }
.ColorScheme-Background { color: #fff; }
</style>
</defs>
<path class="ColorScheme-Background" fill="currentColor" d="M24.999,8.001H13.001V40h21.998V17.001c0-4.123-8-1-8-1C27.999,12.001,26.999,8.001,24.999,8.001z"/>
<path class="ColorScheme-Text" fill="currentColor" d="M27.999,6.001H13.001h-2v2V40v2h2h21.998h2v-2V16.001v-2L27.999,6.001z M34.999,40H13.001V8.001h11.998
	c2,0,3,4,2,8c0,0,8-3.123,8,1V40z"/>
<polyline class="ColorScheme-Text" fill="none" stroke="currentColor" stroke-width="2" stroke-miterlimit="10" points="17,29.088 17,35 31,35 31,29.088 "/>
<polygon class="ColorScheme-Text" fill="currentColor" points="22.402,18.84 22.396,25.174 19.565,25.171 23.992,31.47 28.436,25.181 25.603,25.178
	25.612,18.844 		"/>
</svg>
