<?xml version="1.0" encoding="utf-8"?>
<!-- Generator: Adobe Illustrator 16.1.0, SVG Export Plug-In . SVG Version: 6.00 Build 0)  -->
<!DOCTYPE svg PUBLIC "-//W3C//DTD SVG 1.1//EN" "http://www.w3.org/Graphics/SVG/1.1/DTD/svg11.dtd">
<svg version="1.1" id="Layer_1" xmlns="http://www.w3.org/2000/svg" xmlns:xlink="http://www.w3.org/1999/xlink" x="0px" y="0px"
	 width="48px" height="48px" viewBox="0 0 48 48" enable-background="new 0 0 48 48" xml:space="preserve">
<defs>
<style type="text/css" id="current-color-scheme">
* { color: #333; }
.ColorScheme-Text { color: #333; }
.ColorScheme-Disabled-Text { color: #666; }
.ColorScheme-Background { color: #fff; }
</style>
</defs>
<g class="ColorScheme-Disabled-Text" fill="currentColor">
	<rect x="17" y="9" width="2" height="30"/>
	<rect x="28" y="9" width="2" height="30"/>
</g>
<g class="ColorScheme-Text" fill="currentColor">
	<polygon points="13,22 13,24 9,24 9,25 2,25 2,31 9,31 13,31 16,31 16,22 	"/>
	<rect x="20" y="17" width="7" height="14"/>
	<polygon points="39,23 39,24 37,24 37,23 34,23 34,20 31,20 31,31 34,31 37,31 39,31 46,31 46,23 	"/>
</g>
</svg>
