<?xml version="1.0" encoding="utf-8"?>
<!-- Generator: Adobe Illustrator 16.1.0, SVG Export Plug-In . SVG Version: 6.00 Build 0)  -->
<!DOCTYPE svg PUBLIC "-//W3C//DTD SVG 1.1//EN" "http://www.w3.org/Graphics/SVG/1.1/DTD/svg11.dtd">
<svg version="1.1" id="Layer_1" xmlns="http://www.w3.org/2000/svg" xmlns:xlink="http://www.w3.org/1999/xlink" x="0px" y="0px"
	 width="48px" height="48px" viewBox="0 0 48 48" enable-background="new 0 0 48 48" xml:space="preserve">
<g>
	<g>
		<path fill="#333333" d="M17.965,32.468c0.787,0.051,1.852,0.203,2.512,0.355c0.178,0.559,0.229,1.802,0.127,2.336h-9.266
			c0.051-0.635,0.381-1.753,0.609-2.26c0.482-0.152,1.523-0.355,2.107-0.432V19.546h-2.818c-0.051,0.533-0.203,1.549-0.33,2.056
			c-0.914,0.305-2.082,0.355-2.945,0.355v-4.798h16.121v4.874c-0.965,0-2.107-0.101-2.971-0.354
			c-0.152-0.56-0.303-1.523-0.354-2.133h-2.793V32.468z"/>
	</g>
	<g>
		<g>
			<g>
				<path fill="#666666" d="M25.889,26.774c0.094,0.324,0.242,0.639,0.422,0.941c0.354,0.603,0.855,1.158,1.512,1.586
					c0.654,0.428,1.361,0.666,2.057,0.75c0.352,0.042,0.697,0.051,1.031,0.009l6.682-10.211c-0.98-0.069-1.998-0.399-2.926-1.007
					c-0.93-0.608-1.637-1.409-2.094-2.279L25.889,26.774z"/>
			</g>
		</g>
		<g>
			<path fill="#666666" d="M35.613,17.413c0.984,0.644,2.096,0.884,3.09,0.758l1.336-2.045l-5.02-3.285l-1.338,2.044
				C33.963,15.847,34.629,16.768,35.613,17.413z"/>
		</g>
		<g>
			<path fill="#666666" d="M24.762,28.497l-0.773,6.662l5.795-3.378c-0.846-0.124-2.262-0.286-3.057-0.806
				C25.932,30.454,25.215,29.222,24.762,28.497z"/>
		</g>
	</g>
</g>
</svg>
