<?xml version="1.0" encoding="utf-8"?>
<!-- Generator: Adobe Illustrator 16.1.0, SVG Export Plug-In . SVG Version: 6.00 Build 0)  -->
<!DOCTYPE svg PUBLIC "-//W3C//DTD SVG 1.1//EN" "http://www.w3.org/Graphics/SVG/1.1/DTD/svg11.dtd">
<svg version="1.1" id="Layer_1" xmlns="http://www.w3.org/2000/svg" xmlns:xlink="http://www.w3.org/1999/xlink" x="0px" y="0px"
	 width="48px" height="48px" viewBox="0 0 48 48" enable-background="new 0 0 48 48" xml:space="preserve">
<g>
	<path fill="#333333" d="M6,6v36h36V6H6z M40,14v8v1v8v1v8H30h-1H19h-1H8v-8v-1v-8v-1v-8v0h10l0,0h1l0,0h10l0,0h1l0,0L40,14L40,14z"
		/>
	<polygon fill="#666666" points="30,14 29,14 29,22 29,23 29,31 29,32 29,40 30,40 30,32 40,32 40,31 30,31 30,23 40,23 40,22 
		30,22 	"/>
	<polygon fill="#666666" points="19,31 19,23 19,22 19,14 18,14 18,22 8,22 8,23 18,23 18,31 8,31 8,32 18,32 18,40 19,40 19,32 	
		"/>
	<rect x="8" y="32" fill="#FFFFFF" width="10" height="8"/>
	<rect x="8" y="23" fill="#FFFFFF" width="10" height="8"/>
	<rect x="8" y="14" fill="#FFFFFF" width="10" height="0"/>
	<rect x="8" y="14" fill="#FFFFFF" width="10" height="8"/>
	<rect x="19" y="32" fill="#B2B2B2" width="10" height="8"/>
	<rect x="19" y="23" fill="#B2B2B2" width="10" height="8"/>
	<rect x="19" y="14" fill="#B2B2B2" width="10" height="0"/>
	<rect x="19" y="14" fill="#B2B2B2" width="10" height="8"/>
	<rect x="30" y="32" fill="#FFFFFF" width="10" height="8"/>
	<rect x="30" y="23" fill="#FFFFFF" width="10" height="8"/>
	<rect x="30" y="14" fill="#FFFFFF" width="10" height="0"/>
	<rect x="30" y="14" fill="#FFFFFF" width="10" height="8"/>
	<rect x="19" y="22" fill="#989898" width="10" height="1"/>
	<rect x="19" y="31" fill="#989898" width="10" height="1"/>
</g>
<g>
	<path fill="#333333" d="M24.811,24.011l-1.865,8.749c-0.332,1.568-1.029,2.85-2.096,3.844c-1.062,0.996-2.16,1.494-3.289,1.494
		c-0.619,0-1.076-0.119-1.369-0.355s-0.439-0.535-0.439-0.895c0-0.305,0.092-0.572,0.275-0.805c0.186-0.232,0.449-0.35,0.795-0.35
		c0.221,0,0.412,0.049,0.578,0.148c0.166,0.098,0.311,0.223,0.438,0.371c0.1,0.119,0.211,0.281,0.334,0.486
		c0.125,0.205,0.232,0.381,0.324,0.529c0.543-0.041,1.008-0.408,1.393-1.102c0.385-0.691,0.719-1.68,1-2.965l1.953-9.151h-2.07
		l0.223-0.964h2.041l0.152-0.718c0.168-0.817,0.438-1.554,0.805-2.21c0.367-0.655,0.783-1.212,1.248-1.67
		c0.461-0.451,0.98-0.805,1.564-1.062C27.387,17.129,27.945,17,28.482,17c0.621,0,1.078,0.119,1.371,0.354
		c0.293,0.237,0.439,0.535,0.439,0.896c0,0.303-0.086,0.572-0.26,0.805c-0.174,0.233-0.445,0.349-0.812,0.349
		c-0.221,0-0.41-0.047-0.574-0.143c-0.164-0.095-0.309-0.221-0.438-0.376c-0.141-0.175-0.254-0.343-0.338-0.498
		c-0.086-0.154-0.191-0.328-0.32-0.519c-0.488,0.021-0.92,0.342-1.297,0.962c-0.375,0.619-0.711,1.652-1.012,3.097l-0.238,1.12
		h2.674l-0.223,0.964H24.811z"/>
	<path fill="#333333" d="M26.865,33.395l2.463-3.654l-2.357-3.547h2.311l1.205,2.09l1.178-2.09h2.242l-2.369,3.514L34,33.395h-2.35
		l-1.24-2.17l-1.256,2.17H26.865z"/>
</g>
</svg>
