<?xml version="1.0" encoding="UTF-8" standalone="no"?>
<!-- Generator: Adobe Illustrator 16.1.0, SVG Export Plug-In . SVG Version: 6.00 Build 0)  -->

<svg
   xmlns:dc="http://purl.org/dc/elements/1.1/"
   xmlns:cc="http://creativecommons.org/ns#"
   xmlns:rdf="http://www.w3.org/1999/02/22-rdf-syntax-ns#"
   xmlns:svg="http://www.w3.org/2000/svg"
   xmlns="http://www.w3.org/2000/svg"
   xmlns:sodipodi="http://sodipodi.sourceforge.net/DTD/sodipodi-0.dtd"
   xmlns:inkscape="http://www.inkscape.org/namespaces/inkscape"
   version="1.1"
   id="Layer_1"
   x="0px"
   y="0px"
   width="48px"
   height="48px"
   viewBox="0 0 48 48"
   enable-background="new 0 0 48 48"
   xml:space="preserve"
   inkscape:version="0.91 r13725"
   sodipodi:docname="GoogleSheets.svg"><metadata
     id="metadata3773"><rdf:RDF><cc:Work
         rdf:about=""><dc:format>image/svg+xml</dc:format><dc:type
           rdf:resource="http://purl.org/dc/dcmitype/StillImage" /><dc:title></dc:title></cc:Work></rdf:RDF></metadata><defs
     id="defs3771" /><sodipodi:namedview
     pagecolor="#ffffff"
     bordercolor="#666666"
     borderopacity="1"
     objecttolerance="10"
     gridtolerance="10"
     guidetolerance="10"
     inkscape:pageopacity="0"
     inkscape:pageshadow="2"
     inkscape:window-width="1278"
     inkscape:window-height="762"
     id="namedview3769"
     showgrid="false"
     inkscape:zoom="4.9166667"
     inkscape:cx="-15.299296"
     inkscape:cy="25.464083"
     inkscape:window-x="0"
     inkscape:window-y="18"
     inkscape:window-maximized="0"
     inkscape:current-layer="Layer_1" /><path
     fill="#FFFFFF"
     d="M25,8H13v32h22V17c0-4.123-8-1-8-1C28,12,27,8,25,8z"
     id="path3765" /><path
     fill="#333333"
     d="M28,6H13h-2v2v32v2h2h22h2v-2V16v-2L28,6z M35,40H13V8h12c2,0,3,4,2,8c0,0,8-3.123,8,1V40z"
     id="path3767" /><path
     id="path3823"
     d="m 30.732076,17.651989 c 0,0 -4.748732,0 -6.331612,0 -2.838573,0 -5.509976,2.150531 -5.509976,4.641589 0,2.545638 1.934935,4.600091 4.822747,4.600091 0.20081,0 0.395957,-0.0043 0.586986,-0.01778 -0.187346,0.358855 -0.321379,0.762984 -0.321379,1.182527 0,0.707456 0.380549,1.281023 0.861716,1.749236 -0.363532,0 -0.714586,0.01056 -1.097691,0.01056 -3.51582,-4.2e-5 -6.221964,2.239247 -6.221964,4.561251 0,2.286981 2.966648,3.717392 6.482706,3.717392 4.008335,0 6.222109,-2.274311 6.222109,-4.561386 0,-1.833793 -0.541006,-2.931908 -2.213868,-4.11491 -0.572198,-0.40508 -1.666723,-1.390338 -1.666723,-1.96948 0,-0.678673 0.193679,-1.012998 1.215282,-1.811198 1.04712,-0.81819 1.78823,-1.968481 1.78823,-3.306311 0,-1.592854 -0.709442,-3.145202 -2.041128,-3.657376 l 2.007616,0 1.416949,-1.024244 z M 28.52057,33.14092 c 0.05022,0.212013 0.07764,0.430271 0.07764,0.652868 0,1.847926 -1.190746,3.291993 -4.607367,3.291993 -2.430233,0 -4.185377,-1.538453 -4.185377,-3.386277 0,-1.811104 2.176997,-3.318789 4.607136,-3.29251 0.567133,0.0059 1.095705,0.09726 1.575411,0.252611 1.319209,0.917532 2.265567,1.4358 2.532548,2.481315 z m -3.891082,-6.89265 c -1.631414,-0.04879 -3.181496,-1.824907 -3.463077,-3.966652 -0.281581,-2.1425 0.812189,-3.781901 2.443135,-3.73341 1.630608,0.04901 3.181496,1.767902 3.463221,3.909885 0.281343,2.142364 -0.812664,3.838999 -2.443279,3.790177 z"
     inkscape:connector-curvature="0"
     style="fill:#333;fill-opacity:1" /></svg>