<?xml version="1.0" encoding="utf-8"?>
<!-- Generator: Adobe Illustrator 16.1.0, SVG Export Plug-In . SVG Version: 6.00 Build 0)  -->
<!DOCTYPE svg PUBLIC "-//W3C//DTD SVG 1.1//EN" "http://www.w3.org/Graphics/SVG/1.1/DTD/svg11.dtd">
<svg version="1.1" id="Layer_1" xmlns="http://www.w3.org/2000/svg" xmlns:xlink="http://www.w3.org/1999/xlink" x="0px" y="0px"
	 width="48px" height="48px" viewBox="0 0 48 48" enable-background="new 0 0 48 48" xml:space="preserve">
<g>
	<path fill="#333333" d="M6,10v28h36V10H6z M40,36H8V12h32V36z"/>
	<path fill="#FFFFFF" d="M8,36h32V12H8V36z M16.814,21.181l3.064,3.063l4.164-8.171l4.008,8.171l3.062-3.063L38,31.056
		c-0.73-0.408-1.543-0.683-2.436-0.683c-1.943,0-3.885,1.554-5.824,1.554c-1.943,0-3.885-1.554-5.826-1.554
		s-3.883,1.554-5.824,1.554c-1.939,0-3.881-1.554-5.82-1.554c-0.826,0-1.582,0.235-2.27,0.59L16.814,21.181z"/>
	<path fill="#333333" d="M18.09,31.927c1.941,0,3.883-1.554,5.824-1.554s3.883,1.554,5.826,1.554c1.939,0,3.881-1.554,5.824-1.554
		c0.893,0,1.705,0.274,2.436,0.683l-6.887-9.875l-3.062,3.063l-4.008-8.171l-4.164,8.171l-3.064-3.063L10,30.963
		c0.688-0.354,1.443-0.59,2.27-0.59C14.209,30.373,16.15,31.927,18.09,31.927z M30.965,23.223l1.404,1.852l-2.277-0.744
		L30.965,23.223z M23.965,19.138l2.043,4.085l-2.043-1.021l-1.021,2.043l-1.021-1.021L23.965,19.138z"/>
	<polygon fill="#FFFFFF" points="30.965,23.223 30.092,24.33 32.369,25.074 	"/>
	<polygon fill="#FFFFFF" points="23.965,22.201 26.008,23.223 23.965,19.138 21.922,23.223 22.943,24.244 	"/>
</g>
</svg>
