<?xml version="1.0" encoding="utf-8"?>
<!-- Generator: Adobe Illustrator 16.0.0, SVG Export Plug-In . SVG Version: 6.00 Build 0)  -->
<!DOCTYPE svg PUBLIC "-//W3C//DTD SVG 1.1//EN" "http://www.w3.org/Graphics/SVG/1.1/DTD/svg11.dtd">
<svg version="1.1" id="Layer_1" xmlns="http://www.w3.org/2000/svg" xmlns:xlink="http://www.w3.org/1999/xlink" x="0px" y="0px"
	 width="48px" height="48px" viewBox="0 0 48 48" enable-background="new 0 0 48 48" xml:space="preserve">
<path fill-rule="evenodd" clip-rule="evenodd" fill="#333333" stroke="#333333" stroke-width="0.25" stroke-miterlimit="10" d="
	M8.142,40.046c0-8.652,0-17.329,0-26.006c0.204-0.415,0.499-0.741,0.958-0.951c11.743,0,23.527,0,35.313,0
	c1.028-0.162,1.53,0.701,1.531,1.551c0.006,5.081,0.004,10.161,0.004,15.239c0,3.109,0.002,6.219-0.005,9.327
	c0,0.329-0.051,0.657-0.075,0.955c-0.335,0.375-0.624,0.722-1.118,0.776c-0.093,0.009-0.18,0.062-0.272,0.075
	c-0.1,0.015-0.203,0.004-0.303,0.004c-11.462,0-22.922,0-34.382,0.002c-0.575,0-1.079-0.146-1.456-0.604
	C8.266,40.329,8.229,40.215,8.142,40.046z M10.845,15.781c0,7.506,0,14.958,0,22.41c2.229,0.092,31.878,0.053,32.399-0.04
	c0-7.455,0-14.908,0-22.37C32.438,15.781,21.652,15.781,10.845,15.781z"/>
<path fill-rule="evenodd" clip-rule="evenodd" fill="#333333" stroke="#333333" stroke-width="0.25" stroke-miterlimit="10" d="
	M4.739,9.694c0,7.508,0,15,0,22.534c0.433,0,0.869,0,1.317,0c0,0.91,0,1.779,0,2.69c-0.913,0-1.825,0.044-2.729-0.019
	c-0.467-0.032-0.936-0.229-1.136-0.748c-0.034-0.088-0.072-0.174-0.138-0.335c0-8.569,0-17.223,0-25.894
	c0.194-0.396,0.49-0.723,0.949-0.933c11.7,0,23.444,0.003,35.187-0.011c0.626,0,1.145,0.099,1.489,0.668
	c0.232,0.446,0.169,0.946,0.172,1.437c0.002,0.627,0.001,1.256,0.001,1.907c-0.881,0-1.749,0-2.664,0
	c-0.056-0.406,0.007-0.846-0.033-1.298C26.348,9.694,15.55,9.694,4.739,9.694z"/>
<path fill-rule="evenodd" clip-rule="evenodd" fill="none" d="M10.845,15.781c10.808,0,21.593,0,32.399,0c0,7.462,0,14.915,0,22.37
	c-0.521,0.093-30.17,0.132-32.399,0.04C10.845,30.739,10.845,23.287,10.845,15.781z M30.269,21.598
	c-1.951,3.032-3.891,6.048-5.83,9.063c-0.06-0.054-0.108-0.132-0.147-0.127c-0.262,0.029-0.497-0.074-0.744-0.119
	c-0.266-0.048-0.533-0.031-0.807-0.112c-0.28-0.083-0.605-0.003-0.908-0.022c-0.29-0.02-0.58-0.063-0.864-0.121
	c-0.328-0.069-0.614,0.13-0.925,0.121c-0.672-0.021-1.322,0.064-1.974,0.237c-0.53,0.143-1.066,0.256-1.562,0.499
	c-0.602,0.295-1.177,0.645-1.683,1.078c-0.458,0.393-0.774,0.92-1.065,1.444c-0.189,0.343-0.309,0.725-0.474,1.124
	c0,0.088,0,0.223,0,0.348c9.194,0,18.367,0,27.601,0c-1.182-3.367-2.311-6.7-3.378-10.055c-0.005-0.016-0.027-0.03-0.044-0.037
	c-0.019-0.006-0.041-0.001-0.072-0.001c-0.401,0.549-0.818,1.095-1.208,1.659c-0.388,0.563-0.778,1.123-1.274,1.786
	c-0.072-0.149-0.101-0.229-0.145-0.296c-0.472-0.72-0.914-1.462-1.429-2.149c-0.716-0.957-1.379-1.949-2.063-2.928
	C30.953,22.531,30.618,22.083,30.269,21.598z M19.312,20.041c-0.848,0-0.845,0.003-1.74,0.486c-0.506,0.273-0.837,0.721-1.125,1.182
	c-0.263,0.42-0.374,0.946-0.355,1.422c0.03,0.766,0.25,1.5,0.82,2.089c0.605,0.625,1.298,1.008,2.188,1.049
	c0.668,0.03,1.247-0.157,1.811-0.49c0.476-0.282,0.788-0.708,1.098-1.136c0.315-0.435,0.213-0.997,0.402-1.475
	c-0.173-0.465-0.093-0.994-0.366-1.431c-0.294-0.47-0.624-0.918-1.105-1.204C20.425,20.229,19.891,19.952,19.312,20.041z"/>
<path fill-rule="evenodd" clip-rule="evenodd" fill="#707070" stroke="#707070" stroke-miterlimit="10" d="M30.269,21.598
	c0.35,0.485,0.685,0.934,1.004,1.393c0.685,0.979,1.348,1.971,2.063,2.928c0.515,0.688,0.957,1.43,1.429,2.149
	c0.044,0.067,0.072,0.146,0.145,0.296c0.496-0.663,0.887-1.223,1.274-1.786c0.39-0.564,0.807-1.11,1.208-1.659
	c0.031,0,0.054-0.005,0.072,0.001c0.017,0.007,0.039,0.021,0.044,0.037c1.067,3.354,2.196,6.688,3.378,10.055
	c-9.234,0-18.407,0-27.601,0c0-0.125,0-0.26,0-0.348c0.165-0.399,0.285-0.781,0.474-1.124c0.291-0.524,0.607-1.052,1.065-1.444
	c0.506-0.434,1.081-0.783,1.683-1.078c0.496-0.243,1.032-0.356,1.562-0.499c0.652-0.173,1.302-0.259,1.974-0.237
	c0.312,0.009,0.598-0.19,0.925-0.121c0.285,0.058,0.574,0.102,0.864,0.121c0.303,0.02,0.628-0.061,0.908,0.022
	c0.273,0.081,0.541,0.064,0.807,0.112c0.247,0.045,0.482,0.148,0.744,0.119c0.039-0.005,0.088,0.073,0.147,0.127
	C26.378,27.646,28.317,24.63,30.269,21.598z"/>
<path fill-rule="evenodd" clip-rule="evenodd" fill="#707070" stroke="#707070" stroke-miterlimit="10" d="M19.312,20.041
	c0.58-0.088,1.114,0.189,1.627,0.493c0.481,0.286,0.812,0.734,1.105,1.204c0.273,0.437,0.193,0.966,0.366,1.431
	c-0.189,0.478-0.087,1.04-0.402,1.475c-0.311,0.428-0.622,0.854-1.098,1.136c-0.564,0.333-1.142,0.521-1.811,0.49
	c-0.89-0.041-1.583-0.424-2.188-1.049c-0.569-0.589-0.79-1.323-0.82-2.089c-0.019-0.477,0.092-1.002,0.355-1.422
	c0.288-0.461,0.619-0.909,1.125-1.182C18.466,20.044,18.464,20.041,19.312,20.041z"/>
</svg>
