<?xml version="1.0" encoding="utf-8"?>
<!-- Generator: Adobe Illustrator 16.1.0, SVG Export Plug-In . SVG Version: 6.00 Build 0)  -->
<!DOCTYPE svg PUBLIC "-//W3C//DTD SVG 1.1//EN" "http://www.w3.org/Graphics/SVG/1.1/DTD/svg11.dtd">
<svg version="1.1" id="Layer_1" xmlns="http://www.w3.org/2000/svg" xmlns:xlink="http://www.w3.org/1999/xlink" x="0px" y="0px"
	 width="48px" height="48px" viewBox="0 0 48 48" enable-background="new 0 0 48 48" xml:space="preserve">
<defs>
<style type="text/css" id="current-color-scheme">
* { color: #333; }
.ColorScheme-Text { color: #333; }
.ColorScheme-Background { color: #fff; }
</style>
</defs>
<g>
	<rect class="ColorScheme-Text" fill="currentColor" x="7" y="7" width="34" height="34"/>
	<g class="ColorScheme-Background" fill="currentColor">
		<rect x="30" y="8" width="10" height="10"/>
		<rect x="8" y="19" width="10" height="10"/>
		<rect x="19" y="19" width="10" height="10"/>
		<rect x="8" y="30" width="10" height="10"/>
		<rect x="30" y="30" width="10" height="10"/>
		<rect x="19" y="8" width="10" height="10"/>
		<rect x="30" y="19" width="10" height="10"/>
		<rect x="8" y="8" width="10" height="10"/>
		<rect x="19" y="30" width="10" height="10"/>
	</g>
	<g class="ColorScheme-Text" fill="currentColor">
		<rect x="30" y="19" opacity="0.4" width="10" height="10"/>
		<rect x="8" y="8" opacity="0.4" width="10" height="10"/>
		<rect x="19" y="30" opacity="0.4" width="10" height="10"/>

		<rect x="32" y="21" opacity="0.7" width="6" height="6"/>
		<rect x="10" y="10" opacity="0.7" width="6" height="6"/>
		<rect x="21" y="32" opacity="0.7" width="6" height="6"/>
	</g>
</g>
</svg>
