<?xml version="1.0" encoding="utf-8"?>
<!-- Generator: Adobe Illustrator 16.0.0, SVG Export Plug-In . SVG Version: 6.00 Build 0)  -->
<!DOCTYPE svg PUBLIC "-//W3C//DTD SVG 1.1//EN" "http://www.w3.org/Graphics/SVG/1.1/DTD/svg11.dtd">
<svg version="1.1" id="Layer_1" xmlns="http://www.w3.org/2000/svg" xmlns:xlink="http://www.w3.org/1999/xlink" x="0px" y="0px"
	 width="48px" height="48px" viewBox="0 0 48 48" enable-background="new 0 0 48 48" xml:space="preserve">
<polygon fill="#FFFFFF" stroke="#FFFFFF" stroke-miterlimit="10" points="103.667,6.024 103.667,39.837 127.792,39.837 
	127.792,13.837 119.167,6.024 "/>
<g id="zXDtGm_1_">
</g>
<path fill="#707070" d="M119.667,4.594h-15h-2v2v32v2h2h22h2v-2v-24v-2L119.667,4.594z M126.667,38.595h-22v-32h12c2,0,3,4,2,8
	c0,0,8-3.123,8,1V38.595z"/>
<circle fill="#333333" cx="115.106" cy="22.129" r="4.611"/>
<circle fill="#333333" cx="120.203" cy="34.056" r="3.745"/>
<circle fill="#333333" cx="128.388" cy="27.399" r="3.744"/>
<circle fill="#333333" cx="103.948" cy="28.739" r="3.744"/>
<polyline fill="none" stroke="#333333" stroke-miterlimit="10" points="102.948,29.739 115.106,22.129 120.202,34.056 "/>
<line fill="none" stroke="#333333" stroke-miterlimit="10" x1="128.388" y1="27.399" x2="115.106" y2="22.129"/>
<polyline fill="none" stroke="#333333" stroke-width="2" stroke-miterlimit="10" points="3.562,9.523 9.191,9.523 17.59,33.124 
	35.013,33.124 "/>
<ellipse fill="none" stroke="#333333" stroke-width="2.2" stroke-miterlimit="10" cx="34.428" cy="35.831" rx="2.472" ry="2.645"/>
<ellipse fill="none" stroke="#333333" stroke-width="2.2" stroke-miterlimit="10" cx="18.147" cy="35.831" rx="2.472" ry="2.645"/>
<polyline fill="none" stroke="#333333" stroke-width="2" stroke-miterlimit="10" points="10.981,14.555 39.837,14.555 
	36.085,28.085 15.676,28.085 "/>
<line fill="none" stroke="#333333" stroke-miterlimit="10" x1="13.55" y1="21.774" x2="37.835" y2="21.774"/>
<line fill="none" stroke="#333333" stroke-miterlimit="10" x1="21.253" y1="14.555" x2="21.924" y2="27.29"/>
<line fill="none" stroke="#333333" stroke-miterlimit="10" x1="29.831" y1="14.976" x2="28.937" y2="27.29"/>
</svg>
