<?xml version="1.0" encoding="utf-8"?>
<!-- Generator: Adobe Illustrator 16.1.0, SVG Export Plug-In . SVG Version: 6.00 Build 0)  -->
<!DOCTYPE svg PUBLIC "-//W3C//DTD SVG 1.1//EN" "http://www.w3.org/Graphics/SVG/1.1/DTD/svg11.dtd">
<svg version="1.1" id="Layer_1" xmlns="http://www.w3.org/2000/svg" xmlns:xlink="http://www.w3.org/1999/xlink" x="0px" y="0px"
	 width="48px" height="48px" viewBox="0 0 48 48" enable-background="new 0 0 48 48" xml:space="preserve">
<path fill="#333333" d="M23,22v-4h-2H7v21h14h2v-5h-2v-4h2v-4h-2v-4H23z M20,20v8v1v8h-5h-1H9v-8v-1v-8v0h5h1L20,20L20,20z"/>
<polygon fill="#666666" points="15,20 14,20 14,28 9,28 9,29 14,29 14,37 15,37 15,29 20,29 20,28 15,28 "/>
<rect x="15" y="29" fill="#FFFFFF" width="5" height="8"/>
<rect x="9" y="29" fill="#FFFFFF" width="5" height="8"/>
<rect x="15" y="20" fill="#FFFFFF" width="5" height="0"/>
<rect x="15" y="20" fill="#FFFFFF" width="5" height="8"/>
<rect x="9" y="20" fill="#FFFFFF" width="5" height="0"/>
<rect x="9" y="20" fill="#FFFFFF" width="5" height="8"/>
<path fill="#333333" d="M27,9h-1v9h1v4h-2v4h2v4h-2v4h2v5h14V9H27z M39,11v8v1v8v1v8h-5h-1h-5v-8v-1v-8v-1v-8v0h5l0,0h1l0,0L39,11
	L39,11z"/>
<polygon fill="#666666" points="34,11 33,11 33,19 28,19 28,20 33,20 33,28 28,28 28,29 33,29 33,37 34,37 34,29 39,29 39,28 34,28 
	34,20 39,20 39,19 34,19 "/>
<rect x="34" y="29" fill="#FFFFFF" width="5" height="8"/>
<rect x="28" y="29" fill="#FFFFFF" width="5" height="8"/>
<rect x="34" y="20" fill="#FFFFFF" width="5" height="8"/>
<rect x="28" y="20" fill="#FFFFFF" width="5" height="8"/>
<rect x="34" y="11" fill="#FFFFFF" width="5" height="0"/>
<rect x="34" y="11" fill="#FFFFFF" width="5" height="8"/>
<rect x="28" y="11" fill="#FFFFFF" width="5" height="0"/>
<rect x="28" y="11" fill="#FFFFFF" width="5" height="8"/>
</svg>
