<?xml version="1.0" encoding="utf-8"?>
<!-- Svg Vector Icons : http://www.onlinewebfonts.com/icon -->
<!DOCTYPE svg PUBLIC "-//W3C//DTD SVG 1.1//EN" "http://www.w3.org/Graphics/SVG/1.1/DTD/svg11.dtd">
<svg version="1.1" xmlns="http://www.w3.org/2000/svg" xmlns:xlink="http://www.w3.org/1999/xlink" x="0px" y="0px" viewBox="0 0 1000 1000" enable-background="new 0 0 1000 1000" xml:space="preserve">
<metadata> Svg Vector Icons : http://www.onlinewebfonts.com/icon </metadata>
<g><path d="M489.6,184.6c230.2-2.7,423.6,57.3,431.7,133.7c8.1,76.5-172.3,140.8-402.5,143.4C288.6,464.5,95.1,404.5,87.1,328C79,251.6,259.3,187.3,489.6,184.6z"/><path d="M87.1,501.5c-0.4-3.3-0.4-6.6,0-9.8l0-151.5h0.2c-0.4,3.2-0.3,6.4,0,9.7c8,76.5,201.5,136.4,431.7,133.8c220.3-2.6,394.9-61.5,402.5-133.6v151.5h-0.3c-7.4,72.1-182.1,131.2-402.5,133.8C288.6,637.9,95.1,578,87.1,501.5L87.1,501.5z"/><path d="M87.1,678.8c-0.4-3.3-0.4-6.6,0-9.8l0-151.5h0.2c-0.4,3.2-0.3,6.5,0,9.7c8,76.5,201.5,136.4,431.7,133.8c220.3-2.6,394.9-61.6,402.5-133.6v151.4h-0.3C913.9,751,739.2,810,518.8,812.6C288.6,815.2,95.2,755.3,87.1,678.8L87.1,678.8z"/><path d="M87.1,856.1c-0.4-3.3-0.4-6.6,0-9.8l0-151.5h0.2c-0.4,3.2-0.3,6.5,0,9.7c8,76.5,201.5,136.4,431.7,133.8c220.3-2.6,394.9-61.5,402.5-133.6v151.5h-0.3c-7.4,72.2-182.1,131.2-402.5,133.8C288.6,992.6,95.2,932.6,87.1,856.1z"/><path d="M700.7,10h-17.7v116.2h83.1l11.3-19h-76.6V10z M458.3,15.8l-64.8,110.5h21.4l19.5-33.4h41.8l11-19h-41.8l22.8-38.3l53.3,90.6H543L477.6,15.5C473.6,8.3,462.9,8.3,458.3,15.8L458.3,15.8z M584,29h74.3l11-18.9l-85.8,0c-29.9,0-49.6,26-49.6,58.1c0,32.1,19.7,58.1,49.6,58.1l72.6-0.1l11.4-18.8H584c-20.1,0-31.9-17.5-31.9-39.2C552.1,46.5,563.8,29,584,29z M204.6,10H128c-29.9,0-49.5,26-49.5,58.1c0,32.1,19.7,58.1,49.5,58.1h76.6c29.9,0,49.5-26,49.5-58.1C254.1,36,234.4,10,204.6,10L204.6,10z M204.6,107.3H128c-20.1,0-31.9-17.5-31.9-39.2S107.8,29,128,29h76.6c20.1,0,31.9,17.5,31.9,39.2S224.7,107.3,204.6,107.3z M796.8,77.3h93.6l11.3-19H796.8c3-16.8,14.1-29.4,31.1-29.4h74.4l11-18.9l-85.8,0c-29.9,0-49.5,26-49.5,58.1s19.7,58.1,49.5,58.1l72.6-0.1l11.4-18.8h-83.5C810.7,107.3,799.7,94.5,796.8,77.3L796.8,77.3z M354.9,79c17.7,0,32.1-15.4,32.1-34.5c0-19-14.4-34.5-32.1-34.5l-90.2,0v116.2h19.8V29h70.3c8,0,14.5,6.9,14.5,15.6c0,8.6-6.5,15.6-14.5,15.6h-56.4l63.6,66h25.6l-45.5-47L354.9,79z"/></g>
</svg>