<?xml version="1.0" encoding="utf-8"?>
<!-- Generator: Adobe Illustrator 16.1.0, SVG Export Plug-In . SVG Version: 6.00 Build 0)  -->
<!DOCTYPE svg PUBLIC "-//W3C//DTD SVG 1.1//EN" "http://www.w3.org/Graphics/SVG/1.1/DTD/svg11.dtd">
<svg version="1.1" id="Layer_1" xmlns="http://www.w3.org/2000/svg" xmlns:xlink="http://www.w3.org/1999/xlink" x="0px" y="0px"
	 width="48px" height="48px" viewBox="0 0 48 48" enable-background="new 0 0 48 48" xml:space="preserve">
<g>
	<path fill="#333333" d="M6,6v36h36V6H6z M40,14v8v1v8v1v8H30h-1H19h-1H8v-8v-1v-8v-1v-8v0h10l0,0h1l0,0h10l0,0h1l0,0L40,14L40,14z"
		/>
	<path fill="#666666" d="M30,14h-1v8H19v-8h-1v8H8v1h10h1v8h-1H8v1h10v8h1v-8h10v8h1v-8h10v-1H30v-8h10v-1H30V14z M30,31h-1H19v-8
		h10h1V31z"/>
	<rect x="8" y="32" fill="#FFFFFF" width="10" height="8"/>
	<rect x="8" y="23" fill="#B2B2B2" width="10" height="8"/>
	<rect x="8" y="14" fill="#FFFFFF" width="10" height="0"/>
	<rect x="8" y="14" fill="#FFFFFF" width="10" height="8"/>
	<rect x="19" y="32" fill="#FFFFFF" width="10" height="8"/>
	<rect x="19" y="23" fill="#B2B2B2" width="10" height="8"/>
	<rect x="19" y="14" fill="#FFFFFF" width="10" height="0"/>
	<rect x="19" y="14" fill="#FFFFFF" width="10" height="8"/>
	<rect x="30" y="32" fill="#FFFFFF" width="10" height="8"/>
	<rect x="30" y="23" fill="#B2B2B2" width="10" height="8"/>
	<rect x="30" y="14" fill="#FFFFFF" width="10" height="0"/>
	<rect x="30" y="14" fill="#FFFFFF" width="10" height="8"/>
	<rect x="18" y="23" fill="#989898" width="1" height="8"/>
	<rect x="29" y="23" fill="#989898" width="1" height="8"/>
</g>
<g>
	
		<rect x="34.258" y="17.069" transform="matrix(-0.8986 -0.4387 0.4387 -0.8986 57.8587 64.4621)" fill="#333333" width="4.238" height="16.954"/>
	<path fill="#333333" d="M29.48,34.842c-0.059-0.004-0.118-0.004-0.177-0.004c-1.568,0-3.075,0.871-3.809,2.377
		c-0.458,0.936-0.64,1.984-1.146,2.912c-0.395,0.723-0.917,1.361-1.596,1.834c-0.962,0.668-2.174,1.078-3.315,1.322
		c-0.244,0.051-0.463,0.057-0.709,0.062C21.675,44.549,24.048,45,25.949,45c5.708,0,7.163-4.066,7.163-4.066
		c0.611-1.252,0.536-2.652-0.057-3.805l0.021,0.012l0.744-1.523l-3.809-1.859L29.48,34.842z"/>
	<path fill="#FFFFFF" d="M42.439,17.96l-3.808-1.859c-0.138-0.067-0.288-0.102-0.439-0.102c-0.11,0-0.22,0.018-0.325,0.054
		c-0.251,0.086-0.457,0.269-0.573,0.507l-7.438,15.237c-0.117,0.238-0.133,0.512-0.047,0.764c0.027,0.078,0.078,0.141,0.122,0.209
		c-0.339,0.027-0.657,0.221-0.817,0.549l-0.264,0.539c-1.833,0.154-3.437,1.244-4.253,2.918c-0.24,0.492-0.406,0.988-0.567,1.469
		c-0.169,0.506-0.328,0.982-0.558,1.402c-0.348,0.637-0.782,1.139-1.29,1.494c-0.726,0.504-1.748,0.906-2.953,1.164
		c-0.146,0.031-0.294,0.035-0.524,0.041c-0.473,0.012-0.874,0.354-0.959,0.818c-0.086,0.467,0.167,0.928,0.605,1.107
		C21.16,45.418,23.717,46,25.949,46c6.022,0,7.854-4.094,8.081-4.67c0.628-1.316,0.674-2.801,0.141-4.156l0.546-1.119
		c0.117-0.238,0.133-0.512,0.047-0.764c-0.027-0.078-0.078-0.143-0.123-0.211c0.083-0.006,0.166-0.012,0.246-0.041
		c0.251-0.086,0.457-0.268,0.573-0.506l7.438-15.236C43.141,18.801,42.935,18.202,42.439,17.96z M33.112,40.934
		c0,0-1.454,4.066-7.163,4.066c-1.901,0-4.274-0.451-7.222-1.654c0.246-0.006,0.466-0.012,0.709-0.062
		c1.141-0.244,2.353-0.654,3.315-1.322c0.679-0.473,1.201-1.111,1.596-1.834c0.506-0.928,0.688-1.977,1.146-2.912
		c0.734-1.506,2.241-2.377,3.809-2.377c0.059,0,0.118,0,0.177,0.004l0.53-1.084l3.809,1.859l-0.744,1.523l-0.021-0.012
		C33.647,38.281,33.723,39.682,33.112,40.934z M34.562,34.094l-3.809-1.859l7.438-15.235L42,18.858L34.562,34.094z"/>
</g>
</svg>
