<?xml version="1.0" encoding="utf-8"?>
<!-- Generator: Adobe Illustrator 16.1.0, SVG Export Plug-In . SVG Version: 6.00 Build 0)  -->
<!DOCTYPE svg PUBLIC "-//W3C//DTD SVG 1.1//EN" "http://www.w3.org/Graphics/SVG/1.1/DTD/svg11.dtd">
<svg version="1.1" id="Layer_1" xmlns="http://www.w3.org/2000/svg" xmlns:xlink="http://www.w3.org/1999/xlink" x="0px" y="0px"
	 width="48px" height="48px" viewBox="0 0 48 48" enable-background="new 0 0 48 48" xml:space="preserve">
<g>
	<g>
		<circle fill="#989898" cx="24.19" cy="22.775" r="1.5"/>
	</g>
	<g>
		<path fill="#989898" d="M25.733,26.122c0.191,0.806,0.998,1.304,1.805,1.111c0.807-0.191,1.305-1.001,1.111-1.806
			c-0.089-0.376-0.315-0.68-0.61-0.883l-2.312,1.524C25.729,26.086,25.729,26.104,25.733,26.122z"/>
	</g>
	<g>
		<circle fill="#989898" cx="25.19" cy="19.775" r="1.5"/>
	</g>
	<g>
		<circle fill="#989898" cx="33.19" cy="26.275" r="1.5"/>
	</g>
	<g>
		<path fill="#989898" d="M31.843,18.316c-0.805,0.192-1.303,1.001-1.109,1.807c0.017,0.072,0.045,0.138,0.071,0.205l2.443-1.61
			C32.892,18.362,32.368,18.19,31.843,18.316z"/>
	</g>
	<g>
		<circle fill="#989898" cx="34.191" cy="22.775" r="1.5"/>
	</g>
	<g>
		<circle fill="#989898" cx="29.191" cy="16.775" r="1.5"/>
	</g>
	<g>
		<circle fill="#989898" cx="33.69" cy="15.693" r="1.5"/>
	</g>
	<g>
		<circle fill="#989898" cx="42.809" cy="18.275" r="1.499"/>
	</g>
	<g>
		<path fill="#989898" d="M21.699,28.721c-0.005,0.133,0.002,0.267,0.034,0.401c0.191,0.806,1,1.304,1.805,1.111
			c0.807-0.191,1.305-1.001,1.113-1.806c-0.118-0.497-0.472-0.876-0.914-1.049l-1.209,0.796L21.699,28.721z"/>
	</g>
	<g>
		<g>
			<circle fill="#989898" cx="16.191" cy="28.774" r="1.5"/>
		</g>
		<g>
			<path fill="#989898" d="M19.579,27.332c-0.233-0.062-0.483-0.076-0.734-0.017c-0.807,0.192-1.305,1.001-1.111,1.807
				c0.191,0.806,1,1.304,1.805,1.111c0.614-0.146,1.048-0.651,1.136-1.239L19.579,27.332z"/>
		</g>
	</g>
	<g>
		<path fill="#989898" d="M20.649,31.428c-0.191-0.807-1-1.305-1.807-1.112c-0.805,0.192-1.303,1.001-1.109,1.807
			c0.026,0.11,0.066,0.214,0.114,0.312c-0.302-0.148-0.652-0.202-1.005-0.118c-0.805,0.192-1.303,1.001-1.109,1.807
			c0.191,0.806,0.998,1.304,1.805,1.111c0.807-0.191,1.305-1.001,1.111-1.806c-0.026-0.11-0.066-0.214-0.114-0.312
			c0.302,0.147,0.65,0.201,1.003,0.117C20.345,33.042,20.843,32.232,20.649,31.428z"/>
	</g>
	<g>
		<circle fill="#989898" cx="11.191" cy="29.774" r="1.5"/>
	</g>
	<g>
		<circle fill="#989898" cx="13.191" cy="36.774" r="1.5"/>
	</g>
	<g>
		<circle fill="#989898" cx="14.191" cy="32.774" r="1.5"/>
	</g>
	<g>
		<circle fill="#989898" cx="10.19" cy="34.774" r="1.5"/>
	</g>
	<g>
		<path fill="#989898" d="M28.731,24.623c0.191,0.805,1,1.303,1.807,1.111c0.807-0.191,1.305-1,1.111-1.805
			c-0.128-0.54-0.534-0.935-1.029-1.084l-1.914,1.261C28.687,24.274,28.689,24.448,28.731,24.623z"/>
	</g>
	<g>
		<g>
			<path fill="#989898" d="M40.649,18.428c-0.085-0.359-0.297-0.651-0.572-0.854l-0.973,2.48l-1.31-1.823
				c-0.106,0.274-0.136,0.583-0.062,0.891c0.191,0.806,0.998,1.304,1.805,1.111C40.345,20.042,40.843,19.233,40.649,18.428z"/>
		</g>
		<g>
			<path fill="#989898" d="M37.589,18.253l-2.434,1.603c0.354,0.34,0.868,0.5,1.383,0.378c0.807-0.191,1.305-1.001,1.111-1.806
				C37.635,18.367,37.61,18.311,37.589,18.253z"/>
		</g>
	</g>
	<g>
		<path fill="#989898" d="M23.535,25.116c-0.301-0.617-0.996-0.966-1.692-0.8c-0.576,0.138-0.989,0.592-1.11,1.134l0.695,1.055
			L23.535,25.116z"/>
	</g>
	<g>
		<circle fill="#989898" cx="7.192" cy="32.775" r="1.5"/>
	</g>
	<g>
		<circle fill="#989898" cx="5.19" cy="37.774" r="1.5"/>
	</g>
	<g>
		<circle fill="#989898" cx="9.19" cy="38.774" r="1.5"/>
	</g>
	<g>
		<circle fill="#989898" cx="22.19" cy="31.774" r="1.5"/>
	</g>
	<g>
		<circle fill="#989898" cx="13.19" cy="26.774" r="1.5"/>
	</g>
	<g>
		<path fill="#989898" d="M30.649,20.428c-0.191-0.807-1-1.305-1.807-1.112c-0.805,0.192-1.303,1.001-1.109,1.807
			c0.085,0.358,0.296,0.65,0.569,0.853L30.649,20.428C30.649,20.429,30.649,20.429,30.649,20.428z"/>
	</g>
	<g>
		<circle fill="#989898" cx="27.19" cy="29.774" r="1.5"/>
	</g>
	<g>
		<circle fill="#989898" cx="38.19" cy="21.775" r="1.5"/>
	</g>
	<polygon fill="#333333" points="35.284,14.736 36.571,16.528 33.248,18.717 30.805,20.327 30.649,20.429 28.303,21.975 
		23.535,25.116 21.428,26.505 20.732,25.45 11.407,11.294 13.308,9.929 7.69,7.725 7.989,13.75 9.781,12.462 19.579,27.332 
		20.674,28.994 20.858,29.274 21.699,28.721 22.528,28.175 23.737,27.379 25.727,26.068 28.039,24.544 28.706,24.105 30.62,22.844 
		35.155,19.856 37.589,18.253 37.739,18.154 37.795,18.231 39.104,20.054 40.077,17.574 41.308,14.438 	"/>
</g>
</svg>
