<?xml version="1.0" encoding="utf-8"?>
<!-- Generator: Adobe Illustrator 23.0.4, SVG Export Plug-In . SVG Version: 6.00 Build 0)  -->
<svg version="1.1" id="Layer_1" xmlns="http://www.w3.org/2000/svg" xmlns:xlink="http://www.w3.org/1999/xlink" x="0px" y="0px"
	 viewBox="0 0 48 48" style="enable-background:new 0 0 48 48;" xml:space="preserve">
<style type="text/css">
	.st0{fill:#FFFFFF;}
	.st1{fill:#333333;}
	.st2{fill:none;stroke:#000000;stroke-width:2.5;stroke-miterlimit:10;}
</style>
<g id="zXDtGm_1_">
</g>
<g>
	<rect x="6.9" y="10.6" class="st0" width="34.1" height="30.6"/>
	<path class="st1" d="M6,6v36h36V6H6z M40,22L40,22v1l0,0v8l0,0v1l0,0v8l0,0H30h-1H19h-1H8l0,0V14l0,0h10h1h10h1h10l0,0V22z"/>
	<rect x="40" y="32" class="st0" width="0" height="8"/>
	<rect x="40" y="23" class="st0" width="0" height="8"/>
	<rect x="40" y="14" class="st0" width="0" height="8"/>
	<rect x="-8" y="20" transform="matrix(4.486817e-11 -1 1 4.486817e-11 -14 34)" class="st1" width="36" height="8"/>
	<g>
		<g>
			<path class="st2" d="M21.1,34.2c0,0,5.8,0.6,9.6-3.3c1.9-1.9,3.2-4.9,3.2-9.5"/>
			<g>
				<polygon points="21.9,38.6 14.8,33.5 22.8,30 				"/>
			</g>
			<g>
				<polygon points="38.3,22.6 33.9,15.1 29.5,22.6 				"/>
			</g>
		</g>
	</g>
</g>
</svg>
