<?xml version="1.0" encoding="utf-8"?>
<!-- Generator: Adobe Illustrator 16.1.0, SVG Export Plug-In . SVG Version: 6.00 Build 0)  -->
<!DOCTYPE svg PUBLIC "-//W3C//DTD SVG 1.1//EN" "http://www.w3.org/Graphics/SVG/1.1/DTD/svg11.dtd">
<svg version="1.1" id="Layer_1" xmlns="http://www.w3.org/2000/svg" xmlns:xlink="http://www.w3.org/1999/xlink" x="0px" y="0px"
	 width="48px" height="48px" viewBox="0 0 48 48" enable-background="new 0 0 48 48" xml:space="preserve">
<g>
	<g>
		<path fill="#333333" d="M29.385,19.796v-2.145l-3.217-1.072l-0.58-1.613l1.518-3.033l-1.516-1.515l-3.033,1.516l-1.75-0.717
			L19.734,8H17.59l-1.072,3.217l-1.609,0.547l-3.033-1.518l-1.518,1.516l1.518,3.033l-0.721,1.784l-3.217,1.072v2.144l3.217,1.074
			l0.723,1.775l-1.52,3.034l1.518,1.515l3.033-1.516l1.609,0.553l1.072,3.219h2.143l1.074-3.219l1.75-0.722l3.033,1.519l1.516-1.516
			l-1.516-3.034l0.578-1.608L29.385,19.796z M18.662,21.941c-1.777,0-3.217-1.44-3.217-3.218c0-1.776,1.439-3.218,3.217-3.218
			s3.217,1.441,3.217,3.218C21.879,20.501,20.439,21.941,18.662,21.941z"/>
	</g>
	<g>
		<path fill="#333333" d="M39.256,35.883l0.678-1.574l-2.025-1.808l0.082-1.368l2.074-1.751l-0.637-1.592l-2.709,0.157L35.66,26.87
			l0.227-2.704l-1.578-0.676l-1.803,2.024l-1.355-0.106l-1.75-2.073l-1.594,0.638l0.156,2.706l-1.092,1.083l-2.703-0.227
			l-0.678,1.577l2.027,1.804l-0.031,1.533l-2.074,1.752l0.639,1.591l2.707-0.157l1.008,0.916l-0.229,2.705l1.576,0.676l1.805-2.027
			l1.516,0.021L34.184,40l1.594-0.637l-0.158-2.707l0.934-0.998L39.256,35.883z M30.697,34.074c-1.307-0.562-1.912-2.074-1.35-3.381
			c0.561-1.305,2.074-1.91,3.381-1.348c1.307,0.561,1.908,2.074,1.35,3.381C33.518,34.032,32.002,34.635,30.697,34.074z"/>
	</g>
</g>
</svg>
