<?xml version="1.0" encoding="utf-8"?>
<!-- Generator: Adobe Illustrator 16.1.0, SVG Export Plug-In . SVG Version: 6.00 Build 0)  -->
<!DOCTYPE svg PUBLIC "-//W3C//DTD SVG 1.1//EN" "http://www.w3.org/Graphics/SVG/1.1/DTD/svg11.dtd">
<svg version="1.1" id="Layer_1" xmlns="http://www.w3.org/2000/svg" xmlns:xlink="http://www.w3.org/1999/xlink" x="0px" y="0px"
	 width="48px" height="48px" viewBox="0 0 48 48" enable-background="new 0 0 48 48" xml:space="preserve">
<g>
	<g>
		<path fill="#333333" d="M9.692,20.597c-1.883,0.446-3.045,2.336-2.596,4.216c0.45,1.88,2.336,3.042,4.216,2.591
			c1.877-0.444,3.04-2.331,2.591-4.211C13.458,21.31,11.569,20.147,9.692,20.597z"/>
	</g>
	<g>
		<path fill="#333333" d="M28.692,20.597c-1.882,0.447-3.044,2.336-2.596,4.216c0.449,1.88,2.336,3.041,4.216,2.591
			c1.877-0.445,3.04-2.332,2.591-4.211C32.459,21.311,30.57,20.148,28.692,20.597z"/>
	</g>
	<polygon fill="#666666" points="25,24 20,20.5 20,23 15,23 15,25 20,25 20,27.5 	"/>
</g>
</svg>
