<?xml version="1.0" encoding="utf-8"?>
<!-- Generator: Adobe Illustrator 16.1.0, SVG Export Plug-In . SVG Version: 6.00 Build 0)  -->
<!DOCTYPE svg PUBLIC "-//W3C//DTD SVG 1.1//EN" "http://www.w3.org/Graphics/SVG/1.1/DTD/svg11.dtd">
<svg version="1.1" id="Layer_1" xmlns="http://www.w3.org/2000/svg" xmlns:xlink="http://www.w3.org/1999/xlink" x="0px" y="0px"
	 width="48px" height="48px" viewBox="0 0 48 48" enable-background="new 0 0 48 48" xml:space="preserve">
<rect x="19" y="11" fill="#333333" width="10" height="25"/>
<rect x="30" y="21" fill="#333333" width="10" height="15"/>
<rect x="8" y="16" fill="#333333" width="10" height="20"/>
<g>
	<path fill="#FFFFFF" d="M33.705,30.182c0,0.34,0.055,0.621,0.164,0.844c0.203,0.41,0.571,0.615,1.105,0.615
		c0.327,0,0.613-0.112,0.856-0.337c0.243-0.225,0.365-0.548,0.365-0.97c0-0.559-0.226-0.932-0.678-1.119
		c-0.257-0.105-0.662-0.158-1.215-0.158v-1.195c0.541-0.008,0.918-0.061,1.133-0.158c0.37-0.164,0.555-0.496,0.555-0.996
		c0-0.324-0.095-0.588-0.283-0.791c-0.189-0.203-0.455-0.305-0.798-0.305c-0.394,0-0.683,0.125-0.868,0.375
		s-0.273,0.584-0.266,1.002h-1.559c0.016-0.422,0.088-0.822,0.216-1.201c0.137-0.332,0.352-0.639,0.644-0.92
		c0.219-0.199,0.478-0.352,0.778-0.457c0.301-0.105,0.669-0.158,1.106-0.158c0.812,0,1.466,0.21,1.964,0.63s0.746,0.983,0.746,1.69
		c0,0.5-0.148,0.922-0.445,1.266c-0.188,0.215-0.383,0.361-0.586,0.439c0.152,0,0.371,0.131,0.656,0.393
		c0.426,0.395,0.639,0.934,0.639,1.617c0,0.719-0.249,1.351-0.746,1.896C36.691,32.728,35.955,33,34.979,33
		c-1.202,0-2.037-0.393-2.505-1.178c-0.246-0.418-0.382-0.965-0.41-1.641H33.705z"/>
</g>
<g>
	<path fill="#FFFFFF" d="M10.483,31.33c0.238-0.566,0.801-1.166,1.688-1.799c0.77-0.551,1.268-0.945,1.494-1.184
		c0.348-0.371,0.521-0.777,0.521-1.219c0-0.359-0.1-0.658-0.299-0.896s-0.484-0.357-0.855-0.357c-0.508,0-0.854,0.189-1.037,0.568
		c-0.105,0.219-0.168,0.566-0.188,1.043h-1.623c0.027-0.723,0.158-1.307,0.393-1.752c0.446-0.848,1.237-1.271,2.375-1.271
		c0.899,0,1.615,0.249,2.146,0.747s0.798,1.157,0.798,1.978c0,0.629-0.188,1.188-0.563,1.676c-0.247,0.324-0.652,0.686-1.215,1.084
		l-0.669,0.475c-0.418,0.297-0.705,0.512-0.859,0.645s-0.284,0.287-0.39,0.463h3.709V33h-5.818
		C10.106,32.391,10.237,31.834,10.483,31.33z"/>
</g>
<g>
	<path fill="#FFFFFF" d="M21.291,27.141v-1.137c0.526-0.023,0.894-0.059,1.104-0.105c0.335-0.074,0.608-0.223,0.818-0.445
		c0.144-0.152,0.253-0.355,0.327-0.609c0.043-0.152,0.064-0.266,0.064-0.34H25V33h-1.711v-5.859H21.291z"/>
</g>
</svg>
