<?xml version="1.0" encoding="utf-8"?>
<!-- Generator: Adobe Illustrator 16.1.0, SVG Export Plug-In . SVG Version: 6.00 Build 0)  -->
<!DOCTYPE svg PUBLIC "-//W3C//DTD SVG 1.1//EN" "http://www.w3.org/Graphics/SVG/1.1/DTD/svg11.dtd">
<svg version="1.1" id="Layer_1" xmlns="http://www.w3.org/2000/svg" xmlns:xlink="http://www.w3.org/1999/xlink" x="0px" y="0px"
	 width="48px" height="48px" viewBox="0 0 48 48" enable-background="new 0 0 48 48" xml:space="preserve">
<g>
	<path fill="#333333" d="M37,6L7,6v36h34V9.993L37,6z M15,8h18v8.993L32,18H16l-1-1.007V8z M37,40H11V24h2.995h17.972H37V40z"/>
	<polygon fill="#FFFFFF" points="13.995,24 11,24 11,40 37,40 37,24 31.967,24 	"/>
	<path fill="#FFFFFF" d="M32,18l1-1.007V8H15v8.993L16,18H32z M27,9h4v8h-4V9z"/>
	<rect x="27" y="9" fill="#333333" width="4" height="8"/>
</g>
</svg>
