<?xml version="1.0" encoding="utf-8"?>
<!-- Generator: Adobe Illustrator 15.1.0, SVG Export Plug-In . SVG Version: 6.00 Build 0)  -->
<!DOCTYPE svg PUBLIC "-//W3C//DTD SVG 1.1//EN" "http://www.w3.org/Graphics/SVG/1.1/DTD/svg11.dtd">
<svg version="1.1" id="Layer_1" xmlns="http://www.w3.org/2000/svg" xmlns:xlink="http://www.w3.org/1999/xlink" x="0px" y="0px"
	 width="48px" height="48px" viewBox="0 0 48 48" enable-background="new 0 0 48 48" xml:space="preserve">
<g>
	<path fill="#333333" d="M6,6v36h36V6H6z M40,14v8v1v8v1v8H30h-1H19h-1H8v-8v-1v-8v-1v-8l0,0h10l0,0h1l0,0h10l0,0h1l0,0H40L40,14z"
		/>
	<polygon fill="#666666" points="30,14 29,14 29,22 19,22 19,14 18,14 18,22 8,22 8,23 18,23 18,23 19,23 19,23 29,23 29,23 30,23 
		30,23 40,23 40,22 30,22 	"/>
	<polygon fill="#666666" points="29,31 19,31 18,31 8,31 8,32 18,32 18,40 19,40 19,32 29,32 29,40 30,40 30,32 40,32 40,31 30,31 	
		"/>
	<rect x="8" y="32" fill="#FFFFFF" width="10" height="8"/>
	<rect x="8" y="23" fill="#B2B2B2" width="10" height="8"/>
	<polygon fill="#FFFFFF" points="8,14 18,14 18,14 	"/>
	<rect x="8" y="14" fill="#FFFFFF" width="10" height="8"/>
	<rect x="19" y="32" fill="#FFFFFF" width="10" height="8"/>
	<rect x="19" y="23" fill="#B2B2B2" width="10" height="8"/>
	<polygon fill="#FFFFFF" points="19,14 29,14 29,14 	"/>
	<rect x="19" y="14" fill="#FFFFFF" width="10" height="8"/>
	<rect x="30" y="32" fill="#FFFFFF" width="10" height="8"/>
	<rect x="30" y="23" fill="#B2B2B2" width="10" height="8"/>
	<polygon fill="#FFFFFF" points="30,14 40,14 40,14 	"/>
	<rect x="30" y="14" fill="#FFFFFF" width="10" height="8"/>
	<polygon fill="#989898" points="19,31 19,23 19,23 18,23 18,23 18,31 	"/>
	<polygon fill="#989898" points="30,31 30,23 30,23 29,23 29,23 29,31 	"/>
</g>
<g>
	<path fill="#333333" d="M43.684,29.709c-0.851-1.15-1.752-2.261-2.665-3.359c-0.378-0.452-0.763-0.898-1.146-1.349
		c-0.265-0.312-0.506-0.661-0.856-0.867c-0.076-0.045-0.158-0.086-0.246-0.112c-0.457-0.153-0.978-0.133-1.417,0.066
		c-0.06,0.025-0.117,0.056-0.17,0.09c-0.173,0.114-0.298,0.271-0.368,0.479c-0.109,0.325,0.021,0.71-0.08,1.016
		c-0.031,0.091-0.081,0.157-0.145,0.197c-0.287,0.19-0.851-0.057-1.148-0.039c-0.275,0.013-0.538,0.104-0.764,0.253
		c-0.16,0.105-0.301,0.241-0.413,0.4c-0.152,0.22-0.258,0.521-0.263,0.812c-0.004,0.202,0.186,0.592-0.014,0.724
		c-0.018,0.012-0.038,0.019-0.061,0.028c-0.207,0.063-0.753-0.344-0.972-0.377c-0.323-0.047-0.714-0.083-0.982,0.095
		c-0.007,0.005-0.017,0.011-0.021,0.015c-0.531,0.351-0.755,1.078-0.608,1.722c0.104,0.462,0.433,0.77,0.773,1.06
		c0.004,0.006,0.029,0.041,0.034,0.047c-0.005-0.006,0.002,0.009-0.002,0.004c-0.617-0.524-1.438-1.155-2.099-1.623
		c-0.729-0.515-3.815-2.895-4.733-2.711c-0.166,0.032-0.319,0.103-0.459,0.194c-0.164,0.108-0.306,0.252-0.417,0.414
		c-0.203,0.292-0.297,0.645-0.27,0.999c0.095,1.145,1.575,2.018,2.382,2.59c1.86,1.318,2.391,1.711,4.156,3.153
		c0.595,0.487,2.634,2.269,3.076,2.865c-0.837,0.149-2.252,0.089-3.059,0.622c-0.146,0.098-0.276,0.216-0.375,0.36
		c-0.278,0.399-0.35,0.91-0.192,1.371c0.076,0.225,0.208,0.457,0.389,0.618c0.993,0.882,2.555,0.597,3.76,0.493
		c1.064-0.093,2.12-0.199,3.19-0.211c0.726-0.007,1.45,0.009,2.174-0.022c0.453-0.018,1.339,0.048,1.755-0.228
		c0.018-0.012,0.036-0.025,0.055-0.039c0.258-0.21,0.449-0.712,0.646-0.991c0.269-0.386,0.536-0.771,0.806-1.157
		c0.68-0.977,1.353-1.958,2.038-2.93c0.34-0.479,1.007-1.043,0.835-1.7c-0.18-0.678-0.912-1.235-1.268-1.831
		C44.296,30.44,43.964,30.085,43.684,29.709z"/>
	<path fill="#FFFFFF" d="M45.819,30.87c-0.17-0.196-0.329-0.382-0.422-0.537c-0.193-0.321-0.423-0.607-0.625-0.858
		c-0.098-0.12-0.194-0.241-0.285-0.363c-0.907-1.227-1.873-2.408-2.699-3.401c-0.282-0.339-0.569-0.673-0.854-1.007l-0.301-0.351
		l-0.142-0.174c-0.237-0.29-0.533-0.654-0.97-0.909c-0.126-0.077-0.276-0.147-0.434-0.2c-0.703-0.234-1.484-0.196-2.148,0.104
		c-0.106,0.048-0.21,0.104-0.307,0.168c-0.363,0.24-0.628,0.584-0.765,0.995c-0.063,0.181-0.087,0.357-0.097,0.517
		c-0.121-0.018-0.249-0.029-0.384-0.021c-0.447,0.021-0.884,0.166-1.261,0.415c-0.268,0.177-0.497,0.4-0.681,0.664
		c-0.185,0.263-0.316,0.571-0.387,0.89c-0.493-0.044-0.993,0.09-1.457,0.391l0,0c-0.409,0.271-0.721,0.622-0.927,1.017
		c-0.014-0.011-0.027-0.02-0.042-0.029c-0.091-0.065-0.22-0.16-0.378-0.274c-2.916-2.133-4.211-2.79-5.131-2.605
		c-0.288,0.059-0.564,0.173-0.817,0.341c-0.268,0.178-0.5,0.405-0.688,0.678c-0.332,0.477-0.49,1.064-0.444,1.648
		c0.123,1.484,1.557,2.468,2.506,3.118c0.104,0.073,0.203,0.142,0.292,0.205c1.848,1.311,2.361,1.692,4.102,3.111
		c0.373,0.306,0.977,0.829,1.542,1.343c-0.509,0.096-1.015,0.253-1.441,0.535c-0.26,0.172-0.478,0.382-0.645,0.623
		c-0.46,0.659-0.579,1.507-0.316,2.269c0.102,0.295,0.301,0.714,0.669,1.041c1.206,1.071,2.873,0.902,4.091,0.782
		c0.144-0.016,0.283-0.028,0.42-0.041l0.478-0.041c0.907-0.082,1.766-0.157,2.637-0.167c0.224-0.002,0.45-0.002,0.676-0.003
		c0.51,0.001,1.019,0.001,1.528-0.019c0.076-0.004,0.17-0.004,0.272-0.005c0.595-0.001,1.408-0.004,1.991-0.389
		c0.048-0.032,0.095-0.066,0.137-0.103c0.317-0.256,0.52-0.628,0.68-0.927c0.054-0.097,0.101-0.189,0.151-0.26l0.808-1.162
		l0.746-1.074c0.43-0.617,0.857-1.235,1.29-1.851c0.06-0.083,0.136-0.172,0.21-0.265c0.391-0.471,1.038-1.257,0.773-2.265
		C46.604,31.783,46.186,31.297,45.819,30.87z M45.807,32.679c0.174,0.657-0.493,1.221-0.834,1.701
		c-0.684,0.973-1.357,1.952-2.037,2.928c-0.27,0.387-0.536,0.771-0.807,1.158c-0.196,0.28-0.387,0.78-0.647,0.992
		c-0.016,0.012-0.033,0.026-0.053,0.037c-0.416,0.275-1.302,0.21-1.755,0.228c-0.725,0.031-1.448,0.017-2.175,0.023
		c-1.068,0.011-2.126,0.119-3.188,0.211c-1.206,0.104-2.768,0.389-3.763-0.493c-0.179-0.161-0.309-0.394-0.387-0.618
		c-0.158-0.461-0.085-0.972,0.191-1.372c0.102-0.143,0.229-0.261,0.378-0.36c0.805-0.532,2.221-0.472,3.057-0.622
		c-0.442-0.596-2.481-2.377-3.077-2.864c-1.765-1.442-2.298-1.835-4.156-3.153c-0.805-0.573-2.286-1.445-2.381-2.589
		c-0.026-0.354,0.066-0.708,0.269-1c0.113-0.161,0.256-0.303,0.418-0.41c0.139-0.092,0.295-0.159,0.461-0.193
		c0.919-0.184,4.007,2.2,4.737,2.716c0.661,0.467,1.486,1.106,2.104,1.632c-0.341-0.29-0.712-0.663-0.816-1.127
		c-0.146-0.644,0.077-1.371,0.608-1.722c0.007-0.006,0.015-0.01,0.021-0.015c0.267-0.178,0.657-0.142,0.981-0.094
		c0.22,0.032,0.722,0.376,0.929,0.309c0.022-0.005,0.065,0.019,0.082,0.007c0.198-0.13,0.021-0.504,0.025-0.706
		c0.005-0.291,0.115-0.585,0.269-0.804c0.112-0.159,0.255-0.292,0.415-0.398c0.226-0.148,0.49-0.237,0.765-0.249
		c0.298-0.018,0.863,0.229,1.15,0.039c0.063-0.04,0.113-0.106,0.144-0.197c0.102-0.304-0.029-0.689,0.082-1.015
		c0.067-0.208,0.196-0.364,0.367-0.479c0.053-0.033,0.11-0.064,0.17-0.091c0.438-0.199,0.96-0.219,1.418-0.066
		c0.086,0.028,0.169,0.068,0.245,0.114c0.351,0.206,0.59,0.556,0.855,0.866c0.383,0.45,0.769,0.897,1.146,1.351
		c0.914,1.1,1.818,2.208,2.666,3.358c0.279,0.376,0.611,0.732,0.855,1.138C44.896,31.442,45.628,32.001,45.807,32.679z"/>
</g>
</svg>
