<?xml version="1.0" encoding="utf-8"?>
<!-- Generator: Adobe Illustrator 16.1.0, SVG Export Plug-In . SVG Version: 6.00 Build 0)  -->
<!DOCTYPE svg PUBLIC "-//W3C//DTD SVG 1.1//EN" "http://www.w3.org/Graphics/SVG/1.1/DTD/svg11.dtd">
<svg version="1.1" id="Layer_1" xmlns="http://www.w3.org/2000/svg" xmlns:xlink="http://www.w3.org/1999/xlink" x="0px" y="0px"
	 width="48px" height="48px" viewBox="0 0 48 48" enable-background="new 0 0 48 48" xml:space="preserve">
<rect x="30" y="32" fill="#FFFFFF" width="10" height="8"/>
<g>
	<path fill="#333333" d="M6,6v36h36V6H6z M40,14v8v1v8v9H29H19h-1H8v-8v-1v-8v-1v-8v0h10l0,0h1l0,0h10l0,0h1l0,0L40,14L40,14z"/>
	<polygon fill="#666666" points="19,31 19,23 19,22 19,14 18,14 18,22 8,22 8,23 18,23 18,31 8,31 8,32 18,32 18,40 19,40 19,32 	
		"/>
	<polygon fill="#666666" points="30,14 29,14 29,22 29,23 29,31 29,32 29,40 40,40 40,31 30,31 30,23 40,23 40,22 30,22 	"/>
	<rect x="8" y="32" fill="#FFFFFF" width="10" height="8"/>
	<rect x="8" y="23" fill="#FFFFFF" width="10" height="8"/>
	<rect x="8" y="14" fill="#FFFFFF" width="10" height="0"/>
	<rect x="8" y="14" fill="#FFFFFF" width="10" height="8"/>
	<rect x="19" y="32" fill="#B2B2B2" width="10" height="8"/>
	<rect x="19" y="23" fill="#B2B2B2" width="10" height="8"/>
	<rect x="19" y="14" fill="#B2B2B2" width="10" height="0"/>
	<rect x="19" y="14" fill="#B2B2B2" width="10" height="8"/>
	<rect x="30" y="23" fill="#FFFFFF" width="10" height="8"/>
	<rect x="30" y="14" fill="#FFFFFF" width="10" height="0"/>
	<rect x="30" y="14" fill="#FFFFFF" width="10" height="8"/>
	<rect x="19" y="22" fill="#989898" width="10" height="1"/>
	<rect x="19" y="31" fill="#989898" width="10" height="1"/>
</g>
<g>
	<path fill="#333333" d="M41.782,38.076c-0.075-1.428-0.216-2.852-0.373-4.271c-0.065-0.586-0.14-1.171-0.212-1.758
		c-0.049-0.406-0.056-0.83-0.236-1.195c-0.038-0.08-0.085-0.158-0.142-0.23c-0.297-0.379-0.743-0.65-1.219-0.726
		c-0.065-0.011-0.129-0.017-0.192-0.017c-0.207,0-0.398,0.061-0.571,0.195c-0.271,0.211-0.374,0.604-0.626,0.803
		c-0.077,0.061-0.154,0.086-0.23,0.086c-0.344,0-0.678-0.515-0.937-0.666c-0.237-0.14-0.506-0.21-0.776-0.21
		c-0.192,0-0.384,0.036-0.566,0.107c-0.248,0.099-0.503,0.292-0.667,0.532c-0.114,0.167-0.171,0.596-0.41,0.596
		c-0.021,0-0.042-0.003-0.066-0.01c-0.208-0.06-0.439-0.7-0.604-0.849C33.712,30.245,33.406,30,33.084,30c-0.009,0-0.019,0-0.028,0
		c-0.635,0-1.221,0.485-1.454,1.101c-0.169,0.444-0.064,0.882,0.06,1.312c0.001,0.006,0.003,0.05,0.004,0.055
		c-0.001-0.005-0.003,0.011-0.004,0.005c-0.226-0.778-0.563-1.757-0.857-2.511c-0.325-0.832-1.587-4.519-2.455-4.872
		c-0.157-0.064-0.323-0.091-0.491-0.091c-0.195,0-0.392,0.042-0.576,0.116c-0.33,0.131-0.604,0.374-0.774,0.685
		c-0.552,1.006,0.201,2.552,0.559,3.474c0.824,2.125,1.051,2.746,1.729,4.921c0.229,0.735,0.948,3.345,0.988,4.087
		c-0.781-0.337-1.928-1.167-2.894-1.167c-0.178,0-0.351,0.028-0.513,0.093c-0.451,0.18-0.794,0.568-0.916,1.039
		c-0.059,0.23-0.079,0.496-0.017,0.73c0.343,1.283,1.803,1.906,2.866,2.484c0.938,0.51,1.879,1.002,2.778,1.582
		c0.608,0.395,1.205,0.807,1.826,1.18c0.388,0.235,1.091,0.778,1.589,0.778c0.022,0,0.044-0.001,0.066-0.003
		c0.333-0.033,0.769-0.346,1.086-0.471c0.438-0.174,0.874-0.348,1.311-0.521c1.105-0.439,2.208-0.887,3.315-1.32
		c0.549-0.213,1.416-0.316,1.634-0.959c0.225-0.664-0.078-1.533-0.048-2.227C41.889,39.025,41.808,38.545,41.782,38.076z"/>
	<path fill="#FFFFFF" d="M42.924,40.223c-0.033-0.258-0.064-0.501-0.056-0.681c0.016-0.376-0.019-0.74-0.049-1.062
		c-0.015-0.153-0.029-0.307-0.038-0.458c-0.08-1.525-0.235-3.044-0.377-4.327c-0.049-0.438-0.103-0.874-0.157-1.312l-0.057-0.458
		l-0.023-0.222c-0.038-0.374-0.084-0.839-0.308-1.294c-0.062-0.133-0.15-0.275-0.252-0.406c-0.457-0.583-1.131-0.982-1.85-1.096
		c-0.115-0.02-0.232-0.029-0.348-0.029c-0.436,0-0.846,0.141-1.187,0.407c-0.151,0.118-0.269,0.251-0.364,0.378
		c-0.092-0.082-0.193-0.162-0.308-0.229c-0.385-0.228-0.829-0.348-1.282-0.348c-0.321,0-0.636,0.06-0.934,0.178
		s-0.579,0.303-0.812,0.529c-0.388-0.308-0.88-0.473-1.431-0.476h0c-0.491,0-0.947,0.12-1.335,0.336
		c-0.006-0.017-0.012-0.032-0.018-0.048c-0.041-0.104-0.096-0.253-0.164-0.436c-1.258-3.387-1.976-4.649-2.845-5.003
		C28.456,24.057,28.163,24,27.859,24c-0.321,0-0.64,0.062-0.948,0.186c-0.54,0.214-0.995,0.616-1.278,1.13
		c-0.717,1.307-0.063,2.919,0.37,3.985c0.048,0.117,0.093,0.229,0.132,0.331c0.819,2.112,1.038,2.713,1.707,4.857
		c0.143,0.46,0.357,1.23,0.545,1.97c-0.477-0.2-0.985-0.348-1.496-0.348c-0.313,0-0.61,0.055-0.883,0.164
		c-0.747,0.298-1.312,0.939-1.514,1.718c-0.077,0.304-0.142,0.762-0.015,1.238c0.416,1.558,1.899,2.338,2.982,2.907
		c0.128,0.067,0.252,0.133,0.372,0.198l0.422,0.229c0.802,0.433,1.56,0.843,2.292,1.314c0.188,0.122,0.376,0.247,0.564,0.371
		c0.425,0.282,0.851,0.563,1.288,0.826c0.064,0.039,0.143,0.091,0.229,0.147c0.497,0.327,1.176,0.773,1.875,0.773
		c0.058,0,0.115-0.003,0.171-0.009c0.406-0.04,0.779-0.239,1.078-0.399c0.097-0.051,0.188-0.103,0.27-0.135l1.314-0.523l1.215-0.485
		c0.698-0.279,1.396-0.559,2.095-0.833c0.096-0.036,0.208-0.069,0.323-0.105c0.583-0.178,1.558-0.476,1.893-1.463
		C43.076,41.417,42.995,40.782,42.924,40.223z M41.917,41.725c-0.218,0.643-1.085,0.746-1.634,0.959
		c-1.107,0.434-2.21,0.881-3.315,1.32c-0.437,0.174-0.873,0.348-1.311,0.521c-0.317,0.125-0.753,0.438-1.086,0.471
		c-0.021,0.002-0.043,0.003-0.066,0.003c-0.498,0-1.201-0.543-1.589-0.778c-0.621-0.373-1.217-0.785-1.826-1.18
		c-0.899-0.58-1.84-1.072-2.778-1.582c-1.063-0.578-2.523-1.201-2.866-2.484c-0.062-0.234-0.042-0.5,0.017-0.73
		c0.122-0.471,0.465-0.859,0.916-1.039c0.163-0.064,0.335-0.093,0.513-0.093c0.966,0,2.113,0.83,2.894,1.167
		c-0.041-0.742-0.76-3.352-0.988-4.087c-0.678-2.175-0.905-2.796-1.729-4.921c-0.357-0.922-1.111-2.467-0.559-3.473
		c0.171-0.311,0.444-0.554,0.774-0.685C27.468,25.04,27.664,25,27.859,25c0.167,0,0.334,0.029,0.491,0.094
		c0.868,0.354,2.13,4.045,2.455,4.877c0.294,0.754,0.631,1.742,0.857,2.521c-0.125-0.43-0.229-0.946-0.06-1.391
		C31.835,30.485,32.421,30,33.056,30c0.01,0,0.019,0,0.028,0c0.321,0,0.627,0.245,0.87,0.464c0.166,0.148,0.396,0.71,0.604,0.769
		c0.023,0.008,0.045,0.05,0.066,0.05c0.238,0,0.296-0.408,0.41-0.575c0.164-0.24,0.419-0.424,0.667-0.522
		c0.182-0.071,0.374-0.103,0.566-0.103c0.271,0,0.54,0.072,0.776,0.212c0.259,0.151,0.593,0.668,0.937,0.668
		c0.077,0,0.154-0.025,0.23-0.086c0.252-0.198,0.355-0.591,0.626-0.802c0.173-0.135,0.365-0.195,0.571-0.195
		c0.062,0,0.127,0.006,0.192,0.017c0.476,0.075,0.922,0.347,1.219,0.726c0.057,0.072,0.104,0.15,0.142,0.23
		c0.18,0.365,0.187,0.789,0.236,1.195c0.072,0.587,0.147,1.172,0.212,1.758c0.157,1.42,0.298,2.844,0.373,4.271
		c0.025,0.469,0.106,0.949,0.086,1.422C41.838,40.191,42.141,41.061,41.917,41.725z"/>
</g>
</svg>
