<?xml version="1.0" encoding="utf-8"?>
<!-- Generator: Adobe Illustrator 22.0.1, SVG Export Plug-In . SVG Version: 6.00 Build 0)  -->
<svg version="1.1" id="Layer_1" xmlns="http://www.w3.org/2000/svg" xmlns:xlink="http://www.w3.org/1999/xlink" x="0px" y="0px"
	 viewBox="-102.5 271.5 48 48" enable-background="new -102.5 271.5 48 48" xml:space="preserve">
<g>
	<path fill="#333333" d="M-82.654,274.729h-1.385v12.463h1.385v5.539h-2.769v5.539h2.769v5.539h-2.769v5.539h2.769v6.924h19.386
		v-41.542H-82.654z M-66.037,277.499v11.078v1.385v11.078v1.385v11.078h-6.924h-1.385h-6.924v-11.078v-1.385v-11.078v-1.385v-11.078
		l0,0h6.924l0,0h1.385l0,0H-66.037L-66.037,277.499z"/>
	<polygon fill="#666666" points="-72.961,277.499 -74.346,277.499 -74.346,288.576 -81.269,288.576 -81.269,289.961 
		-74.346,289.961 -74.346,301.039 -81.269,301.039 -81.269,302.424 -74.346,302.424 -74.346,313.501 -72.961,313.501 
		-72.961,302.424 -66.037,302.424 -66.037,301.039 -72.961,301.039 -72.961,289.961 -66.037,289.961 -66.037,288.576 
		-72.961,288.576 	"/>
	<rect x="-72.961" y="302.424" fill="#FFFFFF" width="6.924" height="11.078"/>
	<rect x="-81.269" y="302.424" fill="#FFFFFF" width="6.924" height="11.078"/>
	<rect x="-72.961" y="289.961" fill="#FFFFFF" width="6.924" height="11.078"/>
	<rect x="-81.269" y="289.961" fill="#FFFFFF" width="6.924" height="11.078"/>
	<rect x="-72.961" y="277.499" fill="#FFFFFF" width="6.924" height="11.078"/>
	<rect x="-81.269" y="277.499" fill="#FFFFFF" width="6.924" height="11.078"/>
	<polygon fill="#333333" points="-88.193,292.731 -88.193,287.192 -90.963,287.192 -92.347,287.192 -92.347,289.961 
		-92.347,290.192 -92.347,301.039 -92.347,302.424 -92.347,313.501 -92.347,316.271 -90.963,316.271 -88.193,316.271 
		-88.193,309.347 -90.963,309.347 -90.963,303.808 -88.193,303.808 -88.193,298.269 -90.963,298.269 -90.963,292.731 	"/>
	<rect x="-93.732" y="287.192" fill="#333333" width="2.769" height="29.079"/>
</g>
</svg>
