<?xml version="1.0" encoding="utf-8"?>
<!-- Generator: Adobe Illustrator 24.0.2, SVG Export Plug-In . SVG Version: 6.00 Build 0)  -->
<svg version="1.1" id="Layer_1" xmlns="http://www.w3.org/2000/svg" xmlns:xlink="http://www.w3.org/1999/xlink" x="0px" y="0px"
	 viewBox="0 0 48 48" style="enable-background:new 0 0 48 48;" xml:space="preserve">
<style type="text/css" id="current-color-scheme">
* { color: #333; }
.ColorScheme-Text { color: #333; }
.ColorScheme-DisabledText { color: #555; }
.ColorScheme-ViewBackground { color: #fff; }
.ColorScheme-Contrast { color: #fff; }
</style>
<g>
	<rect x="36.8" y="4.5" class="ColorScheme-Text" fill="currentColor" opacity="0.4" width="9.7" height="39"/>
    <g class="ColorScheme-ViewBackground" style="fill:currentColor">
	<rect x="38.2" y="5.9" class="st1" width="6.9" height="11.1"/>
	<rect x="38.2" y="18.5" class="st1" width="6.9" height="11.1"/>
	<rect x="38.2" y="31" class="st1" width="6.9" height="11.1"/>
    </g>
</g>
<g>
	<rect x="26.6" y="4.5" class="ColorScheme-Text" fill="currentColor" opacity="0.4" width="9.7" height="39"/>
    <g class="ColorScheme-ViewBackground" style="fill:currentColor">
	<rect x="28.1" y="5.9" class="st1" width="6.9" height="11.1"/>
	<rect x="28.1" y="18.5" class="st1" width="6.9" height="11.1"/>
	<rect x="28.1" y="31" class="st1" width="6.9" height="11.1"/>
    </g>
</g>
<g>
	<rect x="16.4" y="4.5" class="ColorScheme-Text" fill="currentColor" opacity="0.4" width="9.7" height="39"/>
    <g class="ColorScheme-ViewBackground" style="fill:currentColor">
	<rect x="17.9" y="5.9" class="st1" width="6.9" height="11.1"/>
	<rect x="17.9" y="18.5" class="st1" width="6.9" height="11.1"/>
	<rect x="17.9" y="31" class="st1" width="6.9" height="11.1"/>
    </g>
</g>
<g>
	<rect x="0.9" y="4.5" class="ColorScheme-Text" fill="currentColor" width="9.7" height="39"/>
    <g class="ColorScheme-ViewBackground" style="fill:currentColor">
	<rect x="2.3" y="5.9" class="st1" width="6.9" height="11.1"/>
	<rect x="2.3" y="18.5" class="st1" width="6.9" height="11.1"/>
	<rect x="2.3" y="31" class="st1" width="6.9" height="11.1"/>
    </g>
</g>
</svg>
