<?xml version="1.0" encoding="utf-8"?>
<!-- Generator: Adobe Illustrator 15.1.0, SVG Export Plug-In . SVG Version: 6.00 Build 0)  -->
<!DOCTYPE svg PUBLIC "-//W3C//DTD SVG 1.1//EN" "http://www.w3.org/Graphics/SVG/1.1/DTD/svg11.dtd">
<svg version="1.1" id="Layer_1" xmlns="http://www.w3.org/2000/svg" xmlns:xlink="http://www.w3.org/1999/xlink" x="0px" y="0px"
	 width="48px" height="48px" viewBox="0 0 48 48" enable-background="new 0 0 48 48" xml:space="preserve">
<defs>
<style type="text/css" id="current-color-scheme">
* { color: #333; }
.ColorScheme-Text { color: #333; }
.ColorScheme-Background { color: #fff; }
</style>
</defs>
<g>
	<path class="ColorScheme-Background" fill="currentColor" stroke="none" d="M38.271,12.665v24.656
		c0,2.27-6.389,4.109-14.272,4.109c-7.882,0-14.271-1.84-14.271-4.109V12.665c0-2.27,6.39-4.11,14.271-4.11
		C31.883,8.555,38.271,10.395,38.271,12.665z"/>
	<path class="ColorScheme-Text" stroke="currentColor" fill="none" stroke-width="2" stroke-miterlimit="10" d="M38.271,12.665v24.656
		c0,2.27-6.389,4.109-14.272,4.109c-7.882,0-14.271-1.84-14.271-4.109V12.665c0-2.27,6.39-4.11,14.271-4.11
		C31.883,8.555,38.271,10.395,38.271,12.665z"/>
	<path class="ColorScheme-Text" stroke="currentColor" fill="none" stroke-miterlimit="10" d="M38.271,20.884c0,2.27-6.389,4.109-14.272,4.109
		c-7.882,0-14.271-1.84-14.271-4.109"/>
	<path class="ColorScheme-Text" stroke="currentColor" fill="none" stroke-miterlimit="10" d="M38.271,29.103c0,2.27-6.389,4.109-14.272,4.109
		c-7.882,0-14.271-1.84-14.271-4.109"/>
	<path class="ColorScheme-Background" fill="currentColor" stroke="none" d="M38.271,13.047c0,2.27-6.389,4.109-14.272,4.109
		c-7.882,0-14.271-1.84-14.271-4.109"/>
	<path class="ColorScheme-Text" stroke="currentColor" fill="none" stroke-width="2" stroke-miterlimit="10" d="M38.271,13.047c0,2.27-6.389,4.109-14.272,4.109
		c-7.882,0-14.271-1.84-14.271-4.109"/>
</g>
</svg>
