<?xml version="1.0" encoding="utf-8"?>
<!-- Generator: Adobe Illustrator 23.0.4, SVG Export Plug-In . SVG Version: 6.00 Build 0)  -->
<svg version="1.1" id="Layer_1" xmlns="http://www.w3.org/2000/svg" xmlns:xlink="http://www.w3.org/1999/xlink" x="0px" y="0px"
	 viewBox="0 0 48 48" style="enable-background:new 0 0 48 48;" xml:space="preserve">
<defs>
<style type="text/css" id="current-color-scheme">
* { color: #333; }
.ColorScheme-Text { color: #333; }
.ColorScheme-Background { color: #fff; }
</style>
</defs>
<g>
	<rect class="ColorScheme-Background" fill="currentColor" x="7" y="10.7" width="34.1" height="30.6"/>
	<path class="ColorScheme-Text" fill="currentColor" d="M6,6v36h36V6H6z M40,22L40,22v1l0,0v8l0,0v1l0,0v8l0,0H30h-1H19h-1H8l0,0V14l0,0h10h1h10h1h10l0,0V22z"/>
	<g class="ColorScheme-Background" fill="currentColor">
	</g>
	<g class="ColorScheme-Text" fill="currentColor">
		<path d="M36.7,27.5l-2.4,1c-1.7-4-5.6-6.8-9.9-7.1l0.2-2.6C29.8,19.1,34.6,22.5,36.7,27.5z"/>
		<polygon points="26.1,24.1 18.7,21.1 25,16.3 			"/>
	</g>
	<g class="ColorScheme-Text" fill="currentColor">
		<path d="M23.8,35.2c-5.4-0.3-10.2-3.7-12.2-8.7l2.4-1c1.7,4,5.6,6.8,9.9,7.1L23.8,35.2z"/>
		<polygon points="22.2,29.9 29.6,32.9 23.3,37.7 			"/>
	</g>
</g>
</svg>
