<?xml version="1.0" encoding="utf-8"?>
<!-- Generator: Adobe Illustrator 16.1.0, SVG Export Plug-In . SVG Version: 6.00 Build 0)  -->
<!DOCTYPE svg PUBLIC "-//W3C//DTD SVG 1.1//EN" "http://www.w3.org/Graphics/SVG/1.1/DTD/svg11.dtd">
<svg version="1.1" id="Layer_1" xmlns="http://www.w3.org/2000/svg" xmlns:xlink="http://www.w3.org/1999/xlink" x="0px" y="0px"
	 width="48px" height="48px" viewBox="0 0 48 48" enable-background="new 0 0 48 48" xml:space="preserve">
<g>
	<g>
		<path fill="#333333" d="M29.385,19.796v-2.145l-3.217-1.072l-0.58-1.613l1.518-3.033l-1.516-1.515l-3.033,1.516l-1.75-0.717
			L19.734,8H17.59l-1.072,3.217l-1.609,0.547l-3.033-1.518l-1.518,1.516l1.518,3.033l-0.721,1.784l-3.217,1.072v2.144l3.217,1.074
			l0.723,1.775l-1.52,3.034l1.518,1.515l3.033-1.516l1.609,0.553l1.072,3.219h2.143l1.074-3.219l1.75-0.722l3.033,1.519l1.516-1.516
			l-1.516-3.034l0.578-1.608L29.385,19.796z M18.662,21.941c-1.777,0-3.217-1.44-3.217-3.218c0-1.776,1.439-3.218,3.217-3.218
			s3.217,1.441,3.217,3.218C21.879,20.501,20.439,21.941,18.662,21.941z"/>
	</g>
</g>
</svg>
