<?xml version="1.0" encoding="utf-8"?>
<!-- Generator: Adobe Illustrator 16.1.0, SVG Export Plug-In . SVG Version: 6.00 Build 0)  -->
<!DOCTYPE svg PUBLIC "-//W3C//DTD SVG 1.1//EN" "http://www.w3.org/Graphics/SVG/1.1/DTD/svg11.dtd">
<svg version="1.1" id="Layer_1" xmlns="http://www.w3.org/2000/svg" xmlns:xlink="http://www.w3.org/1999/xlink" x="0px" y="0px"
	 width="48px" height="48px" viewBox="0 0 48 48" enable-background="new 0 0 48 48" xml:space="preserve">
<g fill="white">
	<path d="M27.999,6H13.001H11v2v32v2h2.001h22.002H37v-2V16v-2.002L27.999,6z M13.001,40V8h11.998c2.001,0,3,4.001,2.001,8
		c0,0,8.003-3.124,8.003,0.998V40H13.001z"/>
	<g>
		<path d="M19.99,27.094c0.03-0.77,0.331-1.953,0.659-2.533c0.718-0.329,1.959-0.55,3.145-0.55c0.719,0,1.708,0.108,2.176,0.302
			v10.743c0.578,0.081,1.487,0.274,1.955,0.495c0.085,0.302,0.136,0.965,0.136,1.541c0,0.223,0,0.414-0.025,0.607h-8.096
			c0.051-0.661,0.246-1.57,0.438-2.01c0.387-0.305,1.05-0.578,1.599-0.771v-7.824H19.99z"/>
		<path d="M26.433,19.401c0,1.904-1.16,2.967-2.801,2.967c-1.869,0-2.87-1.033-2.87-2.967c0-1.677,1.194-2.772,2.87-2.772
			C25.272,16.629,26.433,17.63,26.433,19.401z"/>
	</g>
</g>
</svg>
