<?xml version="1.0" encoding="utf-8"?>
<!-- Generator: Adobe Illustrator 16.1.0, SVG Export Plug-In . SVG Version: 6.00 Build 0)  -->
<!DOCTYPE svg PUBLIC "-//W3C//DTD SVG 1.1//EN" "http://www.w3.org/Graphics/SVG/1.1/DTD/svg11.dtd">
<svg version="1.1" id="Layer_1" xmlns="http://www.w3.org/2000/svg" xmlns:xlink="http://www.w3.org/1999/xlink" x="0px" y="0px"
	 width="48px" height="48px" viewBox="0 0 48 48" enable-background="new 0 0 48 48" xml:space="preserve">
<path fill="white" d="M24,6C14.06,6,6,14.06,6,24.002C6,33.942,14.06,42,24,42s18-8.058,18-17.998C42,14.06,33.94,6,24,6z M24,38.897
	c-8.215,0-14.897-6.683-14.897-14.896c0-8.215,6.683-14.897,14.897-14.897c8.21,0,14.896,6.683,14.896,14.897
	C38.896,32.215,32.21,38.897,24,38.897z M21.852,35.804h4.63v-4.479h-4.63V35.804z M29.591,14.406
	c-1.543-1.118-3.481-1.675-5.818-1.675c-1.776,0-3.272,0.394-4.492,1.178c-1.934,1.228-2.96,3.314-3.085,6.26h4.477
	c0-0.858,0.253-1.683,0.75-2.478c0.504-0.797,1.35-1.194,2.543-1.194c1.216,0,2.053,0.323,2.512,0.969
	c0.459,0.646,0.691,1.36,0.691,2.145c0,0.682-0.207,1.307-0.619,1.876c-0.228,0.329-0.527,0.636-0.895,0.914l-1.13,0.884
	c-1.111,0.866-1.802,1.634-2.07,2.299c-0.266,0.667-0.434,1.874-0.495,3.619h4.199c0.013-0.827,0.081-1.435,0.199-1.828
	c0.196-0.62,0.595-1.162,1.192-1.627l1.096-0.853c1.111-0.867,1.866-1.581,2.257-2.138c0.667-0.918,1.001-2.051,1.001-3.394
	C31.905,17.173,31.135,15.52,29.591,14.406z"/>
</svg>
