<?xml version="1.0" encoding="utf-8"?>
<!-- Generator: Adobe Illustrator 16.1.0, SVG Export Plug-In . SVG Version: 6.00 Build 0)  -->
<!DOCTYPE svg PUBLIC "-//W3C//DTD SVG 1.1//EN" "http://www.w3.org/Graphics/SVG/1.1/DTD/svg11.dtd">
<svg version="1.1" id="Layer_1" xmlns="http://www.w3.org/2000/svg" xmlns:xlink="http://www.w3.org/1999/xlink" x="0px" y="0px"
	 width="48px" height="48px" viewBox="0 0 48 48" enable-background="new 0 0 48 48" xml:space="preserve">
<g fill="white">
	<path d="M9.217,9.213C7.143,11.284,6.004,14.039,6,16.971c0.004,2.933,1.143,5.686,3.217,7.757
		c2.069,2.072,4.824,3.213,7.757,3.213c2.932,0,5.687-1.141,7.761-3.213c4.275-4.275,4.271-11.235-0.005-15.515
		C20.45,4.936,13.492,4.936,9.217,9.213z M21.99,11.954c1.336,1.337,2.074,3.12,2.074,5.015c0,1.899-0.742,3.681-2.078,5.02
		c-2.763,2.764-7.263,2.762-10.03-0.002c-1.34-1.335-2.073-3.116-2.073-5.013c0-1.899,0.733-3.681,2.073-5.018l0.004-0.002
		c1.336-1.338,3.116-2.074,5.018-2.074C18.87,9.88,20.655,10.616,21.99,11.954z"/>
	<path d="M27.345,27.341c-0.485,0.487-1.015,0.919-1.564,1.281l-1.243,0.82l11.535,11.537c1.355,1.354,3.558,1.355,4.913,0.002
		C41.639,40.325,42,39.451,42,38.524c0-0.929-0.361-1.799-1.015-2.45L29.446,24.535l-0.822,1.239
		C28.255,26.334,27.83,26.857,27.345,27.341z"/>
</g>
</svg>
