<?xml version="1.0" encoding="utf-8"?>
<!-- Generator: Adobe Illustrator 16.1.0, SVG Export Plug-In . SVG Version: 6.00 Build 0)  -->
<!DOCTYPE svg PUBLIC "-//W3C//DTD SVG 1.1//EN" "http://www.w3.org/Graphics/SVG/1.1/DTD/svg11.dtd">
<svg version="1.1" id="Layer_1" xmlns="http://www.w3.org/2000/svg" xmlns:xlink="http://www.w3.org/1999/xlink" x="0px" y="0px"
	 width="48px" height="48px" viewBox="0 0 48 48" enable-background="new 0 0 48 48" xml:space="preserve">
<g fill="white">
	<path d="M28.34,38.09c1.755,0.114,4.137,0.453,5.607,0.793c0.398,1.248,0.508,4.023,0.285,5.215H13.539
		c0.115-1.417,0.855-3.913,1.362-5.044c1.077-0.34,3.402-0.793,4.702-0.964V9.233h-6.291c-0.109,1.191-0.451,3.457-0.736,4.591
		c-2.04,0.679-4.645,0.795-6.576,0.795V3.902h36v10.886c-2.154,0-4.707-0.226-6.633-0.793c-0.342-1.248-0.68-3.402-0.793-4.762
		H28.34V38.09z"/>
</g>
</svg>
